<svg xmlns="http://www.w3.org/2000/svg" width="96" height="96" viewBox="0 0 95.64 96"><defs><style>.cls-1{fill:#302d2c;fill-rule:evenodd;}</style></defs><title>Ресурс 1</title><g id="Слой_2" data-name="Слой 2"><g id="Слой_1-2" data-name="Слой 1"><path class="cls-1" d="M58.51,50.22a36,36,0,0,1,4.39-1.53A8.18,8.18,0,0,0,58.51,50.22Z"/><path class="cls-1" d="M62.23,49.36c-1.38,0-3.73,1-4.11,1.72C59.2,50.21,60.81,49.88,62.23,49.36Z"/><path class="cls-1" d="M59.46,52.79c-.49.46-1,1-1.53,1.53s-1.15,1-1.24,1.62a19.62,19.62,0,0,1,3.44-3.25C59.8,52.62,59.76,52.84,59.46,52.79Z"/><path class="cls-1" d="M51.35,33.22c.37,0,.39-.88.29-1.05A3.94,3.94,0,0,0,51.35,33.22Z"/><path class="cls-1" d="M49.92,38.28c.14-.08.14-.31.19-.48-.46.08-.38.71-.76.86-.38-.51-.64.67-1.24.57,0,.75-1,1.52-.29,2.1-.12.17-.36.78,0,.86,0,0,.14-.46.19-.19a4.24,4.24,0,0,0-.19,1.05c.11,0,.27,0,.29.09-.06.31-.43,1-.1,1.15a6.14,6.14,0,0,0,.57-1.62c-.14,0-.35,0-.38-.09,0-.35.24-.46.29-.76-.24-.16-.33.11-.48-.1-.05-.53.32-.63.48-1-.24-.19-.44.1-.57-.1.29-1.43,1.94-1.49,2.58-2.58C50.13,37.93,50.05,38.53,49.92,38.28Z"/><path class="cls-1" d="M49.06,69.79c.25-.36,0-1.25.19-1.62-.22-.48-.05-1.35-.38-1.72A17,17,0,0,1,49.06,69.79Z"/><path class="cls-1" d="M48.67,56c.06-.51.65-1,.38-1.53A1.46,1.46,0,0,0,48.67,56Z"/><path class="cls-1" d="M48.58,57.57c.15-.47.73-1.26.38-1.62C48.76,56.35,48.3,57,48.58,57.57Z"/><path class="cls-1" d="M48.67,54.32c.06-.41.49-.87.29-1.24-.31-.12-.07.31-.38.19C48.64,53.59,48.46,54.16,48.67,54.32Z"/><path class="cls-1" d="M48.87,49.93h-.38c0,.53-.53,1.23-.1,1.62C48.48,50.94,48.81,50.57,48.87,49.93Z"/><path class="cls-1" d="M48.39,53a11.84,11.84,0,0,0,.48-1.43C48.2,51.46,48.19,52.53,48.39,53Z"/><path class="cls-1" d="M48.39,43.82a4.34,4.34,0,0,0-.19,2.86c.13-.48.42-.78.38-1.43-.11,0-.27,0-.29-.1a2.75,2.75,0,0,1,.48-1.24C48.64,43.88,48.59,43.78,48.39,43.82Z"/><path class="cls-1" d="M48.67,48.21c-.5.27-.56,1.48-.48,2A4.32,4.32,0,0,0,48.67,48.21Z"/><path class="cls-1" d="M48.67,46.68c-.58.13-.76,1.31-.48,1.72A11.62,11.62,0,0,0,48.67,46.68Z"/><path class="cls-1" d="M47.34,39.24c-.45-.06-.6-.42-.76-.76-.49.11-.57-.2-.86-.29,0,.32.31.33.29.67.88.11.79,1.18,1.62,1.34C47.6,39.8,47.35,39.64,47.34,39.24Z"/><path class="cls-1" d="M39.13,55.08c0,.33.32.31.38.57,1.35-.3,2.61,1.57,3.63,1.91C42,56.56,40.78,55.22,39.13,55.08Z"/><path class="cls-1" d="M42.66,56.23a23.3,23.3,0,0,0-1.91-1.34c-.61-.37-1.4-1.1-2.1-.76,1.17.35,1.94,1.11,3.05,1.53C41.84,55.93,42.61,56.5,42.66,56.23Z"/><path class="cls-1" d="M42.09,55.28c.12,0,.23,0,.19-.19-1.37-.68-2.7-1.86-4.3-2,0,.49.44.21.67.29A15.53,15.53,0,0,1,42.09,55.28Z"/><path class="cls-1" d="M39.41,56c.8.37,1.8,1.72,2.29,1.62C41,57.11,40.37,56,39.41,56Z"/><path class="cls-1" d="M32.45,41.34c.92.2,2.67.92,3.44.1A19.35,19.35,0,0,1,32.45,41.34Z"/><path class="cls-1" d="M95.64,7.83c0-1.87-.44-3.67-.48-5.35,0-.89.55-2.54-.86-2.48-.66,1.5-.57,3-.86,4.77a57.86,57.86,0,0,1-2.87,10.12c-2,5.57-5.48,9.79-11.12,12-2.71,1-5.68,1.27-8.52,1.71-1.72.26-3.4.75-5.13.93a6.91,6.91,0,0,1-2.55,0c-.73-.22-1.36-1.1-2.07-1.15-.45,0-.82.33-1.24.38-1.45.18-2.06-.73-3.34-1-.72-.13-1.6.09-2.48,0-1.65.63-2.83,2-4.3,2.67-2.61,1.17-5.69-1.84-8.5-1.91a8.53,8.53,0,0,0-3,.67c-1.37.48-3.92-1-4.64-.13-.55.26-.75,1.18-1.33,1.35a6.91,6.91,0,0,1-2.55,0c-1.73-.18-3.41-.67-5.13-.93-2.85-.44-5.82-.66-8.52-1.71-5.64-2.18-9.09-6.4-11.12-12A57.85,57.85,0,0,1,2.2,5.7C1.91,3.9,2,2.43,1.34.93-.07.87.5,2.52.48,3.41.44,5.08,0,6.89,0,8.76c0,5,.12,10.27.48,14.8a12.07,12.07,0,0,0,2,5.82,25.93,25.93,0,0,0,3.82,4,83.22,83.22,0,0,0,8.3,3.91c1.43.6,3.05,1,4.58,1.62,3.19,1.28,9.64,2.15,9.88,2.19-.64.76,0,2.17.42,2,0,.62.8.48.86,1.05a2.92,2.92,0,0,0,.47.87,4.68,4.68,0,0,1,1,3.33c-.16,1.51-1.74,2-1.62,3.72,0,.28.24.55.29.86.23,1.42.06,2.31.76,3.15,0,.22-.3.21-.38.38.3,0,.37-.21.57,0,.5,2.41,3.6,3.95,4,6.49.13.79-.1,1.67.29,2.39.3.56,1.3.88,1.53,1.53-.32.44,0,.75,0,1.15-.06,1.39-.88,2.72-1,4-.14,2.33,1.51,4.16,2.39,5.35.67.91,1.39,1.9,2,2.67.74.95.75,2.07,1.15,3.34a8.36,8.36,0,0,1,.29,5.16c-.12.47-.75,1.23-.76,2a2.54,2.54,0,0,0,1,1.81c.16.15.47.13.67.29s.24.47.38.57.56.13.76.29.28.38.38.48c.26.22.56.19.86.38.67.44,1.23,1.09,1.72,1.34.13.07.49-.13.38.19.63-.16,1,.19,1.81,0a1.58,1.58,0,0,0,.57-.67c.48.54,1.61.43,2.48.57.33-.28.37-.26.86-.38.56-.87,1.51-1.36,2-2.29.3-.06.3.18.48,0,0-1.09,1.06-1.5,1.24-2.29a5.6,5.6,0,0,0-.1-2.1,22.36,22.36,0,0,1-.86-3.63,21.18,21.18,0,0,1,1-7.64c.41-1.35,2.47-2.5,3.05-3.82a7.79,7.79,0,0,0,.57-3c-.11-1.15-1.12-2.32-1-3.53.21-.51.7-.55.86-.86.5-.95-.12-2.94,0-3.82a4.6,4.6,0,0,1,1.91-2.86c.47-.38,1.18-.51,1.72-1.05.81-.82.48-1.58.86-2.58.29-.75.86-1.24,1.24-2a6.65,6.65,0,0,0,.76-4c-.37-1.92-3.4-2.83-3.63-4.68s2.38-3,1.91-5.16A33.19,33.19,0,0,0,76.45,38c1.53-.62,3.16-1,4.58-1.62a83.24,83.24,0,0,0,8.31-3.92,26,26,0,0,0,3.82-4,12.08,12.08,0,0,0,2-5.82C95.52,18.1,95.65,12.79,95.64,7.83ZM94.3,3.25c.28.06.32.38.29.76C94.24,4,94.32,3.59,94.3,3.25Zm-.1,1.05c.1.35.71.69.38,1.15-.38.15,0-.41-.29-.38-.24.47.33.95.29,1.53-.29,0-.24-.33-.29-.57-.22.52.36,1.1.1,1.72-.1,0-.06-.19-.19-.19-.07.3.35.87.1,1.43-.26,0-.17-.4-.38-.48,0,.41.68,1.41.29,2.2-.41-.32-.49-1-1-1.24C93.4,7.92,94,6,94.21,4.3Zm.19,6c.39.06.3.75.19,1.05C94.31,11.23,94.42,10.7,94.4,10.31Zm-.1,3.91c-.41,0-.09-.8-.19-1.15C94.55,13.24,94.13,14,94.3,14.22Zm-.19,1.34c.29.44-.09,1.48,0,.29C94,15.72,94.08,15.7,94.11,15.56ZM62.23,31.22c.18.12.07.76-.19.76A1.06,1.06,0,0,1,62.23,31.22ZM50.49,32c0,.41-.28.55-.76.48A1.62,1.62,0,0,1,50.49,32Zm-1.34.48a.34.34,0,1,1-.57.38A.46.46,0,0,1,49.15,32.46Zm-.67,1.81a.44.44,0,0,0-.29-.1c-.26.09.25.18.1.48-.32,0-.41-.17-.57-.29.26-.28.2-.31.29-.76.3-.06.29.18.48,0s-.18-.14-.19-.29c-.08-.36.43-.34.57-.19C48.69,33.68,48.45,33.6,48.48,34.27Zm-1.62-1.05c.3,0,.37.14.57.19a.45.45,0,0,0-.1.29C47.07,33.64,46.8,33.6,46.86,33.22Zm.29.86c-.24,0-.49,0-.48-.29S47.16,33.79,47.15,34.08Zm.76-.29c-.24,0-.3.18-.48,0C47.47,33.54,47.94,33.35,47.91,33.79Zm.67-1.43c0,.14-.14.24-.19.38C48.06,32.7,48.2,32.25,48.58,32.36Zm-.67.86c0-.25,0-.41.29-.38C48.22,33.09,48.23,33.32,47.91,33.22Zm-.38-1.05c.24,0,.3.15.48.19C47.93,32.58,47.42,32.45,47.53,32.17Zm-.19.38c.17,0,.2.12.38.1,0,.2-.06.25-.1.38a.54.54,0,0,0-.38-.1C47.2,32.74,47.31,32.68,47.34,32.55Zm-.57-.19h.38c-.08.14-.08.37-.38.29Zm-.38.67c.19-.16.12,0,.38,0A.2.2,0,1,1,46.38,33Zm.19-1v.29a.36.36,0,0,1-.38-.38C46.36,32,46.39,32.1,46.57,32.08Zm-.76.57a.62.62,0,0,1,.48.09c0,.15-.09.16-.1.29C46,33,45.75,33,45.81,32.65Zm.19.57v.29c-.35.06-.37-.2-.38-.48C45.76,33.08,45.86,33.17,46,33.22Zm-1-1.34c.17.09.33.18.29.48C45.09,32.32,44.89,32,45,31.89Zm-4.87-2.29a10.23,10.23,0,0,0-1.81,2.77h-.57C38.21,31.07,38.8,29.93,40.18,29.59Zm-1.81,1.05c-.43.53-.38,1.53-1.24,1.62C37.42,31.61,37.55,30.79,38.36,30.64Zm-1.05,2.58c-.6.1-.56-.3-1-.1,0-.43.08-.75.57-.67,0,.18-.21.24-.19.48.29,0,.2-.31.29-.48a.62.62,0,0,1,.48.1C37.38,32.78,37.26,32.91,37.31,33.22Zm-1,1.05h-.38c0-.2-.05-1.1.57-1C36.4,33.64,36.18,33.81,36.26,34.27Zm1.15-3.05c-.33.28-.17,1-.86,1C36.79,31.8,36.75,31.16,37.41,31.22Zm-1,.29c.23.3-.14.81-.67.67C36,31.94,36.25,31.75,36.45,31.5Zm-.29,1.05c0,.31-.15.55-.57.48,0-.13,0-.27-.1-.29C35.65,32.6,36,32.36,36.17,32.55Zm-2.76-.41a1.06,1.06,0,0,1,.19.76C33.34,32.91,33.23,32.27,33.41,32.15ZM1.34,4.18c0,.34.07.77-.29.76C1,4.56,1.05,4.24,1.34,4.18Zm.1,1c.24,1.74.81,3.62,1,5.15-.47.26-.54.92-1,1.24-.39-.79.3-1.78.29-2.2-.21.08-.12.45-.38.48-.25-.57.17-1.13.1-1.43-.13,0-.09.17-.19.19-.26-.62.32-1.2.1-1.72,0,.24,0,.58-.29.57,0-.58.53-1.06.29-1.53-.25,0,.09.53-.29.38C.72,5.91,1.33,5.57,1.43,5.23Zm-.1,9.93c.18-.22-.24-1,.19-1.15C1.43,14.35,1.74,15.12,1.34,15.15Zm.19,1.34c0,.14.11.16,0,.29C1.61,18,1.23,16.93,1.53,16.49Zm-.48-4.2c-.11-.3-.2-1,.19-1.05C1.22,11.63,1.33,12.16,1.05,12.29Zm.1-2.48c0,.42,0,.82-.29,1A1.22,1.22,0,0,1,1.15,9.81Zm-.1,5.82c-.07.57.28,1.09-.1,1.43C1,16.66.85,15.56,1.05,15.63Zm.1,1.91c0,.38.32,1.06-.1,1.24C1.14,18.22.84,17.8,1.15,17.54Zm.1,1.91c0,.37.07.84-.19,1C1.06,20,1,19.57,1.24,19.45Zm0,1.43v.67C.86,21.59,1.08,20.9,1.24,20.88Zm.1,1c.1.55.4,1.28-.19,1.53C1.17,22.73.88,22.16,1.34,21.84Zm.29,1.53a1.06,1.06,0,0,1-.38,1.05C1.2,23.89,1.28,23.5,1.62,23.36ZM2.29,25a1,1,0,0,1,.29-1.15A.73.73,0,0,1,2.29,25ZM3,24.7a1,1,0,0,1-.29,1.14A.74.74,0,0,1,3,24.7Zm-.86-.57A.87.87,0,0,1,2.2,23,.85.85,0,0,1,2.1,24.13ZM1.81,23c-.07-.36.12-.46.1-.76C2.32,22.23,2.07,23,1.81,23Zm-.1-.86a1.72,1.72,0,0,1,0-1.24C1.75,21.28,2.08,21.89,1.72,22.12Zm.1,2a1.62,1.62,0,0,1-.29,1.53A1.26,1.26,0,0,1,1.81,24.13Zm.29,1a1.36,1.36,0,0,1-.29,1.34C1.79,25.86,1.81,25.33,2.1,25.08Zm.29.76c.34.48,0,1.14-.29,1.53C1.77,26.93,2.09,26.21,2.39,25.84Zm.38.86a1.62,1.62,0,0,1-.29,1.43C2.28,27.74,2.4,26.85,2.77,26.7Zm.29.57c.42.44.19,1.23-.09,1.72C2.56,28.55,2.87,27.71,3.05,27.28Zm.76,2.67c-.64-.13-.71-1.27-.29-1.72,0,.24.15.3.29.38.05.25-.39.49-.1.67.18-.43.3-1.41.57-1.43C4.08,28.49,4,29.28,3.82,29.95Zm1.53,1.62c-.3,0-.63-.51-.38-.76C5.1,31.05,5.49,31.05,5.35,31.57Zm.76.48c-.23,0-.21-.17-.48-.1v-.38C6,31.56,6.19,31.66,6.11,32.05Zm.86.48a.47.47,0,0,1-.57-.48C6.65,32.15,7,32.13,7,32.53Zm.29,0c.26.15.68.15.67.57A.58.58,0,0,1,7.26,32.53Zm.86-.09c.24,0,.58,0,.57.29S8,32.78,8.11,32.43Zm.57,1c-.26-.05-.54-.1-.48-.48C8.47,33.06,8.75,33.11,8.69,33.48Zm1,.38c0-.11,0-.27.1-.29.12.14.38.13.38.38A.62.62,0,0,1,9.64,33.86Zm1.05.57c-.32.12-.39-.48-.19-.57,0,.11.15.1.29.1C10.87,34.23,10.65,34.21,10.69,34.44Zm-.29-.76v-.38c.23,0,.28.16.57.09C11.06,33.86,10.66,33.78,10.41,33.67Zm.67,1c-.18-.18,0-.24,0-.48.18,0,.21.11.38.1A.36.36,0,0,1,11.07,34.63Zm.09-1c.11-.11.57-.08.48.29C11.37,34,11.13,34,11.17,33.67Zm.57,1.15c0-.12-.12-.13-.1-.29s.18-.14.38-.1C12.06,34.69,12,34.85,11.74,34.82Zm.48-.57a.42.42,0,0,1-.38-.19c.15,0,.08-.3.38-.19Zm.19-.1c.07,0,.11-.08.1-.19.31,0,.51.26.29.48C12.61,34.4,12.38,34.4,12.41,34.15Zm1.81,0h-.38a.86.86,0,0,1,.19-.67c0,.11.15.1.29.1C14.39,33.87,14.15,33.86,14.22,34.15Zm-.19.1a.36.36,0,0,1-.29.57A.36.36,0,0,1,14,34.25ZM13.27,34c0-.31,0-.68.48-.57C13.71,33.7,13.73,34.07,13.27,34Zm.29.29c.06.35-.2.38-.48.38C13.07,34.23,13.27,34.11,13.56,34.25Zm-.48-.38H12.6c.06-.32,0-.74.48-.67C13.29,33.4,13,33.52,13.08,33.86Zm-.29,1.24c.17-.08.12-.39.48-.29C13.32,35.15,12.84,35.44,12.79,35.1Zm.76.38c-.18-.18,0-.24,0-.48C14,35,13.81,35.45,13.56,35.49Zm.38,0c.18,0,.08-.37.38-.29C14.37,35.42,14.08,35.77,13.94,35.49Zm.38-.48c-.22-.13-.07-.7.29-.57C14.56,34.67,14.61,35,14.32,35Zm.1-1c.19-.06,0-.48.38-.38v.48C14.65,34.13,14.44,34.18,14.42,34.05Zm.09,1.72c-.12-.3.27-.54.38-.29C14.71,35.53,14.88,35.92,14.51,35.77Zm.29-.67a.81.81,0,0,1,.1-.57C15.26,34.48,15,35.16,14.8,35.1Zm.76.86h-.48c.05-.14-.11-.49.09-.48,0,.14.23.09.38.1Zm-.19-.67c-.13-.12-.09-.41-.1-.67.29-.07.35.1.57.1C15.83,35.05,15.77,35.34,15.37,35.3Zm0-1.34c.41-.06.67,0,.57.48C15.54,34.49,15.27,34.41,15.37,34Zm.76,2.2h-.38c.09-.17,0-.51.29-.48S16.08,36,16.13,36.16Zm0-.57a.84.84,0,0,1-.19-.76c.24-.07.39-.09.57.1C16.32,35.07,16.44,35.54,16.13,35.58ZM17.37,35a3.54,3.54,0,0,1-.19.67c-.9.12-.55-.31-.48-.86A1.56,1.56,0,0,1,17.37,35Zm-.57-.38c0-.14,0-.35.1-.38a.78.78,0,0,0,.57.19C17.46,34.93,17.15,34.57,16.8,34.63Zm-.19-.1h-.48v-.38C16.46,34.11,16.68,34.18,16.61,34.53ZM17,36.35a.35.35,0,0,1-.57-.38c.2-.21.27,0,.57,0Zm.57.19h-.38c0-.22.06-.45.38-.38Zm-.19-.67c0-.39.08-.75.38-.86C18,35.27,17.85,36,17.37,35.87Zm.76.86h-.38c0-.33.08-.55.48-.48C18.27,36.48,18.06,36.46,18.14,36.73Zm.1-.67c0-.11-.15-.1-.29-.09-.05-.4.17-.53.19-.86.27-.08.25.14.48.1C18.5,35.5,18.54,36,18.23,36.06Zm.19.86c-.1-.45.17-.53.57-.48C19,36.82,18.81,37,18.42,36.92Zm.29-.76c.07-.37,0-.93.48-.86C19.34,35.57,19.22,36.25,18.71,36.16ZM19,35.1v-.29c.18,0,.41,0,.38.29Zm.67.29c.16.19,0,.62-.1.86-.11,0-.27,0-.29-.09C19.48,36,19.28,35.39,19.67,35.39ZM19.09,37c0-.3.12-.39.29-.48C19.37,36.78,19.36,37,19.09,37Zm1.15.1c-.21.22-.37,0-.67,0v-.29c.12-.13.41-.09.67-.1ZM20,35.58c.33-.08.37.14.67.1,0,.38-.22.48-.19.86-.16-.16-.7.06-.67-.29C20,36.19,19.75,35.66,20,35.58Zm.76-.19A1.29,1.29,0,0,1,20,35.2C20.16,35,20.56,35.23,20.72,35.39Zm-.57-.67c.08-.16.69-.06.67.19S20.11,35,20.14,34.72Zm1.05,1.05c-.07.37,0,.93-.48.86C20.77,36.24,20.64,35.67,21.19,35.77Zm-.29,1.53h-.48c-.06-.52.44-.55.57-.19C20.93,37.13,20.89,37.19,20.91,37.3Zm.48.1H21.1a.54.54,0,0,1,.1-.38C21.48,36.92,21.36,37.23,21.38,37.4Zm0-.67c-.19-.16-.08-.84.19-.86C21.74,36,21.65,36.7,21.38,36.73Zm.48.86h-.29c0-.2.17-.71.38-.38C21.81,37.22,21.87,37.44,21.86,37.59Zm-.09-.76c.08-.3,0-.8.29-.86C22.27,36.19,22.14,36.87,21.77,36.82Zm.29.86a.78.78,0,0,1,.19-.57c0,.11.15.1.29.1C22.54,37.54,22.45,37.76,22.05,37.68Zm.19-.76c0-.52.09-.87.67-.76a6.3,6.3,0,0,0-.19.86C22.49,37.05,22.51,36.84,22.24,36.92ZM23,36c-.21-.07-.52-.06-.57-.29C22.72,35.67,23.06,35.62,23,36Zm-.48-.67c.25,0,.56-.05.57.19C22.85,35.49,22.54,35.54,22.53,35.3Zm.76,2.58h-.57a.81.81,0,0,1,.1-.57.62.62,0,0,1,.48.1Zm-.19-.76c-.23-.24,0-.56,0-.86h.48C23.66,36.45,23.64,37.23,23.1,37.11Zm.48.86c-.21-.2,0-.27,0-.57H24C24,37.74,24,38.06,23.58,38Zm.67-1.53c.07.35-.16.41-.1.76C23.4,37.41,23.68,36.28,24.25,36.44ZM24.53,38h-.38a.47.47,0,0,1,.19-.48C24.45,37.61,24.62,37.67,24.53,38Zm-.19-.67c0-.31.17-.4.1-.76h.38C24.74,36.87,24.8,37.34,24.34,37.3Zm1.05-.57h.48c0,.42-.06.83-.57.76C25.28,37.18,25.47,37.09,25.39,36.73Zm.57.1h.38c0,.13,0,.84-.48.76A1.79,1.79,0,0,0,26,36.82Zm-.38-.19c0-.12-.12-.13-.1-.29s.47-.15.48.1C25.82,36.49,25.72,36.58,25.58,36.63Zm-1.05-.48c.34,0,.77-.07.76.29C25,36.34,24.66,36.38,24.53,36.16Zm.29,2a.47.47,0,0,1,0-.57C25.17,37.5,25,38.22,24.82,38.16Zm0-.76c.13-.43-.09-.65.29-.86,0,.07.08.11.19.1C25.2,37,25.32,37.48,24.82,37.4Zm.38.76c0-.28,0-.54.38-.48C25.58,38,25.55,38.22,25.2,38.16Zm.48.1c0-.22.1-.41.29-.48A.29.29,0,0,1,25.68,38.26Zm.48.57c0-.12-.12-.13-.1-.29s.18-.14.38-.09C26.53,38.75,26.3,38.75,26.16,38.83Zm.1-.57v-.38C26.74,37.75,26.7,38.34,26.25,38.26Zm.29-.57c-.29-.18.11-.45,0-.76C27,36.85,26.82,37.66,26.54,37.68Zm.38.76c-.13-.12-.17-.57.1-.57,0,.11.15.1.29.1C27.25,38.2,27.22,38.46,26.92,38.45Zm0-.67c0-.31.17-.4.1-.76h.48C27.46,37.43,27.47,37.88,26.92,37.78Zm.19-1.24c.2.06.66-.15.57.19S27,36.86,27.11,36.54Zm.48,1.34c-.07-.35.16-.41.1-.76h.38C28,37.46,28.12,38,27.59,37.87Zm1-.76a2,2,0,0,1-.48,1.43C28.11,38.3,28.09,37.25,28.54,37.11Zm-.1-.48c.25,0,.31.13.29.38-.25,0-.41,0-.38-.29C28.41,36.72,28.47,36.71,28.45,36.63Zm.76,1.53c.16-.41,0-1.12.38-1.34A2.11,2.11,0,0,1,29.21,38.16Zm.38,0c.05-.3,0-.73.29-.76A.91.91,0,0,1,29.59,38.16Zm.57.86c0,.21-.34,0-.48.1v-.29C29.87,38.87,30.26,38.7,30.17,39ZM30,38.35c.21,0,.3.08.29.29-.75,0-.17-.87-.1-1.24a12.2,12.2,0,0,0,.19-2c-.35.48-.08,1.58-.57,1.91,0-.3.25-.89,0-1.15a.78.78,0,0,1-.19.57c0-.43.07-1.2,0-1.34-.21.42,0,1.26-.57,1.34.55.3-.08,1.55-.48,1.81,0-.27.12-1.22.48-1.43-.51-.26.32-1.25-.1-1.72-.21.33.16,1.25-.48,1.15-.11-.37.17-.84,0-1-.31.17.07,1-.57.86,0-.39.26-1,0-1.34,0,.61,0,1.13-.38,1.34-.06-.29-.2.09-.38,0-.1-.35.22-1.11-.19-1.15.12.19.26,1-.19,1,0-.41.11-1-.19-1.15-.1.32.21,1-.19,1.05-.29-.4.17-.77-.1-1.15-.17.34-.07.95-.38,1.15-.34-.08-.24-.59-.57-.67V36c-.22,0-.36-.15-.67-.1.11-.47-.14-.81-.1-1.15-.23.25,0,1-.38,1.05-.09-.24-.11-.3.1-.48-.19,0-.19-.13-.29-.19-.08.29-.27.23-.1.57-.29.07-.35-.1-.57-.1-.12-.41.45-.12.38-.48-.44.41-.16-.48-.38-.57a.81.81,0,0,1-.1.57c-.34.06-.46-.11-.67-.19,0-.37.33-.94.09-1.24-.3.21,0,1-.38,1.15s.08-.59-.19-.57.06.57-.29.48.08-.72-.19-.76c0,.28-.06.58-.29.67s-.16-.29-.29-.38c.05.59-.55.1-.86.19-.13-.22.25-.36,0-.38-.17.47-.43.06-.67.19a.36.36,0,0,1,0,.48c-.18,0-.21-.11-.38-.1-.06-.45.12-1.14-.1-1.43a2.76,2.76,0,0,1-.19,1.34.78.78,0,0,1-.57-.19,1.14,1.14,0,0,0,.1-1.15,6.3,6.3,0,0,0-.19,1.24c-.83,0,.15-1.34-.48-1.62a5.4,5.4,0,0,1-.1,1.43c-.28,0-.58-.05-.67-.29.16,0,.16-.59,0-.57,0,.27-.18.4-.19.67a2.15,2.15,0,0,1-.57-.19c-.07-.38.17-1.06-.19-1.15v1.15c-.8.08-.18-.7-.48-1-.06.32-.07.7-.29.86-.05-.35.36-1.11-.09-1.24-.06.42.05,1-.29,1.15-.21-.46,0-1.35-.38-1.62a3.37,3.37,0,0,1,0,1.43c-.6-.11-.4-.24-.86-.19-.28-.47.25-1.38-.09-1.91-.29.47.2,1.73-.57,1.72,0-.44.37-1,.1-1.34,0,.49-.27.62-.19,1.15-.11.24-.36-.2-.48.1.32.12.27.95-.29.76,0-.74.32-1.1.1-1.72.08.33-.14.37-.1.67-.18,0-.41-.29-.38.1s.28-.24.29.1c-.11,0,0,.45-.19.67-.23,0-.21-.17-.48-.1a1.06,1.06,0,0,1,.29-.86c-.13,0-.18-.14-.38-.09.07.38-.09.54-.09.86-.4.11-.37-.2-.67-.19-.08-.75.31-1.53.19-2A5.43,5.43,0,0,0,10.21,33c-.14,0-.35,0-.38.09.37-.12.28.23.29.48-.28,0-.29-.22-.57-.19a11,11,0,0,0-.1-2.48,13.56,13.56,0,0,1-.29,2.29c-.61-.82-.35-2.58-.48-3.63-.35,1.07.14,2.14-.19,2.77,0-.15-.21-.07-.29,0-.49-.63-.13-2.1-.38-3a13.23,13.23,0,0,0,0,3.06c-.3,0-.22-.29-.57-.19a15.55,15.55,0,0,0-.1-2.77A9.14,9.14,0,0,0,7,32c-.29,0-.37-.2-.57-.29a17.26,17.26,0,0,0,.19-2.48,7.75,7.75,0,0,0-.38,2.2c-.33.08-.4-.11-.57-.19-.07-1.44.5-2.74.48-3.82a12.47,12.47,0,0,0-.67,3.53c-1.31-.58-.05-3.12-.19-4-.19.33-.23,1.06-.57,1,.28.63-.14,1.39,0,2.2-.14.21-.23-.12-.29.1s.24.27.19.57c-.36,0-.52-.25-.48-.67,0-.16.26-.05.29-.19-.5-.88.36-2,.29-2.86-.3.21-.12.3-.48.1a1.89,1.89,0,0,1-.48,1.43c-.38-.57.05-1.13.19-1.72.19,0,.19.13.29.19-.14-.29,0-.5.1-.76-.14.23-.4.09-.48.19a1.14,1.14,0,0,1-.57,1.15,1.71,1.71,0,0,1,.1-1.43c-.26.06-.28.65-.57.38a5.42,5.42,0,0,1,.38-1.15c.27-.13.24.51.38.19,0-.29-.36-.57-.1-.86-.33.26-.48-.47-.29-.76-.92.07-.08-1.4-.1-1.72-.17.3-.22.73-.57.86-.32-.71.43-1.23.38-1.62-.21.2-.23.6-.57.67-.39-.68.57-1.16.38-1.62a2.36,2.36,0,0,1-.57.86c-.12-.61-.37-1.39.1-1.81-.14,0-.16.16-.29.19A2.54,2.54,0,0,1,2,18.21c-.62-.2.23-1.76.09-2.1,0,.32-.17.41-.29.57a3.23,3.23,0,0,1,.57-2.2c-.35.16-.29.73-.67.86.09-1-.26-1.85.1-2.58-.26,0-.09.36-.29.38a3.05,3.05,0,0,1,1.15-2.67c-.06.54.31,1,.1,1.43h.29a5.92,5.92,0,0,1,.19,3.15.44.44,0,0,1,.29.1c.18,0,.07-.32.29-.29,0,.42.06.88-.19,1,.59-.18.07.76.38.86-.07-.16.19-.42.19-.19a1.44,1.44,0,0,0,0,1.15,3.44,3.44,0,0,1,.29-1.15c0,.51,0,1.41,0,1.62.13,0,.09-.17.19-.19.18.53-.34.86-.1,1.15.21-.36.22-.93.57-1.15.09.56,0,1.17.09,1.53.12-.17,0-.56.19-.67.32.7.05,2,.29,2.77.14-.71,0-1.27.19-1.81.41.61.34,1.7.57,2.48.06-.2-.12-.63.1-.67.16.41.1,1,.29,1.43.14-.23,0-1,.19-1.05a7.34,7.34,0,0,0,.19,1.62.42.42,0,0,1,.19-.38c0,.29-.11.74.19.76.06-.2-.12-.63.1-.67.16.19,0,.71.19.86a1.29,1.29,0,0,1,.19-.76c.16.32,0,1,.19,1.24.17-.18.07-.63.1-1,.61,0,.12,1.53.29,1.72.19-.07-.06-.57.29-.48s-.08.59.19.57c0-.31.16-.48.1-.86.78,0,.1,1.28.38,1.62a4.79,4.79,0,0,1,.29-1c.31.44,0,1.12.19,1.53.27-.33,0-1.19.38-1.43.31.35,0,1.32.38,1.62.1-.18-.06-.62.19-.86a3.17,3.17,0,0,0,.19,1.53c.13-.54-.06-1.4.29-1.72a14.4,14.4,0,0,0,.38,2c.11-.46-.23-1.38.19-1.53.43.4.18,1.47.48,2a3.24,3.24,0,0,0,0-1.62c.79,0,.28,1.38.76,1.72.06-.29-.12-.82.1-1,.15.3,0,.93.29,1a4.39,4.39,0,0,1-.1-1.24c.77-.07.28,1.12.57,1.53-.08-.62.27-.77.1-1.24.66.13.3,1.29.57,1.81.17-.2.07-2,.19-.86.18.27.08.81.29,1.05.11-.46-.23-1.38.19-1.53.41.33.17,1.3.48,1.72a2.7,2.7,0,0,0-.1-1.43c.85,0,.45,1.33.86,1.81a7.7,7.7,0,0,0-.1-1.62c.53.11.23,1,.48,1.43.28-.23-.09-1.11.19-1.34.34.36.17,1.23.48,1.62V29.09c.79-.06.4,1.06.67,1.53a2.85,2.85,0,0,0,0-1.43c.6.06.35,1,.57,1.43V29.28c.83,0,.38,1.21.67,1.72.22-.35,0-1.11.1-1.62.57.26.36,1.3.67,1.81a9.43,9.43,0,0,0-.1-1.62h.48a8,8,0,0,0,.48,1.81c0-.51-.36-1.51.1-1.81.4.53.35,1.5.57,2.2.46-.71-.49-1.67,0-2.1.52.34.3,1.42.67,1.91.21-.67-.46-1.42,0-1.72.41.42.29,1.36.57,1.91a6.31,6.31,0,0,0-.19-1.81c.55.12.31,1,.67,1.34a4.4,4.4,0,0,1-.1-1.24c.64.24.25,1,.57,1.43V30.14c.82,0,.52,1.2.86,1.72a5.6,5.6,0,0,0-.19-1.62c1.2-.21.83,1.14,1,1.91a2.78,2.78,0,0,0,0-1.81c.89.06.52,1.39.86,2,.07-.74-.12-1.21-.1-1.91.66.26.43,1.42.67,2.1a6.9,6.9,0,0,0-.1-2c.76.19.47,1.44.76,2.1.41-.61-.42-1.68,0-2,.38.42.31,1.28.57,1.81.18-.46-.23-1.08-.19-1.72.14.05.49-.11.48.1a3.4,3.4,0,0,0,.38,1.62A6,6,0,0,0,29,30.81c1.05-.1.59,1.32,1,1.81,0-.62-.17-1.1-.19-1.72.76,0,.33,1.26.86,1.53-.17-.47-.21-1.06-.38-1.53.81.05.51,1.21.86,1.72,0-.64-.2-1-.19-1.62.82.1.47,1.38.86,1.91.13-.79-.21-1.13-.19-1.81A.45.45,0,0,0,32,31c.62.5.43,1.8.76,2.58.1-.55-.19-1.39.09-1.53-.46,0-.29-.73-.48-1.05.45,0,.62.74.48,1.05.52.12.2,1.07.48,1.43-.07-.33.05-.46.38-.38.23.71-.72.24-.57.86.36,0,.27.11.57,0,.05.45-.19.32-.38.67,0,.14.23.09.38.1s0,.13,0,.19c-.1.33-.21.65-.32,1a.65.65,0,0,1-.26.09.74.74,0,0,1,.22,0l-.11.27c-.19,0-.41,0-.59,0-.13-.3.24-.58,0-.67-.18.17,0,.7-.38.67s.26-.74-.09-1c0,.45,0,.91-.38,1.05s.07-.52-.19-.48c.15.5-.32.38-.48.57.15,0,.33,0,.29.19s-.24.21-.48.19a5.52,5.52,0,0,0,.1-2.29c0,1-.14,2.09-.48,2.29.41.27-.18.81-.1,1.34C30.39,38.33,30,38.15,30,38.35Zm3.15-1.81-.12.27c-.06,0-.09-.08-.07-.18A.38.38,0,0,1,33.12,36.55Zm-.25.56,0,.08v-.08Zm-2,.29v-.48h.48C31.26,37.18,31.21,37.45,30.83,37.4Zm-.1.86c-.12-.13-.1-.66.19-.67C31.17,37.75,30.93,38.22,30.74,38.26Zm.86-.67c0,.38-.05.71-.48.67C31.12,37.87,31.17,37.54,31.6,37.59Zm-.29-.1c0-.27.11-.53.38-.57.11.3,0,.22,0,.57Zm.57-1v.38H31.5C31.46,36.33,31.7,36.57,31.88,36.44ZM32,37.59c.12.13.1.66-.19.67C31.55,38.1,31.79,37.63,32,37.59Zm-.09-.1A.62.62,0,0,1,32,37h.29C32.26,37.29,32.23,37.55,31.88,37.49Zm.56,19.21c-.3.14-.46-.55-.1-.48A.62.62,0,0,1,32.45,56.71Zm1,1h.48c0,.36-.08.56-.38.57A.81.81,0,0,1,33.4,57.76ZM34,59.09c-.31,0-.36-.27-.38-.57H34Zm0-1.43c.44,0,.39.32.29.57C34,58.18,34,57.87,34,57.66Zm.48.76v.48C34.1,59,34,58.26,34.45,58.43Zm.1,1.05h-.29c0-.2.07-.25.1-.38C34.52,59.12,34.57,59.26,34.55,59.48Zm.76-1.24c.06.23.19.49-.19.48C35,58.57,35,58.21,35.31,58.23Zm0,2.29v-.38c.2,0,.25.07.38.1C35.61,60.38,35.62,60.61,35.31,60.53ZM51.06,93.65c-.22.06-.92,1.35-1.24,1.34-.55,0-1.26-2.21-1.34-2.86-.28-2.39,0-6.07.86-7.06,1.1.48,1.26,2.19,1.53,3.53A17.39,17.39,0,0,1,51.06,93.65Zm-4.2-11.74c-1-1.49-.43-4-.67-6.3-.43-.52-.64-1.27-1-1.81,0-.11.17-.08.29-.1-.36-.85-1.18-1.24-1.14-2.48.24.17.29.53.48.76.12-1-.82-1.87-.48-3,.29.35.32,1,.57,1.34.12-.5-.25-1.34-.29-2,.16,0,.18.08.19.19.35-1-.21-2,.1-2.77.28.42,0,1.38.38,1.72.32-.81-.37-2.2.1-2.86.18.23.07.76.19,1,.4-1,0-2.38.67-3,.16.35-.1,1.1,0,1.72.49-.62.2-2,.67-2.67.08.28-.2,1-.1,1.62.4-.27.21-1.13.48-1.53.21,0,0,.34.1.48.29-.19.32-.64.38-1,.16,0,.18.07.19.19A7.21,7.21,0,0,0,48.58,59a5,5,0,0,1,1.91,2.1,2.07,2.07,0,0,0-.29,1.05c.37,0,.29-.54.38-.86.7.27.17,1.14.19,1.81.3-.11.16-.67.57-.67.17.8-.32,1.37-.19,1.81.33-.22.35-.73.48-1.15.37.64-.14,1.75-.29,2.48.49-.18.43-.9.57-1.43.74.41-.14,1.19,0,1.91.3-.2.33-.69.48-1.05.42.62-.35,1.6-.29,2.48.37-.27.37-.9.48-1.43.85.34.12,1.46.19,2.39.28-.13.25-.58.38-.86a6.11,6.11,0,0,1-.29,2.58c.47-.14.33-.88.57-1.24.42.5-.16,1.76-.29,2.58.18.24.27-.42.38-.57a5.43,5.43,0,0,1-.67,2.77c.22.12.51-.5.57-.86.21.69-.46,1.32-.86,1.72-.56,2.57-.24,6.21-.38,8.69a1.1,1.1,0,0,1-.57-1.34c-.1-.25-.59-.11-.67-.38-.19,0-.12.26-.38.19V83c-.45,0-.26-.45-.1-.57-.19-.16-.27-.43-.67-.38-.16-1.32-.24-2.73-.3-4.17,0,1.36-.32,2.79.11,4a6.07,6.07,0,0,0-.48,2.48c-.93-.15-.29-1.88-.86-2.39-.47.2-.54.79-1.15.86a1.64,1.64,0,0,0-.38-.29C46.76,82.26,46.93,82.2,46.86,81.91Zm.57-20.43c-.41-.13,0-.39.1-.57C47.81,61,47.36,61.24,47.43,61.48Zm2.48,22.91c-.66-.23-.24-1.17-.19-1.72C50.37,83,50.1,83.77,49.92,84.39Zm1.34,1.34c-.28-.28,0-.79,0-1.15C51.47,84.8,51.33,85.48,51.25,85.73Zm.1-1.91c-.57.07-.06,1.21-.57,1.34A12.75,12.75,0,0,1,51,82.58a6,6,0,0,1,.76,1c0,.33-.44.32-.29.86C51.29,84.68,51.36,84,51.35,83.82ZM54,93.46c.14-.44.22-.92.38-1.34A1.21,1.21,0,0,1,54,93.46Zm9.36-36.08h.38A.2.2,0,1,1,63.38,57.38Zm0-.29v-.38h.38C63.82,57,63.6,57.06,63.38,57.09Zm.38-1.43c0,.25-.13.31-.38.29C63.35,55.69,63.51,55.63,63.76,55.66Zm-.38-.29c0-.19.19-.25.29-.38.13,0,.08.24.1.38C63.5,55.36,63.57,55.53,63.38,55.37Zm-2.48-9.26c0,.4.28.42.19.86-.57.13-.9.5-1.43.67.62.24,1.09-.5,1.72-.57a.48.48,0,0,0,.29.29,13.19,13.19,0,0,1-3,1.53c1.15.07,2.45-1.46,3.63-1.05a14.41,14.41,0,0,1-4.2,1.81c2.1.15,3.59-2.09,5.63-1.43-.08.34-.56.27-.67.57.54.07.76-.6,1.24-.29-.37.36-.92.54-1.15,1.05.53-.15.89-.93,1.53-.67a3.9,3.9,0,0,1-1.05,1c.42.29.67-.41,1.05-.48s.32.25.38.48c-.46.31-1.08.45-1.34,1,.69-.15,1.26-.89,1.91-.76-.38.45-1.07.59-1.34,1.15.38.06.75-.72,1.43-.67a.26.26,0,0,0,.19.29c-.48.38-1.25.47-1.72.86.4.41.91-.58,1.72-.38a1,1,0,0,1-.48,1c-1.75-.44-3.85,0-4.49,1.24-1.27.32-1.8,1.38-2,2.77,0,.3.14.37.19.57-.24,1.08-1.09,2-1,3.25.11,1-.87,2.09-.29,3.25-.13.44-.33.82-.48,1.24s.26.18.19.48c.37-.1,0-.33.1-.67.44-.54.37-1,.29-1.72-.1-.93.69-1.79.67-2.39a2.8,2.8,0,0,1,.1-1.72c.64.64.64,2.08.57,3.15,0,.31.37.2.38.48-.42,1.45.35,3.06-.29,3.91-.78,1.05-2.57,1.64-3.15,2.86-.08,1.1-.65,1.7-.76,2.77.44-.36.45-1.14.67-1.72.29.44-.25,1.31,0,1.72.26-.53.24-1.35.48-1.91.15.62-.4,1.68-.19,2.39.19-.13.05-.58.19-.76.32.2-.15.7.1.86A6.8,6.8,0,0,0,57.07,71c.13-.3.09.34.1.48.39-.31.44-1,.57-1.53,0,.46,0,1.23.1,1.62.05-.86.52-.62.38-1.91.09,0,.07.12.09.19.1.32,0-.27.29-.1.07.38-.09.55-.09.86.23,0-.05-.43.29-.29,0,.43-.29.28-.48.38A9.6,9.6,0,0,0,58,73.51c.44-.69.24-1.89,1-2.48a10.76,10.76,0,0,0-.67,3c.31-.58.35-1.44.67-2,.13,2.52-1.65,3.95-3,5.35,0,.11.1.05.1,0A7.17,7.17,0,0,1,54,81.72c.31,0,.75-.71,1.05-1,.2.8-.53,1.5-.86,2.1a.52.52,0,0,0,.38-.38c.2.52-.34,1.12-.67,1.43.23.29.28-.42.57-.38.08.68-.45.76-.57,1.24.16.24.26-.37.57-.29a1.46,1.46,0,0,1-.29,1.05c0,.14.12,0,.29,0-.19,1.05.61,1.79.19,2.86.14.31.11-.32.38-.19a20.22,20.22,0,0,0,.76,2c-.49.65-.54,1.75-1,2.48-.37-.41.52-1.11-.1-1.24-.19.09-.21.37-.19.67-.13,0-.15-.17-.29-.19-.36.5-.33,1.39-.67,1.91-.46-.2.4-1.07.1-1.43-.53.33-.27,1.44-.86,1.72-.07-.42.28-.43.29-.76a.48.48,0,0,0-.29-.29c-.22.35-.19,1-.57,1.15a24,24,0,0,1,.76-2.48c0-.11-.17-.08-.29-.1.46-1-.16-1.46.29-2.58-.36-.14,0,.43-.38.29-.3-.61.21-1.17.19-1.81-.44-.06-.31.45-.38.76-.39-.28.25-1,.1-1.62-.49-.07-.15.68-.57.67a2,2,0,0,0,.19-1.53c-.45,0,0,.85-.48.86,0-.67.49-1.27.29-1.81-.58,0-.08,1.07-.57,1.15a6.81,6.81,0,0,0,.29-2.2c.45,0,.52-.37.86-.48A68,68,0,0,1,52.78,75c2-1.8,1.14-5.65.57-8.5-1.11-2.9-2.1-5.92-4.3-7.73-.08-.62.22-.86.29-1.34-.67-.07-.43.78-.57,1.24-.2,0-.25.07-.38.09C46.8,61.43,44.65,64.13,44,68a10.1,10.1,0,0,0,1.91,7.92c.33,2-.38,4.49.57,5.92-.29,1.49,1.2,1.58,1.72.76-.07.48.16.67.1,1.15-.51,0-.32.8-.29,1.15a.46.46,0,0,0-.29-.1c-.09.57.16.79.19,1.24-.48-.09-.12-1-.38-1.34-.48.19.08.84-.1,1.34-.19.31,0-.59-.29-.48-.28.6.23,1.23.19,1.91-.33,0-.06-.52-.29-.57-.48.23.2.85.09,1.34-.17,0-.2-.12-.38-.1.1.61.4,1,.19,1.72-.25-.07-.09-.55-.38-.57a18.3,18.3,0,0,0,.86,3.15c-.3-.24-.38-.71-.57-1,0,1,.87,1.92,1.14,3-.43-.3-.48-1-1-1.24,0,.43.37.52.38,1-.81,0-1-.49-1.24-1.05-.16,0,.1.4,0,.67-.83.16-.5-.84-1-1.05-.29.14.08.42,0,.67-.5-.1-.51-.7-.57-1.24h-.29c-.3.25.28.41.1.86-.61-.06-.38-1-.67-1.34-.46.09,0,.67,0,1-.54-.38-.25-1.59-1-1.81-.21,0,0,.4-.1.57-.45-.13-.38-.43-.1-.67.41-.06.54.17.76.29.14-.51-.69-.39-.38-.76,0-.42.23,0,.48-.1-.15-.32-.37-.3-.19-.76.27.14.41.42.76.48.15-.19-.53-.36-.57-.67.22-.3.12-.43.19-.76.33,0,.31.32.57.38,0-.37-.39-.38-.48-.67.14-.16,0-.86.29-.57a1.81,1.81,0,0,1-.1-.76c.13,0,.15.17.29.19,0-.35-.39-.25-.29-.67s.2,0,.48-.1c-.2-.31-.52-.5-.57-1,0-.22.25-.22.38-.1,0-.35-.5-.2-.38-.67.36-.1.27.24.57.19-.22-.36-.76-.39-.76-1,.21-.21.32.17.57.19-.33-.53-1-.74-1-1.53.24.11.32.38.67.38-1.07-.68-1.62-1.88-2.39-2.86.3,0,.26.38.67.29-.51-.36-1.16-1.56-1.72-1.72-.05,0-.13.16-.09.19-.38-.32-.49-.82-.76-1.24-.78-1.19-2.27-2.47-2.29-4.39.23,0-.05-.43.29-.29a2.75,2.75,0,0,0,.29,1c.23-.41-.34-1.17-.09-1.62.42.15.31.84.57,1.14.19-.58-.55-1.73,0-2.39.37.45.21,1.44.67,1.81.11-.63-.54-1.8-.19-2.67.26.72.27,1.7.48,2.48.23-.91-.29-2.43-.1-3.05.39.54.33,1.52.57,2.2.13,0,.08-.24.09-.38.26-.11-.06.65,0,1,.13,0,.08-.24.1-.38.23.19.19.63.19,1-.13,0-.08-.24-.1-.38-.34.35.2.62.29.86.25-.6-.27-1.25-.1-2.1.42.41.42,1.24.67,1.81.1-1-.7-2-.67-3.25.58.35.54,1.31,1,1.81-.31-.87-.42-2.1-1.24-2.86-.07-.06-.32,0-.38-.1a14.2,14.2,0,0,0-2-2.29,4.58,4.58,0,0,1-1.34-2.67c-.39-1.82,1.64-2.32,1.24-4.39.58.4,1.39,1,1,1.91.8.28-.16,2.32,1,2.29.07.42-.16.54-.1,1,.13-.31.43-.47.38-1a.49.49,0,0,0-.57-.38c-.12-.47.23-.47.19-.86-.63-.87-.16-2.83-1.43-3.05,0-.38.17-.53.1-1a1.21,1.21,0,0,0-.38-.67c.32-1.78-2.75-2.32-3.44-3.53-.82,0-1.65.06-1.81-.57.17-.12.56,0,.67-.19-.51-.6-1.31.56-1.72.38A1.93,1.93,0,0,1,33,52.41c-.66-.6-1.34.37-1.81.57.15-.81.84-1.07,1.53-1.34-.19-.4-.77.17-1.15.19.19-.58.79-.74,1.34-1-.7-.38-.92.54-1.53.57.24-.84,1.09-1.07,2-1.24-.4-.3-.87.14-1.24.19a8.13,8.13,0,0,1,.86-1c.68.28,1,1.4,1.81,1.24-.5-.52-1.33-.71-1.43-1.62,1,.47,1.66,2,3,2.48a18.09,18.09,0,0,1-2.67-2.77c.08-.2.29-.28.29-.57a13.6,13.6,0,0,0,3.34,3.63c.29-.38.67.4.57.76.16,0,.61-.31.57.1.11,0,.08-.17.1-.29A9.74,9.74,0,0,1,42,54.23a6.21,6.21,0,0,0-3.91-2.1c0-.38-.69-.53-.48-.86,1.59.32,2.6,1.22,3.91,1.81-1.24-.88-2.67-2-4.39-2.1-.06-.22-.19-.58,0-.76a7,7,0,0,1,3,1.53c-.55-.69-2.07-2.14-3.53-1.62a3.17,3.17,0,0,0-.57-.76c1.11-.28,1.79.69,2.77.86-.81-.54-2.11-1.56-3.25-1.15a26,26,0,0,1,1.81,2.48c-1-.85-2.9-2.17-3.15-3.82-.16-1.05,0-1.82-1-2.2.13-.36.87.1,1.15-.29-.42-1-2.45-.35-2.77-1.43.76,0,2.19.6,3.06.48.07-.26-.19-.19-.19-.38-2,.14-2.52-.6-3.85-1.15.06-.35-.28-.47-.06-.67a9.1,9.1,0,0,0,4.87,1.15.62.62,0,0,0-.1-.48c-1.67.63-3.25-.34-4.58-.67a2.94,2.94,0,0,1,.18-.37,5,5,0,0,0,2.44-1.36,6.83,6.83,0,0,0,1.57.4c.4,0,1.28.2,1.53-.29a9.89,9.89,0,0,1-3-.27A5.37,5.37,0,0,0,34,39.3a6.66,6.66,0,0,0,2.82.31c0-.08-.1-.1-.1-.19a22.69,22.69,0,0,1-2.65-.29,7.51,7.51,0,0,0,.3-.84,8.89,8.89,0,0,0,2.92.55c.07-.26-.19-.19-.19-.38a7,7,0,0,1-2.67-.36c.07-.25.12-.5.17-.76a16.66,16.66,0,0,0,3.07.74,10.63,10.63,0,0,0-3-.91c.06-.34.1-.67.13-1a31.31,31.31,0,0,1,3.28.66,4.55,4.55,0,0,0-3.28-.68c0-.13,0-.26,0-.39s0-.24,0-.36c1.38,0,3,.21,3.81,1-.13-1.07-2.29-1.14-3.8-1.15,0-.25,0-.5,0-.75a1.6,1.6,0,0,1,.45-.21c-.45.14-.26-.82,0-1.05.33-.08.37.14.67.1-.16.56-.62.9-.57,1.72.32,0,.16-.41.29-.57,1.08.13,2.49.17,3.25.86,0-.81-1.51-.85-2.48-1a2.15,2.15,0,0,1,.19-1,5.86,5.86,0,0,1,2.39.76c-.2-.63-1-.65-1.62-.86,0-.36.24-.46.29-.76a.62.62,0,0,0,.48.1v.48c0-.51.55-.4.86-.19,0-.32-.38-.25-.48-.48a4.33,4.33,0,0,1,2.29-2.86,10.18,10.18,0,0,0-1.43,2.67c.82-.83.86-2.45,2.29-2.67-.26,1-1,1.38-1.24,2.39.64-.66.75-1.86,1.81-2.1.1.6-.72,1-.86,1.72.5-.08.77-1.71,1.62-1.43-.25.61-.81.91-.86,1.72.56-.4.65-1.75,1.53-1.53-.29.53-.79.87-1,1.53.46,0,.52-1.26,1.43-1.15a7.11,7.11,0,0,0-.86,1.34c.28.06.58-.7.86-1,.3.34-.32.56-.29,1,.19.15.38-.5.57-.67.19,0,.12.26.38.19-.32.33-.26.61-.38,1.24.24-.11.15-.55.57-.48.23.3-.17.61-.19,1,.14.32.11-.32.38-.19s0,.58-.09.76c.32,0,.15-.42.57-.29.22.21.16.32,0,.57.18.29.14-.42.48-.29s-.09.55-.1.86c.25-.17.18-.65.67-.57.2.23.14.2.1.57.09-.26.72-.42.48,0a1.44,1.44,0,0,1,1,0A3.21,3.21,0,0,0,49,33.22c.2,0,.25.07.38.1,0-.34-.26-.23-.1-.57.16-.16.56-.08.86-.09.18.17,0,.28-.1.48,1.07-1.38,1.86-3,3.34-4-.28.61-1.31,1.3-1.43,2.39a6,6,0,0,1,1.91-2.29,9.49,9.49,0,0,0-1.62,3.25c.84-1.38,1.24-3.22,2.86-3.82a9.49,9.49,0,0,0-2,3.44c.74-1.17,1.27-2.55,2.39-3.34a8.94,8.94,0,0,0-1.81,3c.88-.9,1-2.57,2.58-2.77-.08.7-1.09,1.26-1.15,2.29a11.56,11.56,0,0,1,1.53-2.1c.65.34,1.58.39,1.91,1-.48,0-.71.31-1.15.38.71.11,1.56-.48,2.67-.29v.48c-.74,0-1.75.16-1.81.48a.59.59,0,0,1-.67-.1c0,.2-.34.45-.57.67.93.23,1.64-.59,2.67-.57-.13.3,0,.32,0,.67-.79.46-1.55.4-2.29,1,.42.25,1.26-.62,2.1-.57,0,1.36-2.14.6-2.39,1.72.71,0,1.34-.82,2.29-.86.19.19.06.55,0,.76a3.53,3.53,0,0,0-2.58,1.53c1,0,1.38-1.29,2.67-1.24-.09.44.24.46.19.86-.35.2-.41,0-.48,0-1.28-.12-1.07,1.37-2,1.62.9,0,1.47-1.2,2.58-1.34.16.78-1.16.78-1.43,1.43,0,.2.3-.14.38-.19-.08.5-.76.3-.86.86.77-.38,1.32-1,2.1-1.34.17.18.21.49.38.67-.41.45-1.12.6-1.53,1.05.69-.14,1-.68,1.72-.76-.07.46.34.42.29.86a6.86,6.86,0,0,1-1.62.76c.56.17,1.14-.45,1.72-.57a1,1,0,0,1,.29.86,10.17,10.17,0,0,1-1.62.67A2.41,2.41,0,0,0,61.37,39a1.74,1.74,0,0,1,.57.86,4,4,0,0,1-1.72,1.34,2.8,2.8,0,0,0,1.91-1.05c.13.25.48.29.48.67-.47.26-.9.57-1.34.86.6.2,1.15-.93,1.91-.57a6.55,6.55,0,0,1-2,2.1,4.32,4.32,0,0,0,2.2-1.81c.3,0,.22.29.57.19C63,43.2,61.64,44.35,60.89,46.11ZM32.35,44.87c.41-.25.89.25,1.53.1C33.6,45.23,32.68,45.11,32.35,44.87ZM63,37.33h-.38a2.14,2.14,0,0,1-.19-.57h.48C62.83,37,63,37.1,63,37.33Zm-.19-.86c-.24,0-.49,0-.48-.29h.48Zm-.67-.67c0-.26.45-.23.57-.1C62.79,36.06,62.2,35.88,62.13,35.8Zm2,.09h-.38v-.38C63.94,35.64,64.18,35.4,64.14,35.89Zm.19.67h-.38c0-.36-.11-.27,0-.57C64.22,36,64.29,36.29,64.33,36.56Zm-.57,0c-.35.06-.37-.2-.38-.48h.29A.62.62,0,0,1,63.76,36.56Zm.1.76c-.29,0-.31-.54-.19-.67C63.85,36.7,64.1,37.17,63.85,37.33Zm.19-.67c.43,0,.48.29.48.67C64.09,37.37,64,37,64,36.66Zm.29-.67h.48v.48C64.43,36.53,64.38,36.25,64.33,36Zm.57,1.34c-.19,0-.43-.51-.19-.67C65,36.67,65,37.2,64.9,37.33Zm1.05.86c-.14-.05-.49.11-.48-.1s.3-.15.48-.19Zm-.19-1.72c.31,0,.23.47.29.76A.91.91,0,0,1,65.76,36.47Zm.29-.57c.36.21.22.93.38,1.34A2.11,2.11,0,0,1,66,35.89Zm1.05.29c.45.14.43,1.19.48,1.43A2,2,0,0,1,67.1,36.18Zm.19-.38c0,.25-.13.31-.38.29,0-.25,0-.41.29-.38C67.18,35.79,67.23,35.79,67.29,35.8Zm.29.38H68c-.07.35.16.41.1.76C67.52,37.06,67.64,36.53,67.58,36.18Zm1-.57c.12.32-.48.39-.57.19S68.33,35.67,68.53,35.61ZM67.77,37c1,0-.08,1.12,0,0Zm.38-1h.48c-.07.36.12.46.1.76C68.17,36.95,68.18,36.5,68.15,36.09Zm.57,1.43c-.3,0-.33-.24-.38-.48.14,0,.27,0,.29-.1C68.89,36.95,68.85,37.4,68.72,37.52ZM69.1,36c-.11.31.29.59,0,.76C68.82,36.73,68.64,35.92,69.1,36Zm.29,1v.38C68.94,37.41,68.9,36.82,69.39,36.94Zm.38-.29c-.47.07-.52-.63-.48-.76h.38A1.8,1.8,0,0,0,69.77,36.66Zm.57-.1c-.51.07-.55-.35-.57-.76h.48C70.18,36.16,70.37,36.26,70.34,36.56Zm-.29-.86c-.14,0-.24-.14-.38-.19,0-.24.36-.23.48-.1S70.06,35.58,70.06,35.7Zm-.57,2.2c-.14-.08-.37-.08-.29-.38.2,0,.25.07.38.1S69.49,37.78,69.48,37.9Zm.19-1.05c.19.07.25.25.29.48A.29.29,0,0,1,69.68,36.85Zm.38-.1c.35-.06.38.2.38.48C70.09,37.29,70.06,37,70.06,36.75Zm.29-1.05c.11,0,.17,0,.19-.1.38.21.16.43.29.86C70.32,36.55,70.44,36,70.34,35.7Zm0-.19c0-.36.42-.28.76-.29C71,35.45,70.59,35.41,70.34,35.51Zm.48,1.72c-.22.06-.35-.66,0-.57A.47.47,0,0,1,70.82,37.23Zm0-1.62h.38c-.07.36.12.46.1.76C70.85,36.41,70.91,35.94,70.82,35.61ZM71.11,37c-.08-.3.08-.36.19-.48a.47.47,0,0,1,.19.48Zm.38-.76c.07-.35-.16-.41-.1-.76C72,35.36,72.24,36.48,71.49,36.28Zm.57.76c-.41.09-.41-.23-.38-.57h.38C72,36.77,72.27,36.84,72.06,37Zm0-1.72h.48c0,.3.23.62,0,.86C72,36.3,72,35.52,72.06,35.32Zm.48-.76c0-.24.32-.19.57-.19C73.1,34.61,72.79,34.56,72.54,34.56Zm.67.19c-.06.23-.36.21-.57.29C72.58,34.69,72.92,34.75,73.21,34.75Zm-.29,2.2h-.57v-.48a.62.62,0,0,1,.48-.09A.8.8,0,0,1,72.92,36.94Zm0-.86a6.1,6.1,0,0,0-.19-.86c.58-.1.71.25.67.76C73.13,35.91,73.15,36.12,72.92,36.09Zm.19.19c.14,0,.27,0,.29-.1a.78.78,0,0,1,.19.57C73.19,36.83,73.1,36.61,73.11,36.28ZM73.59,35c.32.06.21.56.29.86C73.5,35.94,73.37,35.26,73.59,35Zm.19,1.62c0-.15,0-.36-.1-.38.21-.33.38.19.38.38Zm.29-1.72c.27,0,.38.69.19.86C74,35.77,73.91,35.08,74.07,34.94Zm.19,1.53c0-.17-.1-.48.19-.38a.54.54,0,0,1,.1.38ZM74.83,34c0-.25.59-.35.67-.19S74.94,34.18,74.83,34Zm.86.29a1.29,1.29,0,0,1-.76.19C75.08,34.3,75.49,34.1,75.69,34.27Zm-.76,1.43c-.51.07-.4-.49-.48-.86C75,34.74,74.87,35.31,74.93,35.7Zm-.19.67c0-.11,0-.17-.1-.19.14-.36.63-.33.57.19ZM75,34.75c.3,0,.34-.17.67-.1s0,.61.19.67c0,.35-.51.13-.67.29C75.24,35.23,75,35.13,75,34.75Zm1.05,1.43c-.3,0-.46.22-.67,0V35.8c.25,0,.54,0,.67.09ZM76,34.46c.38,0,.18.58.38.76,0,.11-.17.08-.29.1C76,35.08,75.82,34.65,76,34.46Zm.29-.29c0-.25.2-.25.38-.29v.29Zm.29,1.91c-.27,0-.28-.23-.29-.48C76.43,35.7,76.59,35.79,76.55,36.09Zm-.1-1.72c.51-.07.41.49.48.86C76.42,35.32,76.3,34.64,76.45,34.37ZM77.22,36c-.39,0-.6-.1-.57-.48C77,35.46,77.31,35.54,77.22,36ZM77,34.27c.23,0,.21-.17.48-.1,0,.33.24.46.19.86-.13,0-.27,0-.29.1C77.1,35,77.14,34.57,77,34.27Zm.48,1.53c.08-.27-.14-.25-.1-.48.4-.08.49.15.48.48Zm.38-1.72c.3.11.35.47.38.86C77.8,35.06,77.66,34.34,77.88,34.08Zm.29-.57a.78.78,0,0,0,.57-.19c.13,0,.08.24.09.38C78.49,33.64,78.18,34,78.17,33.51Zm-.1,2.1v-.38c.32-.07.35.16.38.38Zm.19-1.53a1.56,1.56,0,0,1,.67-.19c.07.55.42,1-.48.86A3.57,3.57,0,0,1,78.27,34.08Zm1.24-.86v.38H79C79,33.25,79.18,33.18,79.51,33.22Zm-.86,2.2V35c.3,0,.37-.21.57,0A.35.35,0,0,1,78.65,35.42ZM79.13,34c.18-.19.33-.16.57-.1a.85.85,0,0,1-.19.76C79.2,34.61,79.32,34.14,79.13,34Zm1.15-1c.1.45-.17.53-.57.48C79.6,33.06,79.86,33,80.27,33Zm-.76,2.2c.05-.14-.11-.49.09-.48s.2.31.29.48Zm.29-1.43c.22,0,.28-.16.57-.1,0,.25,0,.54-.1.67C79.87,34.42,79.81,34.13,79.79,33.79ZM80.56,35h-.48v-.38c.15,0,.36,0,.38-.1C80.67,34.54,80.51,34.9,80.56,35Zm.19-1.43a.8.8,0,0,1,.1.57C80.61,34.23,80.38,33.55,80.75,33.6Zm.1-.38v-.48c.35-.1.19.32.38.38C81.2,33.26,81,33.21,80.84,33.22Zm.29,1.62c-.37.15-.2-.25-.38-.29C80.86,34.3,81.26,34.55,81.13,34.84ZM81,33.51c.36-.13.5.44.29.57S81.08,33.75,81,33.51Zm1.53-1.24c.45-.07.42.35.48.67h-.48C82.64,32.59,82.35,32.47,82.56,32.27Zm0,1.43c-.28,0-.54,0-.48-.38C82.38,33.18,82.57,33.3,82.56,33.7Zm-.67-1.24c.46-.11.44.26.48.57C81.92,33.14,81.93,32.77,81.89,32.46Zm0,1.43a.36.36,0,0,1-.29-.57A.36.36,0,0,1,81.89,33.89Zm-.48-.67c.07-.29-.16-.28-.1-.57.14,0,.27,0,.29-.1a.85.85,0,0,1,.19.67Zm-.1,1.05c.31-.08.2.25.38.29C81.56,34.85,81.28,34.49,81.32,34.27Zm.76.29c-.26,0-.45-.51,0-.48C82.1,34.32,82.26,34.38,82.09,34.56Zm.29-.67c.36-.1.31.2.48.29C82.8,34.51,82.32,34.22,82.37,33.89Zm.76-.86c0,.11,0,.17.09.19,0,.25-.2.25-.38.29C82.63,33.29,82.83,33,83.14,33Zm.19.67c.41.75-.82.24,0,0Zm.57.19c-.25,0-.31-.13-.29-.38.2,0,.25.06.38.1S83.9,33.77,83.9,33.89Zm-.48-.57v-.38c.3-.11.23.15.38.19A.42.42,0,0,1,83.42,33.32ZM84,33c-.09-.37.37-.39.48-.29C84.52,33,84.27,33,84,33Zm.57.67a.36.36,0,0,1-.38-.38c.17,0,.2-.12.38-.1C84.58,33.46,84.75,33.52,84.57,33.7Zm.1-1.24c.29.07.35-.1.57-.09v.38C85,32.85,84.58,32.93,84.66,32.46Zm.29,1.05c0-.23-.17-.21-.1-.48.14,0,.27,0,.29-.1C85.34,33,85.27,33.63,84.95,33.51Zm.57-.48c0-.25.27-.24.38-.38.11,0,.08.17.1.29A.62.62,0,0,1,85.52,33ZM87,32.55c-.06-.38.21-.42.48-.48C87.49,32.45,87.22,32.5,87,32.55Zm0-.76c0-.29.34-.24.57-.29C87.65,31.85,87.05,32,87,31.79Zm.76.38c0-.43.41-.42.67-.57A.58.58,0,0,1,87.72,32.17Zm1-.57c-.05-.4.32-.38.57-.48A.47.47,0,0,1,88.67,31.6ZM90,31c-.27-.08-.25.14-.48.1-.08-.4.15-.49.48-.48Zm.29-.38c-.14-.52.24-.52.38-.76C90.92,30.13,90.59,30.62,90.3,30.64Zm.76-.86c0-.3.14-.37.19-.57s-.15.12-.29-.1c.14-.8-.28-1.57,0-2.2-.34.1-.38-.62-.57-1-.14.89,1.12,3.43-.19,4a12.48,12.48,0,0,0-.67-3.53c0,1.08.55,2.38.48,3.82-.17.08-.24.27-.57.19a7.77,7.77,0,0,0-.38-2.2,17.19,17.19,0,0,0,.19,2.48c-.2.08-.28.29-.57.29a9.17,9.17,0,0,0-.19-2.48,15.59,15.59,0,0,0-.1,2.77c-.36-.1-.27.24-.57.19a13.19,13.19,0,0,0,0-3.05c-.25.86.1,2.33-.38,3-.08-.07-.26-.15-.29,0-.33-.63.16-1.7-.19-2.77-.12,1,.13,2.8-.48,3.63A13.56,13.56,0,0,1,86.19,30a11,11,0,0,0-.1,2.48c-.28,0-.29.22-.57.19,0-.25-.09-.6.29-.48,0-.13-.24-.08-.38-.1A5.46,5.46,0,0,0,85,30.17c-.12.48.27,1.26.19,2-.3,0-.27.3-.67.19,0-.31-.16-.48-.1-.86-.2,0-.25.07-.38.1a1.06,1.06,0,0,1,.29.86c-.27-.08-.25.13-.48.1-.17-.21-.08-.63-.19-.67,0-.34.32.2.29-.1s-.2-.05-.38-.1c0-.3-.17-.34-.1-.67-.23.62.08,1,.1,1.72-.56.18-.61-.64-.29-.76-.12-.29-.36.14-.48-.1.08-.53-.24-.65-.19-1.15-.28.37.12.9.1,1.34-.78,0-.28-1.25-.57-1.72-.34.53.18,1.44-.1,1.91-.46-.05-.26.08-.86.19a3.37,3.37,0,0,1,0-1.43c-.39.28-.18,1.16-.38,1.62-.34-.14-.23-.73-.29-1.15-.46.14,0,.89-.1,1.24-.22-.16-.23-.54-.29-.86-.29.35.33,1.13-.48,1.05V31.79c-.36.09-.12.77-.19,1.15a2.17,2.17,0,0,1-.57.19c0-.27-.18-.4-.19-.67-.16,0-.16.59,0,.57-.09.23-.38.25-.67.29A5.38,5.38,0,0,1,78,31.89c-.62.29.35,1.64-.48,1.62a6.22,6.22,0,0,0-.19-1.24,1.14,1.14,0,0,0,.1,1.15.78.78,0,0,1-.57.19,2.76,2.76,0,0,1-.19-1.34c-.22.29,0,1-.1,1.43-.17,0-.2.12-.38.1a.36.36,0,0,1,0-.48c-.23-.13-.49.27-.67-.19-.25,0,.13.16,0,.38-.31-.09-.91.4-.86-.19-.13.09-.12.32-.29.38s-.25-.38-.29-.67c-.28,0,.08.72-.19.76s-.1-.41-.29-.48.08.59-.19.57S73.31,33,73,32.74c-.23.3.08.87.09,1.24-.21.08-.33.25-.67.19a.81.81,0,0,1-.1-.57c-.22.1.06,1-.38.57-.07.36.51.07.38.48-.22,0-.28.16-.57.1.17-.34,0-.28-.09-.57-.1.06-.1.22-.29.19.21.17.19.24.1.48-.39-.09-.15-.8-.38-1.05,0,.33-.21.67-.1,1.15-.31-.06-.44.06-.67.1v-.48c-.33.08-.23.59-.57.67-.31-.2-.21-.81-.38-1.15-.26.37.19.75-.1,1.15-.4,0-.09-.73-.19-1.05-.3.15-.16.73-.19,1.15-.45.08-.31-.77-.19-1-.41,0-.09.8-.19,1.15-.18.09-.32-.29-.38,0-.37-.21-.42-.73-.38-1.34-.26.33,0,.94,0,1.34-.65.17-.27-.69-.57-.86-.17.12.11.59,0,1-.64.1-.27-.81-.48-1.15-.41.47.42,1.46-.1,1.72.36.22.49,1.17.48,1.43-.4-.26-1-1.51-.48-1.81-.56-.08-.36-.91-.57-1.34-.07.13,0,.91,0,1.34a.79.79,0,0,1-.19-.57c-.25.26,0,.84,0,1.15-.5-.33-.22-1.43-.57-1.91a12.18,12.18,0,0,0,.19,2c.07.37.66,1.24-.1,1.24q0-.31.29-.29c0-.2-.42,0-.48-.19.08-.53-.51-1.07-.1-1.34-.34-.2-.48-1.24-.48-2.29a5.52,5.52,0,0,0,.1,2.29c-.24,0-.46,0-.48-.19s.14-.18.29-.19c-.15-.2-.62-.07-.48-.57-.27,0,.08.52-.19.48s-.35-.6-.38-1.05c-.35.21.22.78-.09,1s-.2-.5-.38-.67c-.24.09.13.37,0,.67-.32,0-.77.07-1-.1a.47.47,0,0,1,.48-.19c-.54-.07-.63-.58-.57-1.24.15,0,.36,0,.38-.1-.19-.35-.43-.22-.38-.67.3.11.22,0,.57,0,.15-.62-.81-.15-.57-.86q.49-.11.38.38c.28-.36,0-1.31.48-1.43-.14-.31,0-1,.48-1.05-.19.32,0,1-.48,1.05.28.14,0,1,.1,1.53.33-.78.15-2.08.76-2.58a.45.45,0,0,0,.29.09c0,.69-.32,1-.19,1.82.39-.53,0-1.81.86-1.91,0,.62-.23,1-.19,1.62.35-.51.05-1.67.86-1.72-.17.47-.21,1.06-.38,1.53.53-.26.09-1.5.86-1.53,0,.62-.17,1.1-.19,1.72.46-.49,0-1.91,1.05-1.81a5.94,5.94,0,0,0-.29,1.62,3.39,3.39,0,0,0,.38-1.62c0-.21.34,0,.48-.1,0,.63-.37,1.26-.19,1.72.26-.53.2-1.4.57-1.81.43.32-.41,1.39,0,2,.3-.66,0-1.91.76-2.1a6.92,6.92,0,0,0-.1,2c.24-.68,0-1.84.67-2.1,0,.7-.17,1.17-.1,1.91.34-.62,0-1.94.86-2a2.79,2.79,0,0,0,0,1.82c.22-.77-.15-2.12,1.05-1.91a5.59,5.59,0,0,0-.19,1.62c.34-.52,0-1.68.86-1.72v1.34c.32-.48-.06-1.19.57-1.43a4.41,4.41,0,0,1-.09,1.24c.35-.31.11-1.22.67-1.34a6.27,6.27,0,0,0-.19,1.81c.28-.54.17-1.49.57-1.91.46.3-.21,1,0,1.72.37-.49.15-1.57.67-1.91.49.43-.46,1.39,0,2.1.23-.7.17-1.67.57-2.2.46.3.06,1.31.1,1.81a8,8,0,0,0,.48-1.81h.48a9.38,9.38,0,0,0-.1,1.62c.31-.52.1-1.55.67-1.81.06.51-.13,1.27.1,1.62.29-.51-.16-1.75.67-1.72v1.34c.23-.44,0-1.37.57-1.43a2.83,2.83,0,0,0,0,1.43c.27-.46-.12-1.59.67-1.53V29.5c.31-.39.14-1.26.48-1.62.28.23-.09,1.11.19,1.34.25-.39-.05-1.32.48-1.43a7.6,7.6,0,0,0-.1,1.62c.41-.48,0-1.77.86-1.81A2.7,2.7,0,0,0,79.6,29c.31-.42.07-1.39.48-1.72.42.15.08,1.06.19,1.53.2-.24.11-.78.29-1.05.12-1.18,0,.66.19.86.28-.52-.09-1.68.57-1.81-.17.47.17.62.1,1.24.29-.41-.2-1.6.57-1.53a4.4,4.4,0,0,1-.1,1.24c.33-.12.14-.75.29-1,.22.13,0,.66.1,1,.49-.34,0-1.68.76-1.72a3.25,3.25,0,0,0,0,1.62c.3-.53,0-1.61.48-2,.42.15.08,1.06.19,1.53a14.62,14.62,0,0,0,.38-2c.35.32.16,1.18.29,1.72a3.18,3.18,0,0,0,.19-1.53c.25.24.09.68.19.86.37-.3.07-1.27.38-1.62.36.25.11,1.1.38,1.43.18-.41-.12-1.09.19-1.53a4.71,4.71,0,0,1,.29,1c.28-.35-.4-1.59.38-1.62-.07.38.09.55.1.86.27,0-.08-.59.19-.57s.1.41.29.48c.17-.19-.33-1.67.29-1.72,0,.32-.07.77.1,1,.2-.28,0-.92.19-1.24a1.3,1.3,0,0,1,.19.76c.2-.15,0-.67.19-.86.21,0,0,.47.1.67.3,0,.16-.47.19-.76a.42.42,0,0,1,.19.38,7.34,7.34,0,0,0,.19-1.62c.2,0,.05.82.19,1.05.19-.39.13-1,.29-1.43.21,0,0,.47.1.67.23-.78.16-1.88.57-2.48.14.55.05,1.1.19,1.81.23-.79,0-2.07.29-2.77.17.11.07.5.19.67.07-.36,0-1,.1-1.53.36.22.37.78.57,1.15.25-.28-.27-.61-.1-1.15.1,0,.06.19.19.19,0-.21,0-1.11,0-1.62a3.45,3.45,0,0,1,.29,1.15,1.43,1.43,0,0,0,0-1.15c0-.22.26,0,.19.19.31-.1-.21-1,.38-.86-.25-.17-.19-.63-.19-1,.22,0,.11.28.29.29a.45.45,0,0,1,.29-.1A5.91,5.91,0,0,1,92.59,11h.29c-.22-.39.16-.89.1-1.43a3.05,3.05,0,0,1,1.15,2.67c-.2,0,0-.42-.29-.38.35.73,0,1.57.1,2.58-.38-.13-.31-.7-.67-.86a3.23,3.23,0,0,1,.57,2.2c-.12-.17-.32-.25-.29-.57-.14.34.71,1.9.1,2.1a2.55,2.55,0,0,1,.09,1.53c-.12,0-.15-.17-.29-.19.47.42.21,1.2.1,1.81a2.37,2.37,0,0,1-.57-.86c-.19.46.78.94.38,1.62-.34-.07-.36-.47-.57-.67,0,.39.7.91.38,1.62-.35-.13-.4-.56-.57-.86,0,.32.83,1.79-.09,1.72.19.29,0,1-.29.76.26.29-.07.57-.1.86.14.31.11-.32.38-.19a5.5,5.5,0,0,1,.38,1.15c-.3.27-.31-.32-.57-.38a1.71,1.71,0,0,1,.09,1.43,1.15,1.15,0,0,1-.57-1.15c-.07-.09-.33,0-.48-.19.12.27.24.47.1.76.1-.06.1-.22.29-.19.14.59.57,1.15.19,1.72a1.9,1.9,0,0,1-.48-1.43c-.35.21-.18.11-.48-.1-.08.83.79,2,.29,2.86,0,.14.28,0,.29.19C91.57,29.54,91.42,29.76,91.06,29.78Zm2-6.87a1,1,0,0,1,.29,1.15A.73.73,0,0,1,93.06,22.91Zm-.1,2a1,1,0,0,1-.29-1.15A.74.74,0,0,1,93,24.92Zm.48-2.86a.87.87,0,0,1,.1,1.15A.85.85,0,0,1,93.45,22.05Zm.29-.76c0,.31.17.4.1.76C93.57,22.09,93.33,21.31,93.73,21.29ZM93.92,20a1.71,1.71,0,0,1,0,1.24C93.56,21,93.89,20.35,93.92,20ZM91.82,29c-.18-.67-.26-1.46-.48-2.1.27,0,.39,1,.57,1.43.3-.18-.15-.41-.1-.67.14-.08.3-.14.29-.38C92.54,27.75,92.47,28.89,91.82,29Zm.86-1c-.29-.49-.52-1.28-.1-1.72C92.77,26.78,93.08,27.62,92.68,28.07Zm.48-.86a1.62,1.62,0,0,1-.29-1.43C93.24,25.92,93.36,26.81,93.16,27.21Zm.38-.76c-.28-.39-.63-1.05-.29-1.53C93.55,25.29,93.87,26,93.54,26.44Zm.29-1a1.36,1.36,0,0,1-.29-1.34C93.83,24.4,93.85,24.93,93.83,25.49Zm.29-.76a1.62,1.62,0,0,1-.29-1.53A1.26,1.26,0,0,1,94.11,24.73Zm.29-1.24a1.06,1.06,0,0,1-.38-1C94.36,22.57,94.44,23,94.4,23.48Zm.1-1c-.59-.25-.3-1-.19-1.53C94.76,21.23,94.47,21.8,94.5,22.43Zm-.1-3.92c.27.12.18.59.19,1C94.33,19.36,94.41,18.89,94.4,18.52Zm0,2.1V20C94.56,20,94.78,20.66,94.4,20.62Zm.19-2.77c-.42-.18-.07-.87-.1-1.24C94.8,16.87,94.5,17.29,94.59,17.85Zm.09-1.72c-.37-.35,0-.86-.09-1.43C94.79,14.63,94.64,15.73,94.69,16.13ZM94.5,8.88a1.22,1.22,0,0,1,.29,1C94.5,9.7,94.49,9.3,94.5,8.88Z"/><path class="cls-1" d="M49.21,71.4q-.06-.77-.16-1.52A2,2,0,0,0,49.21,71.4Z"/><path class="cls-1" d="M49.15,76.18c0,.27.23.47.29.76a5,5,0,0,1,.06.53c-.06-1.47-.1-3-.17-4.44A12.6,12.6,0,0,0,49.15,76.18Z"/><path class="cls-1" d="M49.33,73a6,6,0,0,0,0-1.05,2.51,2.51,0,0,0-.13-.58C49.26,71.94,49.3,72.48,49.33,73Z"/><path class="cls-1" d="M84.28,31.41a1.72,1.72,0,0,0-.29-1A2.89,2.89,0,0,0,84.28,31.41Z"/><path class="cls-1" d="M62.52,49.93a8.18,8.18,0,0,0-5.35,2.48A14.26,14.26,0,0,1,62.52,49.93Z"/><path class="cls-1" d="M56.88,53.08c.23.39-.55.37-.19.67a9.74,9.74,0,0,1,5-2.86c.26,0,.47.3.57-.19-2.22,0-3.91,1.37-5.25,2.58C57,53.2,57,53.08,56.88,53.08Z"/><path class="cls-1" d="M56.6,54.8a12.68,12.68,0,0,1,5.35-3.63c-2.57.29-3.72,2-5.35,3.25C56.73,54.63,56.35,54.77,56.6,54.8Z"/><path class="cls-1" d="M57.84,32.17c.51-.26,1.15-.38,1.62-.67A2.34,2.34,0,0,0,57.84,32.17Z"/><path class="cls-1" d="M43.9,81.34c-.64-.32-1-.88-1.62-1.24A2.68,2.68,0,0,0,43.9,81.34Z"/><path class="cls-1" d="M11.65,31.38a1.7,1.7,0,0,0-.29,1A2.93,2.93,0,0,0,11.65,31.38Z"/></g></g></svg>