<svg xmlns="http://www.w3.org/2000/svg" viewBox="0 0 50.13 109.09"><defs><style>.cls-1{fill:#1e1e1c;}</style></defs><title>Ресурс 3</title><g id="Слой_2" data-name="Слой 2"><g id="Слой_1-2" data-name="Слой 1"><path class="cls-1" d="M26,42.22a1.51,1.51,0,1,0,1.51,1.51A1.5,1.5,0,0,0,26,42.22Zm-.6,1.54a.33.33,0,1,1,.33-.33A.32.32,0,0,1,25.39,43.76Z"/><path class="cls-1" d="M26,40.22a.82.82,0,1,0,.84.8A.8.8,0,0,0,26,40.22Zm-.33.8a.2.2,0,1,1,.2-.2A.19.19,0,0,1,25.65,41Z"/><path class="cls-1" d="M5.56,54.92c-.6-.23-1.21-.1-1.34.27s.23.84.84,1.07,1.21.1,1.34-.27S6.16,55.15,5.56,54.92Zm-.7.5c-.13-.07-.23-.17-.2-.23s.17-.1.3-.07.23.17.2.23A.23.23,0,0,1,4.86,55.42Z"/><path class="cls-1" d="M5.76,54.35c-.37-.13-.74-.07-.84.17s.13.54.54.67.74.07.84-.17S6.13,54.48,5.76,54.35Zm-.44.3a.17.17,0,0,1-.13-.17c0-.07.1-.07.2,0a.17.17,0,0,1,.13.17C5.49,54.68,5.39,54.68,5.32,54.65Z"/><path class="cls-1" d="M8.64,54.92c-.64.1-1.11.5-1,.87s.64.64,1.27.54,1.11-.5,1-.87S9.28,54.82,8.64,54.92Zm-.33.8a.25.25,0,0,1-.3-.13c0-.1.1-.17.23-.2a.25.25,0,0,1,.3.13C8.57,55.62,8.44,55.69,8.31,55.72Z"/><path class="cls-1" d="M8.54,54.31c-.4.07-.67.3-.64.54s.4.4.77.33.67-.3.64-.54S8.94,54.25,8.54,54.31Zm-.23.5c-.1,0-.17,0-.17-.07s.07-.1.13-.13.17,0,.17.07S8.41,54.78,8.31,54.82Z"/><path class="cls-1" d="M31.61,48.92"/><path class="cls-1" d="M18.12,54.55c0,.3.2.67,0,.77.1.3-.17.3.1.74-.07.13.1.5.17.74a4.12,4.12,0,0,1,.27.74c.3.44.4.67.33.7.1.23.33.54.4.67.27.33.27.4.47.64a4.59,4.59,0,0,0,.54.6,5.48,5.48,0,0,0,.6.54c.44.4.3.2.64.47,0-.1.6.44.67.4.47.37.37.13.7.33s.4.1.74.27c.17,0,.6.23.74.17s.74.33.74.1c.17-.07.6.13.77,0a1.1,1.1,0,0,1,.77,0,5.56,5.56,0,0,1,.74-.1c-.1-.4.5-.1.74-.17.1-.23.64,0,.74-.27s.44-.23.7-.33.37-.33.67-.4c.07-.3.4-.33.64-.47,0-.33.27-.47.6-.54s.37-.4.54-.6a2.24,2.24,0,0,0,.47-.64c.23-.13.27-.44.4-.67a1.71,1.71,0,0,0,.33-.7c.33,0,.17-.5.27-.74s.27-.37.17-.74c.1-.2-.1-.67.1-.74-.33-.6,0-.54,0-.77a6.46,6.46,0,0,1,0-.77,1.64,1.64,0,0,1-.1-.74c-.1-.3-.1-.5-.17-.74-.33-.54-.23-.57-.27-.74s.07-.2-.33-.7c-.23-.33-.7-.9-.4-.67.07,0-.37-.47-.47-.64.2.17-.5-.57-.54-.6s-.5-.47-.6-.54a4.22,4.22,0,0,0-.64-.47,2.87,2.87,0,0,1-.67-.4c-.27-.17-.33-.1-.7-.33s-.7-.4-.74-.27a1.08,1.08,0,0,1-.74-.17,1.55,1.55,0,0,0-.74-.1c-.44-.2-.5,0-.77,0,0,.23-.4.13-.77,0s-.6-.07-.74.1a4.75,4.75,0,0,1-.74.17c-.27.07-.33.33-.74.27s-.44.23-.7.33c-.4-.07-.33.37-.67.4s-.47.27-.64.47-.47.3-.6.54-.44.3-.54.6-.44.33-.47.64-.23.5-.4.67a1.71,1.71,0,0,1-.33.7,3.77,3.77,0,0,0-.27.74c-.07.27,0,.6-.17.74a1.32,1.32,0,0,0-.1.74A1.47,1.47,0,0,0,18.12,54.55ZM25.75,48c-.2.2-.4.44-.6.64-.33.37-.67.7-1,1.07l-.23.23h-.17c-.77,0-1.57-.07-2.34-.07,0-.3.5-.17.57-.44s.44-.27.6-.44.5-.17.64-.33a4,4,0,0,0,.67-.27,1.1,1.1,0,0,1,.7-.2c.47.2.4-.17.7-.1a.58.58,0,0,1,.47-.1Zm.2,4.72c.23-.17.5-.33.74-.54.07.27.13.57.2.84-.2,0-.4.1-.6.13l-.2-.1A1.4,1.4,0,0,1,26,52.74ZM26,54.68a.26.26,0,0,0,.17-.07h.13c0,.17.07.33.1.54l-.54-.2A2,2,0,0,0,26,54.68Zm1-1.51a8.16,8.16,0,0,1,.9,0c-.17.3-.37.57-.54.87-.23-.17-.47-.33-.67-.5Zm-.44.3a.33.33,0,0,0-.13-.17c.1,0,.23,0,.33-.07C26.72,53.31,26.66,53.41,26.59,53.48Zm1.27,1.61-1.24.1-.1-.6a9.29,9.29,0,0,0,.87-.33A6.74,6.74,0,0,0,27.86,55.08Zm-1.41-.64a1,1,0,0,0,.23-.57v-.13a3.66,3.66,0,0,1,.57.44,7.54,7.54,0,0,0-.8.27Zm.37-2.31c.44-.1.87-.17,1.31-.27,0,.23-.07.47-.1.67s0,.3-.07.47v0A8.77,8.77,0,0,1,27,53C27,52.74,26.89,52.44,26.83,52.14Zm1.34.84c0-.17,0-.3.07-.47a3.71,3.71,0,0,0,.07-.64c.57.1,1.14.23,1.71.33-.3.6-.6,1.24-.9,1.84l-1-1s0-.07,0-.1Zm.94,1.34c.4.57.77,1.17,1.17,1.74l-1.57.4a2.79,2.79,0,0,0-.5.13c0-.47-.1-.9-.13-1.37l0,0,.13-.1c.13-.1.27-.23.4-.33s.33-.3.47-.44ZM28,55.05c-.17-.3-.33-.57-.5-.87.2-.3.37-.6.57-.94l.94.94c-.17.17-.37.3-.54.47a3.55,3.55,0,0,0-.4.33Zm.07,1.54H26.22c.13-.4.27-.8.37-1.21l1.31-.1c0,.07,0,.1,0,.13s0,.33.07.5A5,5,0,0,0,28.06,56.59Zm-2-.07c-.27-.2-.57-.4-.84-.64l.6-.8c.2.07.4.17.6.23-.1.4-.23.8-.37,1.21Zm-.64-2a2,2,0,0,1-.4.17c0-.13.1-.23.13-.37h.07A.57.57,0,0,0,25.42,54.55Zm-.27-1.07a.7.7,0,0,0-.13-.2c.07,0,.13,0,.2.07S25.15,53.44,25.15,53.48Zm-.5.54.4-.2v0a1,1,0,0,0,.07.3,0,0,0,0,1,0,0A1.68,1.68,0,0,1,24.65,54Zm.37.33a2.62,2.62,0,0,0-.17.47c-.3,0-.6,0-.9.07l.54-.74A2.14,2.14,0,0,1,25,54.35Zm-.57-.44L24,53.44l.8-.2c.1.13.17.27.27.4A4.74,4.74,0,0,1,24.45,53.91Zm.47-.8c.07-.27.1-.54.17-.8l.64.44-.2.4a.73.73,0,0,0-.17.1A1.66,1.66,0,0,0,24.92,53.11Zm.94,1.57c0,.07,0,.1-.07.17l-.17-.17Zm-.1-1.61c0-.07.07-.1.1-.17s0,.1.07.17h0C25.82,53,25.79,53,25.75,53.08Zm-.6,2.65c-.07-.27-.1-.54-.17-.8l.47-.2.27.27C25.52,55.22,25.32,55.49,25.15,55.72Zm-.13.13c-.4.27-.84.54-1.24.84,0-.54.07-1.11.07-1.64.33,0,.67-.07,1-.07C24.88,55.25,24.95,55.55,25,55.85Zm-1.27-1-1.07-.6,1.14-.74.5.5A7.35,7.35,0,0,1,23.74,54.85Zm-.13-2.91c.44.1.87.17,1.34.27-.07.3-.13.6-.17.87l-.87.2C23.81,52.87,23.71,52.41,23.61,51.94Zm0-.13a.12.12,0,0,1,0-.1c.07-.2.1-.4.17-.64s.17-.6.23-.94l.87.37a5.58,5.58,0,0,0,.67.27l.2.1c-.23.4-.5.8-.74,1.21-.5-.1-1-.17-1.44-.27Zm2.24-.8.77,1.07c-.27.17-.54.37-.77.54-.23-.17-.47-.3-.7-.47.23-.37.47-.77.7-1.14Zm.13-.1a.73.73,0,0,0,.17-.1l.6-.3c.27-.13.54-.27.84-.4.17.54.37,1.11.54,1.64L26.76,52C26.52,51.64,26.26,51.27,26,50.9ZM27.73,50,28,50c.77-.07,1.51-.17,2.28-.23L30.14,51c0,.37-.07.7-.07,1.07l-1.77-.37C28.1,51.17,27.93,50.6,27.73,50Zm2.44,2.24.37.3c.6.47,1.17,1,1.77,1.44-.33.33-.64.67-1,1s-.6.6-.87.9l0,0c-.4-.6-.8-1.17-1.21-1.77C29.54,53.54,29.84,52.91,30.17,52.27Zm.6,6.43h-.17c-1,.07-2.11.1-3.15.17.23-.7.47-1.41.74-2.14l2.14-.54c0,.1,0,.17,0,.27C30.51,57.19,30.64,58,30.78,58.7Zm-3.32-.23c0,.13-.1.27-.13.4l-1.77.1c-.37,0-.74,0-1.11.07.57-.77,1.14-1.54,1.71-2.28.64,0,1.24,0,1.88,0,0,.1-.07.23-.1.33a12.5,12.5,0,0,0-.47,1.34Zm-3.15.44c-.17-.67-.37-1.37-.54-2,.44-.3.9-.6,1.34-.87.3.23.6.44.9.67,0,0,0,.07-.07.1l-.33.44L24.31,58.9Zm-.13.13c-.84,0-1.71.1-2.55.13V56.62l1.94.33c0,.17.1.37.13.54.13.47.23.94.37,1.41C24.15,58.9,24.15,59,24.18,59Zm-2.51-2.61c.3-.67.6-1.37.87-2,.37.2.74.4,1.11.64,0,.57-.07,1.17-.07,1.74C23,56.62,22.34,56.52,21.67,56.42Zm.9-2.28-.3-.5c-.17-.3-.37-.6-.54-.87.57-.27,1.17-.54,1.74-.84.1.47.2.94.27,1.41C23.34,53.64,22.94,53.91,22.57,54.15Zm-.9-1.51a1.14,1.14,0,0,0,0-.33c0-.77-.1-1.51-.13-2.28.33,0,.67,0,1,0s.87,0,1.34,0h0c-.07.3-.17.6-.23.9s-.1.4-.17.64c0,0,0,.1,0,.13-.57.3-1.17.57-1.77.87Zm4.92-3.72c.3.33.6.67.9,1a0,0,0,0,0,0,0l-1.64.8L24.15,50l.2-.2c.5-.57,1-1.11,1.54-1.67l.7.8Zm3.65.7-.94.1c-.47,0-.94.1-1.41.13a.42.42,0,0,0-.2,0h0c-.07-.07-.1-.13-.17-.2-.5-.54-1-1.11-1.51-1.64h0c.4.17.5,0,.7,0s.64.23.7.1c.47.27.6.23.7.2a1.6,1.6,0,0,0,.67.27,2.94,2.94,0,0,0,.64.33,1.87,1.87,0,0,1,.6.44l.2.2Zm2.11,3.48c.17.33.23.64.1.7s0,.07-.07.1c-.27-.2-.5-.44-.77-.64l-1.14-.94c-.1-.07-.2-.17-.3-.23V52c.07-.74.1-1.51.17-2.24l.2.2a5,5,0,0,1,.5.57,3.8,3.8,0,0,0,.44.6,6.09,6.09,0,0,0,.33.64c.17.3,0,.2.27.67C32.28,52.71,32.45,53,32.35,53.11ZM30.94,58.7c-.17-.87-.3-1.71-.47-2.58.64-.67,1.27-1.34,1.94-2a1.68,1.68,0,0,1,.07.4c-.1.13.2.7,0,.7.1.33-.17.37-.1.7s-.27.3-.2.7-.1.54-.27.67c0,.37-.33.33-.33.64s-.23.44-.44.6ZM26.12,61a3.53,3.53,0,0,1,.23-.37c.27-.4.54-.84.8-1.24.07-.13.17-.23.23-.37,1.14-.07,2.28-.1,3.42-.17-.07.1-.13.17-.2.27-.33,0-.23.47-.57.5s-.23.47-.6.44-.44.23-.64.33-.44.2-.67.27a1.94,1.94,0,0,1-.7.2c-.23,0-.33.23-.7.1-.13.1-.4,0-.6,0Zm-.37-.4-1-1.11c-.1-.1-.2-.23-.3-.33.8,0,1.64-.07,2.44-.13h.33c-.4.6-.8,1.24-1.21,1.84a2,2,0,0,1-.27-.27ZM21.63,59.3h.17c.8,0,1.64-.07,2.44-.13,0,.07.1.1.17.17.5.57,1,1.11,1.51,1.67-.23,0-.54-.13-.57,0-.54-.3-.44,0-.7-.1s-.47-.13-.7-.2a2.8,2.8,0,0,1-.67-.27c0,.07-.54-.3-.64-.33a4,4,0,0,1-.6-.44c-.27-.23-.3-.23-.4-.33Zm-.1-2.95-.13-.1c-.6-.47-1.21-.94-1.77-1.41l1.14-1.14.8-.8c.3.47.57.94.87,1.41-.3.67-.6,1.34-.9,2Zm-2-1.41.77.6c.37.27.7.57,1.07.84a.46.46,0,0,0,.13.1v2.65l0,0a3,3,0,0,1-.5-.57c-.3-.33-.5-.6-.44-.6a1.94,1.94,0,0,1-.33-.64c.1,0-.2-.44-.27-.67.1-.07-.3-.6-.2-.7a1.42,1.42,0,0,1-.1-.7.73.73,0,0,1-.1-.27Zm0-.4c0-.23.13-.33,0-.7.13-.13,0-.5.1-.7s-.17-.74.2-.7c.17-.13.17-.47.27-.67.27,0,.27-.4.33-.64s.1-.57.44-.6a.55.55,0,0,0,.44-.37c0,.47.07,1,.07,1.44s0,.77.07,1.14l0,0-.37.37-1.64,1.64c.07-.13.07-.2.1-.23Z"/><path class="cls-1" d="M12.06,5.85"/><path class="cls-1" d="M3.08,32.61"/><path class="cls-1" d="M48.69,32.61"/><path class="cls-1" d="M50,35.83c0-.17,0-.3,0-.44s0-.3-.07-.44a2.64,2.64,0,0,1-.1-.44c-.2-.3-.13-.3-.13-.4s0-.1-.2-.4-.4-.54-.23-.37c0,0-.2-.27-.27-.37a4.19,4.19,0,0,1-.3-.33l-.33-.3a1.6,1.6,0,0,0-.37-.27,2.39,2.39,0,0,1-.37-.23,4.47,4.47,0,0,1-.4-.2c-.13-.07-.4-.23-.4-.13a.66.66,0,0,1-.44-.1,1.06,1.06,0,0,0-.44-.07.85.85,0,0,0-.23-.07,5,5,0,0,1,0-.64,1.19,1.19,0,0,0,1-1.17,1.16,1.16,0,0,0-1.14-1.17V28a.63.63,0,0,0,.6-.64.62.62,0,0,0-.64-.64,12.16,12.16,0,0,0-.23-2.55.86.86,0,0,0,0-.57c.64-1.14,0-1.07.27-1.88-.4-.17,0-1.17.1-1.88a5.63,5.63,0,0,0-.1-1.88,4,4,0,0,0-.27-1.88c-.44-.33-.3-1.21-.44-1.84a6.44,6.44,0,0,0-.64-1.81,4.64,4.64,0,0,1-.8-1.74c-.44-.44-.6-1.17-1-1.67-.13-.8-.8-1-1.17-1.61s-1-.9-1.34-1.51-1.07-.84-1.51-1.34-.67-1.21-1.61-1.17-.67-1.14-1.67-1c-.64-.23-.84-.9-1.74-.8S32.22,1.13,31.58,1,30.21.76,29.74.53C29.4.13,28.53.3,27.86.26,27,.46,26,.76,26,.16c-.6,0-.8-.4-1.88.1a5.05,5.05,0,0,0-1.88.27A2.28,2.28,0,0,1,20.4,1c-.07-.37-1.17.37-1.81.64-.87.54-1.07.4-1.74.8a7.9,7.9,0,0,1-1.67,1,10.68,10.68,0,0,0-1.61,1.17c-.23.13-1.37,1.24-1.47,1.34s-1.84,1.91-1.37,1.51C10.42,7.83,9.34,9,9.54,9c.8-.6-.4.8-1,1.67-1,1.24-.4,1-.8,1.74-.07.44.23.5-.64,1.81-.17.6-.2,1.11-.44,1.84A4.78,4.78,0,0,1,6.4,18a9.4,9.4,0,0,1-.1,1.88c.07.54.9.37.1,1.88.47.2.07,1.34.27,1.88a.42.42,0,0,0,0,.2,9.85,9.85,0,0,0-.33,2.91.64.64,0,0,0,0,1.27v.3a1.18,1.18,0,0,0-.13,2.34c0,.4,0,.64,0,.64a.36.36,0,0,0-.23.07,1.06,1.06,0,0,0-.44.07.5.5,0,0,1-.44.1c0-.07-.27.1-.4.13a4.47,4.47,0,0,1-.4.2,2.39,2.39,0,0,1-.37.23,1.6,1.6,0,0,0-.37.27,3,3,0,0,0-.33.3s-.44.44-.3.33c-.07.1-.3.37-.27.37s-.1.2-.23.37-.1.23-.2.4.07.1-.13.4a2.64,2.64,0,0,1-.1.44c0,.13,0,.2-.07.44a2.22,2.22,0,0,1,0,.44c0,.13.2.1,0,.44.1,0,0,.3.07.44s.13.23.1.44,0,.4.13.4a.76.76,0,0,0,.2.4c.07.13.1.3.23.37a1.49,1.49,0,0,0,.27.37c.1.1.13.3.3.33a.36.36,0,0,1,.33.3c.13.07.33.1.37.27s.23.2.37.23.33.07.4.2.37,0,.4.13.5-.13.44.1a1.7,1.7,0,0,1,.44.07.47.47,0,0,1,.44,0c.1,0,.33-.07.44,0s.33-.07.44-.07.33-.1.44-.1.2,0,.4-.13.13,0,.4-.2c0,0,.4-.27.37-.23.2-.17.13,0,.37-.27s.27-.23.33-.3a2.72,2.72,0,0,0,.3-.33,1.75,1.75,0,0,0,.27-.37c0-.07.17-.27.23-.37s0-.17.2-.4,0-.2.13-.4.13-.33.1-.44c.13-.27,0-.23.07-.44-.1,0,0-.27,0-.44a.93.93,0,0,0,0-.44.85.85,0,0,0-.07-.44c-.1-.07-.07-.27-.1-.44a1.42,1.42,0,0,0-.13-.4,1.51,1.51,0,0,1-.2-.4c-.1-.1-.13-.27-.23-.37s-.17-.23-.27-.37-.23-.2-.3-.33-.23-.2-.33-.3-.17-.27-.37-.27-.17-.27-.37-.23-.2-.2-.4-.2-.27-.1-.4-.13a2,2,0,0,1-.44-.1c-.07-.1-.27-.07-.44-.07,0,0,0-.3,0-.77a1.17,1.17,0,0,0-.07-2.24v-.44a.62.62,0,0,0,.3-.57.63.63,0,0,0-.3-.54c0-1.11.1-2,.3-2.11a.88.88,0,0,1,.17.74c.2.6-.2,1.81.64,1.81A4.9,4.9,0,0,0,8.54,29c.3.57.44,1.31,1,1.67a5.51,5.51,0,0,0,1.17,1.61c.44.5.54,1.34,1.34,1.51a1.61,1.61,0,0,1,1.51,1.34c.6.33,1.44.44,1.61,1.17.77.13,1,.8,1.67,1s1.51.23,1.74.8,1.57.07,1.81.64c.57.23,2.14-.57,1.84.44.7,0,1.24.2,1.88.27a2.39,2.39,0,0,1,1.88.1c.44.2,1.47-.23,1.88-.1,0,.54,1.47-.37,1.88-.27s1.47-.5,1.84-.44c.8-.4.9-.1,1.81-.64s.6.07,1.74-.8c.2.07,1.74-1.24,1.67-1,.87-.7.54-.2,1.61-1.17.64-.54,1.14-1,1.51-1.34a14.35,14.35,0,0,0,1.34-1.51c.54-.64.54-.77,1.17-1.61.17-.37.7-1.11,1-1.67-.17-.1.1-.67.8-1.74a9.94,9.94,0,0,1,.64-1.81,4.06,4.06,0,0,1,.17-.47,10.44,10.44,0,0,1,.17,1.84.57.57,0,0,0-.3.54.75.75,0,0,0,.3.57v.44a1.19,1.19,0,0,0-.87,1.14,1.16,1.16,0,0,0,.8,1.11c0,.47,0,.77,0,.77-.17,0-.37,0-.44.07a1.66,1.66,0,0,1-.44.1c-.13,0-.17.2-.4.13s-.27.13-.4.2-.2.2-.37.23-.27.17-.37.27-.27.17-.33.3-.27.17-.3.33-.23.2-.27.37-.13.3-.23.37a1.51,1.51,0,0,1-.2.4,1,1,0,0,0-.13.4c0,.13,0,.33-.1.44a.85.85,0,0,0-.07.44,1.64,1.64,0,0,0,0,.44c0,.17.1.4,0,.44s-.1.17.07.44c0,.07.07.3.1.44a1.39,1.39,0,0,1,.13.4q.25.35.2.4c.07.13.2.3.23.37a1.75,1.75,0,0,0,.27.37,4.29,4.29,0,0,0,.64.64c.23.23.17.1.37.27,0-.07.33.23.37.23.27.2.2.07.4.2s.23.07.4.13.33.13.44.1.44.2.44.07.33.07.44,0a.8.8,0,0,1,.44,0c.13,0,.27-.07.44-.07-.07-.23.3-.07.44-.1s.37,0,.4-.13.23-.13.4-.2.2-.2.37-.23.23-.2.37-.27a.36.36,0,0,1,.33-.3c.17,0,.2-.23.3-.33a1.49,1.49,0,0,0,.27-.37c.13-.07.17-.27.23-.37a1.13,1.13,0,0,0,.2-.4c.2,0,.1-.27.13-.4s.17-.2.1-.44,0-.37.07-.44c-.2-.37,0-.33,0-.44ZM46,28.9a.27.27,0,1,1-.27.27A.29.29,0,0,1,46,28.9ZM45.78,27a.13.13,0,1,1-.13.13A.14.14,0,0,1,45.78,27ZM6,27.32a.13.13,0,1,1,.13-.13C6.16,27.25,6.1,27.32,6,27.32Zm-.2,2.11a.27.27,0,1,1,.27-.27A.25.25,0,0,1,5.79,29.43ZM6.23,35s-.07,0-.13.07A1.19,1.19,0,0,0,5.76,35c0-.17.07-.33.1-.47l.44.3A.57.57,0,0,1,6.23,35Zm.1,1a1.19,1.19,0,0,0-.3.13c0-.1,0-.2.07-.3h.1s.07,0,.1,0S6.33,36,6.33,36Zm-.44-.77a2.79,2.79,0,0,1-.4.27l-.3-.5h.5A1.46,1.46,0,0,0,5.89,35.26Zm-.07-.2c.07,0,.13,0,.2,0s-.07.07-.07.1S5.86,35.12,5.83,35.06Zm-.33.6.5.2c0,.1,0,.23-.07.33-.23,0-.47,0-.7-.07Zm.07-.07.33-.23v.07a.43.43,0,0,0,.13.33ZM5.69,35H5.16c0-.1,0-.17,0-.27s0-.27-.07-.4l.74.13C5.76,34.62,5.73,34.79,5.69,35Zm-.64,0c-.17.2-.37.37-.57.57-.17-.33-.33-.7-.54-1l1-.2c0,.13,0,.23,0,.37s0,.17,0,.27S5.06,35,5.06,35Zm-.27.94.23.2s.07,0,.07.07A6.54,6.54,0,0,0,5,37c-.1,0-.2,0-.27-.07a9,9,0,0,1-.9-.23c.23-.33.44-.67.67-1a2,2,0,0,0,.27.27Zm.3.13a1.46,1.46,0,0,0-.23-.2c-.1-.1-.2-.17-.3-.27l.54-.54a4.69,4.69,0,0,0,.33.54l-.3.5Zm.07.54c0-.1,0-.2,0-.3v-.1c.23,0,.5,0,.74.07l.2.7h-1c0-.1,0-.23.07-.37ZM6,36.26l.33-.13c.1.17.23.3.33.47-.17.13-.33.23-.5.37A4.32,4.32,0,0,0,6,36.26ZM6.36,35v-.1s0,.07.07.1Zm.1.94h0l-.1.1s0-.07,0-.1Zm0,.17.13-.13.27.1c0,.17-.07.3-.1.47A4.9,4.9,0,0,0,6.46,36.06Zm.37-.64.23.1-.27.1v0a.25.25,0,0,0,0-.17Zm.33.13c.1.13.2.3.3.44-.17,0-.33,0-.5,0s-.07-.17-.1-.27A1.19,1.19,0,0,0,7.17,35.56Zm-.33-.23A1.46,1.46,0,0,0,7,35.09l.47.1-.27.27-.33-.13Zm-.07-.1a.07.07,0,0,0-.07-.07s.07,0,.13,0,0,.07-.07.1Zm0,.5h0a.29.29,0,0,1,.1.2l-.23-.1a.46.46,0,0,0,.13-.1Zm.23.33c.2,0,.37,0,.57,0,0,.3,0,.64,0,.94-.23-.17-.47-.3-.7-.47A2.67,2.67,0,0,1,7,36.06Zm.27-.54.3-.3a7.17,7.17,0,0,1,.64.44c-.2.1-.4.23-.6.33C7.47,35.83,7.33,35.69,7.23,35.53Zm.27-.4A2.79,2.79,0,0,1,7,35l-.1-.5.77-.17A6.86,6.86,0,0,0,7.5,35.12ZM6.9,35c-.07,0-.17,0-.23.07s-.07,0-.1-.07a1.63,1.63,0,0,1-.1-.23c.13-.07.23-.17.37-.23A2,2,0,0,0,6.9,35Zm-.54-.27-.44-.3c.13-.2.3-.4.44-.6.13.23.27.44.4.67a1.25,1.25,0,0,0-.4.23Zm-.54-.37c-.27,0-.5-.1-.77-.13.1-.3.2-.64.3-.94.17.07.3.17.47.23s.23.1.33.17.07,0,.1.07a6.79,6.79,0,0,1-.44.6ZM5,34.19l-1,.2c0-.2,0-.4,0-.6s0-.47-.07-.7c.44,0,.87.1,1.31.13h.13A8.27,8.27,0,0,1,5,34.19Zm-.5,1.44c-.23.33-.47.67-.67,1-.17-.17-.33-.33-.5-.54l-.57-.57c.33-.27.67-.54,1-.84.07-.07.13-.1.2-.17.17.37.33.74.54,1.11ZM3.78,36.9c0-.07,0-.1,0-.17L5,37l.4,1.21-1.81-.1h-.1A11.42,11.42,0,0,0,3.78,36.9Zm1.41.37c0-.07,0-.13-.07-.2H6.2c.33.44.64.87,1,1.31-.2,0-.4,0-.64,0s-.67,0-1,0a.62.62,0,0,1-.07-.23c-.1-.27-.17-.54-.27-.8Zm1.31.07c-.07-.1-.13-.17-.2-.27l0,0c.17-.13.33-.23.5-.37l.77.5c-.1.4-.2.77-.3,1.17A7.78,7.78,0,0,0,6.5,37.33Zm.84.94.2-.8a1,1,0,0,0,.07-.3L8.71,37v1.47c-.47,0-1,0-1.44-.07C7.33,38.34,7.33,38.31,7.33,38.27Zm.3-1.21c0-.33,0-.67,0-1,.2-.13.44-.23.64-.37.17.4.33.77.5,1.17C8.37,37,8,37,7.64,37.07Zm-.07-1.91c.07-.27.1-.54.17-.8.33.17.67.3,1,.47l-.3.5a1.87,1.87,0,0,1-.17.27C8,35.46,7.8,35.29,7.57,35.16Zm.17-.9s0-.07,0-.07-.07-.23-.1-.37-.1-.33-.13-.54c.27,0,.5,0,.77,0a3.06,3.06,0,0,0,.57,0c0,.44,0,.87-.07,1.31v.2c-.33-.17-.67-.3-1-.47Zm-.2-.4c0,.13.07.23.1.37v.07c-.27.07-.54.1-.8.17a4.6,4.6,0,0,0-.44-.67s.07,0,.1,0l.37-.17.5-.2A1.26,1.26,0,0,1,7.54,33.85Zm-1.17-.2c-.3-.17-.64-.3-.94-.47.17-.2.33-.37.5-.57s.27-.3.4-.47c.3.33.6.64.9,1l.1.1a8.54,8.54,0,0,1-1,.44ZM4,32.91a1.5,1.5,0,0,1,.33-.23,1.39,1.39,0,0,0,.37-.2,1,1,0,0,0,.37-.17c.07,0,.13,0,.4-.1,0,.07.3-.07.4-.07s.17.07.4,0L5.43,33l-.1.1H5.19l-.8-.1C4.22,33,4,33,3.85,33A.25.25,0,0,0,4,32.91ZM2.78,34.62c.17-.27.07-.2.17-.37s.1-.23.2-.37.2-.3.23-.33.13-.17.3-.33l.1-.1c0,.44.07.87.1,1.27v.07c-.07,0-.1.1-.17.13l-.64.54c-.13.13-.3.23-.44.37,0,0,0,0,0-.07s0-.2.07-.4c-.07-.07,0-.23.1-.4Zm.6,3.48c-.1-.1-.27-.13-.23-.33s-.2-.17-.2-.37-.13-.23-.17-.37-.1-.27-.1-.4-.13-.2-.07-.4c-.13,0,0-.33,0-.4s0-.17,0-.23c.37.37.74.77,1.11,1.14-.1.5-.17,1-.27,1.47a.26.26,0,0,0-.07-.1Zm2.48,1.37c-.2.07-.27,0-.4-.07a1.41,1.41,0,0,1-.4-.1,1.79,1.79,0,0,1-.37-.17l-.37-.2c-.2,0-.2-.2-.33-.23s-.13-.27-.33-.3c0,0-.07-.1-.13-.17l1.94.1c0,.07.1.13.13.2.17.23.3.47.47.7,0,.07.1.13.13.2A.31.31,0,0,1,5.86,39.48Zm-.27-1.11h.17c.47,0,.94,0,1.41.07a.89.89,0,0,0-.17.2c-.2.2-.37.4-.57.64,0,.07-.1.1-.13.17C6.06,39.08,5.83,38.74,5.59,38.37Zm3,.33-.33.23c-.07,0-.33.23-.37.2a3.26,3.26,0,0,1-.37.17c-.13,0-.33.13-.4.1s-.1-.1-.4.07c0-.07-.2,0-.33,0,.3-.3.57-.64.87-.94l.1-.1c.47,0,.94,0,1.41.07h.1a1.4,1.4,0,0,0-.27.2Zm-.27-3,.5-.8.47.47.67.67-1,.8-.07.07A9.79,9.79,0,0,1,8.31,35.66Zm1.64.57a.92.92,0,0,1-.07.4c.07,0-.17.37-.1.4s-.23.37-.17.37a1,1,0,0,1-.2.37s-.07.17-.23.33-.07.1-.3.33l0,0V37l.07-.07.6-.5.44-.33v.17Zm-.77-2.71c.2,0,.17.23.23.33s0,.33.2.37.07.3.17.37.07.3.1.4,0,.33.07.4,0,.27,0,.4,0,.07,0,.13L9.08,35l-.2-.2,0,0c0-.2,0-.44,0-.64s0-.54,0-.8c.07.1.13.2.27.2ZM6.66,32.14c.17,0,.13.17.4.07a.52.52,0,0,1,.4.1,3.93,3.93,0,0,0,.37.17c.1.1.33.07.37.2s.3.07.33.23.3.07.33.23c-.44,0-.9,0-1.34,0h-.1L7.3,33c-.2-.2-.37-.4-.57-.6s-.23-.23-.33-.37a.52.52,0,0,1,.27.07ZM27.73,3.78c.77-.1.57.77,1.74.3a2.22,2.22,0,0,1,1.71.47,10.91,10.91,0,0,0,1.67.67c.37.44,1.41.23,1.61.87.47.37,1.37.3,1.51,1.07s1.27.33,1.41,1.07l-5.83.2h-.4c-.2-.2-.37-.4-.57-.6L28.1,5.15c-.5-.54-1-1.07-1.47-1.57A1.65,1.65,0,0,1,27.73,3.78ZM25.82,16.2a2.59,2.59,0,0,0-.54.23c-.5-.1-1-.23-1.47-.33.17-.7.33-1.41.5-2.08l1.88,1.31C26.05,15.6,26,15.9,25.82,16.2Zm.44,4.59c-.44.17-.87.33-1.31.54.07-.44.13-.87.23-1.31.1,0,.2,0,.27,0h.1a1.09,1.09,0,0,0,.47.13A3.94,3.94,0,0,0,26.26,20.79Zm-2-3.38c-.57.4-1.14.8-1.71,1.24-.44-.7-.87-1.44-1.31-2.14.74,0,1.47,0,2.24,0C23.74,16.77,24,17.07,24.28,17.41Zm-.2-.84.84.2a1.27,1.27,0,0,0-.3.44Zm-1.47,2.58,2.18.8c-.07.5-.17,1-.23,1.47-1-.07-2.08-.17-3.11-.23.37-.67.77-1.37,1.17-2Zm.33-.3,1.44-1a1.14,1.14,0,0,0,0,.33,2,2,0,0,0,.57,1.41v0C24.25,19.35,23.58,19.08,22.94,18.85Zm.5-2.81c-.77,0-1.57,0-2.34,0V16c-.07-.37-.1-.77-.17-1.14-.07-.57-.13-1.14-.23-1.71l3.25.64C23.78,14.56,23.61,15.3,23.44,16Zm-2.75.17-2.41,2.41c-.77-1.54-1.51-3-2.28-4.59l4.29-.87c.07.5.13,1,.2,1.54s.1.77.17,1.17C20.66,16,20.7,16.1,20.7,16.2Zm-1.21,4.09c.33.27.67.57,1,.84a2.35,2.35,0,0,0,.33.27l.07.07c-.1,1.14-.23,2.28-.33,3.42l-1.24-.3c-1.31-.33-2.61-.64-3.92-1,1-1.44,1.94-2.88,2.88-4.32q.6.45,1.21,1Zm1.37.64-1-.8c-.47-.37-.9-.77-1.37-1.14l2.34-2.34,1.41,2.31c-.44.7-.84,1.41-1.27,2.14A.36.36,0,0,0,20.86,20.93Zm.23,2.31c0-.44.1-.87.13-1.27a1.73,1.73,0,0,1,.07-.37c1.11.1,2.18.17,3.28.27.3,1,.64,2,.94,3-.8,0-1.57,0-2.38,0s-1.47,0-2.18,0A13.59,13.59,0,0,1,21.1,23.24Zm3.85-1.47,1.54-.6,1.51,2c-.7.5-1.41,1-2.11,1.54-.33-1-.64-2-.94-2.95Zm3-2.38h.13c.1.3.23.6.33.9l-1-.4,0,0A2.34,2.34,0,0,0,28,19.38Zm0-2.51c.17,0,.33-.1.54-.13-.1.17-.2.33-.3.47A2.9,2.9,0,0,0,28,16.87Zm.37,2.08s0-.07-.07-.07a1.8,1.8,0,0,0,.13-.74V18c.33.17.67.3,1,.47-.33.13-.7.3-1.07.44Zm1.51-.2c.44.64.9,1.24,1.34,1.88-.74-.07-1.51-.13-2.24-.17-.13-.37-.3-.77-.44-1.14C29,19.12,29.4,18.95,29.84,18.75ZM28.4,17.61c.2-.33.4-.64.64-1l2,.5-1.17,1.17C29.37,18,28.9,17.84,28.4,17.61Zm-.77-1.07a2.14,2.14,0,0,0-.47-.27c-.17-.33-.33-.64-.5-1,.54-.37,1.07-.7,1.61-1.07.13.67.27,1.37.4,2C28.33,16.37,28,16.44,27.63,16.54Zm-.8,3.58c.07,0,.1,0,.17,0l-.4.4c-.07-.13-.1-.27-.17-.4A1.63,1.63,0,0,0,26.83,20.12Zm-.44-4h-.1c.07-.13.1-.27.17-.4a2.77,2.77,0,0,0,.23.44c-.13,0-.2,0-.3,0Zm.4,4.82.64-.64c.37.17.77.3,1.14.47-.13.67-.3,1.31-.44,2C27.7,22.13,27.26,21.53,26.79,20.93ZM29,20.86l2.44.2.2,4.12c-1-.67-2.08-1.37-3.11-2C28.63,22.37,28.8,21.59,29,20.86Zm1.21-2.31,1.27-1.27c.94.6,1.88,1.24,2.81,1.84-.87.5-1.74,1-2.61,1.47C31.15,19.92,30.68,19.22,30.17,18.55Zm1.11-1.77c-.74-.17-1.44-.37-2.18-.54-.13-.74-.3-1.47-.44-2.18,1.11-.23,2.21-.47,3.32-.67C31.71,14.5,31.51,15.63,31.28,16.77Zm-2.75-3.08-1.84-2.95a2.82,2.82,0,0,1,.47-.2l1.64-.7,2.14-.9.6,2.31c.13.54.27,1,.4,1.57,0,.07,0,.13,0,.23C30.81,13.22,29.67,13.46,28.53,13.69Zm-.37.17c-.57.37-1.14.77-1.74,1.14-.64-.47-1.31-.9-1.94-1.37.64-.87,1.27-1.77,1.88-2.65C27,11.92,27.56,12.89,28.16,13.86Zm-4.05-.4-3.38-.67c.47-1.37.9-2.71,1.37-4.09l2,1c.5.23,1,.5,1.51.74a2.93,2.93,0,0,1,.4.23C25.42,11.65,24.75,12.55,24.11,13.46Zm-3.78-.67c-1.47.3-2.95.6-4.39.87-.07-.9-.13-1.77-.2-2.68s-.17-2-.23-3l5.63.6c.2,0,.4,0,.6.07C21.23,10,20.76,11.38,20.33,12.79ZM18,18.95c-1,1.47-2,2.95-3,4.42l0,0c-.74-.77-1.47-1.51-2.21-2.28l-2.41-2.51L14.77,15c.3-.23.6-.5.9-.74C16.44,15.8,17.25,17.38,18,18.95ZM15.1,24.61a4.74,4.74,0,0,1,.13-.67c1.77.44,3.55.87,5.32,1.34.6,1.77,1.21,3.52,1.81,5.29l-7.84-.4a1.26,1.26,0,0,1-.37,0c.27-1.84.6-3.68.94-5.53Zm6.16,1.51a6.12,6.12,0,0,1-.27-.84c1.57,0,3.11,0,4.69-.07,1.41,1.91,2.85,3.78,4.25,5.69-.9,0-1.81-.1-2.71-.13-1.47-.07-2.95-.13-4.39-.23-.1-.33-.23-.67-.33-1-.47-1.11-.87-2.28-1.24-3.42Zm5.73.27-.8-1.11a1,1,0,0,1-.13-.2c.74-.54,1.47-1.07,2.21-1.64,1.11.74,2.21,1.47,3.32,2.18-.47,1.71-.9,3.38-1.37,5.09L27,26.38Zm3.68,4.15c.3-1.17.64-2.31.94-3.48.13-.44.23-.9.37-1.34l4.86-.84c0,.1,0,.23,0,.27,0,1.14,0,2.28,0,3.42,0,.9,0,1.81,0,2.71l-6.3-.3a.89.89,0,0,1,0-.44ZM32,25.31c-.07-1.44-.13-2.88-.2-4.35l2.78-1.57c.74,1.71,1.47,3.38,2.21,5.09C35.16,24.78,33.59,25,32,25.31Zm-.33-8.37.7-3.52c1.44.67,2.88,1.37,4.35,2-.44.74-.9,1.47-1.34,2.18-.23.4-.5.8-.74,1.21C33.62,18.21,32.62,17.58,31.65,16.94Zm.74-4c0-.1-.07-.23-.1-.33-.13-.54-.27-1-.4-1.57-.2-.77-.4-1.51-.6-2.28h.07l3.28-.1,2.55-.1c-.1,1.88-.23,3.75-.33,5.66,0,.27,0,.54,0,.8-1.47-.7-2.95-1.37-4.42-2.08Zm-6-9.11C27.66,5.25,28.93,6.66,30.24,8c.17.17.3.33.47.5-1.44.6-2.88,1.24-4.32,1.84l-4.09-2s0-.07.07-.07c.74-.8,1.47-1.64,2.21-2.44C25.18,5.22,25.75,4.55,26.36,3.88ZM16,7.16a6.4,6.4,0,0,1,1.51-1.07,10.45,10.45,0,0,0,1.61-.87,4.09,4.09,0,0,0,1.67-.67c.23.13.6.2,1.71-.47.13.33,1.27-.33,1.74-.3s.8.3,1.77-.1h.07L22.34,7.8a5.56,5.56,0,0,1-.44.47h-.1c-.17,0-.33,0-.5-.07C20.13,8.07,19,8,17.78,7.83c-.77-.07-1.57-.17-2.34-.23A5.13,5.13,0,0,1,16,7.16Zm-5.26,7.4c.8-1.17.23-.94.67-1.67s.44-.94.87-1.61a15.12,15.12,0,0,0,1.07-1.51,11,11,0,0,1,1.24-1.41l.5-.5c.13,1.88.3,3.75.44,5.59a.93.93,0,0,0,0,.3l-.74.6L12,16.67c-.64.54-1.27,1-1.91,1.57A.28.28,0,0,0,9.95,18c-.33-.2-.1-.9.3-1.74-.27-.2.13-1,.47-1.71ZM13.33,29.8c-.44-.44-1.21-.54-1.07-1.51-.07-.77-.94-.7-.87-1.61A2.92,2.92,0,0,1,10.72,25c.2-1-.37-1.11-.47-1.71.17-.87-.5-.87-.3-1.74-.6,0,.13-1.41-.1-1.77.07-.33.13-.7.2-1,1.61,1.67,3.21,3.32,4.79,5-.37,2.14-.77,4.25-1.14,6.4A1.29,1.29,0,0,0,13.33,29.8Zm10.88,6c-.94.3-1.14-.17-1.74-.3a5.34,5.34,0,0,1-1.71-.47c-.57-.2-1-.5-1.67-.67a9.09,9.09,0,0,0-1.61-.87c-.94.1-.84-.87-1.51-1.07s-.6-1.14-1.41-1.24c-.17-.2-.33-.44-.5-.67,2.81.13,5.66.27,8.47.44a9,9,0,0,0,.6.94c.67,1,1.34,2,2,3.08.2.3.4.64.6.94a3.27,3.27,0,0,1-1.54-.1ZM26,35.59c-1-1.54-2-3.08-3-4.62.27,0,.54,0,.8,0l6.06.3-.77.87c-.84.9-1.64,1.81-2.48,2.71-.2.23-.4.47-.64.7Zm10-3.15c-.44.33-1,.77-1.51,1.07-.3.1-1.51,1.07-1.61.87a7.6,7.6,0,0,1-1.67.67c-.54.17-1.41.6-1.71.47-.64.17-.44-.5-1.74.3-.17-.3-.84-.07-1.44,0,1.24-1.37,2.48-2.75,3.75-4.12.1-.13.27-.27.37-.4l6.06.3a1.63,1.63,0,0,1,.4,0C36.64,31.91,36.6,31.91,36,32.45Zm-1.11-13.3c.7-1.17,1.44-2.31,2.14-3.48l2,2,2.85,2.85c-1.47,1.17-2.95,2.34-4.45,3.52-.1.1-.2.17-.3.27C36.37,22.6,35.63,20.89,34.86,19.15ZM42,21.56a3.54,3.54,0,0,1-.3,1.74c.27.2-.7,1.54-.47,1.71-.2.57-.94,1.64-.67,1.67a5.55,5.55,0,0,1-.87,1.61c.17,0-.33.7-1.07,1.51a7,7,0,0,1-1.24,1.41l-.1.1c0-1.91,0-3.78,0-5.69v-.87c.1-.07.2-.17.3-.23l2.68-2.11,1.91-1.51A3,3,0,0,0,42,21.56Zm.23-1.24-4.05-4.05-.87-.87-.13-.13v0c.07-.94.1-1.88.17-2.81.07-1.21.13-2.38.2-3.58.2.5.47.9,1.07.94.8.07.7,1,1.07,1.51s.17,1.47.87,1.61c.27.54.23,1.34.67,1.67.9-.17.23,1.24.47,1.71s-.07,1.44.3,1.74c-.27.9.13,1.14.1,1.77a.55.55,0,0,1,.13.54ZM48,33.08l.1.1a2.44,2.44,0,0,1,.3.33,1.5,1.5,0,0,0,.23.33c.1.13.07.17.2.37s0,.1.17.37.17.33.1.4c.1.2.13.37.07.4s0,0,0,.07c-.13-.13-.3-.23-.44-.37l-.64-.54c-.07,0-.1-.1-.17-.13v-.07c0-.4.07-.84.1-1.27Zm-2.61,2.81s0,.07,0,.1l-.1-.1h.13ZM45.34,35s0-.07.07-.1,0,.07,0,.1Zm-.1,0s-.07,0-.1.07S45,35,44.91,35s.07-.3.1-.47c.13.07.23.17.37.23a1.92,1.92,0,0,0-.13.23Zm-.3.33c-.1.07-.23.1-.33.17l-.27-.27.47-.1a.31.31,0,0,1,.13.2Zm0-.23s.07,0,.13,0l-.07.07s-.07,0-.07-.1Zm-.33.47a1.19,1.19,0,0,1,.3.13c0,.1-.07.17-.1.27s-.33,0-.5,0a4.9,4.9,0,0,0,.3-.44Zm.1,0,.23-.1v0a.3.3,0,0,0,0,.17v0a1,1,0,0,0-.27-.13Zm.3.2h0a.46.46,0,0,1,.13.1l-.23.1a.29.29,0,0,0,.1-.2Zm-.2-.74a2.79,2.79,0,0,0-.5.13c-.07-.27-.1-.54-.17-.77l.77.17C44.88,34.66,44.84,34.82,44.81,35Zm-.27.54c-.1.17-.23.3-.33.47-.2-.1-.4-.23-.6-.33a7.17,7.17,0,0,0,.64-.44l.3.3Zm-.27.57c.2,0,.37,0,.57,0l.1.5c-.23.17-.47.3-.7.47A8.77,8.77,0,0,1,44.27,36.1Zm.64-.07.27-.1.13.13-.3.4c0-.13-.07-.27-.1-.44Zm.5.1.33.13c-.07.23-.13.47-.2.67-.17-.13-.33-.23-.5-.37C45.18,36.43,45.28,36.26,45.41,36.13Zm.47-.7v-.07l.33.23c-.13.07-.3.1-.44.17A.57.57,0,0,0,45.88,35.43Zm-.13-.3c.07,0,.13,0,.2,0s-.07.1-.1.13S45.78,35.12,45.75,35.12Zm.54.54.27.47c-.23,0-.47,0-.7.07,0-.1,0-.23-.07-.33Zm-.37-.4a.6.6,0,0,0,.17-.23h.5l-.3.5A2.56,2.56,0,0,1,45.91,35.26Zm.17-.3a2.79,2.79,0,0,0-.13-.5l.74-.13c0,.13,0,.27-.07.4s0,.17,0,.27A2.22,2.22,0,0,0,46.08,35ZM46,35a1.19,1.19,0,0,1-.33.07s-.07,0-.13-.07a.48.48,0,0,1-.07-.2l.44-.3a2.22,2.22,0,0,0,.1.5Zm-.5.94s.07,0,.1,0h.1c0,.1,0,.2.07.3a1.19,1.19,0,0,1-.3-.13.2.2,0,0,1,0-.13Zm.33.37c.23,0,.5,0,.74-.07v.1c0,.1,0,.2,0,.3s0,.27,0,.37h-1c.07-.23.17-.47.23-.7Zm.8-.17-.3-.5a4.69,4.69,0,0,1,.33-.54l.54.54c-.1.1-.2.17-.3.27a1.46,1.46,0,0,1-.23.2l0,0Zm0,.07s.07,0,.07-.07l.23-.2a1.91,1.91,0,0,0,.27-.23c.23.33.44.67.67,1a9,9,0,0,0-.9.23c-.1,0-.2,0-.27.07A7.09,7.09,0,0,0,46.68,36.16Zm.6-.6L46.72,35v-.07c0-.1,0-.17,0-.27s0-.23,0-.37l1,.2c-.13.37-.3.7-.47,1.07Zm-.47-1.37c-.1-.33-.2-.64-.33-1h.13c.44,0,.87-.1,1.31-.13,0,.23,0,.47-.07.7s0,.4,0,.6l-1-.2Zm-.1,0c-.27,0-.5.1-.77.13l-.44-.64s.07,0,.1-.07.23-.1.33-.17.3-.17.47-.23c.1.33.2.64.3,1Zm-.87.17-.44.3c-.13-.1-.27-.17-.4-.27.13-.23.27-.44.4-.67C45.58,34,45.71,34.19,45.85,34.39Zm-.9,0c-.27-.07-.54-.1-.8-.17v-.07c0-.13.07-.23.1-.37s.1-.37.13-.54l.5.2.37.17s.07,0,.1,0c-.13.27-.27.5-.4.74Zm-.77-.6c0,.13-.07.23-.1.37s0,.07,0,.07c-.33.17-.67.3-1,.47v-.2c0-.44,0-.87-.07-1.31a3.06,3.06,0,0,1,.57,0c.27,0,.5,0,.77,0a3.14,3.14,0,0,0-.13.54Zm-.13.54c.07.27.1.54.17.8-.23.13-.44.3-.67.44a1.87,1.87,0,0,0-.17-.27l-.3-.5A8.68,8.68,0,0,1,44,34.35Zm-.5,1.37c.2.13.44.23.64.37,0,.33,0,.67,0,1L43,36.9c.17-.4.33-.8.5-1.17Zm.6,1.44a1,1,0,0,1,.07.3l.2.8a.12.12,0,0,0,0,.1c-.47,0-1,0-1.44.07V37Zm.1,0,.77-.5c.17.13.33.23.5.37a0,0,0,0,1,0,0c-.07.1-.13.17-.2.27-.23.33-.5.67-.74,1C44.44,37.94,44.34,37.54,44.24,37.13Zm1.34-.07h1.07c0,.07,0,.13-.07.2-.1.27-.17.54-.27.8a.62.62,0,0,0-.07.23c-.33,0-.67,0-1,0s-.4,0-.64,0c.33-.44.64-.87,1-1.31Zm.77,1.21.4-1.21,1.21-.3c0,.07,0,.1,0,.17.07.44.17.84.23,1.27h-.1C47.56,38.21,47,38.24,46.35,38.27ZM48,36.63c-.23-.33-.47-.67-.67-1,.17-.37.37-.74.54-1.07.07.07.13.1.2.17.33.27.67.54,1,.84l-.57.57a7.1,7.1,0,0,0-.5.5Zm-2.51-4.52c.23.1.27,0,.4,0s.37.13.4.07c.27.17.33.13.4.1a2.15,2.15,0,0,0,.37.17l.37.2a1,1,0,0,1,.33.23.46.46,0,0,0,.13.1c-.17,0-.37,0-.54.07l-.8.1h-.13l-.1-.1c-.27-.33-.57-.67-.84-1Zm.33.5c.17.2.33.37.5.57-.3.17-.64.3-.94.47-.33-.13-.67-.27-1-.44l.1-.1c.3-.33.6-.64.9-1a6,6,0,0,0,.44.47Zm-2.61.3c0-.17.23-.17.33-.23s.27-.1.37-.2a1.24,1.24,0,0,0,.37-.17.48.48,0,0,1,.4-.1c.27.1.23-.1.4-.07a.52.52,0,0,1,.27-.07c-.1.13-.23.23-.33.37s-.37.4-.57.6l-.13.13h-.1c-.44,0-.9,0-1.34,0,0-.17.3-.1.33-.23Zm-1.41,2.91c0-.13.07-.2,0-.4s0-.27.07-.4-.1-.44.1-.4.1-.27.17-.37.13-.23.2-.37.07-.33.23-.33a.25.25,0,0,0,.23-.2c0,.27,0,.54,0,.8s0,.44,0,.64l0,0-.2.2-.94.94c0-.1,0-.13.07-.13Zm1.11,1.31v1.31l0,0c-.23-.23-.23-.27-.3-.33s-.27-.33-.23-.33a1.36,1.36,0,0,1-.2-.37c.07,0-.1-.27-.17-.37s-.17-.33-.1-.4a.92.92,0,0,1-.07-.4.36.36,0,0,0,0-.17l.44.33.6.5.07.07a.42.42,0,0,1,0,.2Zm-.07-.33-1-.8.67-.67.47-.47.5.8c-.17.4-.33.8-.5,1.17C42.93,36.83,42.9,36.8,42.87,36.8Zm2.24,2.68c-.3-.17-.27,0-.4-.07s-.27-.07-.4-.1-.27-.13-.37-.17-.3-.17-.37-.2l-.33-.23c-.13-.13-.13-.13-.2-.17h.1c.47,0,.94,0,1.41-.07l.1.1c.3.3.57.64.87.94-.2,0-.37-.1-.4,0Zm.4,0c0-.07-.1-.1-.13-.17-.2-.2-.37-.4-.57-.64a.89.89,0,0,1-.17-.2c.47,0,.94,0,1.41-.07h.17C45.95,38.74,45.75,39.08,45.51,39.44Zm2.61-1c-.17,0-.13.27-.33.3s-.13.27-.33.23a2,2,0,0,0-.37.2,1.24,1.24,0,0,0-.37.17.8.8,0,0,1-.4.1c-.13,0-.2.13-.4.07a1.15,1.15,0,0,1-.37,0c0-.07.1-.13.13-.2.17-.23.3-.47.47-.7,0-.07.1-.13.13-.2l1.94-.1s-.07,0-.1.1Zm1.07-2.21c.07.2-.1.2-.07.4s-.17.17-.1.4-.07.3-.17.37-.2.2-.2.37-.13.23-.23.33-.07,0-.1.07c-.1-.5-.17-1-.27-1.47.37-.37.74-.77,1.11-1.14,0,.07,0,.17,0,.23s.13.4,0,.44Z"/><path class="cls-1" d="M4.52,56.06H4.15c-.44,0-.8-.37-.8,0s.44.9,0,.9a7.15,7.15,0,0,1-2.08,0l-.64-.2a9.45,9.45,0,0,0,1.94.8c.4,0-.8.74-.8.74h.47l-.47.64h.47a8.34,8.34,0,0,0-1,1.81l-.17.64s1-1.11,1.51-1.07c-.47.6-.47,1.17-1.94,1.88l.74-.1-.74.44H1.77S.7,67.54,0,68.25a10.94,10.94,0,0,1,1.34-1.61A18.38,18.38,0,0,1,.5,68.88c.74-1.07,1.07-1.64,1.07-1.64L.4,69.59s1.31-.84,1.41-1.34-.3,5.69.5,8.64,4.52,7,4.52,7S3.68,70.26,3.68,69.25c.54,1.91.8,1.88.8,1.88l-.17-1.44.44.7-.44-1.77.84,1.31a30.17,30.17,0,0,0-.9-3.48,4.57,4.57,0,0,1,.8,1.71,6.29,6.29,0,0,0-.27-1.81c-.27-.7.9,1.51.9,1.51a12.9,12.9,0,0,1-1-2.44V64.33s1,1.37,1.44,1.44a18.17,18.17,0,0,1-.9-2.24S6.3,65.13,6.5,65.13a18.67,18.67,0,0,1-1.34-2.58L5.06,62l.8.57-.6-1.07.54-.1a5.24,5.24,0,0,1-.47-1.17c0-.27.27-.27.54.2s1,.27,1,.27S6,59.67,6,59.24s.6-.6.84-.7-.74-.44-.74-.44l.8-.6s-.94.07-.94-.2.27-.7-.17-.9a3.28,3.28,0,0,0-1.27-.33Z"/><path class="cls-1" d="M47.76,56.06h-.37c-.44,0-.8-.37-.8,0s.44.9,0,.9a7.15,7.15,0,0,1-2.08,0l-.64-.2a9.45,9.45,0,0,0,1.94.8c.4,0-.8.74-.8.74h.47l-.47.64h.47a8.34,8.34,0,0,0-1,1.81l-.17.64s1-1.11,1.51-1.07c-.47.6-.47,1.17-1.94,1.88l.74-.1-.74.44H45s-1.07,5-1.77,5.73a10.94,10.94,0,0,1,1.34-1.61,18.38,18.38,0,0,1-.84,2.24c.74-1.07,1.07-1.64,1.07-1.64l-1.17,2.34s1.31-.84,1.41-1.34-.3,5.69.5,8.64,4.52,7,4.52,7-3.15-13.66-3.15-14.67c.54,1.91.8,1.88.8,1.88l-.17-1.44.44.7-.44-1.77.84,1.31a30.17,30.17,0,0,0-.9-3.48,4.57,4.57,0,0,1,.8,1.71A6.29,6.29,0,0,0,48,66.34c-.27-.7.9,1.51.9,1.51a12.9,12.9,0,0,1-1-2.44V64.33s1,1.37,1.44,1.44a18.17,18.17,0,0,1-.9-2.24s1.07,1.61,1.27,1.61a18.67,18.67,0,0,1-1.34-2.58l-.1-.57.8.57-.6-1.07.54-.1a5.24,5.24,0,0,1-.47-1.17c0-.27.27-.27.54.2s1,.27,1,.27-.84-1-.84-1.44.6-.6.84-.7-.74-.44-.74-.44l.8-.6s-.94.07-.94-.2.27-.7-.17-.9a3.28,3.28,0,0,0-1.27-.33Z"/><path class="cls-1" d="M6.26,40.32a6.33,6.33,0,0,1,0,2.85,29.09,29.09,0,0,0-.37,5.46c.07.84.4,2.78,0,3.75a8,8,0,0,0-.5,2l.47.13a8,8,0,0,0,.94-2.18,16.51,16.51,0,0,0,0-3.42,34.06,34.06,0,0,1,.1-3.68,17.7,17.7,0,0,0-.17-5C6.4,39.48,6.26,40.32,6.26,40.32Z"/><path class="cls-1" d="M8.94,55.89a12.42,12.42,0,0,1,3.21,2.24,7.53,7.53,0,0,1,1.77,3.82c-.74-1.47-1.31-2.14-1.64-2.24s-.54.3-.3.67,1.64,1.67,1.67,1.88a8.59,8.59,0,0,1-1.57-1.11,6.46,6.46,0,0,1,1.14,1.94,14.46,14.46,0,0,0-1.31-1.37,9.29,9.29,0,0,1,1.31,2.11c0,.47-1.14-1.34-1.14-1.34s.77,2,.9,2.51a5.12,5.12,0,0,0,1.37,1.94,2,2,0,0,1,.64.84,10.87,10.87,0,0,1-2-1.37c-.07.67-.07,1.14-.07,1.14l.74,1.21-1-.7a9,9,0,0,1-.3-1.27c0-.27-.54.27-.4.77a5.79,5.79,0,0,1,0,1.57l-.17,3.28-.27-1.07s-1,3.55-2,6.5S8.27,81.71,7.8,82.28a36.55,36.55,0,0,0-2.18,3.32c-.13.27-1.07,1.47-1.41,1.37s.33-.74.7-1.41A30.81,30.81,0,0,0,7,81.21c-.1-.27.8-1.37.8-1.37l-.84.6a5.43,5.43,0,0,0,.9-1.94,19.59,19.59,0,0,0,.27-3.35c-.1-.74.57-1.67.84-2.41a3.45,3.45,0,0,0-.1-1.94,14.86,14.86,0,0,1,.2-3.68l.2-.54L7.7,68.92l.17-.77-.47.37L8.14,67l-.9,1,.84-1.41-1.31,1,.77-1.14-1.14.67a18.39,18.39,0,0,0,2.71-2.71c.44-.77.2-1.88.4-2.14s-.17-.3-.5-.47a.64.64,0,0,0-.94.3c-.27.47-.94,1.31-.9,1.64,0-1-.27-1.27.1-1.77-.77,1-.74.44-1.14,1.21,0-.54,0-1.31.23-1.41s-.6-.44-.84-.2.57-.57.57-.74-.67-1-.8-.84-.64-.7-.47-.74.47.13.7-.3,0-.44-.3-.6-.4-.2.07-.64-.27-1.27,0-1.34.3,0,.3,0a8,8,0,0,0,1.57,0c.37-.07.44-.3.27-.5s.67,0,.87-.07a1.67,1.67,0,0,1,.64,0Z"/><path class="cls-1" d="M7.13,40.25a13.46,13.46,0,0,1,.23,1.61c0,.44.5,3.88.54,5s.1,4,0,5a7.48,7.48,0,0,0,.44,2.55l.44.13v-.2a15.82,15.82,0,0,1-.17-1.94c0-.84-.13-4.42,0-5.79s-1-3.42-1-6.4Z"/><path class="cls-1" d="M47.45,54.92c-.64.1-1.11.5-1,.87s.64.64,1.27.54,1.11-.5,1-.87S48.09,54.82,47.45,54.92Zm-.37.8a.25.25,0,0,1-.3-.13c0-.1.1-.17.23-.2a.25.25,0,0,1,.3.13C47.35,55.59,47.22,55.69,47.09,55.72Z"/><path class="cls-1" d="M47.32,54.31c-.4.07-.67.3-.64.54s.4.4.77.33.67-.3.64-.54S47.72,54.25,47.32,54.31Zm-.2.5c-.1,0-.17,0-.17-.07s.07-.1.13-.13a.14.14,0,0,1,.17.07C47.25,54.75,47.19,54.78,47.12,54.82Z"/><path class="cls-1" d="M45.91,40.25a13.46,13.46,0,0,1,.23,1.61c0,.44.5,3.88.54,5s.1,4,0,5a7.48,7.48,0,0,0,.44,2.55l.44.13v-.2a15.82,15.82,0,0,1-.17-1.94c0-.84-.13-4.42,0-5.79s-1-3.42-1-6.4Z"/><path class="cls-1" d="M32,74.91c.13.37.74.5,1.34.27s1-.7.84-1.07-.74-.5-1.34-.27S31.85,74.54,32,74.91Zm1.21-.64c0-.1.07-.2.2-.23s.27,0,.3.07-.07.2-.2.23S33.26,74.37,33.22,74.27Z"/><path class="cls-1" d="M32.12,73.94c.1.23.47.3.84.17s.6-.44.54-.67-.47-.3-.84-.17S32,73.7,32.12,73.94Zm.77-.4c0-.07,0-.13.13-.17a.19.19,0,0,1,.2,0c0,.07,0,.13-.13.17S32.89,73.6,32.89,73.54Z"/><path class="cls-1" d="M28.5,74.37c-.07.4.4.77,1,.87s1.21-.13,1.27-.54-.4-.77-1-.87S28.53,74,28.5,74.37Zm1.37.07c0-.1.13-.13.3-.13s.27.1.23.2-.13.13-.3.13S29.84,74.51,29.87,74.44Z"/><path class="cls-1" d="M29.07,73.57c0,.23.23.5.64.54s.74-.1.77-.33-.23-.5-.64-.54S29.1,73.34,29.07,73.57Zm.87,0c0-.07.1-.1.17-.07s.17.07.13.13a.12.12,0,0,1-.17.07C30,73.7,29.91,73.67,29.94,73.6Z"/><path class="cls-1" d="M15.77,79.16c-.07.4.4.77,1,.87s1.21-.13,1.27-.54-.4-.77-1-.87S15.84,78.76,15.77,79.16Zm1.37,0c0-.1.13-.13.3-.13s.27.1.23.2-.13.13-.3.13S17.11,79.3,17.15,79.2Z"/><path class="cls-1" d="M16.34,78.36c0,.23.23.5.64.54s.74-.1.77-.33-.23-.5-.64-.54S16.38,78.09,16.34,78.36Zm.87,0c0-.07.1-.1.17-.07s.17.07.13.13-.1.1-.17.07S17.21,78.43,17.21,78.36Z"/><path class="cls-1" d="M18.52,79.33c0,.4.6.67,1.24.6s1.11-.44,1.07-.84-.6-.67-1.24-.6S18.45,78.93,18.52,79.33Zm1.34-.3c0-.1.1-.17.23-.2s.27,0,.27.13-.1.17-.23.2S19.86,79.1,19.86,79Z"/><path class="cls-1" d="M18.89,78.39c0,.23.37.4.77.37s.7-.27.67-.5-.37-.4-.77-.37S18.85,78.16,18.89,78.39Zm.8-.2c0-.07.07-.1.17-.13s.17,0,.17.1-.07.1-.17.13A.18.18,0,0,1,19.69,78.19Z"/><path class="cls-1" d="M33.89,75h.37s.8-.37.8,0-.44.9,0,.9a7.15,7.15,0,0,0,2.08,0l.64-.2a9.45,9.45,0,0,1-1.94.8c-.4,0,.8.74.8.74h-.47l.47.64h-.47a8.34,8.34,0,0,1,1,1.81l.17.64s-1-1.11-1.51-1.07c.47.6.47,1.17,1.94,1.88L37,81l.74.44H36.64s1.07,5,1.77,5.73a10.94,10.94,0,0,0-1.34-1.61,18.38,18.38,0,0,0,.84,2.24c-.74-1.07-1.07-1.64-1.07-1.64L38,88.51s-1.31-.84-1.41-1.34.3,5.69-.5,8.64-4.52,7-4.52,7,3.15-13.66,3.15-14.67c-.54,1.91-.8,1.88-.8,1.88l.17-1.44-.44.7.44-1.77-.84,1.31a30.17,30.17,0,0,1,.9-3.48,4.57,4.57,0,0,0-.8,1.71,6.29,6.29,0,0,1,.27-1.81c.27-.7-.9,1.51-.9,1.51a12.9,12.9,0,0,0,1-2.44V83.25s-1,1.37-1.44,1.44a18.17,18.17,0,0,0,.9-2.24s-1.07,1.61-1.27,1.61a18.67,18.67,0,0,0,1.34-2.58l.1-.57-.8.57.6-1.07-.54-.1a5.24,5.24,0,0,0,.47-1.17c0-.27-.27-.27-.54.2s-1,.27-1,.27.84-1,.84-1.44-.6-.6-.84-.7.74-.44.74-.44l-.8-.6s.94.07.94-.2-.27-.7.17-.9A3.28,3.28,0,0,1,33.89,75Z"/><path class="cls-1" d="M32.12,59.27a6.33,6.33,0,0,0,0,2.85,29.09,29.09,0,0,1,.37,5.46c-.07.87-.4,2.78,0,3.75a8,8,0,0,1,.5,2l-.47.13a8,8,0,0,1-.94-2.18,16.51,16.51,0,0,1,0-3.42,34.06,34.06,0,0,0-.1-3.68,17.7,17.7,0,0,1,.17-5C32,58.43,32.12,59.27,32.12,59.27Z"/><path class="cls-1" d="M29.47,74.81a12.42,12.42,0,0,0-3.21,2.24,7.53,7.53,0,0,0-1.77,3.82c.74-1.47,1.31-2.14,1.64-2.24s.54.3.3.67S24.78,81,24.75,81.17a8.59,8.59,0,0,0,1.57-1.11A6.46,6.46,0,0,0,25.18,82a14.46,14.46,0,0,1,1.31-1.37,9.29,9.29,0,0,0-1.31,2.11c0,.47,1.14-1.34,1.14-1.34s-.77,2-.9,2.51A5.12,5.12,0,0,1,24,85.86a2,2,0,0,0-.64.84,10.87,10.87,0,0,0,2-1.37c.07.67.07,1.14.07,1.14l-.74,1.21.94-.74a9,9,0,0,0,.3-1.27c0-.27.54.27.4.77a5.84,5.84,0,0,0,0,1.57l.17,3.28.27-1.07s1,3.55,2,6.5,1.21,3.88,1.67,4.45a36.55,36.55,0,0,1,2.18,3.32c.13.27,1.07,1.47,1.41,1.37s-.33-.74-.7-1.41a30.81,30.81,0,0,1-2.08-4.35c.1-.27-.8-1.37-.8-1.37l.8.57a5.43,5.43,0,0,1-.9-1.94A19.59,19.59,0,0,1,30.21,94c.1-.74-.57-1.67-.84-2.41a3.45,3.45,0,0,1,.1-1.94,14.86,14.86,0,0,0-.2-3.68l-.2-.54,1.57,2.34L30.48,87l.47.37-.74-1.47.9,1-.84-1.41,1.31,1-.77-1.14,1.14.67a18.39,18.39,0,0,1-2.71-2.71c-.44-.77-.2-1.88-.4-2.14s.17-.3.5-.47a.64.64,0,0,1,.94.3c.27.47.94,1.31.9,1.64,0-1,.27-1.27-.1-1.77.77,1,.74.44,1.14,1.21,0-.54,0-1.31-.23-1.41s.6-.44.84-.2-.57-.57-.57-.74.67-1,.8-.84.64-.7.47-.74-.47.13-.7-.3,0-.44.3-.6.4-.2-.07-.64.27-1.27,0-1.34-.3,0-.3,0a8,8,0,0,1-1.57,0c-.37-.07-.44-.3-.27-.5s-.67,0-.87-.07a1.06,1.06,0,0,0-.57.1Z"/><path class="cls-1" d="M31.25,59.17A13.46,13.46,0,0,0,31,60.78c0,.44-.5,3.88-.54,5s-.1,4,0,5A7.48,7.48,0,0,1,30,73.3l-.44.13v-.2a15.82,15.82,0,0,0,.17-1.94c0-.84.13-4.42,0-5.79s1-3.42,1-6.4Z"/><path class="cls-1" d="M47.62,39.81s.23,3.42.2,3.92a21.68,21.68,0,0,0-.1,2.81c.07,1,.74,6,.4,6.53s-1.31,3.65-.7,4-1,.3-1,.3-.4-3.52,0-4.25.87-12.22.4-13,.8-.3.8-.3Z"/><path class="cls-1" d="M20.76,60.61a22.36,22.36,0,0,0-.6,4.29c-.07,2,.17,7.77.3,8.64s.33,3.92-.74,4.52l-.44,0s.37-7.13.27-8.41S19.22,61,20.66,59.51s.1,1.11.1,1.11Z"/><path class="cls-1" d="M20.76,60.61S19,61.68,19,62.75,18.59,73,18.08,74.11A32.07,32.07,0,0,0,16.95,78l.5.4s.8-3.25,1-3.82a31.28,31.28,0,0,0,1-6A75,75,0,0,1,20.76,60.61Z"/><path class="cls-1" d="M16.34,79.93l-4.55,7.5,1-.64L12,88.11l.37-.23-.37.87.74-.37-1,1.64.6-.37A18.54,18.54,0,0,0,12,92.36c0,.94.7,5.16,1.57,6.56a8.42,8.42,0,0,0,.5,3.28l.9,1.57s.37,1.91,1.07,2.28a2.41,2.41,0,0,1,1,1.57c.1.37,1.27,1.64,1.77,1.44s1.24-.87,1.17-1.34a1.39,1.39,0,0,0-.4-.74l.74.27-1.47-1.71s.74-.87.4-1.51.5-.94.33-1.57-1-3.35-1.07-3.78c1.24,3.15,5.66,9.08,6.87,9.41s2.14.57,2.14-.5-2.21-4-2.91-5.06a33,33,0,0,1-1.84-3.92l-1.21-1.37,1.27.57-1.57-1.34,1.44.57L20.86,95.1l1.47.87L20.8,93.4l1.61,1.07s-2.55-2.95-2.68-3.58C21,92.16,21.67,93,21.67,93a35.6,35.6,0,0,1-2-3.25c-.33-.84,1.74,1.51,2.24,1.44a33.91,33.91,0,0,1-3-4.29,6.29,6.29,0,0,1,1.47,1.21c.4.5,1,1.27,1,1.27a11.74,11.74,0,0,0-1.67-2.58c-.64-.5-.33-.94-.33-.94s1.54,1.61,2,2.28a14.47,14.47,0,0,0-1.67-2.58l.94.37L22.4,87a10.4,10.4,0,0,1-1.74-2.65,2.48,2.48,0,0,1,0-1.37l.74,1.44s.17-.5.3-.3a3.86,3.86,0,0,0,.64.57l-.94-2.08.67.64-1.14-1.71,1.07.94S20.46,80,19.83,79.9a3.64,3.64,0,0,0-2.31.84c-.64-.7-.37-.84-.37-.84l-.8,0Z"/></g></g></svg>