<svg xmlns="http://www.w3.org/2000/svg" viewBox="0 0 104.55 173.61"><defs><style>.cls-1{fill:#1a1a1a;}.cls-2{fill:#c6c6c7;}</style></defs><title>Ресурс 2</title><g id="Слой_2" data-name="Слой 2"><g id="Слой_1-2" data-name="Слой 1"><path class="cls-1" d="M44.37,77.75a1.5,1.5,0,1,0-1.81-1.47A1.67,1.67,0,0,0,44.37,77.75Zm4.14-3.61a.85.85,0,1,0-1-.84A.95.95,0,0,0,48.51,74.14Zm5.26,4.66a1.67,1.67,0,1,0-2-1.63A1.85,1.85,0,0,0,53.76,78.8Zm4.44-5.27a.92.92,0,1,0-1.09-.91A1,1,0,0,0,58.21,73.53Zm3.77,3a1.26,1.26,0,1,0-1.52-1.24A1.4,1.4,0,0,0,62,76.55ZM64.57,101c.2.16.27.1.47.27s.17.19.37.35.18.18.38.35.18.2.47.22.24,0,.42-.18a2,2,0,0,1,.36-.28c.19-.11.21-.15.2-.36s-.17-.1-.37-.26l-.4-.33-.41-.32c-.2-.16-.08-.26-.28-.43s-.15-.34-.44-.35-.1.27-.28.42-.36,0-.54.15-.33.16-.32.37S64.38,100.81,64.57,101ZM43.45,123.58a1.18,1.18,0,1,0-1.39-1.16A1.29,1.29,0,0,0,43.45,123.58Zm10.2,0A1.34,1.34,0,1,0,52,122.31,1.49,1.49,0,0,0,53.65,123.62Zm10.11,11c.34-.11-.32-.36-.12-.61.38-.48.53-.33,1.11-.66s.54-.37,1.12-.7.5-.42,1.08-.75.5-.65,1.16-.45.11.46.27,1,.28.54.45,1.11-.34.91.25,1.24.83-.21,1.57-.27.77.16,1.51.1.71-.34,1.45-.4.86-.36,1.38.07.21.56.19,1.21,0,.65,0,1.3.5.94,0,1.42-1,0-1.87.09-1-.13-1.74.24-.23.62-.64,1.11-.59.39-1,.88-.15.63-.55,1.12-.94.26-.76.84.31.58,1.06.5.48-.19.82-.6.17-.51.51-.92.31-.44.65-.85.17-.64.72-.88.83.11,1.59.06.75-.21,1.51-.27.89-.38,1.37.1-.08.42-.4.91-.91.39-.84.95.51.42,1,.84.55.34,1,.76.39.45.84.87.18.85.86.83c.92,0,1.19-.15,1.34-.89s-.42-.45-1-.91-.57-.45-1.11-.92-1-.31-1.11-.95.61-.36,1-.81a2,2,0,0,0,.64-1c.17-.53,0-.56-.06-1.11s-.35-.52-.43-1.07.2-.58.12-1.13-.8-.74-.29-1.09.93-.17,1.42.23.09.61.25,1.18.46.54.54,1.12-.28.65.27,1,1,.62,1.36.19-.28-.67-.38-1.22-.11-.55-.21-1.11-.12-.55-.22-1.11.12-.58-.33-1-.6-.21-1.31-.43-.67-.31-1.38-.52-.92.06-1.54-.3a.61.61,0,0,1-.3-.74,2.86,2.86,0,0,0,1.27-.71A1.62,1.62,0,0,0,78,130.4c0-.36.13-.73-.08-1a2.42,2.42,0,0,0-.84-.86,1.55,1.55,0,0,0-.61-.12l.18-.13.21-.19.22-.18a1.21,1.21,0,0,0,.2-.23l.17-.25.15-.26c.05-.09.07-.19.11-.27s.12-.25.09-.28a.58.58,0,0,0-.33,0c-.09,0-.17.09-.28.14s-.2.06-.3.11l-.27.15a1.5,1.5,0,0,0-.21.2.68.68,0,0,0-.19.21c0,.08,0,.19-.06.28s-.06.19-.08.28-.08.19-.09.27a.33.33,0,0,1-.06.13h-.17a2.83,2.83,0,0,0-1.22.27,2.4,2.4,0,0,0-.94.71,1.87,1.87,0,0,0-.43,1,2,2,0,0,0,.52,1.33,3,3,0,0,0,1.53.6c.19.28.11.32-.2.5-.58.34-.61.12-1.31.24l-1.4.24c-.7.12-.69.58-1.33.32s-.37-.43-.64-.94-.29-.5-.56-1-.63-.51-.41-1,.65-.31,1.29-.68.57-.45,1.2-.82.52-.61,1.27-.78c.3-.07.2.31.51.29.5,0,.45-.05.71-.4s-.44-.14-.71-.25c.06-.19.33-.06.57-.05s.3.26.68.29c.23,0,.37-.11.28-.28s-.53,0-.62-.36.6-.05.63-.31-.13-.35-.49-.41-.36.49-.59.3c-.42-.34.3-.68-.22-.9s-.36.15-.46.52.28.33.27.66c0,.1-.39.3-.46.22-.23-.27.2-.45-.12-.65s-.28-.05-.35.14a.65.65,0,0,0,0,.34.06.06,0,0,0-.07,0,.79.79,0,0,0-.57.31c-.1.16.23.21.09.35a3.62,3.62,0,0,1-1,.67l-1.08.65c-.54.32-.35.7-1,.8-.3,0,0-.44-.28-.49-.55-.1-.62-.15-.92.24s.27.36,0,.77-.53.36-1.12.71-.45.51-1,.86-.72.21-1.31.56-.49.45-1.21.57c-.34.05-.21-.55-.45-.34-.5.44-.49.58-.15,1.11S63.17,134.8,63.76,134.6Zm9-7.06a1.75,1.75,0,0,1,.06.34s-.08.2-.11.17S72.77,127.68,72.76,127.54Zm3.77-6.05a1.14,1.14,0,1,0-1.37-1.11A1.26,1.26,0,0,0,76.53,121.49Zm-11.26,1.32a1.18,1.18,0,1,0-1.42-1.16A1.31,1.31,0,0,0,65.27,122.81Zm-41.39-3.18a1.07,1.07,0,1,0-1.28-1A1.18,1.18,0,0,0,23.89,119.63ZM63.66,147.9c-.49-4.78-5.39-8.46-11.29-8.46h-.2c-5.89,0-10.8,3.68-11.29,8.46l-2,19.63a1.75,1.75,0,0,0,.63,1.49,2.7,2.7,0,0,0,1.78.64h22A2.7,2.7,0,0,0,65,169a1.76,1.76,0,0,0,.63-1.49Zm39.24,10.4h0L96.2,142.11h0l-21-50.73h0L69.41,77.45h0L61.31,57.9h0L59.59,57,64.93,44.5a.14.14,0,0,0,0,0,.22.22,0,0,0,0,0,.18.18,0,0,0,0,0,.09.09,0,0,0,0,0h0l-.85-1.43a.28.28,0,0,0-.23-.12l-2.18-.06a.3.3,0,0,0-.21.07l-.78.7h0v0l0,.05h0l-4.53,12.6-1.36-.23H49.85l-.26,0L45.08,45.81a.25.25,0,0,0-.2-.14l-1.24-1.54a.3.3,0,0,0-.26-.1l-.88.08a.27.27,0,0,0-.21.11l-1.79,2.64v0h0v0a.1.1,0,0,0,0,0,.14.14,0,0,0,0,0v0h0l5.43,9.52-.28,0-2.42,1.24h0l-8.1,19.55h0L29.36,91.39h0l-21,50.73h0L5.5,149,0,162.27l14,7.19,24.26,4.15h28l24.26-4.15,14-7.19h0Zm-7.46-9,1.47.55,1.65.63a1.16,1.16,0,0,1,.73,1.66,1.7,1.7,0,0,1-2,.59l-1.63-.63-1.85-.69-1-.7-.54,1.39-.37,1.4L91.66,155l-.45,1.53L91,158l0,1.61-.43,1.7-1.13,3.31-3.11-2.17-1.84-.89-1.35-1.37-1.27-.93-1.61-.81-1.74-1-1.44-1.15-1.36-.91L75.3,157l-1.07,1.7-.88,1.44-.55,1.67-.93,1.61L71.2,165h0a1.54,1.54,0,0,1-1.45.85,1.88,1.88,0,0,1-.5-.07,1.21,1.21,0,0,1-1-1.59l.72-1.71.89-1.53.56-1.69,1-1.68.88-1.4.41-1.66,1.7-3.53,3.11,2.43,1.52,1,1.37,1.09,1.47.85,1.76.89,1.65,1.21,1.16,1.17,1.18.57.21-.84,0-1.54.31-1.69.44-1.49.21-1.53.44-1.64.54-1.4.22-3.54,4.05,1.8Zm.28,9.73a2,2,0,0,1-2.34-1.19,1.52,1.52,0,0,1,1.09-2.06,2,2,0,0,1,2.34,1.19A1.52,1.52,0,0,1,95.73,159Zm-15.87,4.76c.2.23.21.22.42.45s.21.22.42.45a.18.18,0,0,1-.06.27,6.34,6.34,0,0,1-.58.29,3.88,3.88,0,0,1-.62.23,4,4,0,0,1-.66.13,6.56,6.56,0,0,1-.68,0,.21.21,0,0,1-.2-.21c0-.28,0-.28,0-.56s0-.28,0-.56.07-.28,0-.56a.58.58,0,0,0-.58.16,2.91,2.91,0,0,0-.4.43c-.12.14-.23.3-.34.46s-.21.31-.31.48a.25.25,0,0,1-.23.09.22.22,0,0,1-.2-.12c-.08-.2-.15-.39-.21-.57s-.12-.4-.16-.58a5.26,5.26,0,0,1-.13-.59,4,4,0,0,1,0-.6,2.74,2.74,0,0,1,.06-.6,1.9,1.9,0,0,1,.24-.57,1.72,1.72,0,0,1,.48-.45,2.21,2.21,0,0,1,.62-.31c.09,0,.11,0,.16-.06a2.19,2.19,0,0,1-.38-.56.75.75,0,0,1,0-.64.86.86,0,0,1,.6-.4,1,1,0,0,1,1,.17c.42.08.55-.21.86,0s-.36.07-.48.28.17,0,.32,0,0,0,0,0,0,0,0,0c-.22.12-.27.09-.42.26a2.34,2.34,0,0,1,0,.44c.09,0,.1,0,.19,0a2.56,2.56,0,0,1,.73-.08,2.32,2.32,0,0,1,.69.19,2.66,2.66,0,0,1,.6.34,3.51,3.51,0,0,1,.48.46,4.77,4.77,0,0,1,.38.51c.11.16.2.35.3.54s.2.35.29.55.15.37.22.57a.17.17,0,0,1-.09.19.26.26,0,0,1-.25,0c-.2-.09-.39-.18-.58-.26s-.43-.13-.62-.19a4.12,4.12,0,0,0-.63-.17c-.29,0-.51,0-.6.14C79.6,163.56,79.66,163.54,79.86,163.77ZM62.92,47.86a3.82,3.82,0,0,1-.77-.67,4.46,4.46,0,0,1-.76-1.74.3.3,0,0,1,.05-.2.13.13,0,0,1,.09,0l.08.12.06.07,0,0a.3.3,0,0,0,.19.06.41.41,0,0,0,.13,0c.27-.07,1.47-.44,2.18-.67Zm.72-4.66.66,1.11-1.07.34-.94.29L62,45l-.09-.13A6.5,6.5,0,0,1,62.5,44c.18-.24.38-.58.57-.86Zm-1.89-.06,1,0c-.18.26-.34.55-.5.75a8.1,8.1,0,0,0-.48.71c-.22-.34-.48-.76-.6-1Zm-.83,1.08.2.32.29.46a.39.39,0,0,0-.18.12.49.49,0,0,0-.1.32,4.56,4.56,0,0,0,.8,1.86,4.64,4.64,0,0,0,.9.78l-.53,1.23L62,49a18.32,18.32,0,0,1-2-2.43Zm-1,2.66a19.27,19.27,0,0,0,1.86,2.27c.13.14.25.29.37.44l-3.74,8.77-.85.12c.13-1.19.38-2.35.56-3.55a7.3,7.3,0,0,0,.08-1.08,6.81,6.81,0,0,0-.2-1.61Zm-2.1,5.84a6.39,6.39,0,0,1,.1,1.12,7.2,7.2,0,0,1-.08,1.06c-.18,1.21-.44,2.39-.57,3.61l-1.61.21Zm-11.44-2.6,3.53,7.93h-.07l-.27-.24a10.59,10.59,0,0,1-2.51-2.31,6.15,6.15,0,0,1-.74-2.41,8.45,8.45,0,0,1-.08-1.17A12.23,12.23,0,0,1,46.42,50.13ZM42.7,44.55l.58-.05,1.15,1.43-.57.88-.61.15h0a.8.8,0,0,0,0-.18c-.15-.72-.39-1.39-.61-2.08Zm-.28.41c.2.62.39,1.21.53,1.84a.75.75,0,0,1,0,.14A.61.61,0,0,1,43,47l-.51.12-.22,0h0L41.5,47l-.36-.11Zm-1.15,2.43.06,0,.5.15.19,0a.74.74,0,0,0,.17,0l.17,0,.31-.07c-.24.25-.58.5-.87.78Zm.66,1.16a9.61,9.61,0,0,0,1.14-1.09l1-.25a.27.27,0,0,0,.16-.11l.47-.72.23.52a8.15,8.15,0,0,1-.69,1.41c-.39.63-1.17.94-1.53,1.68Zm1,1.72,0-.07c.26-.76,1.09-1,1.59-1.8a7.89,7.89,0,0,0,.6-1.17l1.09,2.46A13.23,13.23,0,0,0,46,51.92a8.65,8.65,0,0,0,.08,1.19,6.32,6.32,0,0,0,.77,2.48A10.7,10.7,0,0,0,49.41,58l0,0-2.29-.3Zm2.37,8.94.25-.13.12.06,4.19.72H54.7l4.19-.72.12-.06.25.13,8,19.34-2.46,1.26L57.58,81l-.25,4.65-.46-4.53h-8.2l-1.55,5.62.57-5.62-8-1.36-2.46-1.26ZM32.37,87.15l2-.85,2.12-.7L38.59,85l3.83-1.32.94,2.85,1.28,1.05,1.08,1.66.52,1.34.2-.17L48,89.32l1.34-1L50.59,87,53,85.5,56,86.71l1,1.48,1.25.68,1.7.93.05-.06.93-1.35.6-1.7,1-1.61,1.69-3.56,3.24,2.75.85,1.34,1,.77,1.74.78,1.38,1.27a1.1,1.1,0,0,1-.13,1.76,1.79,1.79,0,0,1-2.17-.11l-1-.95-1.62-.72-1.65-1.28-.57-.9-.9,1.4-.61,1.74-1.2,1.73-2.34,2.6-2.29-2-1.41-.77-1.88-1-.89-1.34-.34-.14-.57.36-1.16,1.26L50,91.22l-1.47,1L46.11,94.3l-2.58-2.43-.65-1.68-.74-1.13-1.54-1.26-.24-.72-.65.22-2.08.64-2,.65-1.91.8a1.71,1.71,0,0,1-2.07-.54A1.15,1.15,0,0,1,32.37,87.15Zm-.87,5.33,4,2.06,1.25-4.37v4.58l9.38,1.61H58.42L69,94.54,67.75,90l2.15,4.1,3.15-1.62,8.47,20.44-.32-.06-.21.73-.65.93,0,1.08-.25.72-.11.28-.83-.68L78,115.51l-.71-.36-.77-.54-1-.53-2.28-1-1.05,2-.36,1-.12.74-.65.83-.06,1-.34.58,0,.07-.7-.62-.8-.61-.72-.67-.78-.62-.6-.6-.66-.82-2.18-1.76-1.45,1.94-.66.64-.65.74-.71.74-.53.76-.59.59-.38.35-.36-.24-.56-.87-1.12-.62-.64-.52-.65-.64-.71-.76-1.7-1.41-2.09,1.26-.61.82-.75.54-.62.66-.9.53-.65.72-.28.16-.12-.15-.41-.84-.68-.76L46,116.6l-.4-.78-1.43-2-2.22,1.65-.57.75-.67.5-.84.7-.64.7-.64.54-.07,0-.2-.71-.54-.83-.42-.77-.47-.67-.32-.79-1.4-2L33,114.17l-1.08.51-.78.77-.52.36-1.05.31-.72.53-.16-.6-.12-.57.21-.83-.16-1.05-.64-2.5-2.45,1.24-.88.14-1.18.35-.53.25ZM4.74,152l1.92-1.07,1.82-.76,1.41-1.38L14,146.5l.83,3.79.06,1.71.26,1.58.35,1.67.22,1.69.22,1.3,1-.87,2.06-.79,1.58-.78,1.59-1.11,1.81-.82,1.5-1,2.88-1.77,2.09,2.42.95,1.53.86,1.48.84,1.56.53,1.45,1.08,1.3.71,1.54,1,1.37.78,1.59a1.18,1.18,0,0,1-.85,1.62,1.83,1.83,0,0,1-.57.09,1.57,1.57,0,0,1-1.42-.79l-.69-1.4-1-1.39L32,162,30.9,160.6l-.61-1.67-.74-1.38-.82-1.42-.83-1.34-.13-.16-.3.18-1.67,1.12-1.79.8-1.54,1.08-1.93.95-1.69.65-1.39,1.18-4.24,2.1L13,158.86l-.27-1.63-.22-1.65-.35-1.64-.29-1.75-.05-1.45-1.38,1.36L8.24,153l-1.76,1h0a1.77,1.77,0,0,1-2.13-.32A1.11,1.11,0,0,1,4.74,152Zm21.13,11.41c0,.28,0,.28,0,.56s0,.28,0,.56a.22.22,0,0,1-.23.19c-.17,0-.41,0-.68,0a3.85,3.85,0,0,1-.67-.1,3.77,3.77,0,0,1-.64-.19,5.48,5.48,0,0,1-.57-.3.17.17,0,0,1,0-.26c.2-.23.19-.24.39-.47s.19-.24.39-.47.26-.2.39-.46c-.09-.14-.29-.18-.59-.14a4.11,4.11,0,0,0-.63.17c-.19.06-.39.14-.6.22l-.59.25a.28.28,0,0,1-.26,0,.17.17,0,0,1-.08-.2c.07-.2.15-.39.22-.57s.18-.38.27-.55a6,6,0,0,1,.3-.55,4.74,4.74,0,0,1,.38-.51,3.76,3.76,0,0,1,.47-.46,2.61,2.61,0,0,1,.59-.36,2.25,2.25,0,0,1,.71-.15,2.49,2.49,0,0,1,.72,0c.09,0,.09.06.18,0a1.86,1.86,0,0,1,.08-.64,1,1,0,0,1,.45-.53,1.08,1.08,0,0,1,.78,0c.47.12.65.34.67.58.28.26.6.08.69.43s-.34-.12-.59,0,.14.07.27.14,0,0,0,0,0,0,0,0c-.26,0-.28-.05-.53,0a2.75,2.75,0,0,1-.28.38c.06.06.1,0,.19,0a2.29,2.29,0,0,1,.65.27,1.67,1.67,0,0,1,.43.48,1.82,1.82,0,0,1,.26.56,2.62,2.62,0,0,1,.07.6,3.84,3.84,0,0,1,0,.6,5.77,5.77,0,0,1-.13.59c0,.19-.08.38-.14.59s-.14.37-.21.57a.23.23,0,0,1-.21.12.24.24,0,0,1-.23-.09c-.1-.16-.19-.33-.3-.49s-.26-.31-.38-.45a3,3,0,0,0-.4-.43.61.61,0,0,0-.59-.17A1.45,1.45,0,0,0,25.87,163.37Zm-15.56-5.24a1.91,1.91,0,0,1-2.17,1,1.33,1.33,0,0,1-.6-2,1.91,1.91,0,0,1,2.17-1A1.34,1.34,0,0,1,10.31,158.13Zm79.3,9.45-23.58,4H38.52l-23.58-4-12-6.16.84-2,11.43,5.87,22,3.76,1.75-17.18L21.4,148.7l-2.63,4.16L20,148.42l-9.57-5.17,11.22-27.07.35-.11.85-.45.92-.27.89-.42.73-.22.48-.08-.21.8.21,1.05.21.79.13.83.66,2.08,2.62-.93,1-.71.58-.42,1-.3,1.1-.75.61-.61.34-.16.13.33.54.77.4.74.41.63.25.89.62.72,1,2.57,2.32-2.12.77-.57.83-.7.63-.69.65-.54.85-.63.55.76.56.62.36.75.59.8,1.23,1.75,2.07-1.31,1.05-.61.65-.72.88-.51.71-.75.87-.63.29-.39.4.42.76.75.92.76.76.42.5.78.94.62,1.86,2.17,1.67-2.3.66-.6.78-.78.55-.78.62-.65.62-.7.27-.26.16.2.8.8.81.65.74.69.82.64.69.61.74.76,2.75,2,.63-2.67.46-.67.62-1.06,0-.86.58-.74.18-1.08.05-.15.13.07.8.56,1,.53.8.3.6.49L79,119l2.82,1.37.63-2.53.32-.83.2-.57,11.12,26.84-8.48,4.58L86,154l-1.57-5.58-18.83,3.39L67.36,169l22-3.76,11.43-5.87.83,2ZM30.37,101.46c.17,0,.4.08.69.11s.44,0,.7,0,.45,0,.7.06.46,0,.7,0,.46,0,.7,0,.47,0,.71,0,.45-.1.69-.13.45-.08.69-.12l.68-.13c.23-.05.49,0,.71-.08L38,101c.22-.07.42-.17.63-.25l.63-.26c.21-.09.39-.23.58-.32s.45-.14.64-.24.38-.25.55-.35.37-.27.53-.37.47-.22.59-.31a.17.17,0,0,0,0-.16s-.1,0-.16,0a6.29,6.29,0,0,0-.67-.17c-.2,0-.45,0-.7,0s-.44-.11-.69-.12-.46,0-.7,0-.46,0-.7,0c0,0,0,0-.06,0h-.09a1.49,1.49,0,0,0-.34-.56,2.07,2.07,0,0,0-.57-.43,2.82,2.82,0,0,0-.7-.29A3.47,3.47,0,0,0,36,97a3.81,3.81,0,0,0-.78.13,3.42,3.42,0,0,0-.71.27,3.13,3.13,0,0,0-.66.35,2.1,2.1,0,0,0-.4.56,1.71,1.71,0,0,0-.29.59,1.37,1.37,0,0,0,.09.64s0,0-.1.07c-.21.09-.4.22-.59.31s-.38.23-.57.33-.44.18-.61.28-.39.25-.55.36-.37.31-.5.4-.09.06-.08.1A.15.15,0,0,0,30.37,101.46Zm7-1.78c-.17.07-.39.11-.63.18s-.38.2-.61.25-.46,0-.67,0-.45.14-.64.15a1.82,1.82,0,0,1-.62,0c.18,0,.36,0,.61-.08s.42,0,.65-.05l.63-.13c.22-.05.41-.17.61-.23l.62-.19a5.23,5.23,0,0,0,.62-.24A1.66,1.66,0,0,1,37.41,99.68Zm-2.2-.54c.19,0,.42,0,.47.15s-.12.29-.31.33-.42,0-.47-.16S35,99.19,35.21,99.14Zm1.18-.26c.19,0,.42,0,.47.15s-.12.29-.31.33-.42,0-.47-.16S36.2,98.92,36.39,98.88Zm1.19-.48a.36.36,0,0,1,.4.25.28.28,0,0,1-.18.38.37.37,0,0,1-.41-.25A.28.28,0,0,1,37.58,98.4Zm-3.23.31c.2,0,.42,0,.65-.06s.39-.17.6-.22.46,0,.66-.08.4-.2.59-.26.45-.09.6-.16a1.57,1.57,0,0,1-.53.27c-.17.07-.4.1-.63.17l-.64.16c-.22,0-.42.16-.62.19l-.66.07a2,2,0,0,1-.68-.08A5.11,5.11,0,0,0,34.35,98.71Zm-.35.55c.19,0,.42,0,.47.16s-.12.28-.31.32-.42,0-.47-.15S33.81,99.3,34,99.25ZM67.07,106c-.18-.15-.25-.09-.43-.24s-.12-.34-.38-.33-.26.15-.46.32-.08.26-.28.42-.32.07-.52.23a2.58,2.58,0,0,1-.4.31c-.21.13-.21.17-.23.4s.15.08.33.22l.36.3c.18.15,0,.27.28.26s.24,0,.44-.19l.41-.32c.2-.16.07-.27.27-.44s.38,0,.59-.18.34-.17.36-.4S67.25,106.18,67.07,106ZM33.84,122.17a1.11,1.11,0,1,0-1.14-1.11A1.13,1.13,0,0,0,33.84,122.17Zm5.61,18c0,.12-.81.69-.33.75s.16-.43.65-.42-.34.62,0,.62-.14-.77.25-.85.2.5.58.6-.21-.44-.32-.83a10,10,0,0,1-.24-2,4.83,4.83,0,0,0-1.13-2c-.34-.36-.51-.21-1-.36,0,0,0,0,0,0-.36-.59-1.42-.86-3.06-1-1.06-.11-1.09.06-2.15,0s-3.07.21-2.28-.37c1.09-.79,2.75,1,3-.21s-1-1-2.53-1.33a7.42,7.42,0,0,0-3.22,0c-1,.09-1,.24-2,.3,0,0-.21-.08-.21-.1a2.46,2.46,0,0,0-.17-1.58c.81-.19,2.2.43,3.17-.51.8-.78.73-1.09.55-2.1-.07-.39-.74-.56-1.09-.29-.88.68.09,1.4-1,1.79-1.5.53-1.65.07-3.27-.09a4,4,0,0,0-.79-.28c-.22,0-.39-.23-.6-.22-1.2-.22-1.45.26-2.28-.46-.68-.59,0-.71-.36-1.47-.12-.26-.29-.26-.42,0-.47.92-.7,1-.32,1.92.27.65,1,.1,1.45.69a2.86,2.86,0,0,0-1.18,1.7l-.27-.07a15.69,15.69,0,0,0-.74,1.93c-.38.84-.65,1.63-.47,1.87a4.52,4.52,0,0,0,1.52,1,8.45,8.45,0,0,0,1.83.69,14.49,14.49,0,0,0,2.44-1.94c.05.56.11,1.54.09,1.58s-1.07,1.75-1.09,1.77-.86,1.41-.87,1.44a1.81,1.81,0,0,0,.2,1.71c.46.57.71.7,1.46.4s.32-.5.45-1.06c.18-.73-.23-.81,0-1.53a4.32,4.32,0,0,1,.61-1.51c.23-.35.42-.35.87-.49.61-.19.95-.52,1.2,0a2.11,2.11,0,0,1-.34,2,3,3,0,0,1,0,1.29c-.24.88-1,.87-.6,1.69s.84.63,1.68.36c.59-.19.13-.48.3-1s.31-.37.42-.79-.24-.49,0-.88c.48-.84.28-1.1,1.38-1.34,1.5-.32,1.82-.45,3.05.31.59.37-.83.18-1.31.64a1.19,1.19,0,0,0-.54,1.06c-.15,1.2-.64,1.29-.08,2.41.32.64.76.6,1.54.35.59-.19,0-.42.1-.94a5.81,5.81,0,0,1,.31-1.67c.2-.54.28-.53.86-.84s.74-.57,1.08-.18c.61.7,0,.85.07,1.71,0,1.2-.43,1.25.26,2.31.4.62.79.49,1.47.07s.19-.52.27-1.07c.1-.72,0-.72.18-1.44s-.09-.76.16-1.45c.34-1,.6-.91,1-1.86.33-.79.12-.92.23-1.71.1-.14.35,0,.48.15.59.55.75.5,1,1.2A3.85,3.85,0,0,1,39.44,140.21Zm32.24-38.52c.18.15.26.09.44.23s.12.34.38.33.26-.15.46-.32a1,1,0,0,1,.28-.42c.2-.16.32-.07.52-.23a2.73,2.73,0,0,1,.4-.32c.21-.13.21-.16.23-.4s-.15-.08-.33-.22l-.36-.3c-.18-.15,0-.27-.28-.26s-.24,0-.44.19l-.41.32c-.2.16-.07.27-.27.43s-.38,0-.58.18-.34.17-.36.4S71.5,101.54,71.68,101.69ZM69.12,101c.26,0,.26-.08.51-.08s.38.17.55,0,0-.26,0-.49-.16-.23-.16-.46.16-.23.16-.46a1.89,1.89,0,0,1,0-.45c0-.21,0-.24-.18-.41s-.17,0-.43,0h-.51c-.26,0-.25-.18-.42,0s-.14.16-.14.39,0,.23,0,.46.19.23.19.46-.26.23-.26.46-.1.32.09.49S68.86,101,69.12,101Zm4.47,2.16a.52.52,0,0,0-.51.15c-.19.14,0,.14,0,.35s0,.21,0,.42-.22.2,0,.34.2.12.48.12h.57c.28,0,.28-.15.57-.15s.28.21.57.21.39.08.6-.08.08-.24.08-.45-.1-.21-.1-.42.21-.31,0-.45-.32,0-.6,0-.28.13-.57.13-.28-.13-.57-.13A3.55,3.55,0,0,1,73.59,103.16Zm.59,3.59c-.2-.16-.27-.1-.47-.27s-.17-.19-.37-.35-.18-.18-.38-.35-.19-.2-.47-.22-.24,0-.42.19a2,2,0,0,1-.36.28c-.19.11-.21.15-.2.36s.17.1.37.26l.4.33.41.32c.2.16.08.26.28.43s.15.34.43.35.1-.27.28-.42.36,0,.54-.15.33-.16.32-.37S74.38,106.92,74.18,106.75Zm-35.31-5.84,1.52,2,.15-.08-1.5-2Zm30.76,5.81c-.26,0-.26.09-.51.09s-.38-.17-.56,0,0,.26,0,.49.16.23.16.46-.16.23-.16.46a2,2,0,0,1,0,.45c0,.21,0,.24.18.41s.17,0,.43,0h.51c.26,0,.25.18.42,0s.14-.16.14-.39,0-.23,0-.46S70,108,70,107.75s.26-.23.26-.46.1-.32-.1-.49S69.89,106.72,69.63,106.72Zm-21.16,4a.38.38,0,0,0,.34-.06c.2-.19.4-.37.6-.54s.44-.36.65-.51a4.57,4.57,0,0,1,.71-.45.82.82,0,0,1,.83,0c0,.38-.12.36-.24.73s-.11.37-.23.74-.1.37-.23.74a.24.24,0,0,0,.18.32,8.92,8.92,0,0,0,.9.17,5.45,5.45,0,0,0,.92,0,5.62,5.62,0,0,0,.9-.13c.35-.08.67-.15.88-.22a.26.26,0,0,0,.19-.33c-.17-.36-.19-.35-.35-.7s-.18-.35-.35-.71-.24-.34-.31-.72c.17-.15.48-.14.85,0a5,5,0,0,1,.75.4c.23.13.49.26.73.43s.43.34.65.5a.36.36,0,0,0,.34,0,.26.26,0,0,0,.2-.23c0-.28,0-.55-.05-.81s-.1-.55-.15-.8-.09-.55-.16-.8a6.09,6.09,0,0,0-.28-.78,4.15,4.15,0,0,0-.43-.73,3,3,0,0,0-.64-.61,2.78,2.78,0,0,0-.82-.45,3.45,3.45,0,0,0-1-.11c-.13,0-.16.06-.27,0a3.21,3.21,0,0,0,.14-.59c.28-.18.33-.12.66-.22,0,0,0,0,0,0s0,0,0-.05c-.21,0-.57.05-.43-.08s1,0,.75-.23-.6-.06-1.11-.29a1.18,1.18,0,0,0-1.19-.49,1.34,1.34,0,0,0-1,.35,1.08,1.08,0,0,0-.27.84,2.64,2.64,0,0,0,.25.84c-.09.08-.11,0-.24,0a3.28,3.28,0,0,0-.94.22,2.68,2.68,0,0,0-.82.45,3,3,0,0,0-.55.68,4,4,0,0,0-.33.77,5.45,5.45,0,0,0-.2.8,7.49,7.49,0,0,0-.08.81c0,.26,0,.53,0,.81s0,.53,0,.81A.27.27,0,0,0,48.47,110.73Zm-14.12-8.67-.15,2.12.46.05-.22-2.13Zm29.11,2.53c.28,0,.28-.08.57-.08s.28,0,.57,0,.29,0,.57,0,.31,0,.52-.12.14-.16.14-.37a1.48,1.48,0,0,1,0-.41c0-.19,0-.22-.17-.36s-.21,0-.49,0H64c-.28,0-.28-.14-.57-.14s-.4-.15-.61,0,.16.25.16.46-.25.21-.25.42-.09.31.09.45S63.19,104.58,63.47,104.58Zm3.65-1.14c0,.14-.32.27-.32.42a1.87,1.87,0,0,0,.14.45,1.79,1.79,0,0,0,.12.45c.08.14.27.23.38.34a2.37,2.37,0,0,0,.37.34,2.81,2.81,0,0,0,.46.27c.16.06.39,0,.57,0s.34.18.53.18a3.32,3.32,0,0,0,.57,0,2.85,2.85,0,0,0,.49-.24,2.3,2.3,0,0,0,.41-.28,2.16,2.16,0,0,0,.38-.3,1.79,1.79,0,0,0,.29-.36c.08-.13.28-.23.32-.38a1.75,1.75,0,0,0,0-.46,1.69,1.69,0,0,0,0-.45,1.8,1.8,0,0,0-.15-.44,2.22,2.22,0,0,0-.35-.37c-.11-.12-.36-.12-.5-.21s-.21-.28-.37-.34a3.23,3.23,0,0,0-.55-.05,2.89,2.89,0,0,0-.53,0,2.69,2.69,0,0,0-.52,0,2.65,2.65,0,0,0-.49.14,2.2,2.2,0,0,0-.43.23c-.14.09-.39.09-.51.21a2.11,2.11,0,0,0-.31.38C67,103.11,67.16,103.3,67.12,103.44Z"/><path class="cls-2" d="M46.33,5.33c.63.57,1.2,1.13,1.75,1.68A20.07,20.07,0,0,1,49.5,8.63a10.82,10.82,0,0,1,1.07,1.54,4,4,0,0,1,.64,2.67,2.67,2.67,0,0,1-1.83,1.83,6.76,6.76,0,0,1-.91.29c-.34.08-.68.15-1.13.22q-1.35.22-2.61.49A19.49,19.49,0,0,0,40.36,17,4.86,4.86,0,0,0,38,19.21a3.79,3.79,0,0,0,0,2.85,12.35,12.35,0,0,0,1.88,3.26,39.76,39.76,0,0,0,3,3.45c.56.59,1.17,1.18,1.81,1.78s1.35,1.19,2,1.76c1.3,1.15,2.59,2.29,3.74,3.4A17.15,17.15,0,0,1,53,38.88a4,4,0,0,1,.68,2.76A7.46,7.46,0,0,1,52.5,44l.5.19a8.41,8.41,0,0,0,3.49-1.7,2.42,2.42,0,0,0,.62-2.76,10.16,10.16,0,0,0-2.4-3.45,32.84,32.84,0,0,0-4.27-3.66c-.84-.62-1.75-1.24-2.57-1.82s-1.67-1.19-2.46-1.78a27.7,27.7,0,0,1-4-3.47,6.16,6.16,0,0,1-1.71-3.09,2.43,2.43,0,0,1,1.08-2.35,10.45,10.45,0,0,1,3.41-1.52,37.05,37.05,0,0,1,4.66-1c.86-.13,1.76-.24,2.68-.35.46-.05,1-.12,1.49-.21a11.19,11.19,0,0,0,1.31-.33c1.61-.5,2.41-1.34,2.54-2.33a4.9,4.9,0,0,0-1.32-3.32A18.54,18.54,0,0,0,54,9.29c-.63-.61-1.34-1.23-2.1-1.85s-1.6-1.25-2.49-1.87S47.54,4.32,46.52,3.7A58.12,58.12,0,0,0,39.61,0l-.33,0a48.07,48.07,0,0,1,5,3.56C45,4.18,45.69,4.76,46.33,5.33Z"/></g></g></svg>