<svg xmlns="http://www.w3.org/2000/svg" viewBox="0 0 63.59 81.82"><defs><style>.cls-1{fill:#fff;}.cls-2{fill:#1d1c1b;}</style></defs><title>Ресурс 1</title><g id="Слой_2" data-name="Слой 2"><g id="Слой_1-2" data-name="Слой 1"><path d="M4.78,10.4c-.79.46-1.49.91-2.23,1.27a3.76,3.76,0,0,1-1.08.17,4.7,4.7,0,0,1,0-1A59.24,59.24,0,0,1,5,1.07c.14-.32.3-.63.51-1.07A4.17,4.17,0,0,1,5.9.49a60.88,60.88,0,0,1,3.83,10.3,4.77,4.77,0,0,1,0,1,3.77,3.77,0,0,1-1.09-.18c-.76-.37-1.47-.82-2.3-1.3,0,.4,0,.75,0,1.1,0,4.6,0,9.2,0,13.79,0,4,0,8,0,11.94,0,1.78.08,3.55.09,5.33,0,3.67,0,7.34,0,11,0,2.77,0,5.54,0,8.31A1.9,1.9,0,0,0,6.8,63a17.08,17.08,0,0,0,2,2.12,3,3,0,0,1,1.11,2.05c.4,3.53.84,7.06,1.27,10.59.12.94,0,1.29-.92,1.57A30.93,30.93,0,0,1,7.19,80c-.52.1-.81.27-.75.89a.76.76,0,0,1-.79.91.77.77,0,0,1-.78-.93c0-.55-.2-.75-.69-.83-.83-.15-1.66-.31-2.48-.5a5.68,5.68,0,0,1-1.13-.42A1,1,0,0,1,0,78c.45-3.62.9-7.25,1.3-10.88a2.72,2.72,0,0,1,1.1-2,10.36,10.36,0,0,0,1-.83,4.47,4.47,0,0,0,1.51-3.5c-.1-5.35,0-10.7-.05-16q0-11.16,0-22.33,0-5.77,0-11.54C4.8,10.73,4.79,10.6,4.78,10.4Z"/><path d="M26.67,73.61v2.86H24.85V73.54l-2.57,2.71-.19-.1a7.72,7.72,0,0,1-.1-.9c0-4.78,0-9.55,0-14.33a1.25,1.25,0,0,1,.55-1.12c.58-.46,1-1.17,1.56-1.59,1.08-.76.69-1.81.73-2.78,0-.3-.09-.6-.09-.9q0-16.93,0-33.86c0-.2,0-.39,0-.79A9.88,9.88,0,0,1,21,21.81l-.07-.12.49-.36.56-.42a8,8,0,0,0,2.53-3.59,34.26,34.26,0,0,0,1.11-5.78c.13.8.26,1.61.41,2.41a19.75,19.75,0,0,0,.69,3.33,7.52,7.52,0,0,0,3.56,4.26s0,.05.09.12a7.28,7.28,0,0,1-3.88-1.82c0,1.59,0,3,0,4.4q0,.87,0,1.74.05,15.51.1,31a.94.94,0,0,0,.39.8c.67.58,1.25,1.27,1.87,1.91,0,0,0,0,0,0,.82.4.61,1.16.62,1.83q0,6.95,0,13.89,0,.29,0,.58l-.16.12-2.46-2.67ZM25.1,24.73V47.79h1.11V24.73Zm0,30V76.05h1.13V54.69Zm1.11-32.48c-.28-1.12.44-2.37-.7-3.31-.94,1-.39,2.21-.57,3.31Zm-.07,1H25V24l1.14-.19Zm-1,27.65h1.14v-.6H25.13Zm1.16.86H25.11l0,.59h1.16Zm-1.16-2.44h1.18l0-.49H25.13Zm0,4.52c.35,0,.63,0,.92,0a.36.36,0,0,0,.25-.2c0-.08,0-.28-.06-.28-.36,0-.72-.06-1.1-.08Z"/><path class="cls-1" d="M25.1,24.73h1.11V47.79H25.1Z"/><path class="cls-1" d="M25.14,54.69h1.13V76.05H25.14Z"/><path class="cls-1" d="M26.26,22.21H25c.18-1.11-.37-2.28.57-3.31C26.7,19.84,26,21.09,26.26,22.21Z"/><path class="cls-1" d="M26.18,23.17v.64L25,24v-.83Z"/><path class="cls-1" d="M25.13,50.81v-.6h1.14v.6Z"/><path class="cls-1" d="M26.29,51.68v.59H25.13l0-.59Z"/><path class="cls-1" d="M25.13,49.23v-.49h1.15l0,.49Z"/><path class="cls-1" d="M25.14,53.75v-.57c.38,0,.74,0,1.1.08,0,0,.09.2.06.28a.36.36,0,0,1-.25.2C25.77,53.77,25.48,53.75,25.14,53.75Z"/><path d="M43,14.87l-2.2,2c.06-.64.11-1.16.16-1.69.19-1.92.35-3.85.59-5.77A4.16,4.16,0,0,1,42.22,8c.55-1,1.14-1.9,1.73-2.87a1.58,1.58,0,0,1,.32.29c.55.9,1,1.86,1.65,2.7a5.14,5.14,0,0,1,.69,2.75c.19,1.54.3,3.09.47,4.64,0,.43.17.85.26,1.27l-.14.07-2.15-2-.15.06c0,.39,0,.77,0,1.16s.06.78.1,1.17c.12,1.09.27,2.17.36,3.26A12,12,0,0,1,45,25a1.93,1.93,0,0,0,0,.54q0,11.4,0,22.79a1.51,1.51,0,0,0,.3.81,1.6,1.6,0,0,1-.1,1.74,1.85,1.85,0,0,0,0,1.73,1.48,1.48,0,0,1,0,2s-.12.11-.12.16c0,.71.06,1.42.17,2.11.14.85.37,1.69.56,2.53.44,1.9.88,3.81,1.34,5.71q.42,1.78.88,3.54a9.53,9.53,0,0,1,.36,1.47,2.19,2.19,0,0,1-.37-.31c-.95-1.22-1.88-2.44-2.83-3.65a.59.59,0,0,0-.39-.18A2,2,0,0,0,42.43,67c-.61.86-1.24,1.7-1.88,2.54A1.18,1.18,0,0,1,40,70c.21-.77.44-1.54.62-2.33.3-1.3.55-2.61.86-3.91.42-1.82.79-3.65,1.33-5.43A9.73,9.73,0,0,0,43.27,55a.84.84,0,0,0-.16-.48A1.3,1.3,0,0,1,43,52.72a1.71,1.71,0,0,0-.11-2,1.8,1.8,0,0,1,.16-1.86.8.8,0,0,0,.18-.51q0-2.66,0-5.32c0-5.84-.06-11.67-.12-17.51,0-.78-.33-1.56-.34-2.34,0-1.44.07-2.88.15-4.32s.2-2.62.3-3.94Zm1.57,33.91V25.11H43.53V48.78Zm0,16.83v-11H43.59v11Zm-.06-47.21c0-1.24,0-2.43,0-3.61,0-.42-.2-.76-.56-.76s-.6.32-.59.76c0,1,0,2,0,3,0,.21,0,.41,0,.64Zm.07,34V51H43.6C43.5,52.69,43.41,52.52,44.67,52.41Z"/><path class="cls-1" d="M44.61,48.78H43.53V25.11h1.07Z"/><path class="cls-1" d="M44.65,65.61H43.59v-11h1.06Z"/><path class="cls-1" d="M44.59,18.39H43.44c0-.22,0-.43,0-.64,0-1,0-2,0-3,0-.44.23-.76.59-.76s.57.34.56.76C44.58,16,44.59,17.16,44.59,18.39Z"/><path class="cls-1" d="M44.67,52.41c-1.25.11-1.17.28-1.07-1.42h1.07Z"/><polygon points="62.33 13.84 62.33 13.85 62.33 13.85 62.33 13.84"/><path d="M59.49,10.66a2,2,0,0,0,1.25-.31s0,.07,0,.08a.37.37,0,0,0,.09.47s0,.09,0,.11-.17.24-.09.4.12.26.18.39a.54.54,0,0,0-.09.76s0,.11,0,.16-.09.24-.07.34a2.26,2.26,0,0,0,.22.44c-.31.1-.38.46-.14.84-.24.39-.17.7.2.86.09,3.7.2,9.05.28,12.75h0s0,0,0,0l0,2.23c0,1.83.05,3.67.07,5.5a5.08,5.08,0,0,1-.06.82,11.28,11.28,0,0,0,0,1.56,1.88,1.88,0,0,1-.29,1,11.33,11.33,0,0,1-.76,1,3,3,0,0,0-.71,1.59,25.81,25.81,0,0,0,0,4.3l.11-.41,0,0v.47l0,0,1.52-1.58c.12-.13.24-.25.44-.17a.15.15,0,0,0,.11,0c.16-.09.24,0,.3.14.28.53.55,1.07.83,1.61.1.18.22.35.33.52h0v0h0a1.25,1.25,0,0,0,.08-.26c.08-.86.21-1.73.2-2.59,0-1-.13-2.1-.2-3.15,0-.1,0-.26-.07-.29s-.21-.28-.31-.41a3.68,3.68,0,0,1-.68-1.57,10.52,10.52,0,0,1-.09-2c0-1,0-2,0-3,0-1.74,0-3.49,0-5.23h0c0-4-.26-8.82-.34-12.87l.14.12c.19.12.29.08.38-.12s0-.32-.12-.45a.15.15,0,0,1,0-.22.49.49,0,0,0,0-.63c0,.09,0,.17,0,.22a1.77,1.77,0,0,1-1.25.77c-.18,0-.24-.12-.32-.22a2.2,2.2,0,0,0,1.57-.78.5.5,0,0,0-.21-.14c-.13,0-.14-.11-.07-.21l.09.05c.18.16.39.09.38-.19a2,2,0,0,0-.17-.53.58.58,0,0,0,.12-.47.41.41,0,0,0-.34-.38s0-.06-.05-.08.3.07.33,0a.58.58,0,0,0,.1-.38,1.13,1.13,0,0,0-.19-.35c.27-.22.16-.49.09-.79a2.45,2.45,0,0,0,1.16.25c-.72-1.67-1.49-3.28-2.06-5ZM60,41l-.16,0a2.92,2.92,0,0,1,.23-.38l1.07-1.25a2.89,2.89,0,0,0,.21-.32c.06.2.06.21-.15.5l.16-.11a.52.52,0,0,1-.16.53,7.39,7.39,0,0,0-1.34,1.5l-.07.06A.58.58,0,0,1,60,41Zm1.64.84c.1,0,.22,0,.28.1s.06.19.09.34l-.19-.05c.19.11.16.29.13.46h-.52c0-.15-.08-.33.14-.44H61.4l.06-.38a.16.16,0,0,1,0-.09c0-.5,0-1,0-1.51a2.88,2.88,0,0,1,0-.36c0-.06.08-.12.14-.15a.44.44,0,0,1,.2,0c.24,0,.27.06.26.3L62,41.82l-.34,0Zm-1.91,1.35c0-.24,0-.48,0-.73a.5.5,0,0,1,.14-.4,3.08,3.08,0,0,0,.26-.39l-.36.41h0c0-.13,0-.29.09-.38q.73-.9,1.52-1.75c.05.18.09.33-.07.47s-.36.39-.54.59l.64-.54c0,.07,0,.13,0,.18,0,.38,0,.77,0,1.15a.38.38,0,0,1-.07.22,8.4,8.4,0,0,1-1.49,1.35A1.07,1.07,0,0,1,59.71,43.15Zm.15.12a5.09,5.09,0,0,0,1.26-1.07,1.59,1.59,0,0,1,.16-.19c0,.18.08.37-.1.52l-1.41,1.13C59.7,43.48,59.72,43.37,59.87,43.28ZM60,45.44c-.15.13-.24.12-.32,0a3.42,3.42,0,0,1-.09-.4.4.4,0,0,1,.21-.42c.06,0,.1-.11.14-.17l-.26.18c0-.12,0-.23,0-.34s0-.23,0-.34a.29.29,0,0,1,.15-.29,5.16,5.16,0,0,0,1.36-1.07l.11-.05-.08.47c.08,0,.08.19,0,.3l-.25.26.28-.18c0,.31-.26.4-.36.62l.28-.23,0,0-.25.42.2-.19.16.24Zm1.84-2.7c.07.09.05.25.08.38h-.57c0-.14,0-.29.11-.37A.26.26,0,0,1,61.87,42.74Zm0,1.15h-.42l0-.12c0-.16,0-.24.21-.21h.13l-.34-.07c0-.09,0-.26,0-.29a.54.54,0,0,1,.36,0c.19.05.07.23.11.37h-.19C61.85,43.63,62,43.72,61.84,43.89ZM63.3,46.3c0,.09,0,.18,0,.27l-.45-.91h0a4.86,4.86,0,0,1,.41.4C63.33,46.11,63.3,46.22,63.3,46.3Zm-.21-5.66-.52-.92h0c.19.24.4.48.58.72a.55.55,0,0,1,.05.27c.06.92.16,1.84.18,2.76s0,1.61-.06,2.42a.64.64,0,0,1,0,.1l-.05,0c-.18-.25-.36-.5-.53-.75s-.44-.63-.62-1a2.82,2.82,0,0,1-.17-.61l.08,0,1,1.72.07,0-.28-.49L62,43.47a.2.2,0,0,1,0-.1c0-.29.06-.58.08-.87,0-.14,0-.28,0-.42l.05,0,.94,1.3a.41.41,0,0,0,0-.12c-.26-.36-.5-.74-.78-1.08a.5.5,0,0,1-.16-.49,1.33,1.33,0,0,0,0-.19l1,1.44.06,0-.71-1a3.16,3.16,0,0,1-.25-.4.71.71,0,0,1-.06-.29c0-.14,0-.28,0-.43l.87,1.52.06,0c0-.06,0-.12-.08-.17-.26-.47-.52-.93-.76-1.4a1.48,1.48,0,0,1-.08-.43l.08,0,.86,1.41,0,0c-.17-.3-.33-.61-.51-.9s-.25-.36-.37-.55a.51.51,0,0,1-.07-.24c0-.13,0-.25,0-.43L63,40.67Zm-1-1.4h-.47l.38.09c.16,0,.08.18.08.28s-.11.06-.17.07h-.43c0-.25,0-.49,0-.73,0,0,.06-.09.11-.11C61.89,38.71,62.1,38.87,62.06,39.24Zm0-.64s0,.12.06.18h-.67c0-.09,0-.18.09-.2A.52.52,0,0,1,62,38.6Zm0-.4s.06.19.09.29h-.66c0-.08,0-.26,0-.26A1.5,1.5,0,0,1,62,38.2ZM62.13,37c0,.24,0,.49,0,.73,0,.06,0,.12,0,.19h-.47v0h.18a.54.54,0,0,1,.2,0s.07.08.12.15h-.65c0-.33,0-.67,0-1,0-.14,0-.28,0-.42h0l.17-.06C62,36.52,62.15,36.65,62.13,37Zm0-.39-.26,0c-.15,0-.31,0-.4.13-.08-.18-.07-.21.12-.26A.49.49,0,0,1,62.16,36.6Zm-.29-21.36c0,.73,0,1.45,0,2.18.06,1.75.16,3.49.21,5.24,0,1.45.05,2.9.07,4.36,0,.07,0,.83,0,.89h0c0,2.82,0,5.63-.09,8.41h-.67c-.1-2.78,0-5.59-.14-8.4,0-.08,0-.4,0-1.77,0-1.05-.06-2.1-.07-3.16,0-2.49,0-5,0-7.46,0-.34,0-.34.32-.45.06,0,.11-.07.16-.08a.18.18,0,0,1,.15.06A.38.38,0,0,1,61.87,15.23Zm.54-.06c-.17.14-.26.1-.58-.25l.22-.16Zm0-.2-.07,0-.28-.3c.06,0,.11-.06.12,0Zm-.11-.7a.8.8,0,0,1-.37.47,1.79,1.79,0,0,1-.81.36c-.13,0-.25,0-.31-.16A2.23,2.23,0,0,0,62.34,14.27Zm-1.48-4,.79.6c-.19.18-.32,0-.44-.07S60.81,10.58,60.85,10.3Zm-.05.3.54.45C61.13,11.13,60.78,10.84,60.8,10.59Zm.07,1.4.8.6c-.09,0-.17.06-.24,0C61.06,12.5,60.82,12.21,60.87,12Zm-.07.29.53.44C61.14,12.81,60.79,12.53,60.8,12.27Zm.26,2.13c-.16-.1-.32-.19-.31-.43l.54.45C61.2,14.48,61.2,14.49,61.06,14.4Zm.16-.15c-.21-.13-.45-.26-.42-.57l.79.61C61.46,14.48,61.33,14.32,61.22,14.25Zm.7-.27a.21.21,0,0,1-.36.18l-.12-.08a.45.45,0,0,1-.21-.55.18.18,0,0,1,.1-.09l.54-.18a1,1,0,0,1,.07.24C61.94,13.65,61.93,13.82,61.92,14Zm.49-.56s0,.1,0,.1a.33.33,0,0,1-.19,0,4.16,4.16,0,0,1-.34-.3c.1,0,.22-.14.25-.11A1.75,1.75,0,0,1,62.41,13.42Zm0-.08L62.14,13C62.34,13,62.45,13.1,62.45,13.34Zm-.21-.52a2.09,2.09,0,0,1-1,.57.27.27,0,0,1-.34-.18,2.31,2.31,0,0,0,1.54-.65A1.51,1.51,0,0,1,62.24,12.82Zm.15-.49a1.52,1.52,0,0,1-.35.39,4.78,4.78,0,0,1-.82.39c-.2.08-.32,0-.42-.25a.86.86,0,0,0,.81-.15,7.44,7.44,0,0,0,.64-.48.44.44,0,0,1,.12,0C62.38,12.23,62.41,12.3,62.39,12.33ZM62,12.05c0,.15.06.35-.14.44s-.26-.11-.39-.18a.41.41,0,0,1-.2-.23c-.06-.31,0-.35.3-.35a1,1,0,0,0,.27,0c.15,0,.17,0,.16.14S62,12,62,12.05Zm.46-.2c-.28.06-.36-.21-.54-.29v-.05c.09,0,.23-.11.26-.08S62.43,11.63,62.41,11.85Zm-.12-.55c.07.1.13.2.2.3h0l-.24-.22s0-.06,0-.1S62.28,11.29,62.29,11.3Zm-.55.22a2.62,2.62,0,0,1-.55.19.25.25,0,0,1-.32-.18,2.22,2.22,0,0,0,1.53-.66A1.27,1.27,0,0,1,61.74,11.52Zm.62-.82a1.76,1.76,0,0,1-1.23.74c-.17,0-.27-.08-.32-.25a1.13,1.13,0,0,0,1-.27c.2-.12.38-.28.62-.47C62.38,10.56,62.4,10.65,62.36,10.7ZM62,10.58c0,.11-.07.17-.16.24s-.15,0-.22-.06l-.3-.2c-.17-.1-.12-.23,0-.36a.31.31,0,0,1,.38-.18A.56.56,0,0,1,62,10.58Zm.93-.17-1.18-.54s-.07-.08-.12-.16a2,2,0,0,0-.78.4,2.65,2.65,0,0,1-1.24.51A45.47,45.47,0,0,0,61.47,6a25.6,25.6,0,0,0,2,4.58A5.22,5.22,0,0,1,62.91,10.41Z"/><path class="cls-1" d="M63.19,42.86l-.71-1a3.16,3.16,0,0,1-.25-.4.71.71,0,0,1-.06-.29c0-.14,0-.28,0-.43l.87,1.52.06,0c0-.06,0-.12-.08-.17-.26-.47-.52-.93-.76-1.4a1.48,1.48,0,0,1-.08-.43l.08,0,.86,1.41,0,0c-.17-.3-.33-.61-.51-.9s-.25-.36-.37-.55a.51.51,0,0,1-.07-.24c0-.13,0-.25,0-.43L63,40.67l.06,0-.52-.92h0c.19.24.4.48.58.72a.55.55,0,0,1,.05.27c.06.92.16,1.84.18,2.76s0,1.61-.06,2.42a.64.64,0,0,1,0,.1l-.05,0c-.18-.25-.36-.5-.53-.75s-.44-.63-.62-1a2.82,2.82,0,0,1-.17-.61l.08,0,1,1.72.07,0-.28-.49L62,43.47a.2.2,0,0,1,0-.1c0-.29.06-.58.08-.87,0-.14,0-.28,0-.42l.05,0,.94,1.3a.41.41,0,0,0,0-.12c-.26-.36-.5-.74-.78-1.08a.5.5,0,0,1-.16-.49,1.33,1.33,0,0,0,0-.19l1,1.44Zm0,1.31a4.19,4.19,0,0,0-.83-1.44Z"/><path class="cls-1" d="M60.69,41l.64-.54c0,.07,0,.13,0,.18,0,.38,0,.77,0,1.15a.38.38,0,0,1-.07.22,8.4,8.4,0,0,1-1.49,1.35,1.08,1.08,0,0,1,0-.16c0-.24,0-.48,0-.73a.5.5,0,0,1,.14-.4,3.07,3.07,0,0,0,.26-.39Zm0,.72.54-.59,0,0-.52.61a4.2,4.2,0,0,0-.28.32c-.19.26-.36.53-.55.8l0,0,.2-.27Z"/><path class="cls-1" d="M61.56,42.21H61.4l.06-.38a.16.16,0,0,1,0-.09c0-.5,0-1,0-1.51a2.87,2.87,0,0,1,0-.36c0-.06.08-.12.14-.15a.44.44,0,0,1,.2,0c.24,0,.27.06.26.3L62,41.82l-.34,0v0c.1,0,.22,0,.28.1s.06.19.09.34l-.19-.05Z"/><path class="cls-1" d="M60,44.44l-.26.18c0-.12,0-.23,0-.34s0-.23,0-.34a.29.29,0,0,1,.15-.29,5.16,5.16,0,0,0,1.36-1.07l.11-.05-.08.47c.08,0,.08.19,0,.3l-.25.26h0a.36.36,0,0,0-.1,0l-.68.6c-.08.08-.15.16-.23.25Zm.55-1,0,0-.52.41,0,0Z"/><path class="cls-1" d="M61.49,36.68l.17-.06c.33-.09.49,0,.47.37s0,.49,0,.73c0,.06,0,.12,0,.19h-.47v0h.18a.54.54,0,0,1,.2,0s.07.08.12.15h-.65c0-.33,0-.67,0-1,0-.14,0-.28,0-.42Z"/><path class="cls-1" d="M59.71,45.43a3.42,3.42,0,0,1-.09-.4.4.4,0,0,1,.21-.42c.06,0,.1-.11.14-.17h0a.38.38,0,0,0,.11,0l.75-.67a1.59,1.59,0,0,0,.15-.18h0l.28-.18c0,.31-.26.4-.36.62l.28-.23,0,0-.25.42Zm0-.41,0,0,.68-.68,0,0Z"/><path class="cls-1" d="M61.18,39.53l.16-.11a.52.52,0,0,1-.16.53,7.39,7.39,0,0,0-1.34,1.5l-.07.06A.58.58,0,0,1,60,41l-.16,0a2.92,2.92,0,0,1,.23-.38l1.07-1.25a2.87,2.87,0,0,0,.21-.32C61.39,39.23,61.39,39.24,61.18,39.53Z"/><path class="cls-1" d="M60.69,41l-.59.68-.36.41h0c0-.13,0-.29.09-.38q.73-.9,1.52-1.75c.05.18.09.33-.07.47S60.87,40.77,60.69,41Z"/><path class="cls-1" d="M59.71,45.43,61,44.22l.2-.19.16.24L60,45.44C59.88,45.58,59.78,45.56,59.71,45.43Z"/><path class="cls-1" d="M62.06,39.24h-.47l.38.09c.16,0,.08.18.08.28s-.11.06-.17.07h-.43c0-.25,0-.49,0-.73,0,0,.06-.09.11-.11C61.89,38.71,62.1,38.87,62.06,39.24Z"/><path class="cls-1" d="M59.77,43.67c-.07-.19-.05-.3.1-.4a5.09,5.09,0,0,0,1.26-1.07,1.58,1.58,0,0,1,.16-.19c0,.18.08.37-.1.52Z"/><path class="cls-1" d="M61.56,42.21l.25,0c.19.11.16.29.13.46h-.52C61.42,42.5,61.35,42.32,61.56,42.21Z"/><path class="cls-1" d="M61.95,43.12h-.57c0-.14,0-.29.11-.37a.26.26,0,0,1,.38,0C61.94,42.83,61.92,43,61.95,43.12Z"/><path class="cls-1" d="M62.11,38.49h-.66c0-.08,0-.26,0-.26a1.5,1.5,0,0,1,.53,0S62.08,38.39,62.11,38.49Z"/><path class="cls-1" d="M61.74,43.55l-.34-.07c0-.09,0-.26,0-.29a.54.54,0,0,1,.36,0c.19.05.07.23.11.37h-.18Z"/><path class="cls-1" d="M61.73,43.55c.11.09.24.17.11.34h-.42l0-.12c0-.16,0-.24.21-.21h.12Z"/><path class="cls-1" d="M61.42,38.78c0-.09,0-.18.09-.2a.52.52,0,0,1,.52,0s0,.12.06.18Z"/><path class="cls-1" d="M63.3,46.57l-.45-.91h0a4.87,4.87,0,0,1,.41.4c0,.05,0,.16,0,.25s0,.18,0,.27Z"/><path class="cls-1" d="M61.5,36.68c-.09-.18-.07-.21.12-.26a.49.49,0,0,1,.55.18l-.26,0c-.15,0-.31,0-.4.13Z"/><path class="cls-2" d="M63.43,10.57a5.22,5.22,0,0,1-.52-.16l-1.18-.54s-.07-.08-.12-.16a2,2,0,0,0-.78.4,2.65,2.65,0,0,1-1.24.51A45.47,45.47,0,0,0,61.47,6,25.6,25.6,0,0,0,63.43,10.57Z"/><path class="cls-1" d="M61.86,13.25a1,1,0,0,1,.07.24c0,.16,0,.33,0,.5a.21.21,0,0,1-.36.18l-.12-.08a.45.45,0,0,1-.21-.55.18.18,0,0,1,.1-.09Z"/><path class="cls-1" d="M62,12.05c0,.15.06.35-.14.44s-.26-.11-.39-.18a.41.41,0,0,1-.2-.23c-.06-.31,0-.35.3-.35a1,1,0,0,0,.27,0c.15,0,.17,0,.16.14S62,12,62,12.05Z"/><path class="cls-1" d="M62,10.58c0,.11-.07.17-.16.24s-.15,0-.22-.06l-.3-.2c-.17-.1-.12-.23,0-.36a.31.31,0,0,1,.38-.18A.56.56,0,0,1,62,10.58Z"/><path class="cls-1" d="M60.76,14.62a2.2,2.2,0,0,0,1.57-.78c0,.09,0,.18,0,.22a1.77,1.77,0,0,1-1.25.77C60.9,14.87,60.83,14.72,60.76,14.62Z"/><path class="cls-1" d="M62.4,10.45c0,.11,0,.19,0,.24a1.76,1.76,0,0,1-1.23.74c-.17,0-.27-.08-.32-.25a1.13,1.13,0,0,0,1-.27C62,10.8,62.15,10.64,62.4,10.45Z"/><path class="cls-1" d="M60.8,12.86a.86.86,0,0,0,.81-.15,7.44,7.44,0,0,0,.64-.48.45.45,0,0,1,.12,0c0,.05,0,.12,0,.15a1.52,1.52,0,0,1-.35.39,4.77,4.77,0,0,1-.82.39C61,13.18,60.9,13.1,60.8,12.86Z"/><path class="cls-1" d="M60.87,13.21a2.31,2.31,0,0,0,1.54-.65,1.51,1.51,0,0,1-.17.26,2.09,2.09,0,0,1-1,.57A.27.27,0,0,1,60.87,13.21Z"/><path class="cls-1" d="M62.39,10.87a1.27,1.27,0,0,1-.66.64,2.62,2.62,0,0,1-.55.19.25.25,0,0,1-.32-.18A2.22,2.22,0,0,0,62.39,10.87Z"/><path class="cls-1" d="M62.34,14.27a.8.8,0,0,1-.37.47,1.79,1.79,0,0,1-.81.36c-.13,0-.25,0-.31-.16A2.23,2.23,0,0,0,62.34,14.27Z"/><path class="cls-1" d="M60.8,13.68l.79.61c-.13.19-.26,0-.37,0S60.77,14,60.8,13.68Z"/><path class="cls-1" d="M61.64,10.9c-.19.18-.32,0-.44-.07s-.4-.25-.35-.53Z"/><path class="cls-1" d="M60.87,12l.8.6c-.09,0-.17.06-.24,0C61.06,12.5,60.82,12.21,60.87,12Z"/><path class="cls-1" d="M62.05,14.77l.36.4c-.17.14-.26.1-.58-.25Z"/><path class="cls-1" d="M61.85,13.21c.1,0,.22-.14.25-.11a1.76,1.76,0,0,1,.3.33s0,.1,0,.1a.33.33,0,0,1-.19,0A4.16,4.16,0,0,1,61.85,13.21Z"/><path class="cls-1" d="M62.41,11.85c-.28.06-.36-.21-.54-.29v-.05c.09,0,.23-.11.26-.08S62.43,11.63,62.41,11.85Z"/><path class="cls-1" d="M60.8,10.59l.54.45C61.13,11.13,60.78,10.84,60.8,10.59Z"/><path class="cls-1" d="M60.74,14l.54.45c-.08.06-.09.06-.23,0S60.73,14.21,60.74,14Z"/><path class="cls-1" d="M60.8,12.27l.53.44C61.14,12.81,60.79,12.53,60.8,12.27Z"/><path class="cls-1" d="M62.38,15l-.28-.3c.06,0,.11-.06.12,0l.23.3Z"/><path class="cls-1" d="M62.45,11.62l-.24-.22s0-.06,0-.1.09,0,.1,0,.13.2.2.3Z"/><path class="cls-1" d="M62.45,13.34,62.14,13C62.34,13,62.45,13.1,62.45,13.34Z"/><path d="M63.16,44.16l-.83-1.44A4.19,4.19,0,0,1,63.16,44.16Z"/><path d="M60.64,41.68l-.61.86-.2.27,0,0c.18-.27.36-.54.55-.8a4.2,4.2,0,0,1,.28-.32Z"/><path d="M60.63,41.66l.52-.61,0,0-.54.59Z"/><path d="M61,43.55a1.59,1.59,0,0,1-.15.18l-.75.67a.38.38,0,0,1-.11,0c.08-.08.15-.17.23-.25l.68-.6A.36.36,0,0,1,61,43.55Z"/><path d="M60.52,43.48,60,43.9l0,0,.52-.41Z"/><path d="M59.75,45l.69-.68,0,0-.68.68Z"/></g></g></svg>