<svg xmlns="http://www.w3.org/2000/svg" viewBox="0 0 73.54 97.55"><defs><style>.cls-1{fill:#b3b2b2;}.cls-2{fill:#f6f6f7;}.cls-3{fill:#fff;}</style></defs><title>Ресурс 1</title><g id="Слой_2" data-name="Слой 2"><g id="Слой_1-2" data-name="Слой 1"><path d="M65.4,97.52A2.18,2.18,0,0,1,63,96.27Q56.83,85.46,50.59,74.66c-.24-.42-.52-.83,0-1.27l-2.85-4.95-9.81-17Q35.34,47,32.75,42.53c-.12-.21-.39-.34-.57-.53a6.13,6.13,0,0,1-.8-1c-1.34-2.28-2.66-4.58-4-6.87l-.34-.56a2.28,2.28,0,0,0-.25.56c-.21,2.15-.41,4.3-.58,6.45a.77.77,0,0,0,.29.6,8,8,0,0,0,1.31.6c.33.12.65.22.74.7L27.42,43l1.38.1-.45,1,2.24,1.45-.79.64c1.83,1,2,2.79,2.09,4.72l-1-1.08c.34,1.14.71,2.27,1,3.43a14,14,0,0,1,.3,4.84.81.81,0,0,0,.06.46,15.46,15.46,0,0,1,1.66,5.61c.18,1.09.43,2.16.66,3.3L34,67.35c.23.63.48,1.27.69,1.92a8.71,8.71,0,0,1,0,4.58c-.21,1-.55,1.93-.83,2.89a.58.58,0,0,1-.86.42,5.58,5.58,0,0,1-.64-.21,9.52,9.52,0,0,1-4.81-4.62,95,95,0,0,1-4.13-10.56,1.46,1.46,0,0,0-.14-.22c-.09.67-.19,1.24-.25,1.82s-.09,1.15-.13,1.78l-.49-.29a17.56,17.56,0,0,1,0,2.19,8.23,8.23,0,0,1-.54,2.15A14.57,14.57,0,0,1,19.56,73c-.48.56-.64.62-1.21.14a8.4,8.4,0,0,1-3.21-5.45,87.22,87.22,0,0,1-.66-9.86,17.23,17.23,0,0,1,.64-5.05.9.9,0,0,0,.07-.38,7.82,7.82,0,0,1,.75-4.16,6.5,6.5,0,0,0,.34-1.3,12.09,12.09,0,0,1,2.38-5.56c-.57-.25-1.14-.5-1.19-1.24L19.33,40a2.78,2.78,0,0,1,.06-2.35c.15.26.21.52.38.63a1.59,1.59,0,0,0,.81.29c.35,0,.48-.28.55-.62A17.51,17.51,0,0,1,23.39,32a.47.47,0,0,0,.09-.31,1.82,1.82,0,0,1,1.2-2.25l-.87-1.52-.8.58c-2.16,1.61-4.31,3.23-6.48,4.83a9.51,9.51,0,0,1-6,2.15,4.5,4.5,0,0,1-3.55-1.83,41.8,41.8,0,0,1-5.75-11c-.45-1.18-.8-2.4-1.2-3.6q0-.68,0-1.37c.11-.37.2-.75.35-1.1a8,8,0,0,1,5-4.55l7.62-2.82A3.32,3.32,0,0,0,13.41,9L11.88,6.35c-.12-.21-.24-.42-.35-.64a1,1,0,0,1,.35-1.44,6.08,6.08,0,0,1,.69-.46L18.26.52c1.43-.82,1.74-.73,2.57.7L23,5a1,1,0,0,0,1.31.54C27.56,4.7,30.78,3.81,34,3c2.48-.63,5-1.2,7.49-1.76a8.22,8.22,0,0,1,3.58,0A4,4,0,0,1,48.24,6a7.79,7.79,0,0,1-2.86,4.78l-5.74,4.68-5.79,4.76c-.8.65-.89,1.06-.37,1.95l.25.41a1,1,0,0,1,1.36.44,12.32,12.32,0,0,0,1.47,2.38,1.73,1.73,0,0,1,0,2.18l4.2,7.29c.17.3.35.59.5.89s.22.44.16.59c-.16.41.06.68.23,1L59.24,67.77l.29.48c.56-.31.79.1,1,.52L73.11,90.53l.43.75v.78A3,3,0,0,1,72,93.73c-2.21,1.24-4.39,2.52-6.6,3.79M1,18.38a7.82,7.82,0,0,0,.23,1.24c.75,2.09,1.47,4.2,2.31,6.25a28.26,28.26,0,0,0,3.89,7,4.32,4.32,0,0,0,4.11,1.7A9.1,9.1,0,0,0,16,32.65c2.39-1.79,4.77-3.6,7.16-5.39a.42.42,0,0,0,.16-.56c-.42-1.36-.79-2.74-1.21-4.1a8.38,8.38,0,0,0-.67-1.65c-1.59-2.8-3.24-5.55-4.79-8.37a5.74,5.74,0,0,0-2.47-2.51.78.78,0,0,0-.72,0c-2.14.82-4.27,1.65-6.43,2.4a10.76,10.76,0,0,0-4.67,2.87A5,5,0,0,0,1,18.38Zm32,1.33c1.9-1.54,3.9-3.14,5.88-4.76,1.69-1.38,3.35-2.77,5-4.15A8.8,8.8,0,0,0,47.16,6a2.85,2.85,0,0,0-2.51-3.82,8.82,8.82,0,0,0-3,.08c-3.19.67-6.36,1.44-9.53,2.21-2.47.61-4.93,1.28-7.39,1.94-.16,0-.43.18-.43.28a3.69,3.69,0,0,0,.25,2.09q1.53,2.58,3,5.19a8.45,8.45,0,0,0,1.73,2.2C30.51,17.27,31.72,18.49,33,19.71Zm21.11,52a158.42,158.42,0,0,0-9.16-16.44.35.35,0,0,1,.23.17c1.47,2.32,2.95,4.63,4.4,7a36.79,36.79,0,0,1,3.15,6.08,32.32,32.32,0,0,0,1.6,3.11l.43-.24.3-.2-4.49-7.81.15-.09c.38.67.74,1.35,1.14,2,1.11,1.8,2.23,3.59,3.35,5.38.21.33.22.32.39.14-.5-1-1-2-1.45-3-.67-1.45-1.27-2.94-2-4.37-.9-1.82-1.89-3.59-2.84-5.38a3.9,3.9,0,0,1-.18-.49,4.41,4.41,0,0,1,.59.92c1.24,2.32,2.51,4.62,3.7,7,.57,1.11,1,2.3,1.49,3.43.28.61.68,1.16,1,1.76l1-.66c-1.1-2-2.23-3.92-3.26-5.91s-2-4.09-3-6.14-2-4-2.93-6a3.18,3.18,0,0,1,.56.74,106.73,106.73,0,0,1,5.26,10.54,48.42,48.42,0,0,0,3.72,6.51l.9-.65c-.44-.64-.82-1.26-1.27-1.84A22.84,22.84,0,0,1,53.88,62a63.62,63.62,0,0,0-6.12-11.12,40.5,40.5,0,0,1-3.15-5.42,63,63,0,0,0-4.19-7.52c-.07-.1-.15-.19-.24-.31l-.64.52.84.95a12.3,12.3,0,0,1,2.22,3.3c1,2.24,2,4.48,3.07,6.68,1.55,3.13,3.18,6.21,4.77,9.32.24.47.44,1,.66,1.43a.75.75,0,0,1-.29-.33c-1.35-2.57-2.71-5.14-4.05-7.72a96.76,96.76,0,0,1-4.49-9.29,15.43,15.43,0,0,0-2.93-4.19l-.59.43a9.62,9.62,0,0,1,2.37,4,14.12,14.12,0,0,0-2.69-3.76l-.27.22c.91,1.28,1.85,2.48,2.66,3.77A17.89,17.89,0,0,1,42.77,47a2.79,2.79,0,0,1-.28-.46A39.69,39.69,0,0,0,39,40.6c-.12-.16-.41-.34-.56-.3a.94.94,0,0,0-.58.49,1.44,1.44,0,0,0,0,.95,25.86,25.86,0,0,0,1.13,2.36,15.25,15.25,0,0,0,.84,1.27,9.06,9.06,0,0,1-2.28-3.74,1.11,1.11,0,0,1,1-1.6L38,39.26l-1.07.66c0,.11,0,.17,0,.23a9.32,9.32,0,0,0,2.27,5.08,13.48,13.48,0,0,1,.87,1.18c3.32,4.54,6.13,9.42,9.14,14.16a1.62,1.62,0,0,1,.11.26c-1.05-1.42-2.05-2.86-3-4.36a132.72,132.72,0,0,0-8.07-11.88,6.7,6.7,0,0,1-1.36-3c-.08-.49-.18-1-.28-1.49a2.7,2.7,0,0,0-.53.31.47.47,0,0,0-.15.37,16,16,0,0,0,2.18,4.7,38.4,38.4,0,0,1,2.26,3.29C43.65,54,46.82,59.33,50,64.64c0,.08.08.16.18.35a1.44,1.44,0,0,1-.2-.17c-1.64-2.63-3.34-5.23-4.9-7.91-2.15-3.69-4.31-7.38-6.82-10.84A13.46,13.46,0,0,1,36,41.62c-.09-.34-.21-.67-.32-1l-.49.27c.37.85.68,1.68,1.09,2.47A39.36,39.36,0,0,0,38.91,48,70.55,70.55,0,0,1,45.13,58.5,106,106,0,0,0,52.74,72l.26.37.61-.32c-.75-1.07-1.5-2.08-2.2-3.14s-1.41-2.14-2-3.26-1.13-2.21-1.69-3.32l.14-.07a68.56,68.56,0,0,0,6.05,9.65ZM25.89,48.26a1.53,1.53,0,0,0,0,.25c.28,2.4.55,4.81.84,7.21a1.24,1.24,0,0,0,.27.6c.67.8,1.36,1.59,2,2.38l0,.07-2.06-1.69a4.13,4.13,0,0,0,0,.47c.3,1.51.62,3,.9,4.54a4.28,4.28,0,0,0,.88,2c.58.72,1.09,1.5,1.67,2.22s1.31,1.58,2,2.37l.1-.07A36.16,36.16,0,0,1,28.81,62l3.33,5,.14-.09L29.9,62.32l.06,0,2.27,2.47.07-.08L30.68,62.3l.09-.06L33,64.34l.21-.14-1.54-4.1.81.94.14-.1-2-3.4,1,.65A20.51,20.51,0,0,0,31,52.41c-.38-2-1.66-3.37-2.61-5l2.66,2a2.73,2.73,0,0,0-1-2.15c-.52-.47-1.09-.88-1.63-1.32-.34-.28-.67-.57-1-.86l.06-.08,1.85.66.06-.16c-1-.72-1.87-1.69-3.18-2,.59-.11,1.12.41,1.71.1a2.41,2.41,0,0,1-1.61-.84l1.45-.37c-.76-.3-1.68,0-2.22-.89a1.63,1.63,0,0,0-.06.25c.07,1.88.13,3.77.21,5.65A1.05,1.05,0,0,0,26,48c.57.71,1.14,1.42,1.75,2.09.78.86,1.59,1.68,2.39,2.52A14.37,14.37,0,0,1,25.89,48.26ZM60.81,90.64c.95,1.64,1.86,3.25,2.79,4.84a1.67,1.67,0,0,0,2.45.66q2.7-1.54,5.39-3.11a1.68,1.68,0,0,0,.66-2.49L69.72,86.4c-.06-.11-.14-.21-.22-.33A25.66,25.66,0,0,1,60.81,90.64ZM14.1,9.14c.53.33,1,.6,1.46.92,3.19,2.32,6.4,4.61,9.54,7a32,32,0,0,1,5.59,5.05.34.34,0,0,0,.32.07c.51-.34,1-.68,1.49-1.06a.49.49,0,0,0,0-.77c-.38-.43-.71-.89-1.11-1.29a74.17,74.17,0,0,0-9-7.78C20.78,10.1,19.09,9.06,17.44,8a.74.74,0,0,0-.49-.15A6.29,6.29,0,0,0,14.1,9.14Zm8.6,49.33.09,0a5.31,5.31,0,0,0-.21-1.36A7.39,7.39,0,0,1,22,53.38a4.37,4.37,0,0,0-.62-2.74,10.65,10.65,0,0,1-.65-1.25c-.17-.41-.27-.85-.4-1.27h.06l1.32,2.34a5.93,5.93,0,0,0-.53-3.52,7.09,7.09,0,0,1-.49-1.43c-.48,1.71-.73,3.45-1.22,5.12a5.77,5.77,0,0,0,.83,4.67c.06.11.12.24.18.35l-.12.07L19,53.54a1.75,1.75,0,0,0-.07.24c-.17,1.32-.36,2.64-.5,4a5.88,5.88,0,0,0,0,1.92A33.11,33.11,0,0,0,19.52,63c.29.8.63,1.58.95,2.37l.11,0a36.73,36.73,0,0,1-1.34-6.9A47.44,47.44,0,0,0,20.94,64l-.79-4.87h.07L21.5,62l.09,0-.76-2.64.09,0,1.37,2.55.24-.07-.18-4.08ZM51.53,73c-.44-.81-.86-1.57-1.26-2.35-1-2-2-4-3.05-6-2-3.71-4.38-7.22-6.11-11.08l-.2-.46c1.86,3.28,3.79,6.51,5.63,9.79s3.58,6.61,5.37,9.92l.76-.35c-.16-.26-.28-.48-.42-.7a121.34,121.34,0,0,1-7.57-13.44A62.9,62.9,0,0,0,39,48.82a26.2,26.2,0,0,1-2.76-4.75c-.45-1-.9-2-1.36-3.1l-.92.38c1.91,4,3.77,8,6.06,11.77L39.73,53,51.35,73S51.46,73,51.53,73ZM24.88,64.54H25l.94-2.8-.29,4.1h.12l.51-3,0,0v4.65a3.23,3.23,0,0,0,.25-.95,9,9,0,0,0,0-4.56,18.16,18.16,0,0,1-.5-2.33h-.08l-.73,2.86-.15,0c.18-.94.33-1.89.53-2.83a3.75,3.75,0,0,0,.09-1.58,57.67,57.67,0,0,1-1.13-8.2c-.05-.94-.12-1.89-.19-2.83l-.1,0-.51,1.18-.13,0a17.51,17.51,0,0,1,.53-1.75,5.85,5.85,0,0,0,.1-2l-.14,0-.66,1.16-.15,0a4.75,4.75,0,0,0,.79-3.82c-.43.31-.78.89-1.53.51.28.58.71.58,1.22.53-.09.15-.12.27-.2.33-.55.4-1.11.79-1.66,1.18v.1L23.59,44A12,12,0,0,0,22.72,51l1.09-2c-.13.68-.4,1.31-.58,2a12.79,12.79,0,0,0-.42,2,18.49,18.49,0,0,0,0,2h0l.38-1.57.13,0a22.68,22.68,0,0,0,.6,6.26c.16-.52.27-.95.42-1.35s.33-.75.53-1.21ZM19.83,40.88c-.4.56-.87,1.13-1.24,1.77a13.89,13.89,0,0,0-1,2.07c-.25.68-.41,1.39-.61,2.09l.12,0,1.52-1.4C16.89,47.85,16,49.51,16,50.54l.81-1.3.12.05A20.45,20.45,0,0,0,15.59,55l1.46-1.84.11.08a33.55,33.55,0,0,0-2,6.42l1.65-2.21L15.35,61l.12.05,1.2-2.32.07,0-1.32,3.82.16.06,1.56-3.06a.7.7,0,0,0,0-.24c.06-.61.11-1.23.18-1.84s.14-1.2.21-1.8l-.09,0L16,57.88a.82.82,0,0,1,.09-.48c.42-.77.87-1.52,1.28-2.29a2,2,0,0,0,.23-.67,62.8,62.8,0,0,1,1.47-8l.66-2.5-.08,0-.83.94a3.72,3.72,0,0,1,.76-1.35,3.52,3.52,0,0,0,.71-2l-1,.89a2.21,2.21,0,0,1,.67-.91c.88-.57.8-1.55,1.18-2.41-.6.18-1.1.62-1.62,0,0,.64.45.77.91.91a3.34,3.34,0,0,1-2.12.69v.18Zm1.42-26c0,.22,0,.32,0,.41.47,2.42.89,4.85,1.43,7.25.32,1.4.84,2.76,1.26,4.13.1.33.32.45.63.27.53-.31,1-.64,1.55-1,.27-.18.28-.4.14-.7A5.92,5.92,0,0,1,25.86,24c-.41-2-.79-3.94-1.19-5.91-.06-.27-.1-.63-.28-.78C23.39,16.48,22.36,15.72,21.25,14.88ZM39.33,33.75a41.8,41.8,0,0,1-8.57,4.81c.42.72.85,1.4,1.21,2.13.23.46.48.48.91.31a23.31,23.31,0,0,0,4.8-2.66c.92-.66,1.77-1.42,2.64-2.15a.52.52,0,0,0,.13-.47C40.1,35.06,39.72,34.42,39.33,33.75ZM51.21,74l1.33,2.29.44-.16a42,42,0,0,0,6.66-3.72,11.72,11.72,0,0,0,1.14-.91.43.43,0,0,0,.1-.39c-.36-.67-.75-1.32-1.15-2A49.13,49.13,0,0,1,51.21,74Zm16.6,9.09A30.89,30.89,0,0,1,59.27,88l1.32,2.28a31.3,31.3,0,0,0,5.52-2.77c.94-.58,1.82-1.24,2.72-1.88a.5.5,0,0,0,.15-.46C68.62,84.45,68.21,83.79,67.82,83.1ZM13.21,7A57.9,57.9,0,0,0,21,3.08c-.33-.54-.63-1-.95-1.53a.85.85,0,0,0-1.15-.32,6.69,6.69,0,0,0-.7.34l-3.54,2c-.56.33-1.13.64-1.66,1A.89.89,0,0,0,12.64,6C12.81,6.32,13,6.65,13.21,7ZM53,77.15l1,1.66a53.56,53.56,0,0,0,9.24-3.68l-.8-1.39Zm2.25,3.9a52.84,52.84,0,0,0,9.22-3.7L63.71,76l-9.39,3.39Zm1.29,2.24a53.43,53.43,0,0,0,9.2-3.73L65,78.23l-9.39,3.4ZM37.7,30.93,28.3,34.32l1,1.66a53.19,53.19,0,0,0,9.19-3.75ZM57.86,85.52A52.35,52.35,0,0,0,67,81.77l-.75-1.29-9.4,3.39ZM36.41,28.69c-3.26.89-5.94,2.83-8.91,4.23l.24.42.26.41A52.91,52.91,0,0,0,37.19,30ZM24.61,40.93c0,.34,0,.61,0,.89A98.42,98.42,0,0,0,26,56.6,64.64,64.64,0,0,0,29.56,70c.47,1.16,1,2.3,1.53,3.45C26.74,63,25.29,52.11,25.21,40.88ZM35.72,25.59,27.08,31.1l.51,1,.2-.07a54.6,54.6,0,0,0,7.9-4.69c.59-.43.62-.6.29-1.26C35.9,25.86,35.78,25.7,35.72,25.59ZM25.39,18l-.15.09a35.21,35.21,0,0,0,1.55,6.63L30,22.07ZM18,69.37c-.87-10.56,1-20.74,4.25-30.74a1.9,1.9,0,0,0-.25-.1,2.35,2.35,0,0,0-.28,0c-.05.14-.1.26-.14.39A85.73,85.73,0,0,0,17.5,61.43,38.63,38.63,0,0,0,18,69.37Zm7.27-38.86a2.56,2.56,0,0,0,2-.34c1.58-1,3.23-2,4.79-3.07.92-.63,1.73-1.41,2.6-2.12a.59.59,0,0,0,.15-.82c-.15-.27-.33-.53-.5-.8A72.7,72.7,0,0,1,25.26,30.51ZM23.36,6.16a5.51,5.51,0,0,0-2.61.54.42.42,0,0,0-.23.28,7.68,7.68,0,0,0,.05,1.84c.07.29.53.49.81.72L22,10l1.71,1.34ZM38.28,33.5l0,0-8.73,2.95c.27.46.55.9.78,1.36.15.29.31.33.57.19,1.5-.79,3-1.51,4.5-2.37C36.39,35,37.31,34.2,38.28,33.5ZM21.1,3.69l-7.51,4,.43.71,7.91-3.13Zm45.57,79.4L58.11,86,59,87.5A27.83,27.83,0,0,0,66.67,83.09ZM26.85,26.3l.41-.15c1.62-.69,3.25-1.38,4.86-2.1a8.07,8.07,0,0,0,1.16-.79l-.7-1.2c-.73.35-1.43.62-2.05,1-.9.55-1.72,1.21-2.61,1.78A2.34,2.34,0,0,0,26.85,26.3Zm-1.41,3.06A10.15,10.15,0,0,0,27,28.55c1.15-.87,2.25-1.81,3.37-2.73.15-.12.29-.26.53-.48L24.43,27.6ZM17.16,12l-.09.07,4.21,7.3c-.24-1.65-.55-3.27-.87-4.89a.62.62,0,0,0-.23-.34C19.18,13.41,18.17,12.7,17.16,12ZM51.68,56.31l-.07,0L52.84,59c.8,1.7,1.49,3.47,2.42,5.1s2.46,2.89,3.28,4.63l.19.06a3.27,3.27,0,0,0-.18-.53l-4.38-7.6Zm9.76,15.75c-1,.62-1.85,1.25-2.78,1.8s-1.87,1-2.83,1.52-1.95.87-2.92,1.3a.59.59,0,0,0,.34,0c2.39-.87,4.78-1.72,7.15-2.64A8.76,8.76,0,0,0,62,73Zm-11-17.91L43.25,41.71A59.1,59.1,0,0,0,50.42,54.14ZM26.89,32.38a1.23,1.23,0,0,0-1.19-1.17,1.2,1.2,0,1,0,1.19,1.17Zm-4.44,7-.13,0L21,43.85l.13.09,1.54-.72A2.42,2.42,0,0,1,22.06,41l1.08.59.08-.14-.51-.78,1.08.09.09-.18C23.33,40.26,22.61,40.14,22.44,39.39Zm0,5.58-1.57-.59c-.16,1.14.64,2,1,3Zm2-35.1-.11,0c0,.63.09,1.26.15,1.89a.47.47,0,0,0,.13.29c.64.55,1.3,1.1,1.95,1.64l.07-.05Zm8.72,31.7,3.21,5.56.06,0-2.75-5.68ZM29.09,65.5l-.13.1a8.2,8.2,0,0,0,2.85,3.66l.13-.1ZM18.5,61.74l-.17.06a8,8,0,0,0,1.49,4.1l.14-.05Zm7.33-24.07H24.35v.73l1.38.12Zm1.5,27.56a10.34,10.34,0,0,0,.19,5.12ZM22.2,36.14l.63.25c.62.27.62.27.86-.37,0,0,0-.06,0-.15l-1.26-.45Zm2.23.34,1.5.15L26,36C24.82,35.68,24.39,35.81,24.43,36.48Zm1.76-.9c.1-.29.06-.46-.27-.48L24.86,35c-.4,0-.58.12-.43.57ZM26,37.34c.14-.29.06-.46-.28-.48l-1-.09c-.41,0-.57.13-.44.57Zm.08,1.93c-.11-.2-.18-.43-.26-.44-.53,0-1.06,0-1.59,0,0,0,0,0-.09.09l.09.38ZM16.91,61.2a8.83,8.83,0,0,0-1.24,4.35Zm9.22-26.88c-.37,0-.71-.06-1-.12-.49-.09-.52-.07-.5.51l1.51.14ZM23.42,37.4c0-.16,0-.4,0-.43-.48-.22-1-.41-1.48-.6l-.14.19c.08.13.14.32.26.37C22.46,37.11,22.9,37.23,23.42,37.4Zm.32-1.82c.22-.47-.26-.82-1.17-.84-.2.45-.2.45.25.58Zm-1-1.16,1.13.47.13-.69-1-.31Zm.88,5.27v-2C23,38.93,23,39.08,23.67,39.7Zm-.62-6.09,1,.33c.16-.52.05-.61-.86-.76Zm17.61,3.63-.19.11,1.58,2.53.1-.06ZM23,37.7v-.17l-1.24-.42c.09.26.11.49.18.5C22.27,37.68,22.63,37.93,23,37.7Zm1.24,1.89c.17.2.28.41.35.4.36-.06.82.11,1.16-.4Zm.31-9.17-.19-.09-.34.92.21.08Z"/><path class="cls-1" d="M1,18.38a5,5,0,0,1,1.39-3.11A10.76,10.76,0,0,1,7,12.41c2.16-.75,4.29-1.58,6.43-2.4a.78.78,0,0,1,.72,0,5.74,5.74,0,0,1,2.47,2.51c1.55,2.82,3.2,5.57,4.79,8.37a8.38,8.38,0,0,1,.67,1.65c.42,1.36.8,2.74,1.21,4.1a.42.42,0,0,1-.16.56C20.77,29,18.4,30.86,16,32.65a9.1,9.1,0,0,1-4.47,1.92,4.32,4.32,0,0,1-4.11-1.7,28.26,28.26,0,0,1-3.89-7C2.69,23.81,2,21.71,1.23,19.62A7.82,7.82,0,0,1,1,18.38Z"/><path class="cls-1" d="M33,19.71c-1.28-1.22-2.49-2.44-3.77-3.59a8.45,8.45,0,0,1-1.73-2.2q-1.47-2.61-3-5.19a3.69,3.69,0,0,1-.25-2.09c0-.1.27-.24.43-.28,2.46-.66,4.92-1.33,7.39-1.94,3.17-.78,6.34-1.54,9.53-2.21a8.82,8.82,0,0,1,3-.08A2.85,2.85,0,0,1,47.16,6a8.8,8.8,0,0,1-3.25,4.84c-1.68,1.38-3.35,2.78-5,4.15C36.9,16.57,34.9,18.18,33,19.71Z"/><path class="cls-2" d="M54.11,71.71l-.25.17a68.56,68.56,0,0,1-6.05-9.65l-.14.07c.56,1.11,1.08,2.24,1.69,3.32s1.34,2.19,2,3.26,1.45,2.07,2.2,3.14l-.61.32L52.74,72A106,106,0,0,1,45.13,58.5,70.55,70.55,0,0,0,38.91,48a39.36,39.36,0,0,1-2.6-4.72c-.41-.79-.72-1.63-1.09-2.47l.49-.27c.12.37.23.7.32,1a13.46,13.46,0,0,0,2.23,4.45c2.51,3.46,4.66,7.15,6.82,10.84,1.56,2.68,3.26,5.28,4.9,7.91a1.44,1.44,0,0,0,.2.17c-.1-.19-.13-.27-.18-.35C46.82,59.33,43.65,54,40.45,48.73a38.4,38.4,0,0,0-2.26-3.29A16,16,0,0,1,36,40.73a.47.47,0,0,1,.15-.37,2.7,2.7,0,0,1,.53-.31c.1.52.2,1,.28,1.49a6.7,6.7,0,0,0,1.36,3,132.72,132.72,0,0,1,8.07,11.88c.9,1.5,1.9,2.94,3,4.36a1.62,1.62,0,0,0-.11-.26c-3-4.74-5.82-9.61-9.14-14.16a13.48,13.48,0,0,0-.87-1.18,9.32,9.32,0,0,1-2.27-5.08c0-.06,0-.13,0-.23L38,39.26l.57.78a1.11,1.11,0,0,0-1,1.6,9.06,9.06,0,0,0,2.28,3.74,15.25,15.25,0,0,1-.84-1.27,25.86,25.86,0,0,1-1.13-2.36,1.44,1.44,0,0,1,0-.95.94.94,0,0,1,.58-.49c.15,0,.44.14.56.3a39.69,39.69,0,0,1,3.53,5.94,2.79,2.79,0,0,0,.28.46,17.89,17.89,0,0,0-1.94-4.09c-.81-1.28-1.75-2.49-2.66-3.77l.27-.22a14.12,14.12,0,0,1,2.69,3.76,9.62,9.62,0,0,0-2.37-4l.59-.43a15.43,15.43,0,0,1,2.93,4.19,96.76,96.76,0,0,0,4.49,9.29c1.34,2.58,2.7,5.15,4.05,7.72a.75.75,0,0,0,.29.33c-.22-.48-.42-1-.66-1.43-1.59-3.11-3.23-6.19-4.77-9.32-1.09-2.19-2.08-4.44-3.07-6.68a12.3,12.3,0,0,0-2.22-3.3l-.84-.95.64-.52c.09.12.17.21.24.31a63,63,0,0,1,4.19,7.52,40.5,40.5,0,0,0,3.15,5.42A63.62,63.62,0,0,1,53.88,62,22.84,22.84,0,0,0,57,67.16c.45.58.83,1.2,1.27,1.84l-.9.65a48.42,48.42,0,0,1-3.72-6.51A106.73,106.73,0,0,0,48.36,52.6a3.18,3.18,0,0,0-.56-.74q1.47,3,2.93,6c1,2,1.93,4.12,3,6.14s2.16,3.93,3.26,5.91l-1,.66c-.36-.6-.75-1.15-1-1.76-.53-1.13-.92-2.32-1.49-3.43-1.2-2.34-2.47-4.64-3.7-7a4.41,4.41,0,0,0-.59-.92,3.9,3.9,0,0,0,.18.49c.95,1.79,1.93,3.57,2.84,5.38.71,1.43,1.31,2.91,2,4.37.46,1,.95,2,1.45,3-.17.18-.18.19-.39-.14-1.12-1.79-2.24-3.58-3.35-5.38-.4-.65-.76-1.34-1.14-2l-.15.09L55,71.15l-.3.2-.43.24a32.32,32.32,0,0,1-1.6-3.11,36.79,36.79,0,0,0-3.15-6.08c-1.45-2.33-2.93-4.64-4.4-7a.35.35,0,0,0-.23-.17A158.42,158.42,0,0,1,54.11,71.71ZM50.21,60.93c-.06-.14-.11-.29-.18-.43-1-2-2-3.94-2.89-6-1.74-3.86-3.41-7.74-5.12-11.61-.29-.64-.63-1.26-.95-1.89A150.68,150.68,0,0,0,50.21,60.93ZM40.28,44.64l-.18.07a25.21,25.21,0,0,0,1.32,2.78c1.45,2.31,3,4.55,4.48,6.84.59.92,1.1,1.89,1.64,2.83a1.29,1.29,0,0,0-.15-.49c-.86-1.54-1.72-3.09-2.6-4.61C43.34,49.54,41.19,47.47,40.28,44.64Zm-1.39-.94.13-.06-.22-.46a5.12,5.12,0,0,1-.44-1,2.3,2.3,0,0,1,.13-.81c.21.14.5.24.62.44q1.06,1.8,2,3.65C41.8,46.62,42.4,47.84,43,49a1.47,1.47,0,0,0,.21.25c-.57-1.22-1.1-2.44-1.7-3.63s-1.42-2.62-2.15-3.92a2.37,2.37,0,0,0-.46-.56.45.45,0,0,0-.8.2,1,1,0,0,0,0,.61C38.35,42.57,38.63,43.13,38.89,43.69Z"/><path class="cls-3" d="M25.89,48.26a14.37,14.37,0,0,0,4.3,4.36c-.8-.84-1.62-1.66-2.39-2.52-.61-.67-1.18-1.38-1.75-2.09a1.05,1.05,0,0,1-.25-.56c-.09-1.88-.15-3.77-.21-5.65a1.63,1.63,0,0,1,.06-.25c.54.94,1.46.59,2.22.89l-1.45.37a2.41,2.41,0,0,0,1.61.84c-.59.31-1.12-.21-1.71-.1,1.3.28,2.16,1.25,3.18,2l-.06.16L27.56,45l-.06.08c.33.29.66.58,1,.86.54.44,1.11.85,1.63,1.32a2.73,2.73,0,0,1,1,2.15l-2.66-2c1,1.61,2.23,3,2.61,5a20.51,20.51,0,0,1,.52,5.78l-1-.65,2,3.4-.14.1-.81-.94,1.54,4.1-.21.14-2.2-2.09-.09.06,1.62,2.39-.07.08L30,62.3l-.06,0,2.38,4.63-.14.09-3.33-5a36.16,36.16,0,0,0,3.65,6.59l-.1.07c-.66-.79-1.33-1.57-2-2.37s-1.09-1.5-1.67-2.22a4.28,4.28,0,0,1-.88-2c-.27-1.52-.6-3-.9-4.54a4.13,4.13,0,0,1,0-.47L29,58.77l0-.07c-.68-.79-1.37-1.58-2-2.38a1.24,1.24,0,0,1-.27-.6c-.29-2.4-.57-4.8-.84-7.21A1.53,1.53,0,0,1,25.89,48.26Zm4,7.1A3.81,3.81,0,0,0,28.56,53c-.7-.61-1.39-1.24-2-1.82a4,4,0,0,0,1.2,1.62A7.92,7.92,0,0,1,29.88,55.35Z"/><path class="cls-3" d="M60.81,90.64a25.66,25.66,0,0,0,8.68-4.56c.08.12.16.22.22.33l2.38,4.13A1.68,1.68,0,0,1,71.45,93q-2.69,1.57-5.39,3.11a1.67,1.67,0,0,1-2.45-.66C62.68,93.88,61.76,92.28,60.81,90.64Z"/><path class="cls-3" d="M14.1,9.14a6.29,6.29,0,0,1,2.85-1.31.74.74,0,0,1,.49.15c1.65,1.09,3.34,2.13,4.92,3.31a74.17,74.17,0,0,1,9,7.78c.39.41.73.87,1.11,1.29a.49.49,0,0,1,0,.77c-.47.39-1,.73-1.49,1.06a.34.34,0,0,1-.32-.07,32,32,0,0,0-5.59-5.05c-3.14-2.39-6.35-4.68-9.54-7C15.11,9.74,14.63,9.47,14.1,9.14Z"/><path class="cls-3" d="M22.7,58.47l-.36-.82.18,4.08-.24.07-1.37-2.55-.09,0,.76,2.64-.09,0-1.29-2.85h-.07L20.94,64a47.44,47.44,0,0,1-1.7-5.54,36.73,36.73,0,0,0,1.34,6.9l-.11,0c-.32-.79-.66-1.57-.95-2.37a33.11,33.11,0,0,1-1.09-3.38,5.88,5.88,0,0,1,0-1.92c.14-1.32.33-2.64.5-4a1.75,1.75,0,0,1,.07-.24l1.36,2.16.12-.07c-.06-.12-.11-.24-.18-.35a5.77,5.77,0,0,1-.83-4.67c.49-1.67.74-3.41,1.22-5.12a7.09,7.09,0,0,0,.49,1.43,5.93,5.93,0,0,1,.53,3.52L20.4,48.1h-.06c.13.43.23.86.4,1.27a10.65,10.65,0,0,0,.65,1.25A4.37,4.37,0,0,1,22,53.38a7.39,7.39,0,0,0,.57,3.71,5.31,5.31,0,0,1,.21,1.36Z"/><path class="cls-2" d="M51.53,73c-.07,0-.17,0-.18,0L39.73,53l.32.14c-2.29-3.77-4.14-7.76-6.06-11.77l.92-.38c.46,1.06.91,2.08,1.36,3.1A26.2,26.2,0,0,0,39,48.82a62.9,62.9,0,0,1,5.64,9.54A121.34,121.34,0,0,0,52.25,71.8c.14.22.27.44.42.7l-.76.35c-1.79-3.32-3.53-6.65-5.37-9.92s-3.77-6.51-5.63-9.79l.2.46c1.73,3.86,4.1,7.37,6.11,11.08,1.07,2,2,4,3.05,6C50.67,71.42,51.09,72.18,51.53,73Z"/><path class="cls-3" d="M24.88,64.54V57.18c-.2.45-.39.82-.53,1.21s-.26.83-.42,1.35a22.68,22.68,0,0,1-.6-6.26l-.13,0L22.83,55h0a18.49,18.49,0,0,1,0-2,12.79,12.79,0,0,1,.42-2c.18-.65.44-1.28.58-2l-1.09,2A12,12,0,0,1,23.59,44L22,44.33v-.1c.55-.39,1.11-.78,1.66-1.18.08-.06.11-.18.2-.33-.51.06-.94.05-1.22-.53.75.38,1.1-.2,1.53-.51a4.75,4.75,0,0,1-.79,3.82l.15,0,.66-1.16.14,0a5.85,5.85,0,0,1-.1,2,17.51,17.51,0,0,0-.53,1.75l.13,0,.51-1.18.1,0c.06.94.13,1.89.19,2.83a57.67,57.67,0,0,0,1.13,8.2,3.75,3.75,0,0,1-.09,1.58c-.2.94-.36,1.88-.53,2.83l.15,0,.73-2.86h.08a18.16,18.16,0,0,0,.5,2.33,9,9,0,0,1,0,4.56,3.23,3.23,0,0,1-.25.95V62.87l0,0-.51,3h-.12l.29-4.1L25,64.55Z"/><path class="cls-3" d="M19.83,40.88l-1.43-.13v-.18a3.34,3.34,0,0,0,2.12-.69c-.46-.14-.89-.27-.91-.91.52.65,1,.21,1.62,0-.38.87-.3,1.84-1.18,2.41a2.21,2.21,0,0,0-.67.91l1-.89a3.52,3.52,0,0,1-.71,2,3.72,3.72,0,0,0-.76,1.35l.83-.94.08,0-.66,2.5a62.8,62.8,0,0,0-1.47,8,2,2,0,0,1-.23.67c-.42.77-.86,1.53-1.28,2.29a.82.82,0,0,0-.09.48l1.42-2.21.09,0c-.07.6-.15,1.2-.21,1.8s-.12,1.23-.18,1.84a.7.7,0,0,1,0,.24l-1.56,3.06-.16-.06,1.32-3.82-.07,0L15.47,61,15.35,61l1.48-3.57-1.65,2.21a33.55,33.55,0,0,1,2-6.42l-.11-.08L15.59,55a20.45,20.45,0,0,1,1.3-5.67l-.12-.05L16,50.54c0-1,.92-2.69,2.69-5.09l-1.52,1.4-.12,0c.2-.7.35-1.41.61-2.09a13.89,13.89,0,0,1,1-2.07C19,42,19.43,41.44,19.83,40.88Z"/><path class="cls-3" d="M21.25,14.88c1.11.84,2.15,1.6,3.14,2.41.19.15.23.51.28.78.4,2,.78,3.94,1.19,5.91a5.92,5.92,0,0,0,.43,1.29c.14.3.14.53-.14.7-.51.33-1,.66-1.55,1-.3.18-.52.06-.63-.27-.43-1.38-.95-2.73-1.26-4.13-.54-2.4-1-4.83-1.43-7.25C21.26,15.2,21.26,15.1,21.25,14.88Z"/><path class="cls-3" d="M39.33,33.75c.39.67.78,1.31,1.12,2a.52.52,0,0,1-.13.47c-.87.73-1.72,1.49-2.64,2.15A23.31,23.31,0,0,1,32.87,41c-.43.17-.68.16-.91-.31-.36-.72-.79-1.41-1.21-2.13A41.8,41.8,0,0,0,39.33,33.75Z"/><path class="cls-3" d="M51.21,74a49.13,49.13,0,0,0,8.52-4.92c.4.7.79,1.35,1.15,2a.43.43,0,0,1-.1.39,11.72,11.72,0,0,1-1.14.91A42,42,0,0,1,53,76.14l-.44.16Z"/><path class="cls-3" d="M67.82,83.1c.4.69.8,1.35,1.16,2a.5.5,0,0,1-.15.46c-.89.65-1.78,1.31-2.72,1.88a31.3,31.3,0,0,1-5.52,2.77L59.27,88A30.89,30.89,0,0,0,67.82,83.1Z"/><path class="cls-3" d="M13.21,7c-.2-.37-.4-.7-.57-1.05A.89.89,0,0,1,13,4.63c.53-.37,1.1-.68,1.66-1l3.54-2a6.69,6.69,0,0,1,.7-.34A.85.85,0,0,1,20,1.56c.32.49.61,1,.95,1.53A57.9,57.9,0,0,1,13.21,7Z"/><path class="cls-3" d="M53,77.15l9.39-3.4.8,1.39A53.56,53.56,0,0,1,54,78.81Z"/><path class="cls-3" d="M55.28,81.05l-1-1.66L63.71,76l.79,1.35A52.84,52.84,0,0,1,55.28,81.05Z"/><path class="cls-3" d="M56.57,83.29l-1-1.66L65,78.23l.77,1.33A53.43,53.43,0,0,1,56.57,83.29Z"/><path class="cls-3" d="M37.7,30.93l.76,1.3A53.19,53.19,0,0,1,29.26,36l-1-1.66Z"/><path class="cls-3" d="M57.86,85.52l-1-1.66,9.4-3.39L67,81.77A52.35,52.35,0,0,1,57.86,85.52Z"/><path class="cls-3" d="M36.41,28.69,37.19,30A52.91,52.91,0,0,1,28,33.74l-.26-.41-.24-.42C30.47,31.52,33.15,29.57,36.41,28.69Z"/><path class="cls-3" d="M24.61,40.93l.6,0c.08,11.22,1.53,22.16,5.88,32.59C30.58,72.32,30,71.19,29.56,70A64.64,64.64,0,0,1,26,56.6a98.42,98.42,0,0,1-1.34-14.79C24.6,41.54,24.61,41.26,24.61,40.93Z"/><path class="cls-3" d="M35.72,25.59c.06.11.18.26.26.43.32.66.3.83-.29,1.26A54.6,54.6,0,0,1,27.79,32l-.2.07-.51-1Z"/><path class="cls-3" d="M25.39,18,30,22.07,26.79,24.7a35.21,35.21,0,0,1-1.55-6.63Z"/><path class="cls-3" d="M18,69.37a38.63,38.63,0,0,1-.49-7.94,85.73,85.73,0,0,1,4.06-22.54c0-.12.09-.24.14-.39a2.35,2.35,0,0,1,.28,0,1.9,1.9,0,0,1,.25.1C19,48.63,17.12,58.81,18,69.37Z"/><path class="cls-3" d="M25.26,30.51a72.7,72.7,0,0,0,9-7.15c.17.27.35.53.5.8a.59.59,0,0,1-.15.82c-.87.71-1.68,1.49-2.6,2.12-1.56,1.07-3.21,2-4.79,3.07A2.56,2.56,0,0,1,25.26,30.51Z"/><path class="cls-3" d="M23.36,6.16l.39,5.21L22,10l-.66-.5c-.29-.23-.75-.43-.81-.72A7.68,7.68,0,0,1,20.52,7a.42.42,0,0,1,.23-.28A5.51,5.51,0,0,1,23.36,6.16Z"/><path class="cls-3" d="M38.28,33.5c-1,.7-1.88,1.48-2.91,2.08-1.46.86-3,1.59-4.5,2.37-.27.14-.43.1-.57-.19-.23-.46-.51-.9-.78-1.36l8.73-2.95Z"/><path class="cls-3" d="M21.1,3.69l.83,1.53L14,8.35l-.43-.71Z"/><path class="cls-3" d="M66.67,83.09A27.83,27.83,0,0,1,59,87.5L58.11,86Z"/><path class="cls-3" d="M26.85,26.3a2.34,2.34,0,0,1,1.07-1.45c.88-.57,1.71-1.23,2.61-1.78.63-.38,1.32-.65,2.05-1l.7,1.2a8.07,8.07,0,0,1-1.16.79c-1.61.72-3.24,1.4-4.86,2.1Z"/><path class="cls-3" d="M25.44,29.36l-1-1.75,6.46-2.26c-.25.22-.38.36-.53.48-1.12.92-2.22,1.85-3.37,2.73A10.15,10.15,0,0,1,25.44,29.36Z"/><path class="cls-3" d="M17.16,12c1,.71,2,1.42,3,2.13a.62.62,0,0,1,.23.34c.32,1.62.62,3.24.87,4.89l-4.21-7.3Z"/><path class="cls-2" d="M51.68,56.31l2.51,4.34,4.38,7.6a3.27,3.27,0,0,1,.18.53l-.19-.06c-.83-1.74-2.35-3-3.28-4.63s-1.62-3.39-2.42-5.1l-1.23-2.63Z"/><path class="cls-3" d="M61.44,72.05,62,73a8.76,8.76,0,0,1-1.57,1c-2.37.92-4.77,1.77-7.15,2.64a.59.59,0,0,1-.34,0c1-.43,2-.84,2.92-1.3s1.91-1,2.83-1.52S60.48,72.68,61.44,72.05Z"/><path class="cls-2" d="M50.42,54.14a59.1,59.1,0,0,1-7.18-12.43Z"/><path class="cls-3" d="M26.89,32.38a1.2,1.2,0,1,1-1.19-1.17A1.23,1.23,0,0,1,26.89,32.38Z"/><path class="cls-3" d="M22.44,39.39c.17.75.89.88,1.44,1.19l-.09.18-1.08-.09.51.78-.08.14L22.06,41a2.42,2.42,0,0,0,.64,2.23l-1.54.72L21,43.85l1.29-4.42Z"/><path class="cls-3" d="M22.44,45l-.61,2.42c-.33-1-1.13-1.87-1-3Z"/><path class="cls-3" d="M24.44,9.87l2.19,3.8-.07.05c-.65-.55-1.3-1.09-1.95-1.64a.47.47,0,0,1-.13-.29c-.06-.63-.1-1.26-.15-1.89Z"/><path class="cls-2" d="M33.17,41.58l.52-.16,2.75,5.68-.06,0Z"/><path class="cls-3" d="M29.09,65.5l2.85,3.66-.13.1A8.2,8.2,0,0,1,29,65.6Z"/><path class="cls-3" d="M18.5,61.74,20,65.85l-.14.05a8,8,0,0,1-1.49-4.1Z"/><path class="cls-3" d="M25.82,37.68l-.09.85-1.38-.12v-.73Z"/><path class="cls-3" d="M27.32,65.24l.19,5.12A10.34,10.34,0,0,1,27.32,65.24Z"/><path class="cls-3" d="M22.2,36.14l.22-.72,1.26.45c0,.09,0,.12,0,.15-.24.64-.24.64-.86.37Z"/><path class="cls-3" d="M24.43,36.48c0-.66.39-.8,1.57-.53l-.07.68Z"/><path class="cls-3" d="M26.18,35.58H24.43c-.15-.44,0-.6.43-.57l1.06.08C26.24,35.11,26.28,35.29,26.18,35.58Z"/><path class="cls-3" d="M26,37.34H24.24c-.13-.44,0-.61.44-.57l1,.09C26,36.89,26.11,37.05,26,37.34Z"/><path class="cls-3" d="M26.05,39.28H24.2l-.09-.38s.07-.09.09-.09c.53,0,1.06,0,1.59,0C25.87,38.85,25.94,39.08,26.05,39.28Z"/><path class="cls-3" d="M16.91,61.2l-1.24,4.35A8.83,8.83,0,0,1,16.91,61.2Z"/><path class="cls-3" d="M26.13,34.32l0,.52-1.51-.14c0-.58,0-.6.5-.51C25.42,34.25,25.76,34.27,26.13,34.32Z"/><path class="cls-3" d="M23.42,37.4c-.52-.17-1-.3-1.37-.47-.12,0-.17-.24-.26-.37l.14-.19c.5.2,1,.38,1.48.6C23.47,37,23.42,37.24,23.42,37.4Z"/><path class="cls-3" d="M23.75,35.59l-.92-.27c-.45-.13-.45-.13-.25-.58C23.49,34.77,24,35.11,23.75,35.59Z"/><path class="cls-3" d="M22.79,34.43l.27-.53,1,.31-.13.69Z"/><path class="cls-3" d="M23.67,39.7c-.63-.62-.63-.77,0-2Z"/><path class="cls-3" d="M23.06,33.61l.19-.43c.91.15,1,.24.86.76Z"/><path class="cls-2" d="M40.67,37.24l1.5,2.58-.1.06-1.58-2.53Z"/><path class="cls-3" d="M23,37.7c-.35.22-.72,0-1.07-.09-.06,0-.09-.24-.18-.5l1.24.42Z"/><path class="cls-3" d="M24.22,39.59h1.51c-.34.51-.79.34-1.16.4C24.5,40,24.4,39.8,24.22,39.59Z"/><path class="cls-3" d="M24.53,30.42l-.32.91L24,31.26l.34-.92Z"/><path d="M50.21,60.93A150.68,150.68,0,0,1,41.07,41c.32.63.66,1.25.95,1.89,1.71,3.87,3.38,7.76,5.12,11.61.91,2,1.92,4,2.89,6C50.1,60.64,50.16,60.79,50.21,60.93Z"/><path d="M40.28,44.64c.91,2.84,3.06,4.91,4.51,7.41.89,1.53,1.74,3.07,2.6,4.61a1.29,1.29,0,0,1,.15.49c-.55-.95-1.05-1.92-1.64-2.83-1.48-2.29-3-4.53-4.48-6.84a25.21,25.21,0,0,1-1.32-2.78Z"/><path d="M38.89,43.69c-.26-.56-.55-1.12-.78-1.69a1,1,0,0,1,0-.61.45.45,0,0,1,.8-.2,2.37,2.37,0,0,1,.46.56c.73,1.3,1.47,2.59,2.15,3.92s1.13,2.4,1.7,3.63A1.47,1.47,0,0,1,43,49c-.62-1.21-1.23-2.43-1.87-3.62s-1.34-2.45-2-3.65c-.12-.2-.41-.29-.62-.44a2.3,2.3,0,0,0-.13.81,5.12,5.12,0,0,0,.44,1l.22.46Z"/><path d="M29.88,55.35a7.92,7.92,0,0,0-2.16-2.61,4,4,0,0,1-1.2-1.62c.65.58,1.34,1.21,2,1.82A3.81,3.81,0,0,1,29.88,55.35Z"/></g></g></svg>