<svg xmlns="http://www.w3.org/2000/svg" viewBox="0 0 131.9 152.73"><defs><style>.cls-1{fill:#fff;}</style></defs><title>Ресурс 1</title><g id="Слой_2" data-name="Слой 2"><g id="Слой_1-2" data-name="Слой 1"><path d="M26.06,101.14a1.23,1.23,0,0,0,1.62.6,3.19,3.19,0,0,0,.67-1.59.44.44,0,0,0-.12-.16,8.51,8.51,0,0,1-2-3.29A9.71,9.71,0,0,1,25.82,93a1.36,1.36,0,0,0-.32-.85c-.51-.57-1.09-1.08-1.63-1.63-.85-.85-1.65-1.73-2.53-2.54-1.55-1.43-3.14-2.82-4.72-4.22-.88-.77-1.76-1.55-2.69-2.27-1.36-1.06-2.74-2.11-4.15-3.11-1.66-1.18-3.33-2.35-5-3.45-1.25-.8-2.59-1.48-3.9-2.19-1-.51-1-.55-.62-1.56a2.85,2.85,0,0,0,.14-.39A25.26,25.26,0,0,1,2.48,65.4C3.15,64,4,62.6,4.75,61.23s1.55-2.59,2.32-3.88c.23-.38.49-.74.68-1.14s.42-1,.66-1.55c.49-1.07.93-2.17,1.52-3.18s1.48-2.22,2.22-3.33a.62.62,0,0,0,.14-.36,1.41,1.41,0,0,0-1.78-1.36c-.24.07-.48.12-.75.18a3.92,3.92,0,0,1,2.67-2.69,6.41,6.41,0,0,0-.46-.87c-.31-.42-.67-.81-1-1.2s-.42-.65.24-.84a3.22,3.22,0,0,1,2.3.35,11.3,11.3,0,0,1,.24-1.16,17.86,17.86,0,0,1,1.51-4c.59-1,1.08-2,1.7-3s1.32-1.74,1.93-2.65c.33-.49.48-1.09.78-1.61A25.77,25.77,0,0,1,21,26.74a11.33,11.33,0,0,1,1.27-1.45A10.19,10.19,0,0,0,24,23.59a32.48,32.48,0,0,1,2.42-3.24,26.77,26.77,0,0,1,2.27-2.42c1-.95,2-1.85,3.12-2.72,1.9-1.55,3.82-3.07,5.75-4.58,1-.8,2.06-1.58,3.11-2.35a16.73,16.73,0,0,1,4.52-2.8A21.39,21.39,0,0,1,49,4.56a40,40,0,0,0,5.44-1c2.77-.79,5.55-1.52,8.38-2,2.29-.43,4.56-.95,6.83-1.42.31-.06.62-.09.93-.14l0,.17c-1.12.31-2.24.64-3.37.93-2.25.57-4.52,1.1-6.77,1.69-1.1.28-2.18.62-3.26,1-.89.3-1.76.67-2.63,1a.7.7,0,0,0-.3.46C54.06,6.65,53.8,8,53.52,9.4c-.1.5-.27,1-.43,1.6.71-.38,1.3-.68,1.88-1a10.85,10.85,0,0,1,3.66-1.58,19.41,19.41,0,0,1,7.11-.15,24.44,24.44,0,0,0,7.41.41,28.06,28.06,0,0,0,6-1.32,17.86,17.86,0,0,1,4-1c.64,0,1.28,0,1.93,0a.31.31,0,0,1-.27.14A14.68,14.68,0,0,0,80,7.72a39.42,39.42,0,0,1-4.71,1.51c-2.23.45-4.5.64-6.76.93a.49.49,0,0,0-.48.42c-.34,1.09-.67,2.2-1.11,3.25s-1,2.15-1.57,3.23a5,5,0,0,0-.21.68,2.9,2.9,0,0,0,.52-.11l3.25-1.45.66-.28c1-.42,2-.8,3-1.25a11.79,11.79,0,0,1,3.55-1,24,24,0,0,1,6.5.26,14,14,0,0,1,3,.67,4.34,4.34,0,0,0,2.61.26,25.45,25.45,0,0,1,8.13-.2c2.53.29,5,1,7.45,1.47a19.15,19.15,0,0,0,6.06.54l1-.12a1,1,0,0,1-.47.21,19.67,19.67,0,0,1-6.4,0c-2-.31-3.95-.81-5.93-1.21a21.44,21.44,0,0,0-2.65-.43,19.55,19.55,0,0,0-5.55.48,4.83,4.83,0,0,0-3.63,2.77,23.82,23.82,0,0,1-1.5,2.8A31.12,31.12,0,0,1,81.15,26a10.5,10.5,0,0,1-1.26,1.13c-.5.37-1.05.67-1.58,1,1.63-.33,3.23-.75,4.84-1.14a18.51,18.51,0,0,1,3.53-.74,22,22,0,0,1,9.27,2,5.42,5.42,0,0,0,2.52.46c.93-.07,1.85-.2,2.78-.29a26.8,26.8,0,0,1,7.45.7c1.24.22,2.46.55,3.7.7a24.09,24.09,0,0,0,2.88,0,4.67,4.67,0,0,1-2.44.65,21.29,21.29,0,0,1-5.34-.91,13.29,13.29,0,0,0-5.28-.42c-.74.13-1.45.44-2.18.63a4.59,4.59,0,0,0-2.47,1.59c-.55.67-1,1.44-1.54,2.11-1.13,1.35-2.32,2.65-3.48,4-.17.19-.31.41-.5.67l3.16-.38a10.83,10.83,0,0,1,4.32.05c1.34.38,2.68.76,4,1.19a17.33,17.33,0,0,1,4.1,2,6.81,6.81,0,0,0,2,1,20.52,20.52,0,0,0,6.94.56,27.93,27.93,0,0,0,5.61-.91c.72-.23,1.43-.5,2.14-.75a7.48,7.48,0,0,1-2,1.1,24.37,24.37,0,0,1-5.63,1.06c-2.24.1-4.48.21-6.72.33a.76.76,0,0,0-.51.22c-.74.93-1.42,1.91-2.18,2.82a16.06,16.06,0,0,1-1.47,1.41c-.85.78-1.66,1.61-2.55,2.33a12.31,12.31,0,0,1-2.26,1.5,21.52,21.52,0,0,1-3.52,1.43,18.16,18.16,0,0,1-3,.37l-.64.08,1.27,1.06-3.79,1,0,.17.29,0c1.45.07,2.89.12,4.34.21,2.46.16,4.92.36,7.39.51a12.6,12.6,0,0,1,5,1.46,31.83,31.83,0,0,1,3.43,2.07A19.19,19.19,0,0,1,114,62a5.92,5.92,0,0,0,2.47,1.43c3.16.86,6.33,1.67,9.49,2.49.68.18,1.38.32,2.06.47l1.82.41,0,.17c-1.46-.25-2.93-.44-4.37-.75-1.7-.36-3.38-.82-5.07-1.25a14,14,0,0,0-5-.46,1.06,1.06,0,0,0-.52.17c-1.33,1-2.61,2.11-4,3.08a28.49,28.49,0,0,1-3.19,1.89,12.94,12.94,0,0,1-2.86,1.26,15,15,0,0,1-5.54.44l-1.07-.15-.06.13a6.13,6.13,0,0,1,.53.47,6.33,6.33,0,0,1,.43.6l-3.18.3a31.17,31.17,0,0,0,3.41,1c2.23.53,4.47,1,6.7,1.55a15.5,15.5,0,0,1,2.65.84,13,13,0,0,1,2.38,1.41c1,.73,1.93,1.53,2.85,2.35a13.28,13.28,0,0,1,1.16,1.35,6.68,6.68,0,0,0,1,1.07,14.23,14.23,0,0,0,4.08,1.93,17,17,0,0,1,2.41,1c.84.44,1.64,1,2.45,1.49s1.46.83,2.12,1.33a12.67,12.67,0,0,0,3.69,2c.31.1.63.17,1.08.29l-.5,0a4.85,4.85,0,0,1-2.48-.64c-.87-.44-1.74-.88-2.57-1.38s-1.43-1-2.18-1.45-1.8-.91-2.71-1.36a8,8,0,0,0-4-.7,2.36,2.36,0,0,0-1.17.37,22.74,22.74,0,0,1-4.61,2.28c-1.48.59-3,1-4.57,1.42a11.66,11.66,0,0,1-5,.12c-1-.14-1.9-.38-2.82-.58.21.34.44.72.68,1.09a.47.47,0,0,0,.2.16l1.37.59c1.52.64,3.05,1.24,4.56,1.91a9.06,9.06,0,0,1,2.49,1.33,35.23,35.23,0,0,1,3.6,3.88,31,31,0,0,1,2,3.17.67.67,0,0,0,.24.26c.74.36,1.51.67,2.23,1.05a15.6,15.6,0,0,1,2.16,1.29c.81.61,1.51,1.38,2.31,2a17.66,17.66,0,0,0,2.17,1.46c1.11.63,2.25,1.2,3.45,1.83a16.53,16.53,0,0,1-2-.49,16.67,16.67,0,0,1-4-2.48,16.54,16.54,0,0,0-3.54-2.26,4.8,4.8,0,0,0-3.68-.13,42.88,42.88,0,0,1-7.26,2,10.63,10.63,0,0,1-4.88.08,13.37,13.37,0,0,1-4.11-1.48s-.09,0-.16,0l.29,1.18a31.25,31.25,0,0,0-6.88-1.24c.78.58,1.58,1.11,2.39,1.64,1.88,1.23,3.77,2.44,5.62,3.71a7.51,7.51,0,0,1,1.49,1.4,13.26,13.26,0,0,1,1.15,1.75,10.37,10.37,0,0,1,1.72,4.67,1.72,1.72,0,0,0,.74,1.35l1.65,1.2c1,.76,2.08,1.49,3.06,2.31s2.09,1.91,3.17,2.84,2.18,1.82,3.3,2.69c.5.39,1.07.7,1.6,1a.25.25,0,0,1-.11,0,7.18,7.18,0,0,1-3.13-1.48c-1-.73-1.92-1.59-2.89-2.38-.5-.41-1-.8-1.52-1.21s-.78-.66-1.18-1a24.29,24.29,0,0,0-2-1.57c-.81-.51-1.71-.88-2.52-1.38a3.51,3.51,0,0,0-2.42-.48,27,27,0,0,1-7.49,0,11.41,11.41,0,0,1-4.48-1.73l-1.31-.84.17,1.08c-1.3-.54-2.51-1.07-3.74-1.53-1.06-.4-2.18-.66-3.23-1.07-1.28-.49-2.54-1-3.77-1.64a11.33,11.33,0,0,1-2-1.31,1.86,1.86,0,0,0-1.31-.59,3.14,3.14,0,0,1-.83-.05c-1.43-.29-2.87-.58-4.3-.92a26.9,26.9,0,0,1-5.16-2.07c-.76-.36-1.46-.86-2.18-1.29l-.09.07,1.42,1.74-.43-.07a11.9,11.9,0,0,1-3.29-1,4.58,4.58,0,0,1-2.81-2.93,2.38,2.38,0,0,0-.27-.5A1.88,1.88,0,0,1,54,105.27c.15-1.48-1-2.47-1.29-3.69L51,101.9l.19-1.79h-.15a4.77,4.77,0,0,1-.47.72,5.57,5.57,0,0,1-.76.57,1,1,0,0,1-.62-1c0-.39,0-.79-.09-1.18-.08-.68-.67-1.54-1.11-1.6-1.32-.17-2.64-.33-4-.47-1-.1-1-.08-1.41.81l-.08.13a9.82,9.82,0,0,1-3.05,3.25c-.24.16-.49.26-.32.62s.14.62.33.78a1.24,1.24,0,0,0,1.85-.44c.1-.19.18-.38.31-.64a3.67,3.67,0,0,1,.36,3.15H44.6c.13,1.21-.68,1.56-1.54,1.9a11.21,11.21,0,0,1,1,1.14c.64,1,1.26,2.07,1.85,3.12a6.52,6.52,0,0,1,.59,1.36c.3,1,.54,2.09.81,3.13a.69.69,0,0,0,.1.24,12,12,0,0,1,1.28,2.73,8.24,8.24,0,0,1,.52,3.33,1.91,1.91,0,0,0,.13.79,17.36,17.36,0,0,1,1.27,5.23A82.8,82.8,0,0,1,51,139.15c0,1.48-.06,3-.11,4.43a9.71,9.71,0,0,1-1.34,4.27,11,11,0,0,1-3.06,3.91c-.3.22-.6.41-.91.07-.71-.8-1.43-1.6-2.1-2.44a12.27,12.27,0,0,1-1-1.55,17.18,17.18,0,0,1-1.49-2.75,10.33,10.33,0,0,1-.58-4.61c0-.1,0-.21,0-.44l-.68.64-1-5.31c-.18.08-.22.15-.24.23-.55,2-1.06,4-1.64,5.94-.5,1.71-1,3.41-1.65,5.08a7.73,7.73,0,0,1-1.16,2,13.43,13.43,0,0,1-3.47,3.27,12.62,12.62,0,0,1-1.64.81.53.53,0,0,1-.75-.25,29.88,29.88,0,0,1-1.43-3c-.42-1.15-.66-2.37-1-3.55,0,0-.06,0-.11-.06a.7.7,0,0,0-.14.12c-.52.78-1,1.59-1.58,2.32s-1.37,1.57-2.08,2.33a.6.6,0,0,1-.54.07,5.08,5.08,0,0,1-1.95-1.77c-.49-.7-.91-1.44-1.33-2.18a9.49,9.49,0,0,1-1.4-4.3,110.33,110.33,0,0,1,.2-15.23,18,18,0,0,1,1.06-5,4.61,4.61,0,0,0,.41-2.15,4.35,4.35,0,0,1,.13-1.43,14,14,0,0,1,1.53-3.85,2,2,0,0,0,.21-.47c.31-1.07.56-2.16.93-3.2a16.71,16.71,0,0,1,1.25-2.74c.55-.95,1.25-1.82,1.89-2.74-.65-.45-1.47-.82-1.35-2h2.59c-.57-1.16-.16-2.09.33-3.12C25.88,100.78,26,101,26.06,101.14Zm32.3-35.73C57.28,65,56.21,64.52,55,64c.63,0,1.16.05,1.69.09,1.43.11,2.85.25,4.28.36a11.39,11.39,0,0,0,5-.78c1.2-.46,2.48-.71,3.69-1.17a27.67,27.67,0,0,0,3-1.41c.77-.4,1.51-.87,2.26-1.33.52-.32,1-.68,1.6-1.06l-2.3-1.07c2.86.13,5.7.41,8.53-.33l-3.47-.41v-.17a25.15,25.15,0,0,0,8.82-1.62c-2-1-4.06-1.15-6-1.92.67,0,1.33,0,2,0s1.42,0,2.12.1,1.36.18,2,.23A27.89,27.89,0,0,0,81,52a74.33,74.33,0,0,1,11-.7l0-.17a15.69,15.69,0,0,0-1.89-.32c-3.14-.15-6.28-.27-9.42-.4l-1.38-.06v-.16c1.28-.13,2.56-.29,3.85-.38s2.62-.14,3.93-.16,2.59,0,3.89,0,2.6.16,3.93.17c-.3-.09-.6-.21-.9-.27a114.57,114.57,0,0,0-12.57-1.64,4.19,4.19,0,0,0-1.58.31c-1.62.51-3.24,1-4.85,1.6s-3,1.08-4.45,1.63a7.57,7.57,0,0,0-1.18.59,17.43,17.43,0,0,1,5.53,2l0,.14a18.09,18.09,0,0,0-2-.64,48.1,48.1,0,0,0-5-.8,4.64,4.64,0,0,0-1.93.66c-1.14.49-2.26,1-3.39,1.52s-2.3,1-3.43,1.53c-1.5.72-3,1.49-4.46,2.23a3.25,3.25,0,0,0-.5.27,31.82,31.82,0,0,1,12.1,3.14c-.91-.23-1.82-.45-2.73-.7a65,65,0,0,0-8.61-1.71,1.75,1.75,0,0,1-.36,0,3.44,3.44,0,0,0-3.05.59c-.85.51-1.76.93-2.62,1.42-1.49.85-3,1.74-4.44,2.6-.54.31-1.09.6-1.63.89l0,.13a3.87,3.87,0,0,0,.53.14,2.75,2.75,0,0,1,2.15,1.69,8.51,8.51,0,0,0,.93,1.21l.23-.14-1-2.78a3.27,3.27,0,0,1,1.74.7L49,67.42c-.24-1.42-1.72-1.87-2.23-3.06,1.79,2.09,4.49,2.44,6.77,3.58,0-.47-.6-1.16-1.35-1.62s-1.2-.83-1.79-1.25l.1-.2c1.14.42,2.26.87,3.41,1.24,1.53.49,2.94,1.37,4.63,1.35a5.38,5.38,0,0,0,3.22-.77C60.57,66.25,59.46,65.84,58.36,65.41Zm33.2,6.4a2.63,2.63,0,0,0,.82-.2,28.53,28.53,0,0,0-5.56-2.76l0-.15,1.86.4c.64.14,1.28.26,1.91.43s1.24.39,1.88.51a31.09,31.09,0,0,0-6-2.65c3.46.18,6.86.79,10.3,1.16-3.77-1.47-7.79-2-11.68-3.07a78,78,0,0,1,14.74,2.39,10.56,10.56,0,0,0-1-.48c-1.59-.6-3.18-1.23-4.79-1.76-1.44-.47-2.91-.82-4.37-1.24a18.73,18.73,0,0,1-1.91-.62,4.63,4.63,0,0,0-2.5-.16c-2.1.3-4.2.59-6.3.92-1.24.2-2.47.48-3.71.73a1.71,1.71,0,0,0-.32.15,18.86,18.86,0,0,1,5.08,3l-.88-.38c-1.11-.51-2.2-1.06-3.32-1.52a25,25,0,0,0-2.55-.82,1.42,1.42,0,0,0-.66,0q-3.64.79-7.27,1.61c-.57.13-1.13.31-1.7.47-1.56.42-3.12.83-4.69,1.33A30.71,30.71,0,0,1,70,74.27l-1.29-.58c-1.17-.55-2.32-1.13-3.5-1.65-.8-.35-1.63-.64-2.45-.95s-1.54-.59-2.32-.86-1.53-.54-2.31-.74a1.75,1.75,0,0,0-.84.16c-1.84.56-3.69,1.11-5.52,1.71-1.56.51-3.11,1.08-4.74,1.65l.84.49a2.75,2.75,0,0,1,1.39,1.83,1.92,1.92,0,0,0,.84,1.28,5.09,5.09,0,0,0-.57-3,4.8,4.8,0,0,1,2.93,2.64,2.27,2.27,0,0,0-.56-1.68c-.32-.51-.86-.9-.9-1.64.26.36.47.67.7,1A13.53,13.53,0,0,0,55,76.45a9.85,9.85,0,0,0,1.84.94,3.43,3.43,0,0,0-.4-.83c-.55-.64-1.15-1.23-1.72-1.84a1.09,1.09,0,0,1-.28-.54c.46.23.93.42,1.37.68,1.31.79,2.57,1.66,3.91,2.38a6,6,0,0,0,5.13.59l-6-3.75.76.17.7.17c1.88.43,3.66,1.24,5.6,1.41a7.72,7.72,0,0,0,1.34.09c2-.18,4-.31,6-.63A27.78,27.78,0,0,0,80,73.23a3.92,3.92,0,0,0,.51-.34l-1.94-1.36c2.76.44,5.34,1.45,8.12,1.23L83.6,71.69l0-.14A29.81,29.81,0,0,0,91.56,71.81ZM61.41,84.59l0-.07c.83.39,1.67.74,2.48,1.16a15.46,15.46,0,0,0,7.9,2.2c2.12-.09,4.25,0,6.37-.11A31.78,31.78,0,0,0,82.07,87l-1.69-1.77a30.88,30.88,0,0,0,7.42,2.57l-2.7-1.57.07-.12a21.88,21.88,0,0,0,8.3,1.57A33.47,33.47,0,0,0,89,84.2a33.67,33.67,0,0,1,5.33,2.3,25.1,25.1,0,0,0-5.67-3.67l.07-.18,9.61,3c-3.31-2.08-7.05-3.27-10.58-4.9a77.25,77.25,0,0,1,13.68,4.74c-.62-.43-1.23-.89-1.87-1.28s-1.58-.88-2.38-1.31l-3.29-1.71c-.93-.48-1.89-.91-2.8-1.42a5.39,5.39,0,0,0-2.53-.61c-2.88-.1-5.76-.2-8.65-.29a8.34,8.34,0,0,0-1.59.14,17,17,0,0,1,4.41,4c-.41-.32-.83-.64-1.23-1a20.5,20.5,0,0,0-4.84-2.9A1.47,1.47,0,0,0,76,79l-13.24.75a1.22,1.22,0,0,0-.48.14,26.7,26.7,0,0,1,9.37,6.58c-.53-.39-1.05-.8-1.6-1.17q-1.74-1.17-3.5-2.3c-.79-.51-1.59-1-2.4-1.49s-1.39-.69-2-1.12c-1.16-.79-2.33-.26-3.49-.12-2.71.32-5.4.7-8.11,1.06a1.3,1.3,0,0,0-.44.15c1.74.77,1.65,2.48,2,3.94l.22-.05.23-2.85a4.6,4.6,0,0,1,2,3,1.29,1.29,0,0,0,.07-1.23c-.16-.38-.38-.73-.55-1.1a3.62,3.62,0,0,1-.28-1c1,2.2,3,3.48,4.61,5.06.19-.47.11-.67-.6-1.71-.36-.53-.69-1.08-1-1.61l.14-.12c.56.44,1.13.85,1.66,1.31,1,.85,1.87,1.78,2.87,2.58a5.59,5.59,0,0,0,4.55,1.28ZM83.78,99.36a21,21,0,0,0,7.76,2.72,36.13,36.13,0,0,0-3.75-4,27.72,27.72,0,0,1,4.56,2.83,22.24,22.24,0,0,0-4.69-4.24l.11-.18,8.79,4.41c-2.8-2.57-6.26-4.2-9.38-6.33l.07-.14c1.4.66,2.83,1.28,4.2,2s2.72,1.52,4.05,2.32,2.66,1.65,4,2.44a7,7,0,0,0-.72-.8q-1.56-1.3-3.16-2.55c-1.06-.83-2.13-1.66-3.22-2.45a24.61,24.61,0,0,0-2.76-1.86,8,8,0,0,0-2.17-.64q-3.14-.65-6.3-1.23c-1-.17-1.94-.25-3.05-.39a16.83,16.83,0,0,1,3.73,4.47,5.37,5.37,0,0,1-.63-.58,19.65,19.65,0,0,0-4.67-4.06,3.59,3.59,0,0,0-1.5-.32c-2.14-.26-4.28-.53-6.43-.73-.71-.07-1.45.1-2.16.06-1.06-.06-2.12-.21-3.17-.32a.89.89,0,0,0-.37,0,28.09,28.09,0,0,1,7.81,7.66,3.39,3.39,0,0,1-.55-.38c-.47-.49-.9-1-1.37-1.51s-.68-.67-1-1l-4-3.43c-.52-.44-1-.9-1.58-1.3a1.74,1.74,0,0,0-.89-.36c-3.5-.12-7-.22-10.51-.32,0,0-.06,0-.24.18a3.55,3.55,0,0,1,.7.53,2.85,2.85,0,0,1,.62,2,13,13,0,0,0,.08,1.37l.19,0,.74-2.57a3.7,3.7,0,0,1,1.36,3h.18c.06-.18.2-.38.18-.55-.08-.55-.23-1.1-.34-1.65a4.65,4.65,0,0,1-.13-1.16A11,11,0,0,0,55.94,94a12,12,0,0,0,1,1.13l.9,1c.27-1.32-.74-2.3-1.07-3.61a1.92,1.92,0,0,1,.38.23L59.67,96a7.39,7.39,0,0,0,4.42,3,7.7,7.7,0,0,0,.81.07l-4-5.12c.44.26.9.5,1.33.8.79.54,1.54,1.13,2.34,1.66A22,22,0,0,0,67,97.86a10.63,10.63,0,0,0,2,.62,32.68,32.68,0,0,0,10,1.27l1.29-.1.21-.06-1.21-1.7c2.25,1.28,4.36,2.8,6.88,3.55A11,11,0,0,1,83.78,99.36Zm-8.22,7.39-.17.1c-.41-.59-.78-1.22-1.24-1.77a32.3,32.3,0,0,0-2.35-2.62,3.25,3.25,0,0,0-1.31-.56c-2-.62-4.05-1.23-6.09-1.81-1.36-.38-2.73-.71-4.1-1.06a1.22,1.22,0,0,0-.24,0c1,1.13,2,2.23,2.94,3.4a20,20,0,0,1,2.33,3.87l-.12.07c-.6-.83-1.19-1.67-1.81-2.49s-1-1.35-1.58-2-.93-1.18-1.43-1.72a4.24,4.24,0,0,0-2.44-1.72c-1.49-.24-3-.7-4.44-1-1.3-.26-2.61-.44-4-.63,1.19,1,.55,2.28.5,3.47l.16,0,1.07-1.88a3.07,3.07,0,0,1,.82,2.48c.55-.76.13-1.64.29-2.44.11,2,1.42,3.52,2.22,5.38.51-1.16-.26-2.08-.09-3.13.32.5.67,1,1,1.49.5.88.94,1.79,1.44,2.67A5.11,5.11,0,0,0,60,107.16l.15,0h0l-2.43-4.62,0-.07.86.8,1.47,1.41c.46.45.9.93,1.39,1.35a7.85,7.85,0,0,0,1.32.88,17.23,17.23,0,0,0,1.6.71,33.54,33.54,0,0,0,3.64,1.45c1.65.46,3.36.73,5,1.08a3.44,3.44,0,0,0,.57,0L73,108.51a24.42,24.42,0,0,0,5.23,4l-1.66-1.77.12-.14a21.87,21.87,0,0,0,6.1,3.52l.16-.16-2.71-4a23.91,23.91,0,0,1,3.63,3.34l.15-.13-3.46-4.36,0-.07,6.92,5.13c-2-2.61-4.72-4.55-7.08-6.85a31.86,31.86,0,0,1,4.91,3.51c1.55,1.28,3.05,2.63,4.64,3.92-.63-.79-1.26-1.59-1.9-2.37-.38-.46-.78-.89-1.18-1.33s-.82-.91-1.24-1.35-1.12-1.14-1.68-1.71a7,7,0,0,0-3-2c-.49-.15-1-.35-1.45-.53l-6-2.3a.38.38,0,0,0-.16,0ZM26.38,135l-.78-3.75c.74,1.11,1,2.43,1.89,3.46a18.11,18.11,0,0,0,.2-5.67l.17,0,.59,1.69c.24-1.87-.3-3.59-.55-5.38l.84,1.2c.28-.56.54-1.07.79-1.59.12-.26.19-.55.29-.82a24.89,24.89,0,0,0,1.45-7,11.72,11.72,0,0,0-.54-3.17c-.13-.65-.3-1.3-.45-1.94l.17-.07,2.18,3.64a3.17,3.17,0,0,0,.16-2.41,14.82,14.82,0,0,0-1-2.08c-.41-.77-.86-1.52-1.28-2.29a2.66,2.66,0,0,1-.12-.5c.89.51,1.26,1.49,2.33,1.78l-2.2-3.61,1.23.55.1-.15A2.57,2.57,0,0,1,30.24,105l1.93.25.09-.17c-.92-.55-2.22-.67-2.52-2-.22.54-.45,1.08-.65,1.63-.51,1.4-1,2.8-1.52,4.2a.77.77,0,0,1,0,.15,3.43,3.43,0,0,0-.08,3.35c.54,1.29.87,2.66,1.35,4,.32.86.73,1.69,1,2.59-.44-.77-.92-1.51-1.29-2.31a26.36,26.36,0,0,1-1-2.52c-.3-.85-.55-1.72-.85-2.67-.6,1.9-1.2,3.7-1.74,5.52a27.33,27.33,0,0,0-1,4,5.41,5.41,0,0,0,.49,2.22c.31.93.7,1.84,1,2.77a13.11,13.11,0,0,1-1.93-3.45c-.19.82-.4,1.64-.57,2.47-.29,1.44-.51,2.9-.86,4.34a6.09,6.09,0,0,0,.2,3.18c.52,1.83,1,3.67,1.53,5.49.16.57.43,1.11.64,1.66l.12,0c-.22-1.07-.47-2.13-.65-3.2s-.29-2.21-.4-3.32a28,28,0,0,1-.16-3.29,79.76,79.76,0,0,0,1.68,7.95l.14,0c-.13-1.17-.28-2.34-.37-3.52s-.12-2.4-.18-3.65A23.19,23.19,0,0,0,26.38,135Zm9.95-24c-.53,1-1.09,2-1.56,3a3.58,3.58,0,0,0,0,2.82l2.18-3.64.12,0c-.07.43-.1.88-.21,1.3a24.37,24.37,0,0,0-.65,2.48,9,9,0,0,0,0,2.45,33,33,0,0,0,.82,4.24c.39,1.37,1,2.69,1.52,4.14l1-1.39a19.86,19.86,0,0,0-.62,5.57l.66-2c0,1,0,1.93,0,2.9s.17,2,.25,2.95l.21.05,1.61-3.47.16,0L41,136.29l.11,0,1.66-4.21h.09l-.61,6.95a67.76,67.76,0,0,0,1.84-8.23A58.69,58.69,0,0,1,42.86,141a7.74,7.74,0,0,0,.52-1.13c.69-2.46,1.41-4.91,2-7.39a6.27,6.27,0,0,0-.17-2.43c-.35-1.87-.76-3.73-1.16-5.59a2.58,2.58,0,0,0-.21-.61,10,10,0,0,1-2,3.35,4.26,4.26,0,0,0,.29-.53c.45-1.22.94-2.42,1.33-3.66a4.29,4.29,0,0,0-.4-2.4c-.46-1.74-.93-3.47-1.43-5.2a23,23,0,0,0-.94-2.54,21.85,21.85,0,0,1-3.22,7.41c.36-.86.75-1.7,1.08-2.57.45-1.2.86-2.42,1.27-3.63.18-.53.3-1.09.51-1.61a1.6,1.6,0,0,0-.07-1.23c-.5-1.37-1-2.75-1.47-4.11-.34-.92-.74-1.82-1.19-2.79-.27,1.29-1.51,1.41-2.37,2l.06.18,1.87-.19c-.32.9-.32.9-1.54,1.82.36.08.35.07,1.1-.43a7,7,0,0,1,1.08-.63c-1.53,1-2.09,2.59-2.89,4.06.93-.17,1.23-1.15,2-1.54l.12.08ZM72.86,48l.05.1c.81-.29,1.62-.59,2.43-.86L80,45.75a2.14,2.14,0,0,0,.7-.31c.87-.72,1.7-1.47,2.56-2.19.48-.41,1-.77,1.48-1.18S86,41,86.57,40.4a46.05,46.05,0,0,0-8,4.93l-.13-.16,4.6-4L83,41.1c-1.12.69-2.27,1.32-3.34,2.08s-2.08,1.67-3.15,2.49A48,48,0,0,1,80,41.17a54.75,54.75,0,0,0-6.31,3.34c-2,1.32-4,2.59-6.07,3.91.46-.72.87-1.48,1.39-2.15s1.17-1.27,1.74-1.94a31.28,31.28,0,0,0-5.69,2.24c-1.79,1-3.56,1.94-5.41,2.89.39-.45.75-.93,1.17-1.35s.92-.8,1.35-1.24a17.7,17.7,0,0,0-5,3.38,38.87,38.87,0,0,0-3.92,4.71l-.16-.09,2.19-4a22.46,22.46,0,0,0-10.79,8.67,5,5,0,0,0-1.36-3.15c.22,1.61.69,3.22-.24,4.7A8.17,8.17,0,0,0,42,59.95a1.72,1.72,0,0,0-1.55-.26c1.8.71,1.08,2,1,3.27L43,62c.56-.33,1.11-.68,1.69-1a1.43,1.43,0,0,0,.68-1,5.17,5.17,0,0,1,1.83-2.43l-1.4,2.61.12.08a18.82,18.82,0,0,1,2.36-1.2c.89-.31.94-1.23,1.52-1.75s1.35-1.33,2-2l.13.11-1.63,2.32.07.09a3.82,3.82,0,0,0,.45-.17l3.79-2c1.47-.77,2.93-1.58,4.43-2.31,1.25-.61,2.54-1.13,3.83-1.66,1.8-.74,3.6-1.47,5.41-2.17.94-.37,1.92-.66,2.87-1a1.13,1.13,0,0,0,.42-.27c.74-.77,1.42-1.62,2.22-2.32a11.84,11.84,0,0,1,3.3-2.45Zm-9.28-8.54.07.08L67,37.81a17.12,17.12,0,0,1,2.34-1.17,5.6,5.6,0,0,0,2.53-1.9c.93-1.09,2-2.11,2.94-3.16.34-.36.67-.72,1-1.11a42.72,42.72,0,0,0-7.12,5.7,32.45,32.45,0,0,1,3.7-4.4,17.22,17.22,0,0,0-3,2.37c-.92.9-1.79,1.84-2.79,2.71l3.18-4.94a85.46,85.46,0,0,0-11,8.59,15.47,15.47,0,0,1,2.54-4.29,42.1,42.1,0,0,0-10.17,6.53,14,14,0,0,1,1-1.58c.42-.49.95-.9,1.36-1.41A16.55,16.55,0,0,0,49,43.65a33.39,33.39,0,0,0-3.28,5.06l-.2-.1,1.68-4c-2.31.46-7.7,5.92-9.33,9.47-.35-1-.55-2.13-1.57-2.78.36,1.52,1,3,.22,4.52a10.45,10.45,0,0,0-1-1,1.26,1.26,0,0,0-1.5,0l.29.1c.83.21,1,.38,1,1.25,0,.51,0,1,0,1.59.44-.32.87-.62,1.28-.93s1-.83,1.52-1.21a1.67,1.67,0,0,0,.69-1.16,6,6,0,0,1,1.54-2.67l-1.13,2.8.13.08.79-.54A9.7,9.7,0,0,0,41.65,53a10.81,10.81,0,0,0,1-1.58,7.38,7.38,0,0,1,2-2.24l-1.37,2.49.12.07,3.44-2.39c1.15-.81,2.29-1.63,3.44-2.43.48-.33,1-.64,1.48-.93l3.79-2.19c1.41-.81,2.83-1.62,4.25-2.41.75-.41,1.53-.77,2.29-1.17a1,1,0,0,0,.3-.26c1.16-1.41,2.31-2.83,3.48-4.22a10.1,10.1,0,0,1,1.07-1l.1.08Zm-8.66-9.81,2.53-1.76,2.21-1.59a9.88,9.88,0,0,0,1.63-1.21,20.68,20.68,0,0,0,1.39-2c.78-1.1,1.58-2.18,2.36-3.27a.32.32,0,0,0,0-.28A43.63,43.63,0,0,0,58.88,26,30.34,30.34,0,0,1,62.23,21,25.94,25.94,0,0,0,57.06,27L56.92,27l2.55-5.36-.06-.09c-1.68,1.62-3.41,3.19-5,4.87s-3.16,3.49-4.74,5.25A21,21,0,0,1,51.56,27c-1.07.77-2.18,1.51-3.22,2.33s-2.09,1.76-3.08,2.7-1.88,1.94-2.91,2.88l1.73-3.1L44,31.7c-.67.68-1.4,1.33-2,2.07a21.85,21.85,0,0,0-1.73,2.48,27.34,27.34,0,0,0-1.39,2.6c-.42.89-.77,1.82-1.19,2.83a16.61,16.61,0,0,1,1.06-4.36l-.12-.11c-.25.19-.51.38-.74.59-.49.43-1,.85-1.43,1.32-.81.85-1.62,1.7-2.36,2.61A19.44,19.44,0,0,0,32.47,44a22.9,22.9,0,0,0-1.08,2.2c-.26.55-.49,1.11-.8,1.67a4.23,4.23,0,0,0-1.41-2.29,1.1,1.1,0,0,0-.47-.21,6.49,6.49,0,0,1,.85,4.37,9.19,9.19,0,0,0-1.23-.83,1.34,1.34,0,0,0-1.41.3l.47,0a1.11,1.11,0,0,1,1.07,1.06c.05.49.07,1,.11,1.56.28-.22.52-.39.73-.59.67-.65,1.36-1.29,2-2a2.39,2.39,0,0,0,.3-1,7.33,7.33,0,0,1,1.28-3,7.54,7.54,0,0,0-.63,3,29.91,29.91,0,0,0,2.27-2.22,9.2,9.2,0,0,0,.68-1.59c.44-.82.95-1.6,1.43-2.39l.12.06-1,2.61.13.07c.63-.59,1.26-1.19,1.9-1.77l3.51-3.19c.81-.73,1.61-1.47,2.45-2.16,1-.84,2.11-1.64,3.18-2.45.86-.65,1.71-1.3,2.58-1.94s2-1.5,3-2.16a5.1,5.1,0,0,0,1.34-1.72c.52-.77.93-1.62,1.46-2.4s1-1.33,1.53-2a1,1,0,0,1,.41-.35L54.38,29.8l.12.11C54.64,29.83,54.79,29.75,54.92,29.66Zm-8.2,11.66a13.91,13.91,0,0,1,1.66,0,1.51,1.51,0,0,0,1.18-.39,20.63,20.63,0,0,1,1.7-1.41,21.84,21.84,0,0,1,2.11-1.27,7,7,0,0,1,2.81-1,1,1,0,0,0,.4-.22c.86-.6,1.69-1.22,2.57-1.79a24.58,24.58,0,0,1,2.53-1.47c.91-.44,1.87-.77,2.81-1.15a1.83,1.83,0,0,0,.21-.14l-.93,0c1.63-.95,3.53-.67,5.12-1.49a24.85,24.85,0,0,0-6.14.47c3.09-1.43,6.38-2.29,9.56-3.57a17.86,17.86,0,0,0-2.25.24c-2.18.5-4.35,1.08-6.53,1.61-.87.21-1.75.37-2.63.56.64-.64,9-3.45,14.12-4.29-.59,0-1.17,0-1.76,0a77,77,0,0,0-11.1,1.64,3.33,3.33,0,0,0-1.23.5c-1.94,1.31-3.86,2.64-5.77,4-.94.66-1.85,1.35-2.78,2a1.09,1.09,0,0,0-.3.35,17.1,17.1,0,0,1,6,.69,17.67,17.67,0,0,0-2.18-.1c-1.75.12-3.5.32-5.25.5a.67.67,0,0,0-.32.14c-1.2.94-2.42,1.87-3.59,2.84-1.62,1.34-3.22,2.71-4.82,4.08-.88.75-1.73,1.52-2.68,2.36l3.26-.54a7,7,0,0,1,1-.13,3.92,3.92,0,0,0,2.31-.74,16.17,16.17,0,0,1,1.77-.94c.2-.11.38-.25.57-.38l0-.16H43.83A5.58,5.58,0,0,1,46.73,41.31ZM23.41,44.93l.14,0c.39-.48.77-1,1.19-1.43.75-.81.77-1.89,1.1-2.86.17-.48.41-.92.62-1.38l.19.05-.45,2.11.09,0c.43-.5.88-1,1.29-1.5s1-1.31,1.53-2,1.2-1.5,1.83-2.23c.82-1,1.65-1.91,2.51-2.83s1.55-1.53,2.31-2.3c.45-.46.87-1,1.33-1.41s1-.85,1.46-1.35S39.72,27,40,26.2a39.39,39.39,0,0,1,1.79-4.14A3.73,3.73,0,0,1,42.62,21l-1.86,4.79.08.06c.26-.2.54-.39.78-.61,1.29-1.21,2.49-2.52,3.89-3.59.86-.66,1-1.59,1.53-2.38.74-1.21,1.3-2.52,1.93-3.79a.91.91,0,0,0,.09-.39,38.3,38.3,0,0,0-4.67,6.65A22.67,22.67,0,0,1,46.49,17a23.3,23.3,0,0,0-3.62,5.77l-.14-.06,1.49-4.92a68.3,68.3,0,0,0-7.3,10.12,10.78,10.78,0,0,1,1-4.28,37.19,37.19,0,0,0-7.13,8.07l.37-1c.13-.39.24-.79.4-1.16s.38-.66.54-1c-2.62,2.7-3.77,6.09-4.52,9.66h-.14l.34-3.77c-.79.41-2.22,2.21-3.65,4.7a25.83,25.83,0,0,0-2.07,5.68c-.65-.68-.89-1.7-2.1-1.93.81,1.25,1.54,2.41,1.39,3.9-1.41-.89-1.75-.92-2.27-.36a3,3,0,0,1,1,.47,3.46,3.46,0,0,1,.5,1.16c.08.21.12.44.2.75l1.13-1.57c.07-.1.1-.24.19-.3A2.74,2.74,0,0,0,23,44.51a11.79,11.79,0,0,1,.51-2.17l.17,0ZM17.84,40l.09,0,1.25-1.89c.54-.83,1.06-1.67,1.61-2.5Q21.86,34.07,23,32.5c.42-.6.88-1.17,1.33-1.75s1-1.29,1.53-1.92,1-1.2,1.52-1.81a11.3,11.3,0,0,1,1.17-1.41c1.11-1,1-2.4,1.48-3.59.39-.89.74-1.8,1.11-2.7a.29.29,0,0,1,.2-.16l-1.24,4.55.11.05,1.22-1.38c.88-1,1.78-1.93,2.64-2.93a4.93,4.93,0,0,0,.84-1.33c.68-1.7,1.3-3.41,1.89-5.16a41.75,41.75,0,0,0-3.52,6,29.7,29.7,0,0,1,1.43-4.28c-.29.47-.6.92-.87,1.4s-.54,1.07-.8,1.61-.51,1-.72,1.58a11.22,11.22,0,0,1-.7,1.61l.93-4.9-.19-.08-5.72,9.94a8.53,8.53,0,0,1,.7-3.86l-.18-.09C26.07,23.2,25,24.5,24,25.9s-1.81,2.92-2.8,4.38l.76-2.62A10.28,10.28,0,0,0,19.75,32c-.39,1.58-.68,3.17-1.05,4.77V33.15a16.94,16.94,0,0,0-3,4.87,15.52,15.52,0,0,0-1.3,5.7,9.88,9.88,0,0,0-1-1.17,3.81,3.81,0,0,0-1.16-.64C13,43,13.79,44,13.73,45.3a8.8,8.8,0,0,0-1.46-.38c-.24,0-.51.23-.75.42,1.53-.22,1.41,1.17,2,1.89.54-.87,1.1-1.73,1.62-2.61a1,1,0,0,0,.11-.62,6.69,6.69,0,0,1,.29-2.83v2.43l.11,0c.22-.31.46-.6.67-.92s.3-.58.5-.83a2.15,2.15,0,0,0,.48-1.42,5.31,5.31,0,0,1,.85-2.81ZM39.26,103.7c.34.91.61,1.76,1,2.56.13.28.55.42.81.66.43.4.84.82,1.25,1.24l-.09.09-1.49-1.17a4.12,4.12,0,0,0,.87,2.39c.57.64,1.09,1.32,1.64,2l-.13.13-1.25-1.19-.14.07c.19.51.39,1,.56,1.52.44,1.3.86,2.6,1.29,3.89.14.42.29.84.41,1.27.45,1.72.9,3.45,1.31,5.18.22.91.39,1.84.56,2.77A5.24,5.24,0,0,0,47,127a9.38,9.38,0,0,1,1.64,2.94l-2.35-3.15-.1,0a32.74,32.74,0,0,0,1,5.22,24.42,24.42,0,0,0,2.63,4.6A25.27,25.27,0,0,0,47.49,131l.16-.09,2.07,3.41.08,0c-.35-.83-.66-1.68-1.05-2.49s-.88-1.55-1.23-2.4L50,132.25l.1,0c-.34-1-.66-2-1-3s-.79-2-1.23-3-.91-1.93-1.37-2.89l.17-.13,2.25,2.5a28.77,28.77,0,0,0-2.46-7.88l.19-.1,1.26,1.79a14.56,14.56,0,0,0-4.39-6.79l.12-.11L46,114.5a16.07,16.07,0,0,0-4.71-8.32,3.21,3.21,0,0,0,2.26-.55c-1.16-.06-2.28.12-3.2-.81.81-.16,1.35-.53,1.28-1.53C41,104.55,40.09,103.83,39.26,103.7Zm-18.4,12.71.18.1a28.75,28.75,0,0,0-2.55,8l2.35-2.57L21,122a59.28,59.28,0,0,0-3.69,8.86l.12.08,2.45-2.81.12.07a20.15,20.15,0,0,0-2.39,4.95l2.15-3.5.11.07c-.55,1.17-1.12,2.33-1.63,3.51-.3.68-.5,1.4-.75,2.11l.14.07c.2-.33.39-.67.59-1,.55-.91,1.15-1.78,1.64-2.72a7.38,7.38,0,0,0,.58-1.84,44.18,44.18,0,0,0,.73-4.38l-2.38,3.16-.12-.07c.5-.84,1-1.68,1.52-2.5.27-.42.59-.8.88-1.2a6.34,6.34,0,0,0,.82-2.57c.28-1.2.52-2.41.82-3.61.37-1.49.78-3,1.19-4.46.11-.39.27-.77.4-1.16.44-1.27.89-2.54,1.23-3.91l-1.32,1.21-.13-.13a18.77,18.77,0,0,0,1.82-2.1,13.73,13.73,0,0,0,1-2.28l-.16-.1L25.17,107l-.07-.07a5.61,5.61,0,0,1,1.15-1.17,2.65,2.65,0,0,0,1.29-1.56l.56-1.66c-.76.12-1.55.69-2.19-.2-.12.55,0,.67,1,1.36a2.13,2.13,0,0,1-1.42.63c-.5.08-1,.08-1.52.12l0,.18,2.16.38a14.93,14.93,0,0,0-4.52,8.15l2.25-1.83.12.1a15.82,15.82,0,0,0-4.56,7Zm10.71,11.36-.15-.12.24-.34c.63-.86,1.22-1.77,1.91-2.57a3.1,3.1,0,0,0,.63-2.24c0-1.39,0-2.78,0-4.17a5.43,5.43,0,0,0-.16-1c-.15-.77-.31-1.53-.46-2.29l-.72,2.68-.12,0-.44-1.17-.16,0-.25,2.68.12.06,1.6-2,.1,0a9.23,9.23,0,0,1-1.06,1.81,5.35,5.35,0,0,0-1.34,3.12,8.55,8.55,0,0,1-.66,2c-.33.8-.74,1.58-1.07,2.38a2.22,2.22,0,0,0-.14.94,19.07,19.07,0,0,1-.41,5.86c.12-.14.25-.28.36-.42s.21-.31.31-.46l.13.07-1.41,2.85.13.08a15.12,15.12,0,0,0,2.16-3l.13.07-2.43,6.42c1.64-2.11,2.48-4.64,3.78-6.92l.13,0c-.28.75-.54,1.5-.84,2.24s-.63,1.52-1,2.27-.64,1.51-1,2.25-.72,1.46-1,2.24a5,5,0,0,0,.45-.51c.77-1.13,1.55-2.25,2.27-3.4A26.5,26.5,0,0,0,33.1,134a8.28,8.28,0,0,0,.5-2.39c.24-2.15.42-4.3.63-6.45l-.12,0Zm69.52-85a50.57,50.57,0,0,0-9.25,1.07c-2.39.52-4.81.93-7.18,1.53s-5,1.41-7.48,2.18c-1.86.58-3.69,1.23-5.52,1.88-1.62.58-3.22,1.2-4.81,1.83s-3.06,1.23-4.58,1.88c-1.33.57-2.63,1.17-3.95,1.77-1.6.72-3.2,1.43-4.78,2.18-.78.36-1.53.79-2.29,1.19s-1.61.84-2.41,1.27l-3.37,1.86c-.77.42-1.54.83-2.3,1.27s-1.51.88-2.25,1.36c-.11.07-.11.33-.12.5s.09.18.14.27c.32.58.3.55.85.2,1-.64,2.05-1.25,3.08-1.87,1.23-.73,2.47-1.46,3.72-2.17s2.41-1.32,3.62-2,2.46-1.28,3.7-1.89,2.61-1.29,3.94-1.88c1.66-.74,3.35-1.43,5-2.15,1.15-.5,2.28-1,3.44-1.51s2.51-.95,3.77-1.4c2.22-.8,4.43-1.61,6.66-2.36,1.48-.49,3-.89,4.51-1.31,2-.54,3.91-1.09,5.88-1.59a36.51,36.51,0,0,1,3.75-.79A76,76,0,0,1,102,42.88c.17,0,.34,0,.51,0v-.07C102,42.76,101.55,42.75,101.09,42.77ZM27.32,94a7.38,7.38,0,1,0,7.36-7.39A7.3,7.3,0,0,0,27.32,94ZM15.05,76.3l10.87-2a77.49,77.49,0,0,0-8.87-7.84ZM35.37,60l1.72-1.34c.79-.61,1.59-1.19,2.36-1.82s1.52-1.36,2.31-2c.35-.28.81-.42,1.18-.68,1.22-.85,2.41-1.74,3.63-2.59.62-.43,1.27-.81,1.9-1.22,1.28-.85,2.54-1.74,3.85-2.56S55,46.2,56.37,45.41c1.56-.9,3.13-1.79,4.7-2.67,1.41-.79,2.81-1.59,4.24-2.34,1.06-.56,2.15-1.05,3.24-1.56s2.27-1.07,3.41-1.58c1.89-.83,3.77-1.67,5.68-2.45,1.29-.52,2.62-1,3.93-1.41,1.51-.52,3-1.07,4.55-1.54,1.23-.38,2.49-.65,3.74-1l0-.17c-.95.2-1.9.36-2.83.6q-2.7.69-5.39,1.45c-.68.19-1.33.47-2,.72L74.54,35.4c-1,.37-2,.72-2.91,1.15-1.66.74-3.31,1.53-5,2.31-1,.49-2.08,1-3.11,1.49s-1.84,1-2.76,1.51c-1.83,1-3.67,2-5.49,3-.82.47-1.59,1-2.39,1.51s-1.54.88-2.3,1.34-1.38.89-2.07,1.35-1.63,1.07-2.43,1.63c-1.15.8-2.3,1.6-3.45,2.41-1.44,1-2.89,2-4.31,3.07-1.09.8-2.13,1.66-3.19,2.5l-.48.36Zm-6.48-5.87c.46-.43.89-.81,1.29-1.22.88-.9,1.75-1.81,2.63-2.71s1.58-1.66,2.41-2.45,1.6-1.42,2.39-2.14c.48-.44.91-.92,1.39-1.36.78-.71,1.58-1.4,2.38-2.1.46-.4.94-.79,1.41-1.19,1-.82,1.9-1.67,2.88-2.47s2.1-1.65,3.16-2.46C50.24,35,51.62,33.91,53,32.86c1-.77,2.1-1.48,3.16-2.22s2.36-1.7,3.58-2.49,2.31-1.39,3.47-2.09c.56-.34,1.1-.69,1.66-1,1.4-.83,2.79-1.68,4.21-2.47,1-.56,2-1,3.07-1.54q1.9-.91,3.82-1.78c1.06-.48,2.13-.93,3.2-1.39l-.06-.16c-.56.2-1.13.39-1.69.61-1.15.44-2.31.88-3.45,1.34-.79.32-1.58.67-2.35,1q-2.13,1-4.23,2.13c-1,.51-2,1-2.93,1.59-.8.46-1.57,1-2.36,1.46s-1.54.9-2.29,1.36c-.6.37-1.18.76-1.76,1.15-.84.56-1.69,1.11-2.52,1.69-1.2.85-2.39,1.71-3.58,2.58s-2.5,1.85-3.73,2.8c-1.73,1.34-3.47,2.67-5.17,4.05-1.2,1-2.35,2-3.52,3s-2.1,1.82-3.13,2.76c-.8.72-1.55,1.5-2.33,2.23-.46.43-1,.82-1.41,1.26s-.89.93-1.35,1.38-1,.88-1.45,1.35-1.09,1.17-1.67,1.8ZM26.21,75.31l-10.8,2.22,8.94,7.56Zm57.94-37-1.21-.1c-.41,0-.83-.09-1.24-.09-3.44.05-6.87.11-10.31.2a3,3,0,0,0-1.21.4c-1.44.73-2.85,1.49-4.29,2.23S63.11,42.32,61.73,43c-.36.19-.69.44-1.15.74.26,0,.41.08.57.08a12,12,0,0,1,4,.74.66.66,0,0,0,.49,0c.79-.41,1.55-.88,2.35-1.26s1.92-.83,2.9-1.2a13.29,13.29,0,0,1,1.91-.62C74.89,41,77,40.62,79,40.19l.79-.18,0-.19L70,40.76A83.51,83.51,0,0,1,84.15,38.26ZM44.09,29.9a1.3,1.3,0,0,0,.56-.22c.33-.18.63-.5,1-.56a4,4,0,0,0,2.09-1.3c.52-.48,1-1,1.53-1.45a5.42,5.42,0,0,0,.53-.45l-.88.18-.08-.17L56.26,22C53,22.75,50,24.19,46.88,25.3a59.91,59.91,0,0,1,11.77-5.42l0-.15c-.89.2-1.79.38-2.67.61-1.49.38-3,.78-4.44,1.17-.27.07-.52.17-.78.26-1,.34-2.11.64-3.13,1a5,5,0,0,0-1.35.91q-1.6,1.38-3.13,2.82c-1.23,1.16-2.44,2.35-3.66,3.53a1,1,0,0,0-.11.16A17.57,17.57,0,0,1,44.09,29.9ZM7.16,60.32l-.69,10,9.2-4.75C14.88,64.59,8.52,60.76,7.16,60.32Zm-.8,11.17,7.69,5.07,2.14-10ZM59.54,12.84c-.71.38-1.42.76-2.11,1.17-.86.51-1.7,1-2.54,1.57-1.1.72-2.21,1.44-3.27,2.22s-2.2,1.69-3.29,2.55c-.4.32-.79.65-1.19,1s-1.05.76-1.54,1.18c-1,.83-1.89,1.69-2.83,2.54s-1.62,1.47-2.43,2.21c-.46.43-.92.87-1.37,1.31-.81.8-1.62,1.6-2.42,2.41S35,32.5,34.32,33.29q-1.89,2-3.76,4.1c-.39.43-.73.9-1.1,1.34s-.92,1-1.38,1.57-.69.85-1,1.27c-.71.86-1.44,1.69-2.12,2.57-.83,1.08-1.62,2.19-2.44,3.28l-1.86,2.5a.9.9,0,0,0,.09.16c.77.69.77.66,1.3-.24a23,23,0,0,1,1.46-2c.8-1.07,1.59-2.13,2.41-3.18.69-.89,1.39-1.76,2.09-2.64.85-1.05,1.69-2.11,2.55-3.14.48-.58,1-1.11,1.52-1.67,1.14-1.27,2.25-2.58,3.42-3.82q2.08-2.21,4.26-4.34,2.39-2.35,4.86-4.62c.8-.74,1.67-1.4,2.5-2.1,1-.86,2-1.76,3.06-2.58C51.75,18.45,53.36,17.19,55,16s3.29-2.1,5-3.14c.72-.45,1.46-.87,2.2-1.31l-.06-.11ZM25.38,84.4H34a61.36,61.36,0,0,0-6.77-8.76l-.16,0ZM47.56,8.79c-1,.75-2.1,1.48-3.1,2.27q-2.54,2-5,4.08c-.56.47-1,1-1.57,1.54-.34.33-.71.64-1,1-.9.91-1.79,1.82-2.67,2.74q-1.82,1.92-3.62,3.86c-.34.36-.65.75-1,1.13-1.22,1.49-2.47,3-3.65,4.47s-2.09,2.82-3.13,4.23c-.83,1.13-1.69,2.24-2.5,3.38-.53.74-1,1.52-1.49,2.28-.76,1.16-1.55,2.3-2.28,3.47s-1.59,2.67-2.38,4c-.1.16-.22.31-.32.46-.61.93-.47,1,.43,1.37l1.11-2q.26-.47.55-.92l3.16-5.09c.69-1.11,1.38-2.23,2.09-3.33.35-.54.75-1.06,1.13-1.59,1-1.39,2-2.79,3-4.15s2.09-2.65,3.13-4c.67-.85,1.32-1.73,2-2.56.84-1,1.72-2,2.59-2.93s1.47-1.65,2.23-2.46c.47-.5,1-1,1.46-1.43l1-1c.75-.76,1.48-1.55,2.26-2.28s1.71-1.52,2.57-2.27c.62-.54,1.25-1.08,1.88-1.6s1.08-.83,1.62-1.25l2.09-1.65-.05-.09A5.86,5.86,0,0,0,47.56,8.79ZM35.3,82.39c-.72-1.16-1.45-2.32-2.25-3.43s-1.67-2.15-2.53-3.21c-.7-.86-1.4-1.72-2.13-2.55-.45-.51-1-1-1.46-1.43-.31-.31-.61-.64-.93-.94-1-.93-2-1.85-3-2.76s-1.91-1.72-2.93-2.5S17.95,64,16.86,63.32s-2.34-1.55-3.55-2.25c-1-.57-2-1.06-3-1.57-.45-.23-.92-.45-1.39-.63s-.71-.12-1,.48c.88.45,1.77.88,2.64,1.36s2,1.14,3,1.71c.68.4,1.38.77,2,1.21,1.2.82,2.37,1.68,3.55,2.53.6.43,1.2.85,1.76,1.31.83.69,1.63,1.41,2.43,2.13a52.91,52.91,0,0,1,5.73,5.91c1.23,1.52,2.46,3.05,3.59,4.65,1,1.42,1.89,2.93,2.77,4.43.35.6.87.64,1.58.74C36.41,84.26,35.88,83.31,35.3,82.39ZM31.2,40.61a13.87,13.87,0,0,1,1.65-.41,2,2,0,0,0,1.3-.74c.51-.64,1.09-1.22,1.69-1.9A13.45,13.45,0,0,0,33,38a5.93,5.93,0,0,1,.95-.51A7.85,7.85,0,0,1,35.71,37a4.08,4.08,0,0,0,2.24-1.16c.08-.07.14-.18.22-.21.87-.31,1.3-1,1.84-1.72a32,32,0,0,1,2.32-2.44,13.93,13.93,0,0,0,1.29-1.32c-.49.07-1,.11-1.46.22-1.19.28-2.39.52-3.55.91a3.71,3.71,0,0,0-1.32,1q-2,2.05-3.9,4.17c-.73.81-1.39,1.67-2.1,2.5-.48.57-1,1.12-1.48,1.69a4.19,4.19,0,0,0-.25.36l.07.11C30.14,41,30.66,40.77,31.2,40.61ZM85,60.62a27.85,27.85,0,0,1,5.21-3.1A24.74,24.74,0,0,0,83,60.69l-.09-.11.94-.83,1-.83,1-.85-.07-.14c-.45.15-.89.34-1.36.46-1.47.36-3,.64-4.41,1a22.45,22.45,0,0,0-3.25,1.12c-1.2.54-2.33,1.23-3.5,1.84-.65.33-1.32.63-2,.94l0,.17,2.14-.37,3.68-.57a1.35,1.35,0,0,0,.52-.19c1.18-.79,2.33-1.63,3.54-2.37.79-.49,1.67-.83,2.51-1.24l.07.14-4.7,3.29.07.14c.53-.1,1.06-.21,1.59-.28,1.73-.24,3.45-.53,5.18-.69a6.89,6.89,0,0,0,2.8-1.09c.83-.47,1.69-.92,2.53-1.38s1.51-.86,2.26-1.29A38,38,0,0,0,85,60.62ZM29.73,56.33c-.49.54-.89,1.16-1.35,1.73s-1.05,1.22-1.55,1.85c-.72.93-1.41,1.88-2.11,2.82-.47.63-.93,1.26-1.44,1.86-.64.75-.47,1.45.49,1.75.13,0,.38-.14.51-.28,1-1,1.84-2.16,2.85-3.16a41.86,41.86,0,0,1,3.36-3,35,35,0,0,1,3-2c.43-.28.6-1.39.17-1.62a5.26,5.26,0,0,0-2.6-.8C30.39,55.32,30.1,55.92,29.73,56.33ZM32.89,53l2.75.4c0-.24-.24-.45-.85-.77-.37-.19-.71-.43-1.07-.65l.07-.12,1.68.81.13-.08c-.12-.41-.23-.83-.36-1.24s-.27-.84-.41-1.26c.84-.53,1.92-.11,3.15,1.29a25.05,25.05,0,0,1,5.51-6.31,3.28,3.28,0,0,0-.41,0c-1.37.18-2.75.32-4.1.56a2.56,2.56,0,0,0-1.06.63c-.5.41-.94.89-1.42,1.33s-.92.81-1.36,1.23c-.92.87-1.84,1.74-2.73,2.63-.5.49-.94,1-1.42,1.54-.2.21-.43.39-.71.64.59.06,1.05.09,1.51.16a1.17,1.17,0,0,1,.51.22.83.83,0,0,0,1.28-.16ZM76.66,76.62c1.14,0,2.28-.06,3.41,0a5.71,5.71,0,0,0,2.86-.69,20.7,20.7,0,0,1,4.57-1.6,1.26,1.26,0,0,1,.53,0l-5.14,2.3,0,.12c.3,0,.6,0,.9,0l6.36.27a1.38,1.38,0,0,0,.46,0l3-1,3.08-1a2.32,2.32,0,0,0,.56-.26c-2.91,0-5.67.89-8.53,1.39l1.82-.69c.61-.23,1.22-.47,1.85-.66s1.29-.35,1.92-.59a29.36,29.36,0,0,0-7.75,1.76c.58-.36,1.15-.73,1.74-1.07a17,17,0,0,0,1.82-1.09c-.51.06-1,.09-1.52.17a18.61,18.61,0,0,1-4.74.24,4.15,4.15,0,0,0-1.27.15q-2.16.5-4.32,1c-1.12.28-2.22.59-3.33.88-.17,0-.34.11-.51.17l0,.17ZM105,61.94a88.47,88.47,0,0,0-14.13-.21c-2.32.11-4.64.42-7,.71-3,.37-5.93.73-8.87,1.24-2.7.47-5.36,1.12-8,1.69l-3.47.74v.16L65,66.4l-.69.48,0,.09c.47-.12.94-.26,1.42-.37l5.14-1.14c1.2-.26,2.39-.56,3.59-.77q3.87-.67,7.76-1.25c1.76-.27,3.52-.51,5.29-.69,1.41-.15,2.82-.19,4.24-.3a89.66,89.66,0,0,1,11.91-.24c1.29.07,2.58.21,3.87.31l.82,0v-.12C107.24,62.27,106.1,62.07,105,61.94ZM68,78.14l0,.11-1.36.39v.07c.54,0,1.09-.08,1.63-.1,3.71-.1,7.42-.3,11.13-.27,4.37,0,8.74.13,13.09.46a70.93,70.93,0,0,1,10.66,1.46c1.74.4,3.51.7,5.27,1.07.64.13,1.26.34,1.88.51l0-.12c-.4-.14-.79-.31-1.19-.42-2.06-.55-4.12-1.14-6.2-1.6s-3.89-.8-5.85-1.07A121.72,121.72,0,0,0,79.2,77.44c-3.59,0-7.18.12-10.77.19-.44,0-.88.07-1.32.11v.15ZM36.11,80c.14.21.26.48.46.59a1.07,1.07,0,0,0,.67-.06,52.58,52.58,0,0,1,7-1.56c1.35-.19,2.71-.25,4.06-.44a1.47,1.47,0,0,0,.76-.57.61.61,0,0,0,0-.84,5.6,5.6,0,0,0-2.55-1.83.62.62,0,0,0-.39,0c-.85.36-1.69.76-2.54,1.12s-2,.79-3,1.21c-1.17.49-2.33,1-3.5,1.49l-1.05.46A3,3,0,0,0,36.11,80ZM2,70.87c-.26.74-.22.7.48,1.05.89.44,1.73,1,2.59,1.48s1.53.9,2.28,1.38,1.52,1,2.27,1.51q1.51,1.06,3,2.17c.73.54,1.43,1.11,2.14,1.68.91.73,1.83,1.45,2.72,2.19.63.52,1.23,1.09,1.84,1.63l.92.8c.84.72,1.69,1.42,2.5,2.17s1.4,1.4,2.12,2.09c.52.51,1.07,1,1.6,1.49.35-.41.34-.61,0-1-1.49-1.47-3-3-4.47-4.41-.79-.76-1.64-1.45-2.45-2.17-.48-.43-.93-.89-1.42-1.31-.93-.78-1.86-1.56-2.81-2.31-1.49-1.17-3-2.35-4.52-3.47-1-.76-2.13-1.42-3.2-2.13-.84-.56-1.67-1.14-2.54-1.66S3.12,71,2.13,70.5C2.07,70.66,2,70.76,2,70.87ZM107.24,98.14c-1.22-.58-2.44-1.17-3.68-1.7-1-.42-2-.77-3-1.14-.6-.22-1.19-.44-1.8-.63-1.58-.49-3.15-1-4.74-1.44-1.8-.52-3.6-1.05-5.43-1.49s-3.54-.74-5.32-1.09c-1.35-.27-2.7-.58-4.06-.79-1.67-.25-3.35-.44-5-.61-1.91-.2-3.82-.32-5.72-.53a13.24,13.24,0,0,1-1.78-.46,2.86,2.86,0,0,0,1.76,1.1c1.9.24,3.82.35,5.71.63,3,.44,6,1,9,1.49,2.32.42,4.64.87,6.94,1.39,1.73.39,3.42.92,5.13,1.39,1.23.34,2.46.66,3.67,1s2.41.82,3.61,1.27c1.54.58,3.08,1.19,4.61,1.8.46.18.88.43,1.33.65l.08-.13C108.13,98.64,107.7,98.36,107.24,98.14ZM42,67.47c-1.08.77-2.14,1.57-3.22,2.34-.6.43-1.22.81-1.82,1.23-1.16.82-2.31,1.64-3.46,2.47-.35.25-.68.52-1,.76s-.25.54-.06.83.41.09.63,0c1.53-.84,3-1.71,4.6-2.5a33.44,33.44,0,0,1,6.73-2.44,1.47,1.47,0,0,0,.51-1.9,3.92,3.92,0,0,0-2.38-1A1.77,1.77,0,0,0,42,67.47ZM28.6,102.41c-.53,1.44-1.1,2.87-1.61,4.32-.45,1.27-.84,2.57-1.27,3.85-.07.23-.17.45-.24.68-.55,1.82-1.15,3.62-1.64,5.46-.62,2.32-1.22,4.64-1.69,7s-.84,5-1.23,7.5a57,57,0,0,0-.73,10.41c0,1.37.17,2.73.32,4.09,0-.93,0-1.86,0-2.78.13-2.53.29-5.07.46-7.6a29,29,0,0,1,.28-3.07c.49-2.82,1-5.64,1.59-8.43.53-2.44,1.18-4.86,1.82-7.27.43-1.64.92-3.26,1.43-4.87.41-1.29.88-2.56,1.37-3.82.66-1.72,1.36-3.43,2-5.15a5,5,0,0,0,.16-.66C29,101.68,28.83,101.75,28.6,102.41Zm18.54,42.21a65,65,0,0,0-.57-11.86c-.36-3-.93-6-1.58-9-.56-2.57-1.27-5.12-2-7.67q-.63-2.35-1.38-4.67c-.43-1.33-.93-2.64-1.42-4s-.92-2.46-1.39-3.69c-.1-.27-.23-.53-.34-.78-.75.15-.8.19-.57.81.5,1.29,1,2.56,1.54,3.85.41,1.07.81,2.15,1.17,3.23.64,1.92,1.27,3.83,1.86,5.77.41,1.36.73,2.74,1.09,4.12.17.66.37,1.32.52,2,.41,1.8.92,3.6,1.18,5.42.42,2.95,1.06,5.86,1.24,8.86a81.47,81.47,0,0,1,.27,9.71h.14C47,146.07,47.09,145.35,47.14,144.62Zm12.12-100a4.1,4.1,0,0,0-1.51.73c-.71.4-1.41.84-2.11,1.26l-2.55,1.56c-.74.46-1.49.91-2.22,1.38s-1.62,1.09-2.43,1.64A10.31,10.31,0,0,0,47,52.29c1.14-.15,2.33.35,3.34-.67a8.88,8.88,0,0,1,2.09-1.19.62.62,0,0,0,.27-.25H51.52l0-.17c.65-.12,1.29-.29,1.94-.36A7.36,7.36,0,0,0,57,48.3,32.07,32.07,0,0,1,60.61,46a25.94,25.94,0,0,1,3.16-1.22l0-.1C62.28,44.63,60.76,44.57,59.26,44.66Zm-30-2.9a2.35,2.35,0,0,0-.89.68c-.49.52-.95,1.07-1.39,1.63s-.93,1.23-1.39,1.84l-2.83,3.83a1.46,1.46,0,0,0-.12.22l1.67.11c.34,0,.59-.43.5-.77l1.23-.67L25.42,48l.06-.09a.81.81,0,0,1,.19.08.87.87,0,0,0,1.2.05,5.83,5.83,0,0,1,1.6-.52,10.65,10.65,0,0,0-1.33-3.22c.89-.79,2.21-.13,3.23.81l2.54-4.39C31.68,41.1,30.48,41.39,29.3,41.76Zm6.33-19.07,0-.07,7.51-5.28,0-.08c-.57.21-1.16.39-1.72.63-1.16.51-2.31,1-3.47,1.57-.61.28-1.2.6-1.82.83s-1.1,1-1.61,1.48c-.83.83-1.56,1.76-2.33,2.65s-1.63,1.88-2.43,2.84a6.47,6.47,0,0,0-.48.76,4.71,4.71,0,0,0,2.89-1.22,12.57,12.57,0,0,1,1.5-1,2.45,2.45,0,0,0,.5-.42c.8-1,1.58-2,2.43-3ZM23.4,51.93a.75.75,0,0,0-.37.25c-.7,1.13-1.38,2.27-2.09,3.4-.42.67-.89,1.29-1.32,2-.59.92-1.16,1.85-1.74,2.77a7.93,7.93,0,0,0-.54.92.45.45,0,0,0,.13.41,7.52,7.52,0,0,0,.77.49c1.24-1.73,2.45-3.49,3.74-5.19a28.3,28.3,0,0,1,4.45-4.64A4,4,0,0,0,23.4,51.93Zm57.66,50.93,3.28-.49v-.13a15.36,15.36,0,0,1-1.87-.77,5.2,5.2,0,0,0-2.18-.57c-.48,0-1,0-1.45,0l-5.58-.23h-.16s0,.08,0,.08c.9.33,1.79.69,2.71,1a4.2,4.2,0,0,0,1.23.12H81.8a2.31,2.31,0,0,1,.82.18l-5,.33,0,.16.5.19c1.38.52,2.77,1,4.14,1.58a6.9,6.9,0,0,0,2.48.64c1.78,0,3.55.11,5.34.09-2.23-.6-4.5-1-6.79-1.36h3.89A23.37,23.37,0,0,0,81.06,102.86ZM28.34,70.69a37.76,37.76,0,0,1,11.52-7.89c-.95-.59-1.72-1.32-2.86-1.2a1.17,1.17,0,0,0-.62.19c-.46.4-.87.85-1.31,1.27s-.87.82-1.32,1.22c-1.13,1-2.28,2-3.4,3.06-.91.83-1.79,1.7-2.7,2.57ZM94.17,111.2q-1.27-.84-2.59-1.59c-.85-.48-1.73-.9-2.59-1.35s-1.93-1-2.92-1.53-1.72-.77-2.57-1.15c-.23-.11-.45-.24-.69-.34-1.85-.78-3.7-1.58-5.56-2.32-1.29-.51-2.62-.94-3.93-1.4s-2.83-1-4.25-1.44c-.85-.28-1.71-.5-2.57-.75,0,0,0,.08,0,.09a6.58,6.58,0,0,0,3,1.61,34.89,34.89,0,0,1,4.22,1.37c1.1.38,2.2.79,3.29,1.2l2.17.83c1.1.43,2.21.84,3.3,1.3s2.23,1,3.34,1.5c.86.39,1.71.77,2.56,1.17.31.15.6.34.9.5,1.6.86,3.21,1.7,4.8,2.59,1,.55,1.93,1.16,2.88,1.76.35.22.66.51,1,.77l.15-.18C96.74,113,95.47,112.06,94.17,111.2ZM36.11,131.87l.18-.07,1.49,3.15c-.22-3.93-.32-7.87-1.81-11.68-.11,1.37-.29,2.64-.27,3.91a7.21,7.21,0,0,0,.59,1.95l.85,2.62-.22.08-1.34-3.37-.13,0c-.11,1.36-.21,2.71-.34,4.07a6.72,6.72,0,0,0,.13,2.7c.23.75.49,1.5.7,2.26a15.63,15.63,0,0,0,.42,1.52A33.62,33.62,0,0,0,35.7,133l.13,0,1,3.5A15.54,15.54,0,0,0,36.11,131.87Zm4.22-45.82c2.36-.11,4.72-.19,7.08-.25a8.44,8.44,0,0,1,1.65.14,1,1,0,0,0,1.12-.6c.34-.71.3-1.14-.16-1.54a1.74,1.74,0,0,0-1.81-.45c-1.67.48-3.38.8-5.08,1.17L40,85.18c-.19,0-.38.12-.56.18C39.57,85.89,39.8,86.08,40.33,86.05ZM15.85,50.17a1.06,1.06,0,0,0-.38.46c-.48,1-.93,2-1.43,3s-.92,1.63-1.34,2.47c-.34.67-.61,1.37-.92,2.09.31.2.64.43,1,.64s.48.15.59-.21a13.92,13.92,0,0,1,1.84-3.7c.37-.57.69-1.17,1.08-1.73.66-1,1.36-1.88,2-2.82l.23-.3A3.11,3.11,0,0,0,15.85,50.17ZM2.37,69.41l3.22,1.72.53-8.65-.19-.05A41.7,41.7,0,0,0,2.37,69.41ZM27.43,30.17c-1.05,1.59-2.33,3-3.46,4.56-.77,1-1.45,2.15-2.18,3.22-.27.4-.57.79-.86,1.19l.11.15.82-.33A3.62,3.62,0,0,0,24,36.79a5.51,5.51,0,0,1,.7-1l-.77.24,0-.06a1.84,1.84,0,0,1,.47-.37c.72-.25,1.07-.87,1.54-1.39s1.05-1,1.55-1.56a11.1,11.1,0,0,0,1-1.25c.6-.88,1.18-1.78,1.77-2.67l.17-.25C29.25,28.88,28.15,29.09,27.43,30.17Zm7.3,89A117.34,117.34,0,0,1,34,132.28a61.38,61.38,0,0,1-1.61,9.37c-.4,1.47-.71,3-1.09,4.44a18.07,18.07,0,0,0-.49,1.83c.19-.48.42-1,.57-1.45.56-1.81,1.18-3.62,1.63-5.46s.86-4,1.17-6c.35-2.25.69-4.52.83-6.79.2-3.13.22-6.27.32-9.41,0-.54,0-1.09,0-1.64l-.15,0A9.15,9.15,0,0,0,34.74,119.14Zm53.9-28.8a12.1,12.1,0,0,1,3.59-.83l0-.19-5.11.22.4-.24c-.85-.46-2-.34-4.59.51l2.54.53,4.55,1a1.76,1.76,0,0,0,.61,0l6.59-1.05a2.05,2.05,0,0,0,.24-.07A33,33,0,0,0,88.64,90.34Zm-45.12,2c0,.1.22.19.35.21l4.67.81a2.47,2.47,0,0,0,.76.07.94.94,0,0,0,.89-.74,1,1,0,0,0-.46-1.12l-.34-.26.55-.1a1.14,1.14,0,0,0-1-.52c-1.75.12-3.51.21-5.27.32a3.88,3.88,0,0,0-.45.08C43.31,91.56,43.39,92,43.52,92.34Zm16-13.84a5.16,5.16,0,0,0-1.12,0c-.51,0-.57.37-.7.68s-.4.38-.56.08c-.33-.62-.83-.51-1.37-.43q-3.37.53-6.74,1c-.79.12-.26.62-.29.94s.25.27.51.24l11.5-1.68.55-.07A16.28,16.28,0,0,0,59.53,78.51ZM45.29,72.15c.25.83.28.79,1.12.45,1.43-.57,2.9-1.06,4.35-1.58.7-.25,1.39-.5,2.09-.74.48-.16,1-.3,1.47-.45-.57-.83-.89-.93-2.1-.54-1.37.45-2.73.94-4.09,1.41l-3,1ZM17.9,47.83a3.06,3.06,0,0,0-.93-.36,4.62,4.62,0,0,1,3.08-2.61,7.14,7.14,0,0,0-1.3-2.38l-3.52,5.84.1.13a3,3,0,0,1,3,.51,3.44,3.44,0,0,0,.73.25l0-.1A15.62,15.62,0,0,0,17.9,47.83Zm39,39.8c-2.35,0-4.69-.08-7-.12-.17,0-.47.07-.49.15a3.11,3.11,0,0,0,0,.91s.2.11.31.11l8.49.05a1.23,1.23,0,0,0,.21-.05A1.51,1.51,0,0,0,56.89,87.63Zm-25.37-2-.07-.14-6.51.21,2.62,2.8A9.27,9.27,0,0,1,31.52,85.68ZM46.15,52.93a2.75,2.75,0,0,0-1.07.58c-.64.44-1.26.92-1.83,1.33l1.61,1.77,3.56-3.71A18.84,18.84,0,0,0,46.15,52.93Zm10.4,43.74c-1.37-.27-2.73-.57-4.1-.85-1-.2-1.95-.41-2.93-.57s-.87-.12-1,.77l8.94,1.77C57.33,97.23,57.16,96.79,56.55,96.67ZM38.3,59.53a15.67,15.67,0,0,1,1.76-.81c.16-.07.3-.17.55-.31l1.6.28a4.7,4.7,0,0,0-.35-2.88l-5.07,3.87A1.66,1.66,0,0,0,38.3,59.53ZM95.14,48.35c-1.6-1.36-7.2-2.16-9.46-1.32C88.77,47.89,92,47.93,95.14,48.35ZM106.8,66.47c-1.2-1.61-7-3.34-8.68-2.9A54.89,54.89,0,0,0,106.8,66.47ZM84.67,36.76a14.84,14.84,0,0,0-9.07,0A38.61,38.61,0,0,0,84.67,36.76ZM49.77,79.14l1-.16c.92-.16,1.84-.31,2.75-.48a.84.84,0,0,0,.43-.23c.27-.28.51-.6.77-.9-.23-.09-.4-.64-.86-.36l-.43-.68-1.71,1.82c-.15-.74-.11-1.42-.84-1.88C51.16,77.48,50.26,78.16,49.77,79.14Zm52.34,5A13.59,13.59,0,0,0,94.39,80,44.54,44.54,0,0,0,102.11,84.13ZM63,14.69c-1-.67-6.31.63-7.8,2.17A61,61,0,0,0,63,14.69Zm-30,91-1.53.07c.26.6,1,.42,1.43.82l-.45.63.38.12-.73.24A5.11,5.11,0,0,0,34,110.17l-.56-5.46-.2,0ZM21.53,42.37l1-3.11a3.06,3.06,0,0,0-.57.11c-1.13.43-2.21.93-2.57,2.18Zm26.83,26.3-.56.62-.27-.71h-.12l.06.78-.94.18-.43,1.19.61-.23c1-.36,2-.69,3-1.08a1.49,1.49,0,0,0,.53-.48c.25-.31.48-.65.74-1l-.82-.44-1.45,1.6ZM38.91,17.75A30.55,30.55,0,0,0,45.75,15,11.65,11.65,0,0,0,38.91,17.75ZM37.75,68.7a.5.5,0,0,0,0-.49c-.38-.53-.84-1-1.19-1.54-.25-.38-.43-.45-.81-.19-.84.57-.86.56-.35,1.38.18.29.4.55.6.83l.59.83A13,13,0,0,0,37.75,68.7Zm53.2,45.15c.15-1.39-3.61-5.2-5-5.53A53.38,53.38,0,0,0,90.94,113.85ZM41.37,75.56c.36-.12.38-.34.23-.63-.31-.6-.6-1.22-.93-1.81a.46.46,0,0,0-.4-.17,5.24,5.24,0,0,0-.95.4.32.32,0,0,0-.11.29c.33.8.68,1.59,1,2.39C40.7,75.82,41,75.67,41.37,75.56ZM99.06,39.76l0-.15c-.52,0-1,0-1.54.11a23.5,23.5,0,0,0-5.41,1.49A17.4,17.4,0,0,0,90,42.37a3.81,3.81,0,0,0-.58.52A44.2,44.2,0,0,1,99.06,39.76Zm-64,31-1.95-2.47a5.8,5.8,0,0,0-.73.51.46.46,0,0,0-.09.43c.5.81,1,1.59,1.57,2.4ZM26.62,58l-2.08-1.67a9.33,9.33,0,0,0-.84.93c-.06.09.06.4.19.51.54.51,1.11,1,1.72,1.5Zm8.52,51c.08-.59-.51-.77-.63-1.24a1.21,1.21,0,0,0,.38-.18.49.49,0,0,0,.11-.36.35.35,0,0,0-.22-.22c-.52-.15-.63-.35-.29-.75.69-.82.11-1.67.12-2.5a1,1,0,0,0-.57-.12c-.09,0-.21.27-.2.4.12,1.31.27,2.62.4,3.94.06.61.07,1.23.11,1.85,0,.14,0,.29.09.58A2.87,2.87,0,0,0,35.13,109ZM31,64.24a.48.48,0,0,0,.82,0l.07-.07c.71-.72.63-.75,0-1.42-.3-.32-.58-.67-.9-1a.55.55,0,0,0-.5-.09,8.4,8.4,0,0,0-.85.85ZM89.76,61A58.65,58.65,0,0,1,99,57.86,16.35,16.35,0,0,0,89.76,61ZM81.2,29.11c-1.68.08-7.07,3.76-8,6A44.17,44.17,0,0,1,81.2,29.11ZM55.49,94.63l-.27-.45L53.34,95l.1-1.39c-.77.54-1.38,1.59-2.25.35L50,94.77C51.89,95.36,53.69,95.72,55.49,94.63ZM103,76c-1.31-.79-8.36,0-9.85,1.46A39.08,39.08,0,0,1,103,76Zm-59.9,6.73c.07.3.24.38.53.29,1.25-.37,1.17,0,.86-1.43,0-.17-.1-.32-.16-.49-.28-.89-.28-.89-1.22-.74-.37.06-.39.08-.43.48ZM63.3,24.08a50.74,50.74,0,0,1,7.3-7A17.2,17.2,0,0,0,63.3,24.08Zm19.62,64a.82.82,0,0,0-.45,0l-3.41.82-.28.1c.94.2,1.77.43,2.61.53a3.45,3.45,0,0,0,1.15-.26l2-.51C83.94,88.48,83.44,88.26,82.92,88.07ZM43.54,87c0,.84,0,1.64,0,2.43,0,.08.21.23.32.23.41,0,.82-.06,1.28-.1L44.84,87ZM36.39,74.62a.51.51,0,0,0-.18.43c.28.75.6,1.49.93,2.23a.43.43,0,0,0,.39.14,10.79,10.79,0,0,0,1-.54l-1.37-2.64A4.82,4.82,0,0,0,36.39,74.62Zm-2.84-2.54c-.54-.84-1.14-1.75-1.72-2.67-.14-.21-.28-.32-.48-.11s-.69.24-.41.67c.62,1,1.27,1.89,1.9,2.83l.22,0ZM34,68.51a16.85,16.85,0,0,0,1.42,1.87c.47.54.57-.17.87-.31l-1.9-2.94C33.46,67.64,33.44,67.66,34,68.51Zm-9.64-7.69L22.12,59l-.72,1,2.12,2Zm2.78,3.88L29,67.07l.92-1.19L27.83,64.1l.12-.16ZM102.7,92.41c-1.39-1.07-8.22-1.31-9.68-.32A37.21,37.21,0,0,1,102.7,92.41Zm-45.89-81c-1.32.08-6.11,3.6-7,6A35.63,35.63,0,0,1,56.82,11.42ZM36.53,77.15c-.29-.67-.53-1.36-.83-2-.06-.13-.33-.3-.4-.26-.24.13-.76.13-.58.55.4,1,.89,1.91,1.36,2.85,0,.07.25.1.35.07A3.78,3.78,0,0,0,37,78C36.83,77.71,36.66,77.44,36.53,77.15Zm4,3.81a4.64,4.64,0,0,0-.8.19.46.46,0,0,0-.21.38c.09.73.21,1.46.33,2.19,0,.3.21.36.48.25l.92-.33Zm-1-4.26c.33-.07.37-.26.25-.53l-1.25-2.81-.8.35a6,6,0,0,0,1.39,3.15A2.88,2.88,0,0,1,39.54,76.69Zm-.09-8.62c-.44-.61-.89-1.2-1.3-1.81a5.21,5.21,0,0,1-.29-.65c-.27-.54-.33-.56-.84-.26l-.31.17a8.27,8.27,0,0,0,2.06,3ZM18.3,53.43c-.27-.18-.5-.4-.79,0s-.41.89-.09,1.13c.52.39,1.08.73,1.67,1.12l.77-1.22C19.28,54,18.78,53.75,18.3,53.43ZM31.23,65.26c-.39-.44-.75-.84-1.09-1.26s-.51-.73-.79-1.06a.85.85,0,0,0-.44-.24c-.19.23-.47.5-.46.75a1.52,1.52,0,0,0,.48.83c.5.53,1,1,1.57,1.52ZM29.56,71l1.77,2.38.13,0c.94-.64.92-.62.16-1.48-.44-.5-.81-1-1.23-1.6ZM22.31,58.27a8.32,8.32,0,0,0,2.61,2.27l.54-.64-2.39-2.25ZM26.63,65l-.76.59c.44.55.86,1.11,1.3,1.64.18.22.43.39.62.6.38.4.5.4.84-.06.06-.08.13-.15.19-.22Zm14.28,7.3,1.53,3.34.79-.43-1.38-3.27ZM23.2,62.81l.25-.28L21,60.3l-.6.74a8.21,8.21,0,0,0,2.54,2.13Zm-1.44,71.28a9.71,9.71,0,0,0,1.78,6.15A29.91,29.91,0,0,0,21.76,134.09ZM44.08,145.8a10.27,10.27,0,0,0,1.73-6.08A29.74,29.74,0,0,0,44.08,145.8Zm-2-65.44-1,.13c.08.52.13,1,.24,1.47a11.68,11.68,0,0,0,.45,1.47.53.53,0,0,0,.39.25,2,2,0,0,0,.59-.16Zm-9.46,56.3A27.59,27.59,0,0,0,29.41,142,9.58,9.58,0,0,0,32.61,136.66ZM25.76,55.18c-.3-.31-.52-.1-.76.06a.37.37,0,0,0-.06.65c.65.59,1.31,1.18,2,1.73.48.39.53.35.81-.23l.06-.14C27.1,56.53,26.42,55.86,25.76,55.18Zm5.32,5.67a7.15,7.15,0,0,0,2.09,2.48c.1.09.53-.21.8-.33l-2.24-2.67Zm-3.48,7.5c-.62-.68-1.2-1.32-1.79-1.95a.4.4,0,0,0-.38-.06,2.17,2.17,0,0,0-.52.56c0,.07.06.27.15.36.56.6,1.13,1.18,1.75,1.82ZM18,57.79c.36-.55.32-.59-.24-.89s-1.1-.69-1.7-1.07l-.3.37c-.39.49-.36.55.17.88s1.11.78,1.72,1.21C17.78,58.06,17.88,57.93,18,57.79ZM38,82a4.34,4.34,0,0,0,.91,2.41c.09.12.46,0,.71.06l-.78-3.27C38,81.23,38,81.26,38,82ZM22.27,63.41,20.05,61.6l-.61.87,2.2,1.9Zm23.9,19.48-.73-3.28-.79.08a7.81,7.81,0,0,0,.75,3.37ZM13,52.76l-2-.89s-.09,0-.1.07c-.55,1-.55,1,.38,1.48l1.17.67Zm23.2-35.64A44.58,44.58,0,0,1,40.61,10,14.32,14.32,0,0,0,36.25,17.12ZM46.45,87c0-.41-.32-.27-.53-.3s-.46,0-.45.31c0,.75,0,1.51.06,2.26s.16.76.92.57C46.45,88.91,46.45,88,46.45,87Zm39.42,18.74,8.25,1.74A16.85,16.85,0,0,0,85.87,105.77ZM55.55,85.52a2.77,2.77,0,0,1-1.63,1.16l-.17-1.23-.15-.06-1,1.23c-.24.08-.58-.12-.86-.42s-.44-.28-.62.07a7,7,0,0,1-.43.62,26.47,26.47,0,0,1,2.75,0A2.85,2.85,0,0,0,55.82,86ZM9.2,55.22a.46.46,0,0,0,.17.41c.57.34,1.15.66,1.74,1,.1,0,.33-.06.42-.17s.09-.33.16-.48c.19-.37,0-.52-.32-.64-.59-.22-1.17-.47-1.8-.73A3.5,3.5,0,0,0,9.2,55.22Zm7.35-.79-.4.72c.3.68,1,.86,1.51,1.21.11.08.25.12.36.19.75.46.76.46,1.07-.32Zm.68,5.15.41-.76-1.8-1.19c-.07,0-.15-.08-.22-.14C15,57,15,57,14.57,57.9Zm27.43,36.6L44.92,94l-.85-.16c-.31-.07-.45,0-.47.35,0,.59-.1,1.18-.16,1.87ZM12.53,54.73c0-.07-.15-.25-.26-.32q-.81-.48-1.64-.92c-.22-.11-.53-.31-.67-.23a.82.82,0,0,0-.27.66c0,.15.24.35.41.44.5.27,1,.49,1.53.73a4.07,4.07,0,0,0,.57.15A2.25,2.25,0,0,0,12.53,54.73ZM42.71,89.94c0,.05.18.1.21.08a.34.34,0,0,0,.13-.24c0-.88,0-1.77-.08-2.65a.42.42,0,0,0-.29-.29c-.28,0-.67-.15-.75.3a4.23,4.23,0,0,0,0,.75C41.73,88.72,42.34,89.29,42.71,89.94ZM17.87,52.51l1.74,1.21c.08.06.18.1.27.15.68.41.72.4,1-.33L18.33,51.8Zm-1.13,7.27-2.23-1.32a1.42,1.42,0,0,1-.16.29c-.33.36-.24.62.15.86l1.78,1.08Zm-5.8-8.55c.77.39,1.46.8,2.19,1.1.53.22.55.16.81-.45l-2.52-1.34ZM9,56.85c.7.36,1.41.68,2.17,1l.36-.69L8.88,55.88C8.41,56.46,8.41,56.57,9,56.85Zm48.7,12v-.11a11.92,11.92,0,0,0-1.86-.49c-.6-.06-.82.21-.91.82,0,.18-.06.36-.1.59ZM46.36,94l-.88-.21c-.11.89-.24,1.72-.29,2.56,0,.12.36.26.59.42ZM17.53,139.44l2.36-6.39A13,13,0,0,0,17.53,139.44ZM35,78.35c.06.08.24.06.36.09s.07-.26,0-.35c-.39-.79-.79-1.58-1.23-2.43l-.88.48C33.87,76.93,34.42,77.65,35,78.35Zm4.58-11c.41-.2.49-.41.33-.71-.29-.56-.56-1.13-.86-1.69a.36.36,0,0,0-.32-.1,4.09,4.09,0,0,0-.62.3Zm10.27,73.33a12,12,0,0,0-2.38-6.35A39.38,39.38,0,0,1,49.83,140.67ZM32.17,102.55a1.12,1.12,0,0,0-1-.38c-.33.08-.28.54-.08.84s.63.86,1,1.33A1.66,1.66,0,0,0,32.17,102.55ZM44,74.22,43.45,72c-.76-.13-.93,0-.71.7a19,19,0,0,0,.76,1.78Zm-9.84-12.8a14.67,14.67,0,0,0-.92-1.47.38.38,0,0,0-.35-.07,3.91,3.91,0,0,0-.59.37l1.6,1.87.27-.06C34.2,61.85,34.28,61.59,34.19,61.42Zm-7.95-6.83a.42.42,0,0,0,0,.4c.49.49,1,.94,1.53,1.42.37-.21.48-.39.19-.72s-.78-1-1.18-1.47A2.37,2.37,0,0,0,26.24,54.58Zm20.28,27.6c.45.09.66-.05.62-.52s0-.82-.08-1.23c-.06-.7-.13-.75-.93-.51ZM47,89.07c0,.11.14.29.19.29s.33-.11.34-.2a15.14,15.14,0,0,0,.22-1.83c0-.1-.3-.25-.48-.29s-.29.14-.32.26a2.8,2.8,0,0,0,0,.66h0C46.93,88.33,46.95,88.7,47,89.07ZM34.07,112.27c-.11-.25-.42-.42-.67-.64.06-.39,1-.41.53-1l-1.22.27,1.06,2.27A.65.65,0,0,0,34.07,112.27ZM19,51.5c.35.66,1,.88,1.61,1.24a.31.31,0,0,0,.29-.1c.05-.09.06-.29,0-.35-.47-.44-1-.87-1.47-1.32Zm-5-.7-1.63-1.18-.5.64,1.82,1ZM54.16,95.63l2.46.59C56,95,55.2,94.8,54.16,95.63Zm-7.55.66c.14-.09.35-.16.4-.28a6.56,6.56,0,0,0,.34-1.22c0-.11-.15-.36-.25-.37s-.42.1-.45.21A12,12,0,0,0,46.39,96Zm12.95,1.15a.79.79,0,0,0-1,0l-.37.5,2.15.45C60,98,59.79,97.74,59.55,97.44ZM25.73,50.13c-.21-.17-.63-.07-1-.09l-.06.19,1.75,1.17.14-.17A5.64,5.64,0,0,0,25.73,50.13ZM60.86,88.76l-.26-.31c-.21-.27-.36-.76-.77-.61-.21.08-.27.55-.43.92ZM36,102.78c-.15.07-.41.11-.44.21-.16.57.15,1,1,1.07ZM52.36,68.57c-.59-.73-1-.58-1.47.54Zm3.55,9.66,0-.13c-.21-.15-.46-.46-.62-.42s-.44.36-.66.56l.09.17ZM41.38,88l.13,0c0-.24,0-.56-.09-.71s-.45-.07-.68-.1l-.08.19ZM39.85,61.19c0-.4-.35-.81-1.22-1.08l-.11.1ZM56.71,86.9c-.51-.64-.54-.64-1.14,0ZM35.14,104.5l.05,1.05.79-.64Z"/><path class="cls-1" d="M58.51,67.46c-1.69,0-3.1-.86-4.63-1.35-1.15-.37-2.28-.82-3.41-1.24l-.1.2c.6.42,1.17.87,1.79,1.25s1.36,1.15,1.35,1.62c-2.27-1.14-5-1.49-6.77-3.58.51,1.19,2,1.64,2.23,3.06l-1.54-1.32a3.27,3.27,0,0,0-1.74-.7l1,2.78-.23.14a8.51,8.51,0,0,1-.93-1.21,2.75,2.75,0,0,0-2.15-1.69,3.87,3.87,0,0,1-.53-.14l0-.13c.54-.3,1.1-.58,1.63-.89,1.48-.86,3-1.74,4.44-2.6.86-.49,1.77-.91,2.62-1.42a3.44,3.44,0,0,1,3.05-.59,1.75,1.75,0,0,0,.36,0,65,65,0,0,1,8.61,1.71c.91.24,1.82.47,2.73.7A31.82,31.82,0,0,0,54.12,59a3.25,3.25,0,0,1,.5-.27c1.49-.75,3-1.51,4.46-2.23,1.13-.54,2.29-1,3.43-1.53s2.25-1,3.39-1.52a4.64,4.64,0,0,1,1.93-.66,48.1,48.1,0,0,1,5,.8,18.09,18.09,0,0,1,2,.64l0-.14a17.43,17.43,0,0,0-5.53-2,7.57,7.57,0,0,1,1.18-.59c1.48-.56,3-1.12,4.45-1.63s3.23-1.09,4.85-1.6a4.19,4.19,0,0,1,1.58-.31A114.57,114.57,0,0,1,94,49.57c.31.07.6.18.9.27-1.33,0-2.63-.12-3.93-.17s-2.59-.06-3.89,0-2.62.07-3.93.16-2.57.25-3.85.38v.16l1.38.06c3.14.13,6.28.24,9.42.4a15.69,15.69,0,0,1,1.89.32l0,.17A74.33,74.33,0,0,0,81,52a27.89,27.89,0,0,1,7.24,1.55c-.69,0-1.36-.17-2-.23s-1.41-.08-2.12-.1-1.33,0-2,0c1.94.76,4,.91,6,1.92a25.15,25.15,0,0,1-8.82,1.62v.17l3.47.41c-2.83.74-5.67.47-8.53.33l2.3,1.07c-.58.39-1.08.74-1.6,1.06-.74.46-1.48.92-2.26,1.33a27.67,27.67,0,0,1-3,1.41c-1.2.45-2.49.71-3.69,1.17a11.39,11.39,0,0,1-5,.78c-1.43-.11-2.85-.24-4.28-.36-.53,0-1.06-.06-1.69-.09,1.2.5,2.27,1,3.36,1.38s2.2.84,3.36,1.28A5.38,5.38,0,0,1,58.51,67.46Zm3.23-9.57c.48.12.95.3,1.43.44.93.29,1.86.59,2.8.85,1.47.41,2.85-.13,4.25-.48-2.39.49-4.56-.43-6.77-1a9.78,9.78,0,0,0-3.39-.57c-.29,0-.57.08-.86.12v.08C60,57.5,60.9,57.68,61.74,57.88Z"/><path class="cls-1" d="M83.6,71.69l3.07,1.08c-2.78.22-5.36-.8-8.12-1.23l1.94,1.36a3.92,3.92,0,0,1-.51.34,27.78,27.78,0,0,1-6.74,2.07c-2,.32-4,.45-6,.63a7.72,7.72,0,0,1-1.34-.09c-1.94-.17-3.73-1-5.6-1.41l-.7-.17-.76-.17,6,3.75a6,6,0,0,1-5.13-.59c-1.34-.72-2.6-1.6-3.91-2.38-.44-.26-.91-.46-1.37-.68a1.09,1.09,0,0,0,.28.54c.57.61,1.17,1.21,1.72,1.84a3.43,3.43,0,0,1,.4.83A9.85,9.85,0,0,1,55,76.45a13.53,13.53,0,0,1-3.37-2.58c-.23-.29-.44-.6-.7-1,0,.75.58,1.13.9,1.64a2.27,2.27,0,0,1,.56,1.68,4.8,4.8,0,0,0-2.93-2.64,5.09,5.09,0,0,1,.57,3,1.92,1.92,0,0,1-.84-1.28,2.75,2.75,0,0,0-1.39-1.83L47,73c1.64-.57,3.18-1.14,4.74-1.65,1.83-.6,3.68-1.15,5.52-1.71a1.75,1.75,0,0,1,.84-.16c.78.2,1.54.47,2.31.74s1.55.57,2.32.86,1.65.59,2.45.95c1.18.52,2.33,1.1,3.5,1.65l1.29.58a30.71,30.71,0,0,0-10.89-5.09c1.57-.5,3.13-.91,4.69-1.33.57-.15,1.12-.34,1.7-.47q3.63-.82,7.27-1.61a1.42,1.42,0,0,1,.66,0,25,25,0,0,1,2.55.82c1.13.46,2.22,1,3.32,1.52l.88.38a18.86,18.86,0,0,0-5.08-3,1.71,1.71,0,0,1,.32-.15c1.23-.25,2.46-.53,3.71-.73,2.1-.34,4.2-.62,6.3-.92a4.63,4.63,0,0,1,2.5.16,18.73,18.73,0,0,0,1.91.62c1.45.42,2.93.77,4.37,1.24,1.62.53,3.2,1.16,4.79,1.76a10.56,10.56,0,0,1,1,.48,78,78,0,0,0-14.74-2.39c3.89,1.06,7.91,1.6,11.68,3.07-3.44-.37-6.84-1-10.3-1.16a31.09,31.09,0,0,1,6,2.65c-.65-.12-1.26-.34-1.88-.51s-1.27-.29-1.91-.43l-1.86-.4,0,.15a28.53,28.53,0,0,1,5.56,2.76,2.63,2.63,0,0,1-.82.2,29.81,29.81,0,0,1-7.93-.26ZM69.46,70.23a13.56,13.56,0,0,0-4.25-1.68c-.31,0-.63-.05-.94-.08l0,.13a8.19,8.19,0,0,1,.86.28c.89.4,1.78.79,2.66,1.23.69.34,1.36.73,2,1.12a6.83,6.83,0,0,0,4.07.64c.24,0,.47-.06.71-.08A12.4,12.4,0,0,1,69.46,70.23Z"/><path class="cls-1" d="M61.55,87.67c-1-.8-1.9-1.73-2.87-2.58-.53-.46-1.11-.88-1.66-1.31l-.14.12c.34.54.68,1.09,1,1.61.71,1,.79,1.24.6,1.71-1.66-1.58-3.63-2.85-4.61-5.06a3.62,3.62,0,0,0,.28,1c.17.38.39.73.55,1.1a1.29,1.29,0,0,1-.07,1.23,4.6,4.6,0,0,0-2-3l-.23,2.85-.22.05c-.4-1.45-.31-3.17-2-3.94a1.3,1.3,0,0,1,.44-.15c2.7-.36,5.4-.74,8.11-1.06,1.16-.13,2.34-.67,3.49.12.63.43,1.36.73,2,1.12s1.61,1,2.4,1.49q1.76,1.13,3.5,2.3c.55.37,1.07.78,1.6,1.17a26.7,26.7,0,0,0-9.37-6.58,1.22,1.22,0,0,1,.48-.14L76,79a1.47,1.47,0,0,1,.65.1A20.5,20.5,0,0,1,81.53,82c.4.33.82.65,1.23,1a17,17,0,0,0-4.41-4,8.34,8.34,0,0,1,1.59-.14c2.88.09,5.76.19,8.65.29a5.39,5.39,0,0,1,2.53.61c.91.51,1.87.95,2.8,1.42l3.29,1.71c.8.42,1.61.84,2.38,1.31s1.25.85,1.87,1.28a77.25,77.25,0,0,0-13.68-4.74c3.53,1.63,7.27,2.82,10.58,4.9l-9.61-3-.07.18a25.1,25.1,0,0,1,5.67,3.67A33.67,33.67,0,0,0,89,84.2a33.47,33.47,0,0,1,4.43,3.52,21.88,21.88,0,0,1-8.3-1.57l-.07.12,2.7,1.57a30.88,30.88,0,0,1-7.42-2.57L82.07,87a31.78,31.78,0,0,1-3.88.72c-2.12.14-4.25,0-6.37.11a15.46,15.46,0,0,1-7.9-2.2c-.81-.42-1.65-.78-2.48-1.16l0,.07,4.69,4.36A5.59,5.59,0,0,1,61.55,87.67Zm6.54-7.16c.68.48,1.35,1,2,1.49a22,22,0,0,0,2.63,2,6.18,6.18,0,0,0,3.71.89c-.77-.28-1.52-.51-2.23-.84a9.39,9.39,0,0,1-1.52-1c-.68-.49-1.34-1-2-1.55a6.41,6.41,0,0,0-3.34-1.33A3.35,3.35,0,0,1,68.09,80.51Z"/><path class="cls-1" d="M79.35,97.89l1.21,1.7-.21.06-1.29.1a32.68,32.68,0,0,1-10-1.27,10.63,10.63,0,0,1-2-.62,22,22,0,0,1-2.46-1.47c-.8-.53-1.55-1.12-2.34-1.66-.43-.29-.9-.54-1.33-.8l4,5.12a7.7,7.7,0,0,1-.81-.07,7.39,7.39,0,0,1-4.42-3L57.1,92.77a1.92,1.92,0,0,0-.38-.23c.33,1.31,1.34,2.29,1.07,3.61l-.9-1a12,12,0,0,1-1-1.13,11,11,0,0,1-1.86-3.59,4.65,4.65,0,0,0,.13,1.16c.12.55.26,1.09.34,1.65,0,.17-.11.36-.18.55h-.18a3.7,3.7,0,0,0-1.36-3l-.74,2.57-.19,0a13,13,0,0,1-.08-1.37,2.85,2.85,0,0,0-.62-2,3.55,3.55,0,0,0-.7-.53c.18-.15.21-.18.24-.18,3.5.1,7,.19,10.51.32a1.74,1.74,0,0,1,.89.36c.55.4,1.06.86,1.58,1.3l4,3.43c.36.31.71.63,1,1s.9,1,1.37,1.51a3.39,3.39,0,0,0,.55.38,28.09,28.09,0,0,0-7.81-7.66.89.89,0,0,1,.37,0c1.06.11,2.11.26,3.17.32.72,0,1.45-.13,2.16-.06,2.15.21,4.29.47,6.43.73a3.59,3.59,0,0,1,1.5.32,19.65,19.65,0,0,1,4.67,4.06,5.37,5.37,0,0,0,.63.58,16.83,16.83,0,0,0-3.73-4.47c1.12.14,2.09.22,3.05.39q3.16.57,6.3,1.23a8,8,0,0,1,2.17.64,24.61,24.61,0,0,1,2.76,1.86c1.09.79,2.16,1.62,3.22,2.45s2.12,1.68,3.16,2.55a7,7,0,0,1,.72.8c-1.36-.79-2.68-1.64-4-2.44s-2.67-1.6-4.05-2.32-2.8-1.34-4.2-2l-.07.14c3.12,2.13,6.58,3.76,9.38,6.33l-8.79-4.41-.11.18a22.24,22.24,0,0,1,4.69,4.24,27.72,27.72,0,0,0-4.56-2.83,36.13,36.13,0,0,1,3.75,4,21,21,0,0,1-7.76-2.72,11,11,0,0,0,2.45,2.08C83.71,100.69,81.61,99.17,79.35,97.89ZM69.6,92.57c.32.32.6.69.91,1s.76.87,1.16,1.28a5.87,5.87,0,0,0,3.77,1.68,3.56,3.56,0,0,1-.61-.27c-.75-.51-1.52-1-2.23-1.58a19.4,19.4,0,0,1-1.49-1.4c-.37-.36-.73-.72-1.07-1.1a7,7,0,0,0-2.13-1.48s-.1,0-.23,0C68.36,91.38,69,92,69.6,92.57Z"/><path class="cls-1" d="M73.49,102.85l6,2.3c.48.18,1,.38,1.45.53a7,7,0,0,1,3,2c.55.58,1.12,1.14,1.68,1.71s.83.9,1.24,1.35.8.87,1.18,1.33c.64.78,1.27,1.58,1.9,2.37-1.58-1.29-3.08-2.64-4.64-3.92A31.86,31.86,0,0,0,80.39,107c2.36,2.29,5,4.23,7.08,6.85l-6.92-5.13,0,.07L84,113.16l-.15.13A23.91,23.91,0,0,0,80.21,110l2.71,4-.16.16a21.87,21.87,0,0,1-6.1-3.52l-.12.14,1.66,1.77a24.42,24.42,0,0,1-5.23-4l.76,1.64a3.44,3.44,0,0,1-.57,0c-1.69-.34-3.4-.61-5-1.08a33.54,33.54,0,0,1-3.64-1.45,17.23,17.23,0,0,1-1.6-.71,7.85,7.85,0,0,1-1.32-.88c-.49-.41-.93-.9-1.39-1.35l-1.47-1.41-.86-.8,0,.07,2.43,4.62h0l-.15,0a5.11,5.11,0,0,1-3.16-2.32c-.5-.88-.94-1.79-1.44-2.67-.29-.51-.64-1-1-1.49-.17,1,.6,2,.09,3.13-.8-1.86-2.12-3.35-2.22-5.38-.17.81.25,1.68-.29,2.44a3.07,3.07,0,0,0-.82-2.48l-1.07,1.88-.16,0c.06-1.19.69-2.45-.5-3.47,1.41.19,2.72.37,4,.63,1.49.3,2.94.76,4.44,1a4.24,4.24,0,0,1,2.44,1.72c.51.55,1,1.14,1.43,1.72s1.07,1.33,1.58,2,1.21,1.66,1.81,2.49l.12-.07A20,20,0,0,0,63,102.43c-.92-1.18-2-2.27-2.94-3.4a1.22,1.22,0,0,1,.24,0c1.37.35,2.74.67,4.1,1.06,2,.58,4.06,1.19,6.09,1.81a3.25,3.25,0,0,1,1.31.56,32.3,32.3,0,0,1,2.35,2.62c.46.55.83,1.18,1.24,1.77l.17-.1-2.23-3.9A.38.38,0,0,1,73.49,102.85Zm-7,1.49a5.85,5.85,0,0,0,3.34,2.55,11.67,11.67,0,0,1-1.25-1.06c-.54-.6-1-1.27-1.51-1.91-.7-.9-1.39-1.81-2.1-2.7a2.21,2.21,0,0,0-.57-.37C65.06,102,65.72,103.22,66.45,104.34Z"/><path class="cls-1" d="M24.85,134.28c.09,1.18.24,2.35.37,3.52l-.14,0a79.76,79.76,0,0,1-1.68-7.95,28,28,0,0,0,.16,3.29c.11,1.11.22,2.22.4,3.32s.43,2.14.65,3.2l-.12,0c-.22-.55-.48-1.09-.64-1.66-.53-1.83-1-3.67-1.53-5.49a6.09,6.09,0,0,1-.2-3.18c.34-1.43.56-2.89.86-4.34.17-.83.38-1.64.57-2.47A13.11,13.11,0,0,0,25.46,126c-.34-.93-.74-1.83-1-2.77a5.41,5.41,0,0,1-.49-2.22,27.33,27.33,0,0,1,1-4c.54-1.82,1.14-3.62,1.74-5.52.3,1,.55,1.82.85,2.67a26.36,26.36,0,0,0,1,2.52c.38.79.86,1.54,1.29,2.31-.27-.9-.69-1.72-1-2.59-.48-1.32-.82-2.69-1.35-4a3.43,3.43,0,0,1,.08-3.35.77.77,0,0,0,0-.15c.5-1.4,1-2.8,1.52-4.2.2-.55.43-1.08.65-1.63.3,1.33,1.6,1.45,2.52,2l-.09.17L30.24,105a2.57,2.57,0,0,0,1.61,1.81l-.1.15-1.23-.55,2.2,3.61c-1.07-.29-1.44-1.26-2.33-1.78a2.66,2.66,0,0,0,.12.5c.42.77.87,1.52,1.28,2.29a14.82,14.82,0,0,1,1,2.08,3.17,3.17,0,0,1-.16,2.41l-2.18-3.64-.17.07c.15.65.32,1.29.45,1.94a11.72,11.72,0,0,1,.54,3.17,24.89,24.89,0,0,1-1.45,7c-.11.27-.17.56-.29.82-.24.52-.51,1-.79,1.59l-.84-1.2c.24,1.79.79,3.5.55,5.38L27.85,129l-.17,0a18.11,18.11,0,0,1-.2,5.67c-.87-1-1.14-2.35-1.89-3.46l.78,3.75a23.19,23.19,0,0,1-1.71-4.33C24.73,131.88,24.76,133.08,24.85,134.28Zm2.93-15.47c-.24-.54-.59-1-.84-1.57a19.74,19.74,0,0,0-.91-2,7.32,7.32,0,0,0,.24,1.3c.33.88.77,1.71,1.08,2.59s.55,1.82.81,2.73A4.46,4.46,0,0,0,27.78,118.81Z"/><path class="cls-1" d="M36.9,109.59c-.75.39-1.05,1.37-2,1.54.8-1.47,1.36-3.1,2.89-4.06a7,7,0,0,0-1.08.63c-.75.51-.74.51-1.1.43,1.22-.92,1.22-.92,1.54-1.82l-1.87.19-.06-.18c.86-.56,2.09-.68,2.37-2,.45,1,.85,1.87,1.19,2.79.51,1.36,1,2.74,1.47,4.11a1.6,1.6,0,0,1,.07,1.23c-.21.52-.32,1.08-.51,1.61-.41,1.21-.82,2.43-1.27,3.63-.33.87-.72,1.71-1.08,2.57a21.85,21.85,0,0,0,3.22-7.41,23,23,0,0,1,.94,2.54c.5,1.73,1,3.46,1.43,5.2a4.29,4.29,0,0,1,.4,2.4c-.39,1.24-.87,2.45-1.33,3.66a4.26,4.26,0,0,1-.29.53,10,10,0,0,0,2-3.35,2.58,2.58,0,0,1,.21.61c.39,1.86.81,3.72,1.16,5.59a6.27,6.27,0,0,1,.17,2.43c-.57,2.48-1.3,4.94-2,7.39a7.74,7.74,0,0,1-.52,1.13,58.69,58.69,0,0,0,1.2-10.21,67.76,67.76,0,0,1-1.84,8.23l.61-6.95h-.09l-1.66,4.21-.11,0,.87-3.78-.16,0-1.61,3.47-.21-.05c-.09-1-.21-2-.25-2.95s0-1.95,0-2.9l-.66,2a19.86,19.86,0,0,1,.62-5.57l-1,1.39c-.55-1.46-1.14-2.77-1.52-4.14a33,33,0,0,1-.82-4.24,9,9,0,0,1,0-2.45,24.37,24.37,0,0,1,.65-2.48c.1-.43.14-.87.21-1.3l-.12,0-2.18,3.64a3.58,3.58,0,0,1,0-2.82c.48-1,1-2,1.56-3l.7-1.32Zm4.28,7.06c-.6,1.34-1.22,2.67-1.8,4a4,4,0,0,0-.11,2.51c.16-.64.29-1.3.5-1.93s.48-1.13.69-1.7c.29-.8.57-1.61.83-2.42a2.37,2.37,0,0,0,0-.57C41.23,116.61,41.19,116.62,41.18,116.64Z"/><path class="cls-1" d="M77.14,43.58,72.86,48l.05.1c.81-.29,1.62-.59,2.43-.86L80,45.75a2.14,2.14,0,0,0,.7-.31c.87-.72,1.7-1.47,2.56-2.19.48-.41,1-.77,1.48-1.18S86,41,86.57,40.4a46.05,46.05,0,0,0-8,4.93l-.13-.16,4.6-4L83,41.1c-1.12.69-2.27,1.32-3.34,2.08s-2.08,1.67-3.15,2.49A48,48,0,0,1,80,41.17a54.75,54.75,0,0,0-6.31,3.34c-2,1.32-4,2.59-6.07,3.91.46-.72.87-1.48,1.39-2.15s1.17-1.27,1.74-1.94a31.28,31.28,0,0,0-5.69,2.24c-1.79,1-3.56,1.94-5.41,2.89.39-.45.75-.93,1.17-1.35s.92-.8,1.35-1.24a17.7,17.7,0,0,0-5,3.38,38.87,38.87,0,0,0-3.92,4.71l-.16-.09,2.19-4a22.46,22.46,0,0,0-10.79,8.67,5,5,0,0,0-1.36-3.15c.22,1.61.69,3.22-.24,4.7A8.17,8.17,0,0,0,42,59.95a1.72,1.72,0,0,0-1.55-.26c1.8.71,1.08,2,1,3.27L43,62c.56-.33,1.11-.68,1.69-1a1.43,1.43,0,0,0,.68-1,5.17,5.17,0,0,1,1.83-2.43l-1.4,2.61.12.08a18.82,18.82,0,0,1,2.36-1.2c.89-.31.94-1.23,1.52-1.75s1.35-1.33,2-2l.13.11-1.63,2.32.07.09a3.82,3.82,0,0,0,.45-.17l3.79-2c1.47-.77,2.93-1.58,4.43-2.31,1.25-.61,2.54-1.13,3.83-1.66,1.8-.74,3.6-1.47,5.41-2.17.94-.37,1.92-.66,2.87-1a1.13,1.13,0,0,0,.42-.27c.74-.77,1.42-1.62,2.22-2.32A11.84,11.84,0,0,1,77.14,43.58Z"/><path class="cls-1" d="M67,34.91l-3.44,4.56.07.08L67,37.81a17.12,17.12,0,0,1,2.34-1.17,5.6,5.6,0,0,0,2.53-1.9c.93-1.09,2-2.11,2.94-3.16.34-.36.67-.72,1-1.11a42.72,42.72,0,0,0-7.12,5.7,32.45,32.45,0,0,1,3.7-4.4,17.22,17.22,0,0,0-3,2.37c-.92.9-1.79,1.84-2.79,2.71l3.18-4.94a85.46,85.46,0,0,0-11,8.59,15.47,15.47,0,0,1,2.54-4.29,42.1,42.1,0,0,0-10.17,6.53,14,14,0,0,1,1-1.58c.42-.49.95-.9,1.36-1.41A16.55,16.55,0,0,0,49,43.65a33.39,33.39,0,0,0-3.28,5.06l-.2-.1,1.68-4c-2.31.46-7.7,5.92-9.33,9.47-.35-1-.55-2.13-1.57-2.78.36,1.52,1,3,.22,4.52a10.45,10.45,0,0,0-1-1,1.26,1.26,0,0,0-1.5,0l.29.1c.83.21,1,.38,1,1.25,0,.51,0,1,0,1.59.44-.32.87-.62,1.28-.93s1-.83,1.52-1.21a1.67,1.67,0,0,0,.69-1.16,6,6,0,0,1,1.54-2.67l-1.13,2.8.13.08.79-.54A9.7,9.7,0,0,0,41.65,53a10.81,10.81,0,0,0,1-1.58,7.38,7.38,0,0,1,2-2.24l-1.37,2.49.12.07,3.44-2.39c1.15-.81,2.29-1.63,3.44-2.43.48-.33,1-.64,1.48-.93l3.79-2.19c1.41-.81,2.83-1.62,4.25-2.41.75-.41,1.53-.77,2.29-1.17a1,1,0,0,0,.3-.26c1.16-1.41,2.31-2.83,3.48-4.22a10.1,10.1,0,0,1,1.07-1Z"/><path class="cls-1" d="M54.5,29.91c.14-.08.29-.16.42-.26l2.53-1.76,2.21-1.59a9.88,9.88,0,0,0,1.63-1.21,20.68,20.68,0,0,0,1.39-2c.78-1.1,1.58-2.18,2.36-3.27a.32.32,0,0,0,0-.28A43.63,43.63,0,0,0,58.88,26,30.34,30.34,0,0,1,62.23,21,25.94,25.94,0,0,0,57.06,27L56.92,27l2.55-5.36-.06-.09c-1.68,1.62-3.41,3.19-5,4.87s-3.16,3.49-4.74,5.25A21,21,0,0,1,51.56,27c-1.07.77-2.18,1.51-3.22,2.33s-2.09,1.76-3.08,2.7-1.88,1.94-2.91,2.88l1.73-3.1L44,31.7c-.67.68-1.4,1.33-2,2.07a21.85,21.85,0,0,0-1.73,2.48,27.34,27.34,0,0,0-1.39,2.6c-.42.89-.77,1.82-1.19,2.83a16.61,16.61,0,0,1,1.06-4.36l-.12-.11c-.25.19-.51.38-.74.59-.49.43-1,.85-1.43,1.32-.81.85-1.62,1.7-2.36,2.61A19.44,19.44,0,0,0,32.47,44a22.9,22.9,0,0,0-1.08,2.2c-.26.55-.49,1.11-.8,1.67a4.23,4.23,0,0,0-1.41-2.29,1.1,1.1,0,0,0-.47-.21,6.49,6.49,0,0,1,.85,4.37,9.19,9.19,0,0,0-1.23-.83,1.34,1.34,0,0,0-1.41.3l.47,0a1.11,1.11,0,0,1,1.07,1.06c.05.49.07,1,.11,1.56.28-.22.52-.39.73-.59.67-.65,1.36-1.29,2-2a2.39,2.39,0,0,0,.3-1,7.33,7.33,0,0,1,1.28-3,7.54,7.54,0,0,0-.63,3,29.91,29.91,0,0,0,2.27-2.22,9.2,9.2,0,0,0,.68-1.59c.44-.82.95-1.6,1.43-2.39l.12.06-1,2.61.13.07c.63-.59,1.26-1.19,1.9-1.77l3.51-3.19c.81-.73,1.61-1.47,2.45-2.16,1-.84,2.11-1.64,3.18-2.45.86-.65,1.71-1.3,2.58-1.94s2-1.5,3-2.16a5.1,5.1,0,0,0,1.34-1.72c.52-.77.93-1.62,1.46-2.4s1-1.33,1.53-2a1,1,0,0,1,.41-.35L54.38,29.8Z"/><path class="cls-1" d="M43.83,42.1a5.58,5.58,0,0,1,2.9-.79,13.91,13.91,0,0,1,1.66,0,1.51,1.51,0,0,0,1.18-.39,20.63,20.63,0,0,1,1.7-1.41,21.84,21.84,0,0,1,2.11-1.27,7,7,0,0,1,2.81-1,1,1,0,0,0,.4-.22c.86-.6,1.69-1.22,2.57-1.79a24.58,24.58,0,0,1,2.53-1.47c.91-.44,1.87-.77,2.81-1.15a1.83,1.83,0,0,0,.21-.14l-.93,0c1.63-.95,3.53-.67,5.12-1.49a24.85,24.85,0,0,0-6.14.47c3.09-1.43,6.38-2.29,9.56-3.57a17.86,17.86,0,0,0-2.25.24c-2.18.5-4.35,1.08-6.53,1.61-.87.21-1.75.37-2.63.56.64-.64,9-3.45,14.12-4.29-.59,0-1.17,0-1.76,0a77,77,0,0,0-11.1,1.64,3.33,3.33,0,0,0-1.23.5c-1.94,1.31-3.86,2.64-5.77,4-.94.66-1.85,1.35-2.78,2a1.09,1.09,0,0,0-.3.35,17.1,17.1,0,0,1,6,.69,17.67,17.67,0,0,0-2.18-.1c-1.75.12-3.5.32-5.25.5a.67.67,0,0,0-.32.14c-1.2.94-2.42,1.87-3.59,2.84-1.62,1.34-3.22,2.71-4.82,4.08-.88.75-1.73,1.52-2.68,2.36l3.26-.54a7,7,0,0,1,1-.13,3.92,3.92,0,0,0,2.31-.74,16.17,16.17,0,0,1,1.77-.94c.2-.11.38-.25.57-.38l0-.16Z"/><path class="cls-1" d="M23.68,42.37l-.27,2.57.14,0c.39-.48.77-1,1.19-1.43.75-.81.77-1.89,1.1-2.86.17-.48.41-.92.62-1.38l.19.05-.45,2.11.09,0c.43-.5.88-1,1.29-1.5s1-1.31,1.53-2,1.2-1.5,1.83-2.23c.82-1,1.65-1.91,2.51-2.83s1.55-1.53,2.31-2.3c.45-.46.87-1,1.33-1.41s1-.85,1.46-1.35S39.72,27,40,26.2a39.39,39.39,0,0,1,1.79-4.14A3.73,3.73,0,0,1,42.62,21l-1.86,4.79.08.06c.26-.2.54-.39.78-.61,1.29-1.21,2.49-2.52,3.89-3.59.86-.66,1-1.59,1.53-2.38.74-1.21,1.3-2.52,1.93-3.79a.91.91,0,0,0,.09-.39,38.3,38.3,0,0,0-4.67,6.65A22.67,22.67,0,0,1,46.49,17a23.3,23.3,0,0,0-3.62,5.77l-.14-.06,1.49-4.92a68.3,68.3,0,0,0-7.3,10.12,10.78,10.78,0,0,1,1-4.28,37.19,37.19,0,0,0-7.13,8.07l.37-1c.13-.39.24-.79.4-1.16s.38-.66.54-1c-2.62,2.7-3.77,6.09-4.52,9.66h-.14l.34-3.77c-.79.41-2.22,2.21-3.65,4.7a25.83,25.83,0,0,0-2.07,5.68c-.65-.68-.89-1.7-2.1-1.93.81,1.25,1.54,2.41,1.39,3.9-1.41-.89-1.75-.92-2.27-.36a3,3,0,0,1,1,.47,3.46,3.46,0,0,1,.5,1.16c.08.21.12.44.2.75l1.13-1.57c.07-.1.1-.24.19-.3A2.74,2.74,0,0,0,23,44.51a11.79,11.79,0,0,1,.51-2.17Z"/><path class="cls-1" d="M18.12,37.66,17.84,40l.09,0,1.25-1.89c.54-.83,1.06-1.67,1.61-2.5Q21.86,34.07,23,32.5c.42-.6.88-1.17,1.33-1.75s1-1.29,1.53-1.92,1-1.2,1.52-1.81a11.3,11.3,0,0,1,1.17-1.41c1.11-1,1-2.4,1.48-3.59.39-.89.74-1.8,1.11-2.7a.29.29,0,0,1,.2-.16l-1.24,4.55.11.05,1.22-1.38c.88-1,1.78-1.93,2.64-2.93a4.93,4.93,0,0,0,.84-1.33c.68-1.7,1.3-3.41,1.89-5.16a41.75,41.75,0,0,0-3.52,6,29.7,29.7,0,0,1,1.43-4.28c-.29.47-.6.92-.87,1.4s-.54,1.07-.8,1.61-.51,1-.72,1.58a11.22,11.22,0,0,1-.7,1.61l.93-4.9-.19-.08-5.72,9.94a8.53,8.53,0,0,1,.7-3.86l-.18-.09C26.07,23.2,25,24.5,24,25.9s-1.81,2.92-2.8,4.38l.76-2.62A10.28,10.28,0,0,0,19.75,32c-.39,1.58-.68,3.17-1.05,4.77V33.15a16.94,16.94,0,0,0-3,4.87,15.52,15.52,0,0,0-1.3,5.7,9.88,9.88,0,0,0-1-1.17,3.81,3.81,0,0,0-1.16-.64C13,43,13.79,44,13.73,45.3a8.8,8.8,0,0,0-1.46-.38c-.24,0-.51.23-.75.42,1.53-.22,1.41,1.17,2,1.89.54-.87,1.1-1.73,1.62-2.61a1,1,0,0,0,.11-.62,6.69,6.69,0,0,1,.29-2.83v2.43l.11,0c.22-.31.46-.6.67-.92s.3-.58.5-.83a2.15,2.15,0,0,0,.48-1.42A5.31,5.31,0,0,1,18.12,37.66Z"/><path class="cls-1" d="M41.61,103.29c-.64,1.26-1.52.54-2.35.4.34.91.61,1.76,1,2.56.13.28.55.42.81.66.43.4.84.82,1.25,1.24l-.09.09-1.49-1.17a4.12,4.12,0,0,0,.87,2.39c.57.64,1.09,1.32,1.64,2l-.13.13-1.25-1.19-.14.07c.19.51.39,1,.56,1.52.44,1.3.86,2.6,1.29,3.89.14.42.29.84.41,1.27.45,1.72.9,3.45,1.31,5.18.22.91.39,1.84.56,2.77A5.24,5.24,0,0,0,47,127a9.38,9.38,0,0,1,1.64,2.94l-2.35-3.15-.1,0a32.74,32.74,0,0,0,1,5.22,24.42,24.42,0,0,0,2.63,4.6A25.27,25.27,0,0,0,47.49,131l.16-.09,2.07,3.41.08,0c-.35-.83-.66-1.68-1.05-2.49s-.88-1.55-1.23-2.4L50,132.25l.1,0c-.34-1-.66-2-1-3s-.79-2-1.23-3-.91-1.93-1.37-2.89l.17-.13,2.25,2.5a28.77,28.77,0,0,0-2.46-7.88l.19-.1,1.26,1.79a14.56,14.56,0,0,0-4.39-6.79l.12-.11L46,114.5a16.07,16.07,0,0,0-4.71-8.32,3.21,3.21,0,0,0,2.26-.55c-1.16-.06-2.28.12-3.2-.81C41.13,104.67,41.67,104.29,41.61,103.29Z"/><path class="cls-1" d="M19.38,118.45l1.48-2,.18.1a28.75,28.75,0,0,0-2.55,8l2.35-2.57L21,122a59.28,59.28,0,0,0-3.69,8.86l.12.08,2.45-2.81.12.07a20.15,20.15,0,0,0-2.39,4.95l2.15-3.5.11.07c-.55,1.17-1.12,2.33-1.63,3.51-.3.68-.5,1.4-.75,2.11l.14.07c.2-.33.39-.67.59-1,.55-.91,1.15-1.78,1.64-2.72a7.38,7.38,0,0,0,.58-1.84,44.18,44.18,0,0,0,.73-4.38l-2.38,3.16-.12-.07c.5-.84,1-1.68,1.52-2.5.27-.42.59-.8.88-1.2a6.34,6.34,0,0,0,.82-2.57c.28-1.2.52-2.41.82-3.61.37-1.49.78-3,1.19-4.46.11-.39.27-.77.4-1.16.44-1.27.89-2.54,1.23-3.91l-1.32,1.21-.13-.13a18.77,18.77,0,0,0,1.82-2.1,13.73,13.73,0,0,0,1-2.28l-.16-.1L25.17,107l-.07-.07a5.61,5.61,0,0,1,1.15-1.17,2.65,2.65,0,0,0,1.29-1.56l.56-1.66c-.76.12-1.55.69-2.19-.2-.12.55,0,.67,1,1.36a2.13,2.13,0,0,1-1.42.63c-.5.08-1,.08-1.52.12l0,.18,2.16.38a14.93,14.93,0,0,0-4.52,8.15l2.25-1.83.12.1A15.82,15.82,0,0,0,19.38,118.45Z"/><path class="cls-1" d="M34.1,125.13l-2.53,2.64-.15-.12.24-.34c.63-.86,1.22-1.77,1.91-2.57a3.1,3.1,0,0,0,.63-2.24c0-1.39,0-2.78,0-4.17a5.43,5.43,0,0,0-.16-1c-.15-.77-.31-1.53-.46-2.29l-.72,2.68-.12,0-.44-1.17-.16,0-.25,2.68.12.06,1.6-2,.1,0a9.23,9.23,0,0,1-1.06,1.81,5.35,5.35,0,0,0-1.34,3.12,8.55,8.55,0,0,1-.66,2c-.33.8-.74,1.58-1.07,2.38a2.22,2.22,0,0,0-.14.94,19.07,19.07,0,0,1-.41,5.86c.12-.14.25-.28.36-.42s.21-.31.31-.46l.13.07-1.41,2.85.13.08a15.12,15.12,0,0,0,2.16-3l.13.07-2.43,6.42c1.64-2.11,2.48-4.64,3.78-6.92l.13,0c-.28.75-.54,1.5-.84,2.24s-.63,1.52-1,2.27-.64,1.51-1,2.25-.72,1.46-1,2.24a5,5,0,0,0,.45-.51c.77-1.13,1.55-2.25,2.27-3.4A26.5,26.5,0,0,0,33.1,134a8.28,8.28,0,0,0,.5-2.39c.24-2.15.42-4.3.63-6.45Z"/><path class="cls-1" d="M102.48,42.76c-.46,0-.92,0-1.39,0a50.57,50.57,0,0,0-9.25,1.07c-2.39.52-4.81.93-7.18,1.53s-5,1.41-7.48,2.18c-1.86.58-3.69,1.23-5.52,1.88-1.62.58-3.22,1.2-4.81,1.83s-3.06,1.23-4.58,1.88c-1.33.57-2.63,1.17-3.95,1.77-1.6.72-3.2,1.43-4.78,2.18-.78.36-1.53.79-2.29,1.19s-1.61.84-2.41,1.27l-3.37,1.86c-.77.42-1.54.83-2.3,1.27s-1.51.88-2.25,1.36c-.11.07-.11.33-.12.5s.09.18.14.27c.32.58.3.55.85.2,1-.64,2.05-1.25,3.08-1.87,1.23-.73,2.47-1.46,3.72-2.17s2.41-1.32,3.62-2,2.46-1.28,3.7-1.89,2.61-1.29,3.94-1.88c1.66-.74,3.35-1.43,5-2.15,1.15-.5,2.28-1,3.44-1.51s2.51-.95,3.77-1.4c2.22-.8,4.43-1.61,6.66-2.36,1.48-.49,3-.89,4.51-1.31,2-.54,3.91-1.09,5.88-1.59a36.51,36.51,0,0,1,3.75-.79A76,76,0,0,1,102,42.88c.17,0,.34,0,.51,0Z"/><path class="cls-1" d="M42.08,93.82a7.38,7.38,0,1,1-7.4-7.21A7.3,7.3,0,0,1,42.08,93.82ZM28.55,94a6.14,6.14,0,0,0,12.27,0,6.13,6.13,0,0,0-12.27,0Z"/><path class="cls-1" d="M17.05,66.45l-2,9.84,10.87-2A77.49,77.49,0,0,0,17.05,66.45Z"/><path class="cls-1" d="M34.71,59.06l.66,1,1.72-1.34c.79-.61,1.59-1.19,2.36-1.82s1.52-1.36,2.31-2c.35-.28.81-.42,1.18-.68,1.22-.85,2.41-1.74,3.63-2.59.62-.43,1.27-.81,1.9-1.22,1.28-.85,2.54-1.74,3.85-2.56S55,46.2,56.37,45.41c1.56-.9,3.13-1.79,4.7-2.67,1.41-.79,2.81-1.59,4.24-2.34,1.06-.56,2.15-1.05,3.24-1.56s2.27-1.07,3.41-1.58c1.89-.83,3.77-1.67,5.68-2.45,1.29-.52,2.62-1,3.93-1.41,1.51-.52,3-1.07,4.55-1.54,1.23-.38,2.49-.65,3.74-1l0-.17c-.95.2-1.9.36-2.83.6q-2.7.69-5.39,1.45c-.68.19-1.33.47-2,.72L74.54,35.4c-1,.37-2,.72-2.91,1.15-1.66.74-3.31,1.53-5,2.31-1,.49-2.08,1-3.11,1.49s-1.84,1-2.76,1.51c-1.83,1-3.67,2-5.49,3-.82.47-1.59,1-2.39,1.51s-1.54.88-2.3,1.34-1.38.89-2.07,1.35-1.63,1.07-2.43,1.63c-1.15.8-2.3,1.6-3.45,2.41-1.44,1-2.89,2-4.31,3.07-1.09.8-2.13,1.66-3.19,2.5Z"/><path class="cls-1" d="M28.22,53.28l.67.88c.46-.43.89-.81,1.29-1.22.88-.9,1.75-1.81,2.63-2.71s1.58-1.66,2.41-2.45,1.6-1.42,2.39-2.14c.48-.44.91-.92,1.39-1.36.78-.71,1.58-1.4,2.38-2.1.46-.4.94-.79,1.41-1.19,1-.82,1.9-1.67,2.88-2.47s2.1-1.65,3.16-2.46C50.24,35,51.62,33.91,53,32.86c1-.77,2.1-1.48,3.16-2.22s2.36-1.7,3.58-2.49,2.31-1.39,3.47-2.09c.56-.34,1.1-.69,1.66-1,1.4-.83,2.79-1.68,4.21-2.47,1-.56,2-1,3.07-1.54q1.9-.91,3.82-1.78c1.06-.48,2.13-.93,3.2-1.39l-.06-.16c-.56.2-1.13.39-1.69.61-1.15.44-2.31.88-3.45,1.34-.79.32-1.58.67-2.35,1q-2.13,1-4.23,2.13c-1,.51-2,1-2.93,1.59-.8.46-1.57,1-2.36,1.46s-1.54.9-2.29,1.36c-.6.37-1.18.76-1.76,1.15-.84.56-1.69,1.11-2.52,1.69-1.2.85-2.39,1.71-3.58,2.58s-2.5,1.85-3.73,2.8c-1.73,1.34-3.47,2.67-5.17,4.05-1.2,1-2.35,2-3.52,3s-2.1,1.82-3.13,2.76c-.8.72-1.55,1.5-2.33,2.23-.46.43-1,.82-1.41,1.26s-.89.93-1.35,1.38-1,.88-1.45,1.35S28.79,52.65,28.22,53.28Z"/><path class="cls-1" d="M24.35,85.08l1.86-9.78-10.8,2.22Z"/><path class="cls-1" d="M70,40.76a83.51,83.51,0,0,1,14.16-2.5l-1.21-.1c-.41,0-.83-.09-1.24-.09-3.44.05-6.87.11-10.31.2a3,3,0,0,0-1.21.4c-1.44.73-2.85,1.49-4.29,2.23S63.11,42.32,61.73,43c-.36.19-.69.44-1.15.74.26,0,.41.08.57.08a12,12,0,0,1,4,.74.66.66,0,0,0,.49,0c.79-.41,1.55-.88,2.35-1.26s1.92-.83,2.9-1.2a13.29,13.29,0,0,1,1.91-.62C74.89,41,77,40.62,79,40.19l.79-.18,0-.19Z"/><path class="cls-1" d="M39.32,30.23a17.57,17.57,0,0,1,4.77-.32,1.3,1.3,0,0,0,.56-.22c.33-.18.63-.5,1-.56a4,4,0,0,0,2.09-1.3c.52-.48,1-1,1.53-1.45a5.42,5.42,0,0,0,.53-.45l-.88.18-.08-.17L56.26,22C53,22.75,50,24.19,46.88,25.3a59.91,59.91,0,0,1,11.77-5.42l0-.15c-.89.2-1.79.38-2.67.61-1.49.38-3,.78-4.44,1.17-.27.07-.52.17-.78.26-1,.34-2.11.64-3.13,1a5,5,0,0,0-1.35.91q-1.6,1.38-3.13,2.82c-1.23,1.16-2.44,2.35-3.66,3.53A1,1,0,0,0,39.32,30.23Z"/><path class="cls-1" d="M15.66,65.59c-.78-1-7.14-4.83-8.5-5.27l-.69,10Z"/><path class="cls-1" d="M16.2,66.58,6.36,71.49l7.69,5.07Z"/><path class="cls-1" d="M62.12,11.48l-2.58,1.36c-.71.38-1.42.76-2.11,1.17-.86.51-1.7,1-2.54,1.57-1.1.72-2.21,1.44-3.27,2.22s-2.2,1.69-3.29,2.55c-.4.32-.79.65-1.19,1s-1.05.76-1.54,1.18c-1,.83-1.89,1.69-2.83,2.54s-1.62,1.47-2.43,2.21c-.46.43-.92.87-1.37,1.31-.81.8-1.62,1.6-2.42,2.41S35,32.5,34.32,33.29q-1.89,2-3.76,4.1c-.39.43-.73.9-1.1,1.34s-.92,1-1.38,1.57-.69.85-1,1.27c-.71.86-1.44,1.69-2.12,2.57-.83,1.08-1.62,2.19-2.44,3.28l-1.86,2.5a.9.9,0,0,0,.09.16c.77.69.77.66,1.3-.24a23,23,0,0,1,1.46-2c.8-1.07,1.59-2.13,2.41-3.18.69-.89,1.39-1.76,2.09-2.64.85-1.05,1.69-2.11,2.55-3.14.48-.58,1-1.11,1.52-1.67,1.14-1.27,2.25-2.58,3.42-3.82q2.08-2.21,4.26-4.34,2.39-2.35,4.86-4.62c.8-.74,1.67-1.4,2.5-2.1,1-.86,2-1.76,3.06-2.58C51.75,18.45,53.36,17.19,55,16s3.29-2.1,5-3.14c.72-.45,1.46-.87,2.2-1.31Z"/><path class="cls-1" d="M27,75.68,25.38,84.4H34a61.36,61.36,0,0,0-6.77-8.76Z"/><path class="cls-1" d="M48.12,8.48a5.86,5.86,0,0,0-.56.32c-1,.75-2.1,1.48-3.1,2.27q-2.54,2-5,4.08c-.56.47-1,1-1.57,1.54-.34.33-.71.64-1,1-.9.91-1.79,1.82-2.67,2.74q-1.82,1.92-3.62,3.86c-.34.36-.65.75-1,1.13-1.22,1.49-2.47,3-3.65,4.47s-2.09,2.82-3.13,4.23c-.83,1.13-1.69,2.24-2.5,3.38-.53.74-1,1.52-1.49,2.28-.76,1.16-1.55,2.3-2.28,3.47s-1.59,2.67-2.38,4c-.1.16-.22.31-.32.46-.61.93-.47,1,.43,1.37l1.11-2q.26-.47.55-.92l3.16-5.09c.69-1.11,1.38-2.23,2.09-3.33.35-.54.75-1.06,1.13-1.59,1-1.39,2-2.79,3-4.15s2.09-2.65,3.13-4c.67-.85,1.32-1.73,2-2.56.84-1,1.72-2,2.59-2.93s1.47-1.65,2.23-2.46c.47-.5,1-1,1.46-1.43l1-1c.75-.76,1.48-1.55,2.26-2.28s1.71-1.52,2.57-2.27c.62-.54,1.25-1.08,1.88-1.6s1.08-.83,1.62-1.25l2.09-1.65Z"/><path class="cls-1" d="M37,85.31c-.62-1.05-1.14-2-1.72-2.92-.72-1.16-1.45-2.32-2.25-3.43s-1.67-2.15-2.53-3.21c-.7-.86-1.4-1.72-2.13-2.55-.45-.51-1-1-1.46-1.43-.31-.31-.61-.64-.93-.94-1-.93-2-1.85-3-2.76s-1.91-1.72-2.93-2.5S17.95,64,16.86,63.32s-2.34-1.55-3.55-2.25c-1-.57-2-1.06-3-1.57-.45-.23-.92-.45-1.39-.63s-.71-.12-1,.48c.88.45,1.77.88,2.64,1.36s2,1.14,3,1.71c.68.4,1.38.77,2,1.21,1.2.82,2.37,1.68,3.55,2.53.6.43,1.2.85,1.76,1.31.83.69,1.63,1.41,2.43,2.13a52.91,52.91,0,0,1,5.73,5.91c1.23,1.52,2.46,3.05,3.59,4.65,1,1.42,1.89,2.93,2.77,4.43C35.8,85.17,36.31,85.21,37,85.31Z"/><path class="cls-1" d="M29.61,41.16c.53-.19,1-.39,1.58-.55a13.87,13.87,0,0,1,1.65-.41,2,2,0,0,0,1.3-.74c.51-.64,1.09-1.22,1.69-1.9A13.45,13.45,0,0,0,33,38a5.93,5.93,0,0,1,.95-.51A7.85,7.85,0,0,1,35.71,37a4.08,4.08,0,0,0,2.24-1.16c.08-.07.14-.18.22-.21.87-.31,1.3-1,1.84-1.72a32,32,0,0,1,2.32-2.44,13.93,13.93,0,0,0,1.29-1.32c-.49.07-1,.11-1.46.22-1.19.28-2.39.52-3.55.91a3.71,3.71,0,0,0-1.32,1q-2,2.05-3.9,4.17c-.73.81-1.39,1.67-2.1,2.5-.48.57-1,1.12-1.48,1.69a4.19,4.19,0,0,0-.25.36Z"/><path class="cls-1" d="M93.49,57.58a38,38,0,0,0-8.46,3,27.85,27.85,0,0,1,5.21-3.1A24.74,24.74,0,0,0,83,60.69l-.09-.11.94-.83,1-.83,1-.85-.07-.14c-.45.15-.89.34-1.36.46-1.47.36-3,.64-4.41,1a22.45,22.45,0,0,0-3.25,1.12c-1.2.54-2.33,1.23-3.5,1.84-.65.33-1.32.63-2,.94l0,.17,2.14-.37,3.68-.57a1.35,1.35,0,0,0,.52-.19c1.18-.79,2.33-1.63,3.54-2.37.79-.49,1.67-.83,2.51-1.24l.07.14-4.7,3.29.07.14c.53-.1,1.06-.21,1.59-.28,1.73-.24,3.45-.53,5.18-.69a6.89,6.89,0,0,0,2.8-1.09c.83-.47,1.69-.92,2.53-1.38S92.74,58,93.49,57.58Z"/><path class="cls-1" d="M31,55.45c-.62-.14-.9.47-1.27.88s-.89,1.16-1.35,1.73-1.05,1.22-1.55,1.85c-.72.93-1.41,1.88-2.11,2.82-.47.63-.93,1.26-1.44,1.86-.64.75-.47,1.45.49,1.75.13,0,.38-.14.51-.28,1-1,1.84-2.16,2.85-3.16a41.86,41.86,0,0,1,3.36-3,35,35,0,0,1,3-2c.43-.28.6-1.39.17-1.62A5.26,5.26,0,0,0,31,55.45Z"/><path class="cls-1" d="M33.57,53.85,32.89,53l2.75.4c0-.24-.24-.45-.85-.77-.37-.19-.71-.43-1.07-.65l.07-.12,1.68.81.13-.08c-.12-.41-.23-.83-.36-1.24s-.27-.84-.41-1.26c.84-.53,1.92-.11,3.15,1.29a25.05,25.05,0,0,1,5.51-6.31,3.28,3.28,0,0,0-.41,0c-1.37.18-2.75.32-4.1.56a2.56,2.56,0,0,0-1.06.63c-.5.41-.94.89-1.42,1.33s-.92.81-1.36,1.23c-.92.87-1.84,1.74-2.73,2.63-.5.49-.94,1-1.42,1.54-.2.21-.43.39-.71.64.59.06,1.05.09,1.51.16a1.17,1.17,0,0,1,.51.22A.83.83,0,0,0,33.57,53.85Z"/><path class="cls-1" d="M74.47,76.62h2.19c1.14,0,2.28-.06,3.41,0a5.71,5.71,0,0,0,2.86-.69,20.7,20.7,0,0,1,4.57-1.6,1.26,1.26,0,0,1,.53,0l-5.14,2.3,0,.12c.3,0,.6,0,.9,0l6.36.27a1.38,1.38,0,0,0,.46,0l3-1,3.08-1a2.32,2.32,0,0,0,.56-.26c-2.91,0-5.67.89-8.53,1.39l1.82-.69c.61-.23,1.22-.47,1.85-.66s1.29-.35,1.92-.59a29.36,29.36,0,0,0-7.75,1.76c.58-.36,1.15-.73,1.74-1.07a17,17,0,0,0,1.82-1.09c-.51.06-1,.09-1.52.17a18.61,18.61,0,0,1-4.74.24,4.15,4.15,0,0,0-1.27.15q-2.16.5-4.32,1c-1.12.28-2.22.59-3.33.88-.17,0-.34.11-.51.17Z"/><path class="cls-1" d="M108.37,62.43c-1.14-.17-2.27-.36-3.41-.49a88.47,88.47,0,0,0-14.13-.21c-2.32.11-4.64.42-7,.71-3,.37-5.93.73-8.87,1.24-2.7.47-5.36,1.12-8,1.69l-3.47.74v.16L65,66.4l-.69.48,0,.09c.47-.12.94-.26,1.42-.37l5.14-1.14c1.2-.26,2.39-.56,3.59-.77q3.87-.67,7.76-1.25c1.76-.27,3.52-.51,5.29-.69,1.41-.15,2.82-.19,4.24-.3a89.66,89.66,0,0,1,11.91-.24c1.29.07,2.58.21,3.87.31l.82,0Z"/><path class="cls-1" d="M67.1,77.89l.88.25,0,.11-1.36.39v.07c.54,0,1.09-.08,1.63-.1,3.71-.1,7.42-.3,11.13-.27,4.37,0,8.74.13,13.09.46a70.93,70.93,0,0,1,10.66,1.46c1.74.4,3.51.7,5.27,1.07.64.13,1.26.34,1.88.51l0-.12c-.4-.14-.79-.31-1.19-.42-2.06-.55-4.12-1.14-6.2-1.6s-3.89-.8-5.85-1.07A121.72,121.72,0,0,0,79.2,77.44c-3.59,0-7.18.12-10.77.19-.44,0-.88.07-1.32.11Z"/><path class="cls-1" d="M35.92,79.53a3,3,0,0,0,.19.44c.14.21.26.48.46.59a1.07,1.07,0,0,0,.67-.06,52.58,52.58,0,0,1,7-1.56c1.35-.19,2.71-.25,4.06-.44a1.47,1.47,0,0,0,.76-.57.61.61,0,0,0,0-.84,5.6,5.6,0,0,0-2.55-1.83.62.62,0,0,0-.39,0c-.85.36-1.69.76-2.54,1.12s-2,.79-3,1.21c-1.17.49-2.33,1-3.5,1.49Z"/><path class="cls-1" d="M2.13,70.5c-.06.15-.11.26-.15.37-.26.74-.22.7.48,1.05.89.44,1.73,1,2.59,1.48s1.53.9,2.28,1.38,1.52,1,2.27,1.51q1.51,1.06,3,2.17c.73.54,1.43,1.11,2.14,1.68.91.73,1.83,1.45,2.72,2.19.63.52,1.23,1.09,1.84,1.63l.92.8c.84.72,1.69,1.42,2.5,2.17s1.4,1.4,2.12,2.09c.52.51,1.07,1,1.6,1.49.35-.41.34-.61,0-1-1.49-1.47-3-3-4.47-4.41-.79-.76-1.64-1.45-2.45-2.17-.48-.43-.93-.89-1.42-1.31-.93-.78-1.86-1.56-2.81-2.31-1.49-1.17-3-2.35-4.52-3.47-1-.76-2.13-1.42-3.2-2.13-.84-.56-1.67-1.14-2.54-1.66S3.12,71,2.13,70.5Z"/><path class="cls-1" d="M108.58,98.89c-.44-.25-.88-.53-1.34-.75-1.22-.58-2.44-1.17-3.68-1.7-1-.42-2-.77-3-1.14-.6-.22-1.19-.44-1.8-.63-1.58-.49-3.15-1-4.74-1.44-1.8-.52-3.6-1.05-5.43-1.49s-3.54-.74-5.32-1.09c-1.35-.27-2.7-.58-4.06-.79-1.67-.25-3.35-.44-5-.61-1.91-.2-3.82-.32-5.72-.53a13.24,13.24,0,0,1-1.78-.46,2.86,2.86,0,0,0,1.76,1.1c1.9.24,3.82.35,5.71.63,3,.44,6,1,9,1.49,2.32.42,4.64.87,6.94,1.39,1.73.39,3.42.92,5.13,1.39,1.23.34,2.46.66,3.67,1s2.41.82,3.61,1.27c1.54.58,3.08,1.19,4.61,1.8.46.18.88.43,1.33.65Z"/><path class="cls-1" d="M42.44,67.27a1.77,1.77,0,0,0-.49.2c-1.08.77-2.14,1.57-3.22,2.34-.6.43-1.22.81-1.82,1.23-1.16.82-2.31,1.64-3.46,2.47-.35.25-.68.52-1,.76s-.25.54-.06.83.41.09.63,0c1.53-.84,3-1.71,4.6-2.5a33.44,33.44,0,0,1,6.73-2.44,1.47,1.47,0,0,0,.51-1.9A3.92,3.92,0,0,0,42.44,67.27Z"/><path class="cls-1" d="M29.65,102c-.69-.36-.82-.29-1.06.37-.53,1.44-1.1,2.87-1.61,4.32-.45,1.27-.84,2.57-1.27,3.85-.07.23-.17.45-.24.68-.55,1.82-1.15,3.62-1.64,5.46-.62,2.32-1.22,4.64-1.69,7s-.84,5-1.23,7.5a57,57,0,0,0-.73,10.41c0,1.37.17,2.73.32,4.09,0-.93,0-1.86,0-2.78.13-2.53.29-5.07.46-7.6a29,29,0,0,1,.28-3.07c.49-2.82,1-5.64,1.59-8.43.53-2.44,1.18-4.86,1.82-7.27.43-1.64.92-3.26,1.43-4.87.41-1.29.88-2.56,1.37-3.82.66-1.72,1.36-3.43,2-5.15A5,5,0,0,0,29.65,102Z"/><path class="cls-1" d="M46.94,146.8c.07-.73.15-1.45.2-2.18a65,65,0,0,0-.57-11.86c-.36-3-.93-6-1.58-9-.56-2.57-1.27-5.12-2-7.67q-.63-2.35-1.38-4.67c-.43-1.33-.93-2.64-1.42-4s-.92-2.46-1.39-3.69c-.1-.27-.23-.53-.34-.78-.75.15-.8.19-.57.81.5,1.29,1,2.56,1.54,3.85.41,1.07.81,2.15,1.17,3.23.64,1.92,1.27,3.83,1.86,5.77.41,1.36.73,2.74,1.09,4.12.17.66.37,1.32.52,2,.41,1.8.92,3.6,1.18,5.42.42,2.95,1.06,5.86,1.24,8.86a81.47,81.47,0,0,1,.27,9.71Z"/><path class="cls-1" d="M63.8,44.63c-1.52,0-3-.06-4.54,0a4.1,4.1,0,0,0-1.51.73c-.71.4-1.41.84-2.11,1.26l-2.55,1.56c-.74.46-1.49.91-2.22,1.38s-1.62,1.09-2.43,1.64A10.31,10.31,0,0,0,47,52.29c1.14-.15,2.33.35,3.34-.67a8.88,8.88,0,0,1,2.09-1.19.62.62,0,0,0,.27-.25H51.52l0-.17c.65-.12,1.29-.29,1.94-.36A7.36,7.36,0,0,0,57,48.3,32.07,32.07,0,0,1,60.61,46a25.94,25.94,0,0,1,3.16-1.22Z"/><path class="cls-1" d="M32.91,40.78c-1.22.33-2.43.61-3.6,1a2.35,2.35,0,0,0-.89.68c-.49.52-.95,1.07-1.39,1.63s-.93,1.23-1.39,1.84l-2.83,3.83a1.46,1.46,0,0,0-.12.22l1.67.11c.34,0,.59-.43.5-.77l1.23-.67L25.42,48l.06-.09a.81.81,0,0,1,.19.08.87.87,0,0,0,1.2.05,5.83,5.83,0,0,1,1.6-.52,10.65,10.65,0,0,0-1.33-3.22c.89-.79,2.21-.13,3.23.81Z"/><path class="cls-1" d="M36.54,22.32l-.9.37,0-.07,7.51-5.28,0-.08c-.57.21-1.16.39-1.72.63-1.16.51-2.31,1-3.47,1.57-.61.28-1.2.6-1.82.83s-1.1,1-1.61,1.48c-.83.83-1.56,1.76-2.33,2.65s-1.63,1.88-2.43,2.84a6.47,6.47,0,0,0-.48.76,4.71,4.71,0,0,0,2.89-1.22,12.57,12.57,0,0,1,1.5-1,2.45,2.45,0,0,0,.5-.42C34.9,24.37,35.68,23.38,36.54,22.32Z"/><path class="cls-1" d="M26.44,52.3a4,4,0,0,0-3-.37.75.75,0,0,0-.37.25c-.7,1.13-1.38,2.27-2.09,3.4-.42.67-.89,1.29-1.32,2-.59.92-1.16,1.85-1.74,2.77a7.93,7.93,0,0,0-.54.92.45.45,0,0,0,.13.41,7.52,7.52,0,0,0,.77.49c1.24-1.73,2.45-3.49,3.74-5.19A28.3,28.3,0,0,1,26.44,52.3Z"/><path class="cls-1" d="M87.18,103.68a23.37,23.37,0,0,0-6.13-.82l3.28-.49v-.13a15.36,15.36,0,0,1-1.87-.77,5.2,5.2,0,0,0-2.18-.57c-.48,0-1,0-1.45,0l-5.58-.23h-.16s0,.08,0,.08c.9.33,1.79.69,2.71,1a4.2,4.2,0,0,0,1.23.12H81.8a2.31,2.31,0,0,1,.82.18l-5,.33,0,.16.5.19c1.38.52,2.77,1,4.14,1.58a6.9,6.9,0,0,0,2.48.64c1.78,0,3.55.11,5.34.09-2.23-.6-4.5-1-6.79-1.36Z"/><path class="cls-1" d="M27.65,69.9l.69.79a37.76,37.76,0,0,1,11.52-7.89c-.95-.59-1.72-1.32-2.86-1.2a1.17,1.17,0,0,0-.62.19c-.46.4-.87.85-1.31,1.27s-.87.82-1.32,1.22c-1.13,1-2.28,2-3.4,3.06C29.44,68.16,28.56,69,27.65,69.9Z"/><path class="cls-1" d="M98,113.84c-1.28-.88-2.56-1.78-3.85-2.64q-1.27-.84-2.59-1.59c-.85-.48-1.73-.9-2.59-1.35s-1.93-1-2.92-1.53-1.72-.77-2.57-1.15c-.23-.11-.45-.24-.69-.34-1.85-.78-3.7-1.58-5.56-2.32-1.29-.51-2.62-.94-3.93-1.4s-2.83-1-4.25-1.44c-.85-.28-1.71-.5-2.57-.75,0,0,0,.08,0,.09a6.58,6.58,0,0,0,3,1.61,34.89,34.89,0,0,1,4.22,1.37c1.1.38,2.2.79,3.29,1.2l2.17.83c1.1.43,2.21.84,3.3,1.3s2.23,1,3.34,1.5c.86.39,1.71.77,2.56,1.17.31.15.6.34.9.5,1.6.86,3.21,1.7,4.8,2.59,1,.55,1.93,1.16,2.88,1.76.35.22.66.51,1,.77Z"/><path class="cls-1" d="M36.82,136.42a15.54,15.54,0,0,0-.71-4.55l.18-.07,1.49,3.15c-.22-3.93-.32-7.87-1.81-11.68-.11,1.37-.29,2.64-.27,3.91a7.21,7.21,0,0,0,.59,1.95l.85,2.62-.22.08-1.34-3.37-.13,0c-.11,1.36-.21,2.71-.34,4.07a6.72,6.72,0,0,0,.13,2.7c.23.75.49,1.5.7,2.26a15.63,15.63,0,0,0,.42,1.52A33.62,33.62,0,0,0,35.7,133l.13,0Z"/><path class="cls-1" d="M39.48,85.36c.09.53.32.72.85.69,2.36-.11,4.72-.19,7.08-.25a8.44,8.44,0,0,1,1.65.14,1,1,0,0,0,1.12-.6c.34-.71.3-1.14-.16-1.54a1.74,1.74,0,0,0-1.81-.45c-1.67.48-3.38.8-5.08,1.17L40,85.18C39.86,85.23,39.67,85.3,39.48,85.36Z"/><path class="cls-1" d="M18.56,50a3.11,3.11,0,0,0-2.71.12,1.06,1.06,0,0,0-.38.46c-.48,1-.93,2-1.43,3s-.92,1.63-1.34,2.47c-.34.67-.61,1.37-.92,2.09.31.2.64.43,1,.64s.48.15.59-.21a13.92,13.92,0,0,1,1.84-3.7c.37-.57.69-1.17,1.08-1.73.66-1,1.36-1.88,2-2.82Z"/><path class="cls-1" d="M5.94,62.43a41.7,41.7,0,0,0-3.57,7l3.22,1.72.53-8.65Z"/><path class="cls-1" d="M30.35,28.53c-1.1.35-2.19.56-2.91,1.65-1.05,1.59-2.33,3-3.46,4.56-.77,1-1.45,2.15-2.18,3.22-.27.4-.57.79-.86,1.19l.11.15.82-.33A3.62,3.62,0,0,0,24,36.79a5.51,5.51,0,0,1,.7-1l-.77.24,0-.06a1.84,1.84,0,0,1,.47-.37c.72-.25,1.07-.87,1.54-1.39s1.05-1,1.55-1.56a11.1,11.1,0,0,0,1-1.25c.6-.88,1.18-1.78,1.77-2.67Z"/><path class="cls-1" d="M35.18,117.14a9.15,9.15,0,0,0-.45,2A117.34,117.34,0,0,1,34,132.28a61.38,61.38,0,0,1-1.61,9.37c-.4,1.47-.71,3-1.09,4.44a18.07,18.07,0,0,0-.49,1.83c.19-.48.42-1,.57-1.45.56-1.81,1.18-3.62,1.63-5.46s.86-4,1.17-6c.35-2.25.69-4.52.83-6.79.2-3.13.22-6.27.32-9.41,0-.54,0-1.09,0-1.64Z"/><path class="cls-1" d="M97.45,90.24a33,33,0,0,0-8.81.1,12.1,12.1,0,0,1,3.59-.83l0-.19-5.11.22.4-.24c-.85-.46-2-.34-4.59.51l2.54.53,4.55,1a1.76,1.76,0,0,0,.61,0l6.59-1.05A2.05,2.05,0,0,0,97.45,90.24Z"/><path class="cls-1" d="M43.2,91.1c.11.46.19.86.32,1.25,0,.1.22.19.35.21l4.67.81a2.47,2.47,0,0,0,.76.07.94.94,0,0,0,.89-.74,1,1,0,0,0-.46-1.12l-.34-.26.55-.1a1.14,1.14,0,0,0-1-.52c-1.75.12-3.51.21-5.27.32A3.88,3.88,0,0,0,43.2,91.1Z"/><path class="cls-1" d="M61.3,79.28a16.28,16.28,0,0,0-1.77-.77,5.16,5.16,0,0,0-1.12,0c-.51,0-.57.37-.7.68s-.4.38-.56.08c-.33-.62-.83-.51-1.37-.43q-3.37.53-6.74,1c-.79.12-.26.62-.29.94s.25.27.51.24l11.5-1.68Z"/><path class="cls-1" d="M45.16,71.7l.13.45c.25.83.28.79,1.12.45,1.43-.57,2.9-1.06,4.35-1.58.7-.25,1.39-.5,2.09-.74.48-.16,1-.3,1.47-.45-.57-.83-.89-.93-2.1-.54-1.37.45-2.73.94-4.09,1.41Z"/><path class="cls-1" d="M19.1,49.13a15.62,15.62,0,0,0-1.2-1.29,3.06,3.06,0,0,0-.93-.36,4.62,4.62,0,0,1,3.08-2.61,7.14,7.14,0,0,0-1.3-2.38l-3.52,5.84.1.13a3,3,0,0,1,3,.51,3.44,3.44,0,0,0,.73.25Z"/><path class="cls-1" d="M58.35,88.68a1.51,1.51,0,0,0-1.46-1c-2.35,0-4.69-.08-7-.12-.17,0-.47.07-.49.15a3.11,3.11,0,0,0,0,.91s.2.11.31.11l8.49.05A1.23,1.23,0,0,0,58.35,88.68Z"/><path class="cls-1" d="M27.56,88.55a9.27,9.27,0,0,1,4-2.87l-.07-.14-6.51.21Z"/><path class="cls-1" d="M48.43,52.9a18.84,18.84,0,0,0-2.28,0,2.75,2.75,0,0,0-1.07.58c-.64.44-1.26.92-1.83,1.33l1.61,1.77Z"/><path class="cls-1" d="M57.51,97.78c-.18-.55-.35-1-1-1.12-1.37-.27-2.73-.57-4.1-.85-1-.2-1.95-.41-2.93-.57s-.87-.12-1,.77Z"/><path class="cls-1" d="M36.79,59.68a1.66,1.66,0,0,0,1.52-.15,15.67,15.67,0,0,1,1.76-.81c.16-.07.3-.17.55-.31l1.6.28a4.7,4.7,0,0,0-.35-2.88Z"/><path class="cls-1" d="M85.68,47c3.1.86,6.31.91,9.46,1.32C93.54,47,87.94,46.19,85.68,47Z"/><path class="cls-1" d="M98.12,63.57a54.89,54.89,0,0,0,8.68,2.9C105.6,64.86,99.77,63.13,98.12,63.57Z"/><path class="cls-1" d="M75.59,36.78a38.61,38.61,0,0,0,9.07,0A14.84,14.84,0,0,0,75.59,36.78Z"/><path class="cls-1" d="M50.9,76.27c.26,1.21-.64,1.89-1.13,2.87l1-.16c.92-.16,1.84-.31,2.75-.48a.84.84,0,0,0,.43-.23c.27-.28.51-.6.77-.9-.23-.09-.4-.64-.86-.36l-.43-.68-1.71,1.82C51.58,77.41,51.63,76.73,50.9,76.27Z"/><path class="cls-1" d="M94.39,80a44.54,44.54,0,0,0,7.72,4.12A13.59,13.59,0,0,0,94.39,80Z"/><path class="cls-1" d="M55.16,16.86A61,61,0,0,0,63,14.69C62,14,56.65,15.33,55.16,16.86Z"/><path class="cls-1" d="M33.22,104.69l-.23,1-1.53.07c.26.6,1,.42,1.43.82l-.45.63.38.12-.73.24A5.11,5.11,0,0,0,34,110.17l-.56-5.46Z"/><path class="cls-1" d="M19.44,41.54l2.09.82,1-3.11a3.06,3.06,0,0,0-.57.11C20.88,39.8,19.8,40.3,19.44,41.54Z"/><path class="cls-1" d="M48.71,69.09l-.35-.43-.56.62-.27-.71h-.12l.06.78-.94.18-.43,1.19.61-.23c1-.36,2-.69,3-1.08a1.49,1.49,0,0,0,.53-.48c.25-.31.48-.65.74-1l-.82-.44Z"/><path class="cls-1" d="M45.75,15a11.65,11.65,0,0,0-6.84,2.79A30.55,30.55,0,0,0,45.75,15Z"/><path class="cls-1" d="M36.62,69.51a13,13,0,0,0,1.13-.81.5.5,0,0,0,0-.49c-.38-.53-.84-1-1.19-1.54-.25-.38-.43-.45-.81-.19-.84.57-.86.56-.35,1.38.18.29.4.55.6.83Z"/><path class="cls-1" d="M85.94,108.32a53.38,53.38,0,0,0,5,5.53C91.09,112.46,87.33,108.66,85.94,108.32Z"/><path class="cls-1" d="M40.24,76c.47-.19.8-.34,1.14-.46s.38-.34.23-.63c-.31-.6-.6-1.22-.93-1.81a.46.46,0,0,0-.4-.17,5.24,5.24,0,0,0-.95.4.32.32,0,0,0-.11.29C39.54,74.42,39.89,75.21,40.24,76Z"/><path class="cls-1" d="M89.38,42.89a44.2,44.2,0,0,1,9.68-3.13l0-.15c-.52,0-1,0-1.54.11a23.5,23.5,0,0,0-5.41,1.49A17.4,17.4,0,0,0,90,42.37,3.81,3.81,0,0,0,89.38,42.89Z"/><path class="cls-1" d="M33.89,71.62l1.2-.86-1.95-2.47a5.8,5.8,0,0,0-.73.51.46.46,0,0,0-.09.43C32.82,70,33.35,70.81,33.89,71.62Z"/><path class="cls-1" d="M25.6,59.28l1-1.27-2.08-1.67a9.33,9.33,0,0,0-.84.93c-.06.09.06.4.19.51C24.42,58.28,25,58.75,25.6,59.28Z"/><path class="cls-1" d="M34.42,110.41a2.87,2.87,0,0,0,.71-1.39c.08-.59-.51-.77-.63-1.24a1.21,1.21,0,0,0,.38-.18.49.49,0,0,0,.11-.36.35.35,0,0,0-.22-.22c-.52-.15-.63-.35-.29-.75.69-.82.11-1.67.12-2.5a1,1,0,0,0-.57-.12c-.09,0-.21.27-.2.4.12,1.31.27,2.62.4,3.94.06.61.07,1.23.11,1.85C34.34,110,34.38,110.12,34.42,110.41Z"/><path class="cls-1" d="M29.62,62.57,31,64.24a.48.48,0,0,0,.82,0l.07-.07c.71-.72.63-.75,0-1.42-.3-.32-.58-.67-.9-1a.55.55,0,0,0-.5-.09A8.4,8.4,0,0,0,29.62,62.57Z"/><path class="cls-1" d="M99,57.86A16.35,16.35,0,0,0,89.76,61,58.65,58.65,0,0,1,99,57.86Z"/><path class="cls-1" d="M73.16,35.12a44.17,44.17,0,0,1,8-6C79.52,29.2,74.13,32.87,73.16,35.12Z"/><path class="cls-1" d="M50,94.77c1.93.59,3.72,1,5.53-.14l-.27-.45L53.34,95l.1-1.39c-.77.54-1.38,1.59-2.25.35Z"/><path class="cls-1" d="M93.11,77.49A39.08,39.08,0,0,1,103,76C101.65,75.24,94.59,76,93.11,77.49Z"/><path class="cls-1" d="M42.63,80.86l.42,1.89c.07.3.24.38.53.29,1.25-.37,1.17,0,.86-1.43,0-.17-.1-.32-.16-.49-.28-.89-.28-.89-1.22-.74C42.69,80.44,42.67,80.47,42.63,80.86Z"/><path class="cls-1" d="M70.6,17.08a17.2,17.2,0,0,0-7.3,7A50.74,50.74,0,0,1,70.6,17.08Z"/><path class="cls-1" d="M84.55,88.72c-.61-.25-1.11-.46-1.63-.65a.82.82,0,0,0-.45,0l-3.41.82-.28.1c.94.2,1.77.43,2.61.53a3.45,3.45,0,0,0,1.15-.26Z"/><path class="cls-1" d="M44.84,87h-1.3c0,.84,0,1.64,0,2.43,0,.08.21.23.32.23.41,0,.82-.06,1.28-.1Z"/><path class="cls-1" d="M37.16,74.24a4.82,4.82,0,0,0-.76.38.51.51,0,0,0-.18.43c.28.75.6,1.49.93,2.23a.43.43,0,0,0,.39.14,10.79,10.79,0,0,0,1-.54Z"/><path class="cls-1" d="M33.07,72.78l.49-.69c-.54-.84-1.14-1.75-1.72-2.67-.14-.21-.28-.32-.48-.11s-.69.24-.41.67c.62,1,1.27,1.89,1.9,2.83Z"/><path class="cls-1" d="M34.4,67.13c-.93.51-1,.53-.4,1.38a16.85,16.85,0,0,0,1.42,1.87c.47.54.57-.17.87-.31Z"/><path class="cls-1" d="M23.53,61.95l.83-1.13L22.12,59l-.72,1Z"/><path class="cls-1" d="M27.95,63.94l-.81.75L29,67.07l.92-1.19L27.83,64.1Z"/><path class="cls-1" d="M93,92.09a37.21,37.21,0,0,1,9.68.32C101.32,91.34,94.49,91.11,93,92.09Z"/><path class="cls-1" d="M49.8,17.39a35.63,35.63,0,0,1,7-6C55.49,11.5,50.71,15,49.8,17.39Z"/><path class="cls-1" d="M37,78c-.17-.31-.35-.58-.47-.87-.29-.67-.53-1.36-.83-2-.06-.13-.33-.3-.4-.26-.24.13-.76.13-.58.55.4,1,.89,1.91,1.36,2.85,0,.07.25.1.35.07A3.78,3.78,0,0,0,37,78Z"/><path class="cls-1" d="M41.3,83.64,40.57,81a4.64,4.64,0,0,0-.8.19.46.46,0,0,0-.21.38c.09.73.21,1.46.33,2.19,0,.3.21.36.48.25Z"/><path class="cls-1" d="M39.12,76.85a2.88,2.88,0,0,1,.41-.16c.33-.07.37-.26.25-.53l-1.25-2.81-.8.35A6,6,0,0,0,39.12,76.85Z"/><path class="cls-1" d="M38.76,68.57l.68-.5c-.44-.61-.89-1.2-1.3-1.81a5.21,5.21,0,0,1-.29-.65c-.27-.54-.33-.56-.84-.26l-.31.17A8.27,8.27,0,0,0,38.76,68.57Z"/><path class="cls-1" d="M19.87,54.42c-.58-.37-1.08-.67-1.56-1-.27-.18-.5-.4-.79,0s-.41.89-.09,1.13c.52.39,1.08.73,1.67,1.12Z"/><path class="cls-1" d="M30.49,65.79l.74-.53c-.39-.44-.75-.84-1.09-1.26s-.51-.73-.79-1.06a.85.85,0,0,0-.44-.24c-.19.23-.47.5-.46.75a1.52,1.52,0,0,0,.48.83C29.42,64.8,30,65.28,30.49,65.79Z"/><path class="cls-1" d="M30.39,70.31l-.83.72,1.77,2.38.13,0c.94-.64.92-.62.16-1.48C31.18,71.42,30.81,70.86,30.39,70.31Z"/><path class="cls-1" d="M23.06,57.65l-.75.62a8.32,8.32,0,0,0,2.61,2.27l.54-.64Z"/><path class="cls-1" d="M28.82,67.54,26.63,65l-.76.59c.44.55.86,1.11,1.3,1.64.18.22.43.39.62.6.38.4.5.4.84-.06C28.69,67.69,28.76,67.62,28.82,67.54Z"/><path class="cls-1" d="M41.86,71.95l-.95.36,1.53,3.34.79-.43Z"/><path class="cls-1" d="M22.91,63.17l.29-.36.25-.28L21,60.3l-.6.74A8.21,8.21,0,0,0,22.91,63.17Z"/><path class="cls-1" d="M23.54,140.24a29.91,29.91,0,0,0-1.78-6.15A9.71,9.71,0,0,0,23.54,140.24Z"/><path class="cls-1" d="M45.8,139.72a29.74,29.74,0,0,0-1.73,6.08A10.27,10.27,0,0,0,45.8,139.72Z"/><path class="cls-1" d="M42.73,83.52l-.66-3.16-1,.13c.08.52.13,1,.24,1.47a11.68,11.68,0,0,0,.45,1.47.53.53,0,0,0,.39.25A2,2,0,0,0,42.73,83.52Z"/><path class="cls-1" d="M29.41,142a9.58,9.58,0,0,0,3.21-5.32A27.59,27.59,0,0,0,29.41,142Z"/><path class="cls-1" d="M27.81,57.25c-.71-.72-1.39-1.38-2-2.07-.3-.31-.52-.1-.76.06a.37.37,0,0,0-.06.65c.65.59,1.31,1.18,2,1.73.48.39.53.35.81-.23Z"/><path class="cls-1" d="M31.74,60.34l-.65.51a7.15,7.15,0,0,0,2.09,2.48c.1.09.53-.21.8-.33Z"/><path class="cls-1" d="M26.83,69.09l.78-.74c-.62-.68-1.2-1.32-1.79-1.95a.4.4,0,0,0-.38-.06,2.17,2.17,0,0,0-.52.56c0,.07.06.27.15.36C25.64,67.87,26.21,68.45,26.83,69.09Z"/><path class="cls-1" d="M17.61,58.29c.16-.22.27-.35.36-.49.36-.55.32-.59-.24-.89s-1.1-.69-1.7-1.07l-.3.37c-.39.49-.36.55.17.88S17,57.86,17.61,58.29Z"/><path class="cls-1" d="M38.84,81.24c-.85,0-.88,0-.83.8a4.34,4.34,0,0,0,.91,2.41c.09.12.46,0,.71.06Z"/><path class="cls-1" d="M21.64,64.37l.62-1L20.05,61.6l-.61.87Z"/><path class="cls-1" d="M45.4,83.06l.77-.18-.73-3.28-.79.08A7.81,7.81,0,0,0,45.4,83.06Z"/><path class="cls-1" d="M12.47,54.1,13,52.76l-2-.89s-.09,0-.1.07c-.55,1-.55,1,.38,1.48Z"/><path class="cls-1" d="M40.61,10a14.32,14.32,0,0,0-4.35,7.09A44.58,44.58,0,0,1,40.61,10Z"/><path class="cls-1" d="M46.45,89.87c0-1,0-1.9,0-2.84,0-.41-.32-.27-.53-.3s-.46,0-.45.31c0,.75,0,1.51.06,2.26S45.69,90.06,46.45,89.87Z"/><path class="cls-1" d="M94.12,107.51a16.85,16.85,0,0,0-8.25-1.74Z"/><path class="cls-1" d="M55.82,86l-.27-.46a2.77,2.77,0,0,1-1.63,1.16l-.17-1.23-.15-.06-1,1.23c-.24.08-.58-.12-.86-.42s-.44-.28-.62.07a7,7,0,0,1-.43.62,26.47,26.47,0,0,1,2.75,0A2.85,2.85,0,0,0,55.82,86Z"/><path class="cls-1" d="M9.57,54.57a3.5,3.5,0,0,0-.37.64.46.46,0,0,0,.17.41c.57.34,1.15.66,1.74,1,.1,0,.33-.06.42-.17s.09-.33.16-.48c.19-.37,0-.52-.32-.64C10.78,55.08,10.21,54.83,9.57,54.57Z"/><path class="cls-1" d="M19.1,56.23l-2.55-1.81-.4.72c.3.68,1,.86,1.51,1.21.11.08.25.12.36.19C18.77,57,18.78,57,19.1,56.23Z"/><path class="cls-1" d="M14.57,57.9l2.65,1.68.41-.76-1.8-1.19c-.07,0-.15-.08-.22-.14C15,57,15,57,14.57,57.9Z"/><path class="cls-1" d="M43.44,96.09l1.21.1L44.92,94l-.85-.16c-.31-.07-.45,0-.47.35C43.55,94.8,43.5,95.4,43.44,96.09Z"/><path class="cls-1" d="M12.19,55.22a2.25,2.25,0,0,0,.34-.5c0-.07-.15-.25-.26-.32q-.81-.48-1.64-.92c-.22-.11-.53-.31-.67-.23a.82.82,0,0,0-.27.66c0,.15.24.35.41.44.5.27,1,.49,1.53.73A4.07,4.07,0,0,0,12.19,55.22Z"/><path class="cls-1" d="M41.92,87.89c-.19.83.42,1.39.79,2.05,0,.05.18.1.21.08a.34.34,0,0,0,.13-.24c0-.88,0-1.77-.08-2.65a.42.42,0,0,0-.29-.29c-.28,0-.67-.15-.75.3A4.23,4.23,0,0,0,41.92,87.89Z"/><path class="cls-1" d="M18.33,51.8l-.46.71,1.74,1.21c.08.06.18.1.27.15.68.41.72.4,1-.33Z"/><path class="cls-1" d="M16.28,60.68l.46-.9-2.23-1.32a1.42,1.42,0,0,1-.16.29c-.33.36-.24.62.15.86Z"/><path class="cls-1" d="M11.42,50.54l-.48.7c.77.39,1.46.8,2.19,1.1.53.22.55.16.81-.45Z"/><path class="cls-1" d="M8.88,55.88c-.47.58-.47.68.08,1,.7.36,1.41.68,2.17,1l.36-.69Z"/><path class="cls-1" d="M54.77,69.65l2.88-.82v-.11a11.92,11.92,0,0,0-1.86-.49c-.6-.06-.82.21-.91.82C54.85,69.23,54.81,69.41,54.77,69.65Z"/><path class="cls-1" d="M45.78,96.77,46.36,94l-.88-.21c-.11.89-.24,1.72-.29,2.56C45.18,96.47,45.54,96.61,45.78,96.77Z"/><path class="cls-1" d="M19.89,133.05a13,13,0,0,0-2.36,6.39Z"/><path class="cls-1" d="M33.26,76.13c.62.8,1.16,1.51,1.72,2.22.06.08.24.06.36.09s.07-.26,0-.35c-.39-.79-.79-1.58-1.23-2.43Z"/><path class="cls-1" d="M38.09,65.13l1.47,2.21c.41-.2.49-.41.33-.71-.29-.56-.56-1.13-.86-1.69a.36.36,0,0,0-.32-.1A4.09,4.09,0,0,0,38.09,65.13Z"/><path class="cls-1" d="M47.45,134.32a39.38,39.38,0,0,1,2.38,6.35A12,12,0,0,0,47.45,134.32Z"/><path class="cls-1" d="M32.07,104.34a1.66,1.66,0,0,0,.1-1.79,1.12,1.12,0,0,0-1-.38c-.33.08-.28.54-.08.84S31.72,103.87,32.07,104.34Z"/><path class="cls-1" d="M43.5,74.46l.52-.24L43.45,72c-.76-.13-.93,0-.71.7A19,19,0,0,0,43.5,74.46Z"/><path class="cls-1" d="M34.2,62.07c0-.22.08-.48,0-.65a14.67,14.67,0,0,0-.92-1.47.38.38,0,0,0-.35-.07,3.91,3.91,0,0,0-.59.37l1.6,1.87Z"/><path class="cls-1" d="M26.75,54.21a2.37,2.37,0,0,0-.51.38.42.42,0,0,0,0,.4c.49.49,1,.94,1.53,1.42.37-.21.48-.39.19-.72S27.15,54.71,26.75,54.21Z"/><path class="cls-1" d="M46.13,79.92l.4,2.26c.45.09.66-.05.62-.52s0-.82-.08-1.23C47,79.73,46.93,79.69,46.13,79.92Z"/><path class="cls-1" d="M46.89,88c0,.37.05.75.1,1.12,0,.11.14.29.19.29s.33-.11.34-.2a15.14,15.14,0,0,0,.22-1.83c0-.1-.3-.25-.48-.29s-.29.14-.32.26a2.8,2.8,0,0,0,0,.66Z"/><path class="cls-1" d="M33.77,113.13a.65.65,0,0,0,.3-.87c-.11-.25-.42-.42-.67-.64.06-.39,1-.41.53-1l-1.22.27Z"/><path class="cls-1" d="M19.43,51,19,51.5c.35.66,1,.88,1.61,1.24a.31.31,0,0,0,.29-.1c.05-.09.06-.29,0-.35C20.43,51.85,19.94,51.43,19.43,51Z"/><path class="cls-1" d="M13.69,51.28l.32-.48-1.63-1.18-.5.64Z"/><path class="cls-1" d="M56.62,96.21C56,95,55.2,94.8,54.16,95.63Z"/><path class="cls-1" d="M46.39,96l.22.32c.14-.09.35-.16.4-.28a6.56,6.56,0,0,0,.34-1.22c0-.11-.15-.36-.25-.37s-.42.1-.45.21A12,12,0,0,0,46.39,96Z"/><path class="cls-1" d="M60.29,98.42c-.28-.37-.5-.68-.74-1a.79.79,0,0,0-1,0l-.37.5Z"/><path class="cls-1" d="M26.61,51.23a5.64,5.64,0,0,0-.88-1.1c-.21-.17-.63-.07-1-.09l-.06.19,1.75,1.17Z"/><path class="cls-1" d="M59.4,88.76h1.46l-.26-.31c-.21-.27-.36-.76-.77-.61C59.63,87.91,59.56,88.38,59.4,88.76Z"/><path class="cls-1" d="M36.55,104.06,36,102.78c-.15.07-.41.11-.44.21C35.41,103.57,35.73,103.94,36.55,104.06Z"/><path class="cls-1" d="M50.89,69.12l1.47-.54C51.77,67.85,51.33,68,50.89,69.12Z"/><path class="cls-1" d="M54.77,78.41l1.15-.18,0-.13c-.21-.15-.46-.46-.62-.42s-.44.36-.66.56Z"/><path class="cls-1" d="M40.65,87.38l.73.66.13,0c0-.24,0-.56-.09-.71s-.45-.07-.68-.1Z"/><path class="cls-1" d="M38.51,60.21l1.34,1c0-.4-.35-.81-1.22-1.08Z"/><path class="cls-1" d="M55.57,86.9h1.14C56.2,86.26,56.16,86.25,55.57,86.9Z"/><path class="cls-1" d="M36,104.92l-.85-.41.05,1.05Z"/><path d="M59.19,57.32c.85.19,1.7.36,2.55.57.48.12.95.3,1.43.44.93.29,1.86.59,2.8.85,1.47.41,2.85-.13,4.25-.48-2.39.49-4.56-.43-6.77-1a9.78,9.78,0,0,0-3.39-.57c-.29,0-.57.08-.86.12Z"/><path d="M74.55,71.79a12.4,12.4,0,0,1-5.09-1.56,13.56,13.56,0,0,0-4.25-1.68c-.31,0-.63-.05-.94-.08l0,.13a8.19,8.19,0,0,1,.86.28c.89.4,1.78.79,2.66,1.23.69.34,1.36.73,2,1.12a6.83,6.83,0,0,0,4.07.64C74.08,71.86,74.32,71.82,74.55,71.79Z"/><path d="M67.36,80.22a3.35,3.35,0,0,1,.72.29c.68.48,1.35,1,2,1.49a22,22,0,0,0,2.63,2,6.18,6.18,0,0,0,3.71.89c-.77-.28-1.52-.51-2.23-.84a9.39,9.39,0,0,1-1.52-1c-.68-.49-1.34-1-2-1.55A6.41,6.41,0,0,0,67.36,80.22Z"/><path d="M67.68,90.74c.68.65,1.31,1.23,1.92,1.84.32.32.6.69.91,1s.76.87,1.16,1.28a5.87,5.87,0,0,0,3.77,1.68,3.56,3.56,0,0,1-.61-.27c-.75-.51-1.52-1-2.23-1.58a19.4,19.4,0,0,1-1.49-1.4c-.37-.36-.73-.72-1.07-1.1a7,7,0,0,0-2.13-1.48S67.81,90.74,67.68,90.74Z"/><path d="M64.35,100.85c.71,1.19,1.37,2.37,2.1,3.49a5.85,5.85,0,0,0,3.34,2.55,11.67,11.67,0,0,1-1.25-1.06c-.54-.6-1-1.27-1.51-1.91-.7-.9-1.39-1.81-2.1-2.7A2.21,2.21,0,0,0,64.35,100.85Z"/><path d="M28.16,121.89a4.46,4.46,0,0,0-.38-3.08c-.24-.54-.59-1-.84-1.57a19.74,19.74,0,0,0-.91-2,7.32,7.32,0,0,0,.24,1.3c.33.88.77,1.71,1.08,2.59S27.9,121,28.16,121.89Z"/><path d="M41.33,116.55c-.09.05-.14.06-.15.09-.6,1.34-1.22,2.67-1.8,4a4,4,0,0,0-.11,2.51c.16-.64.29-1.3.5-1.93s.48-1.13.69-1.7c.29-.8.57-1.61.83-2.42A2.37,2.37,0,0,0,41.33,116.55Z"/><path d="M40.82,93.94a6.13,6.13,0,1,1-6.11-6.07A6.18,6.18,0,0,1,40.82,93.94Zm-.41.15A5.7,5.7,0,1,0,29,93.85a5.7,5.7,0,0,0,11.4.24Z"/><path class="cls-1" d="M29,93.85a5.7,5.7,0,1,1,11.4.24A5.7,5.7,0,0,1,29,93.85Zm1.44.14a4.24,4.24,0,0,0,8.48-.08,4.24,4.24,0,0,0-8.48.08Z"/><path d="M38.92,93.91a4.24,4.24,0,1,1-4.27-4.18A4.36,4.36,0,0,1,38.92,93.91Zm-1.45,0a2.65,2.65,0,0,0-2.79-2.76,2.75,2.75,0,1,0,2.79,2.76Z"/><path class="cls-1" d="M34.72,96.68a2.7,2.7,0,0,0,2.75-2.74,2.65,2.65,0,0,0-2.79-2.76,2.75,2.75,0,1,0,0,5.5Z"/></g></g></svg>