<svg xmlns="http://www.w3.org/2000/svg" viewBox="0 0 131.47 96"><defs><style>.cls-1{fill:#1a1a1a;}</style></defs><title>Ресурс 2</title><g id="Слой_2" data-name="Слой 2"><g id="Слой_1-2" data-name="Слой 1"><path class="cls-1" d="M131.47,2.63,129.53,0,119,7q-4.61,3-9.07,6.31L94,25l-.31-.43a.54.54,0,0,0-.75-.12L71,40.54a.54.54,0,0,0-.12.75l.31.43L50.9,56.59l-.33-.45a.54.54,0,0,0-.75-.11L38.72,64.19a.54.54,0,0,0-.12.75l.33.45L25.75,75.07l-.31-.42a.28.28,0,0,0-.39-.06l-4.42,3.25.59,2.1s-3.41,3.75-6.09,4.81A57.09,57.09,0,0,0,20.36,80l-.68-1.89C17.9,74,14.26,65.72,14,65.4c-.64-.87-4.27.72-8.11,3.55S-.54,74.76.1,75.62s7.5,6.71,10.7,9.44L8.62,86.67a7.85,7.85,0,0,0-1.3,1.2L4.76,90.8a.8.8,0,0,0,0,1l2.84,3.87a.8.8,0,0,0,1,.26l3.57-1.56a8,8,0,0,0,1.53-.88L30.07,81.42a.27.27,0,0,0,.06-.38l-.37-.5,13.18-9.68.33.44a.54.54,0,0,0,.75.12l10.38-7.63a2.73,2.73,0,0,0,.52.95,1.45,1.45,0,0,0-.47,0,1.48,1.48,0,0,0-.84,2.44,3.34,3.34,0,0,1-.73.23,1.71,1.71,0,0,1-.83,0,8.3,8.3,0,0,0,1.06.58c-1.22.28-2.69,2.12-3.5,2.27a2.9,2.9,0,0,0,.87.18s-2.55,2.72-1.67,8.32,3,9.58,3.24,11a7.46,7.46,0,0,1,1.1-1.81,5.91,5.91,0,0,0-.44,2.37C54,92.2,55.94,93.11,56.82,94a9.85,9.85,0,0,1,.37-2.68h0a20.46,20.46,0,0,0,.27,2.84,10.25,10.25,0,0,0,4.17.4,4.32,4.32,0,0,0,.88-.25c.81-.33.07-2.52-.18-3.41A8.43,8.43,0,0,0,60.89,90a3.09,3.09,0,0,1,1.38.43,27.15,27.15,0,0,1-1.08-6.21,16.21,16.21,0,0,0-2.35-2.43,16.49,16.49,0,0,1,2.55,1.65,25.9,25.9,0,0,1-.51-5,9.55,9.55,0,0,0-2-1.42,9,9,0,0,1,2.06.78,13,13,0,0,1-.28-2.77,7.84,7.84,0,0,0-1.58-4.14,9.43,9.43,0,0,0-2.52-1.81l.1,0a.69.69,0,0,1,.55.16,2.42,2.42,0,0,0-1.11-1.16,1.73,1.73,0,0,1-.74-.6,1.45,1.45,0,0,0,.63-2,2.77,2.77,0,0,0,1,.19,1.29,1.29,0,0,0-.21,2.06l.07.1,0,0a1.29,1.29,0,0,0,1,.25,1.24,1.24,0,0,0,.3-.09,2,2,0,0,0,.32.54,1.92,1.92,0,0,0,.53.44l-.56.58a7.77,7.77,0,0,1,1.45-.07,7.78,7.78,0,0,1,3,1.13.8.8,0,0,0-.29.35s.9.08,1.13.36a9,9,0,0,1,2.41,6.54,21.5,21.5,0,0,1-.24,3.34c-.94-1-2.67-2.54-4.57-2.68,0,.19,0,.36,0,.53s0,.21,0,.35a9,9,0,0,1,4.42,2.74c-.08.32-.15.58-.22.8a14,14,0,0,0-2.35-1.24s1.56,2.57,1.75,2.94c-.21.44-.42.88-.6,1.31a4.55,4.55,0,0,0-2.57-1.51c.11.89.2,1.58.26,1.77.1.36.86,3.1,1.23,5.31A6.44,6.44,0,0,0,64,88.87c-.07-1,1-3.3,1.46-4.2a9,9,0,0,0-1.34-2.09A8,8,0,0,1,65.81,84c0-.71.85-1.75.87-6.11A9.52,9.52,0,0,0,64.11,71a1.45,1.45,0,0,0-.89-.25,1.48,1.48,0,0,1,.39-.11h.25c-.94-.51-2.52-1.65-4.14-1.46,0,0,.11-.09.56-.36a1.58,1.58,0,0,1-1.64-1.08A1.3,1.3,0,0,0,58,65.55a2.72,2.72,0,0,0,.78-.43c-.12.3-.1.6.08.71s.61,0,.86-.42.27-.82.05-1a.4.4,0,0,0-.38,0,2.75,2.75,0,0,0-1.94-4.22L75.17,47.18l.34.46a.54.54,0,0,0,.75.12l22-16.13a.54.54,0,0,0,.12-.75L98,30.42l14-10.31a2.8,2.8,0,0,0,.59.51c-.16.1-.26.23-.25.35s.39.44.85.44A.88.88,0,0,0,114,21h.32a1.07,1.07,0,0,0-.27.73.83.83,0,0,0-.81-.37c-.46,0-.83.22-.83.48s.36.48.82.49.78-.17.83-.42a1.07,1.07,0,0,0,.74.84,3.53,3.53,0,0,1-1.11,1.72,1.14,1.14,0,0,0-.58-.21c-.46,0-.85.14-.88.4s.21.42.54.52l-.08.05c-.31,0-.55.18-.57.38s.31.52.76.58.85-.11.88-.38-.31-.53-.77-.58h0c.46.05.85-.12.88-.4h0a2.57,2.57,0,0,0,.46-.32,4.8,4.8,0,0,0,.6-.74c-.52,1.3-.14,2.68-1,3.42a1.73,1.73,0,0,1-.52.31,2.37,2.37,0,0,0,1.38-.41.38.38,0,0,0,.13-.17c-.37,2.2,2.63,3.22,2.49,4.24l.46-1c.65,1.83,4,1.59,4.25,3.35.23-1.85,1.31-2,.55-3.86,0,0,.4,0,1.11,0-.89-.33-.9-2.2-.9-2.2s.19.13,1.33-.28c-1.64.1-2-2.94-4-2.79,0,0,.57-.28,1.43-.67-1.44.07-2-1.19-3.31-1.19a9.39,9.39,0,0,0,1.39-.63c-1,.1-1.22-.87-2.76.27,0,0,.11-.47.31-1.17a4,4,0,0,1-.52.59,1.17,1.17,0,0,1-.54.3,1.07,1.07,0,0,0-.77-1.17,2.75,2.75,0,0,0,1-4q3.52-2.84,6.75-6ZM8,71.81C4.91,74.08,2.07,75.5,1.68,75s1.8-2.82,4.91-5.1,5.94-3.69,6.33-3.16S11.11,69.53,8,71.81Zm46.32-6.75a.52.52,0,1,1-.47.6A.54.54,0,0,1,54.33,65.06Zm-5,13.59a13.35,13.35,0,0,1-.11-3.48,10.09,10.09,0,0,1,.57-2.46,6.45,6.45,0,0,1,1.08-1.95l1-1-.63.08.17-.14a5.68,5.68,0,0,1,1.84-1.2l1.08-.25a38.71,38.71,0,0,0-.86,10.7,8.08,8.08,0,0,0-3.36,3.25A33.38,33.38,0,0,1,49.33,78.65Zm4.24,11.94c-.12-.15-.24-.3-.35-.46A14.38,14.38,0,0,1,53.78,87a8,8,0,0,0-1.58,1.37c-.12-.34-.27-.73-.43-1.16-.43-1.13-1-2.59-1.49-4.32a10.16,10.16,0,0,1,3.21-3.48,21.16,21.16,0,0,0,1.94,7.21A6.75,6.75,0,0,0,53.57,90.58Zm7-8.35A22.69,22.69,0,0,0,58,81.11s1.1,1.61,1.4,1.89a9.38,9.38,0,0,1,1.31,1.34,23.14,23.14,0,0,0,.27,2.48c-.92-.61-3-.66-4.75-.52.4.92,2.06,4.63,3.5,6.08l-.14-.13A22.1,22.1,0,0,1,54,79.17c2.51-.59,5.61,1,6.45,1.41C60.51,81.18,60.56,81.74,60.62,82.23ZM56.15,68.69l.07.05-.7.35.82.48.34.19a7.55,7.55,0,0,1,2,1.5,7.41,7.41,0,0,1,1.46,3.8A11.78,11.78,0,0,0,60.3,77l-.29-.1a14.86,14.86,0,0,0-2.19-.22s2.17,1.76,2.55,2.09c0,.17,0,.38,0,.6s0,.51,0,.76A8.32,8.32,0,0,0,54,78.76a43.24,43.24,0,0,1,.73-10.59A5.72,5.72,0,0,1,56.15,68.69ZM86.41,34.26c0-.16,0-.18.18-.26a1.58,1.58,0,0,0,.26-.19c.13-.1.19,0,.32-.12s.08-.17.21-.27.13-.2.3-.18.09.15.18.27.14.08.22.2.18.14.15.28-.12.15-.25.25-.22,0-.35.08-.07.18-.2.28l-.27.19c-.13.1-.11.11-.27.1s0-.09-.13-.21l-.17-.24C86.49,34.33,86.38,34.4,86.41,34.26Zm-1.64-.89c0-.16.17-.14.2-.3s-.08-.18-.06-.34,0-.16.06-.32,0-.16.12-.26.09,0,.24.05l.29,0c.15,0,.17-.11.25,0s.1.16.06.31a1.68,1.68,0,0,0-.05.32c0,.16-.12.15-.14.31a.76.76,0,0,0,0,.34c0,.16,0,.24-.08.34s-.17,0-.31-.06-.16,0-.3,0-.22,0-.31-.1S84.74,33.53,84.77,33.37Zm-2.35-.26c0-.15.09,0,.21-.13l.24-.18c.12-.09,0-.2.19-.16s.18,0,.26.17a1.58,1.58,0,0,0,.19.26c.1.13,0,.19.12.32s.17.08.27.21.2.14.18.3-.15.09-.27.18-.08.14-.2.22-.14.18-.28.15-.15-.12-.25-.25,0-.22-.07-.35-.19-.07-.28-.2l-.19-.27C82.42,33.25,82.4,33.27,82.42,33.1ZM29.1,79.63,26.41,76,39.6,66.29l2.68,3.65ZM44.87,68.71l-.09.27,0,.23,0,.23,0,.33-.1.27v.2l-.9,0v-.36l.09-.26v-.23l0-.33.05-.32,0-.1-.29,0-.34-.09L43,68.57l-.22-.06-.91,0,.32-.81,0-.32.16-.33,0-.17,0-.33,0-.11h-.12l-.35-.07-.34-.09-.24-.1h-.24l-.77-.1.1-.68,0-.41.16-.25,0-.19.05-.46.14-.22,0-.25.14-.38.85.31-.07.18,0,.35-.19.32v.12l.08.42-.19.29v.07h.21l.33.14.25.06.24,0h.31l.65.14v.68l-.07.27,0,.27,0,.41-.11.22,0,.12.11,0,.27.05.2,0,.26,0,.41.05.58.3Zm4.84-5,0,0-.34-.09-.23-.21-.2-.24-.17-.26-.21-.23-.21-.23-.25-.22.2.24.18.22.13.26.21.2.17.23.16.24.19.22,0,.08-.06.05,0,0H49l-.19-.22-.17-.23-.19-.22-.21-.2-.18-.23-.22-.2.21.21.14.26.22.2.15.25.14.26.19.22,0,.06-.06,0-.07,0-.21-.06-.18-.22-.2-.21-.18-.22-.17-.23-.22-.19.22.24.18.26.19.25.19.26,0,.09-.09,0,0,0-.2.16v.22l.13.18,0,0,.22.21.22.21.24.18.25.18.25.17,0,.11,0,.09-.18.17-.17.18-.22.13-.19.17-.23.11-.23.09h-.07l-.08-.09L48,66.39l-.11-.29-.1-.29-.13-.28-.18-.25h0l-.18-.14L47.16,65l-.22.17,0,0-.06.07-.07,0L46.64,65l-.17-.27-.21-.24-.18-.3.11.3.14.25.16.24.13.25.16.24v.19l0,0,0,.07-.1,0-.13-.26-.18-.22L46.11,65,46,64.77l-.19-.21-.15-.24.14.24.15.25.09.28.15.25.16.24.19.22-.06.2h0l0,0,0,0-.19-.21L46,65.56l-.17-.23-.15-.25-.19-.22-.17-.23-.16-.26.15.28.17.26.13.28.18.25.14.28.2.24-.09.34,0,0-.09,0-.07-.1L45.77,66l-.14-.25-.15-.25-.19-.22-.15-.25L45,64.79l-.17-.27-.07-.31-.12-.3,0-.32v-.32l.17-.28.16-.11.29-.29-.2-.1-.2-.16L44.78,62v-.31l.12-.28.2-.23.31-.09h.31l.3.09.29-.12.29-.13.27-.12-.2.19-.24.18-.19.23v0l.27-.11.27-.13-.24.2-.21.21,0,.21.35-.23.18-.09.31-.07.31.07.3.1.27.16.25.2.25.2.15.25.23.18.2.21.15.25.22.19.17.23.09.08Zm4,0h-.37l-.26-.09H52.9l-.32,0-.32-.05L52,63.47l-.86-.12.35-.78,0-.15,0-.31.09-.34.05-.27,0-.06-.16,0-.33-.16-.17,0-.33,0-.31-.08-.82,0,.17-.82v-.3l.07-.35.09-.34.1-.24v-.08l-.22,0-.25-.16-.19,0-.46-.05-.22-.14-.25,0-.38-.14.31-.85.18.06.35,0,.32.19h.12l.42-.08.29.19.2,0,.8.12-.1.73v.36l-.14.33-.06.25,0,.24v.18l.14,0,.27,0,.41,0,.22.11.29,0,.64.26,0,.64-.09.32-.05.27-.05.2,0,.26,0,.23.08,0,.23,0,.22,0,.34,0,.27.09h.2ZM57.23,67a.46.46,0,1,1,.36-.53A.45.45,0,0,1,57.23,67Zm-3-5.82L51.57,57.5,71.82,42.62l2.68,3.65ZM77.12,45.07l-.09.27,0,.23,0,.22,0,.34-.1.27v.2l-.9,0v-.37l.09-.26v-.23l0-.33.05-.32,0-.1-.29,0L75.55,45l-.27-.05-.22-.06-.91,0,.32-.81,0-.32.16-.33,0-.17,0-.33,0-.11h-.12l-.35-.07-.34-.09-.24-.1h-.25l-.78-.11.11-.67,0-.4.16-.25,0-.19,0-.46.14-.23,0-.25.14-.38.85.31-.06.18,0,.35-.19.32v.12l.08.42-.19.29v.06h.21l.33.14.25.06.24,0h.31l.65.14v.68l-.07.27,0,.27,0,.41-.11.22,0,.12.11,0,.27.05.2.05.26,0,.41.05.58.3Zm2.7-2-.09.27,0,.23,0,.22,0,.34-.1.27v.2l-.9,0v-.37l.09-.26V43.8l0-.32.05-.32,0-.1-.29,0L78.25,43,78,42.95l-.22-.06-.91,0,.32-.81,0-.32.16-.33,0-.17,0-.33,0-.11h-.11l-.35-.07-.34-.09-.24-.1H76l-.77-.1.1-.68,0-.4.16-.25,0-.19.05-.46.14-.22,0-.25.14-.38.85.31-.07.18,0,.35-.19.32v.12l.08.42-.19.29v.06h.21l.33.14.25.06.24,0h.31l.65.14v.68l-.07.27,0,.27,0,.41-.11.22,0,.12.11,0,.27.05.2,0,.26,0,.41.05.58.3Zm1.31-7.35c-.09-.12,0-.18,0-.32s.17-.12.19-.27-.17-.25,0-.33.19,0,.35.05.15.12.31.15l.32,0,.32.05c.16,0,.18-.1.28,0s.1.14.06.27a1.22,1.22,0,0,0,0,.28c0,.15,0,.17-.12.25s-.15.06-.31,0-.16,0-.32-.07-.16,0-.32-.07-.17,0-.33,0S81.23,35.86,81.13,35.74Zm2.31,1.7c0,.16-.06.15-.19.24s-.14.08-.28.18-.15.08-.28.18-.1.14-.23.24-.14.18-.31.17-.14-.1-.23-.22,0-.21-.06-.32-.3-.06-.27-.2.15-.12.28-.21.19,0,.32-.11l.26-.2.26-.19c.13-.1.06-.2.22-.18s.17,0,.23.15a1.19,1.19,0,0,0,.17.23C83.44,37.3,83.48,37.29,83.45,37.44Zm1.62.89c0,.16-.17.14-.2.3s.08.18.06.34,0,.16-.06.32,0,.16-.12.26-.09,0-.24-.05l-.29,0c-.15,0-.17.11-.25,0s-.1-.16-.06-.31a1.65,1.65,0,0,0,.05-.32c0-.16.12-.15.14-.31s-.07-.18,0-.34,0-.24.08-.34.17,0,.32.06.16,0,.3,0,.23,0,.31.1S85.09,38.16,85.06,38.33Zm.4-1.22c-.1,0-.17.16-.28.18a1.42,1.42,0,0,1-.33,0,10.48,10.48,0,0,0-.64-.14,1.42,1.42,0,0,1-.25-.22,1.47,1.47,0,0,1-.26-.21c-.06-.08,0-.25,0-.35s-.18-.16-.2-.27a1.55,1.55,0,0,1,0-.32c0-.1.12-.19.15-.29a1.23,1.23,0,0,1,.1-.28A1.29,1.29,0,0,1,83.9,35a1.33,1.33,0,0,1,.22-.21,1.26,1.26,0,0,1,.26-.16c.1,0,.18-.14.28-.16s.21.06.32.07.22-.08.32,0a1.39,1.39,0,0,1,.31.09,1.45,1.45,0,0,1,.26.21,1.44,1.44,0,0,1,.21.25,1.59,1.59,0,0,1,.18.27c0,.1,0,.23,0,.33a1.27,1.27,0,0,1,0,.31,1.31,1.31,0,0,1-.05.3,1.4,1.4,0,0,1-.07.3c0,.09-.06.22-.13.3a1.64,1.64,0,0,1-.24.22C85.7,37.09,85.56,37.06,85.46,37.1Zm2,1.49c0,.15-.09,0-.21.13l-.24.17c-.12.09,0,.2-.19.16s-.18,0-.26-.17a1.91,1.91,0,0,0-.19-.26c-.1-.13,0-.19-.12-.32S86,38.23,86,38.1s-.2-.14-.18-.3.15-.09.27-.18.08-.14.2-.22.14-.18.28-.15.15.12.25.25,0,.22.07.35.19.07.28.2l.19.27C87.41,38.45,87.43,38.43,87.42,38.59Zm1.29-2.31c0,.15-.17.13-.19.27s.17.25,0,.33-.19,0-.35-.05-.15-.12-.31-.15l-.33,0-.32-.05c-.16,0-.18.1-.28,0s-.1-.14-.06-.27A1.29,1.29,0,0,0,87,36c0-.15,0-.17.12-.25s.15-.06.31,0,.16,0,.32.07.16,0,.32.07.17,0,.33,0,.23,0,.33.1S88.73,36.13,88.71,36.28ZM94.31,34h-.37l-.26-.09h-.23l-.32,0-.32-.05-.26-.08-.86-.12.35-.78,0-.15,0-.31L92.1,32l.05-.27,0-.06-.16,0-.33-.16-.17,0-.33,0-.31-.08-.82,0,.17-.82v-.3l.07-.35.09-.34.1-.24v-.08l-.21,0L90,29.19l-.19,0-.46-.05L89.13,29l-.25,0-.38-.14.31-.85.18.07.35,0,.32.19h.12l.42-.08.29.19.2,0,.8.13-.1.72v.36l-.14.33-.07.25,0,.24v.18l.14,0,.27,0,.41,0,.22.11.29,0,.65.26,0,.64L93,32l-.05.27,0,.2,0,.26,0,.22.08,0,.23,0,.23,0,.34,0,.27.09h.19Zm2.53-1.86h-.37L96.21,32H96l-.33,0L95.34,32l-.26-.08-.86-.12.34-.78,0-.15,0-.31.09-.34.06-.27,0-.06-.16,0-.33-.16-.17,0-.33,0-.31-.08-.82,0,.17-.82v-.3l.07-.35.09-.34.1-.24v-.08l-.22,0-.25-.17-.19,0-.46-.05-.22-.14-.25,0L91,27.08l.31-.85.18.07.35,0,.32.19h.12l.42-.08.29.19.2,0,.8.12-.1.73v.36l-.14.33-.06.25,0,.24v.18l.14,0,.27,0,.41,0,.22.11.29,0,.65.27,0,.63-.09.32-.05.27,0,.2,0,.26,0,.22.08,0,.23,0,.22,0,.34,0,.27.09h.2ZM114.35,22a.3.3,0,1,1,.43,0A.3.3,0,0,1,114.35,22Zm4,8.44a1.42,1.42,0,0,1-.19-.36l-.27-.77-.34.74-.14.31a7.11,7.11,0,0,0-.73-.73l-.17-.16A3.84,3.84,0,0,1,118,26.59l1.42,1.87A2.39,2.39,0,0,0,118.37,30.43Zm1-.47a1.47,1.47,0,0,1,.33-1.13l.11.15A1.75,1.75,0,0,0,119.38,30Zm2.4-4.33a4.88,4.88,0,0,1,.39.46l.23.3a1,1,0,0,1,.15.44v.63a5.43,5.43,0,0,0,.1.94,2.32,2.32,0,0,0-2.77-.17c.19.28.49.75.79,1.28a2,2,0,0,1,1.36.18,1.73,1.73,0,0,0-1.24,0,6.29,6.29,0,0,1,.76,1.89,27.46,27.46,0,0,0-3.19-5.23A6.7,6.7,0,0,1,121.77,25.63Zm-6-3.07a1.08,1.08,0,0,0,.25-.33,1.21,1.21,0,0,0,.54-.16v0l-.2.86.71-.53a2.23,2.23,0,0,1,1-.49,1.16,1.16,0,0,1,.53.09c-.28.12-.48.29-1,.58l.71.12a4.57,4.57,0,0,1,1.28.66,5.46,5.46,0,0,0,.87.48,9,9,0,0,0-1,.66,1.81,1.81,0,0,1,.7,0,2.71,2.71,0,0,1,1,.58,9.91,9.91,0,0,0-3.09,1c-.84-1.16-1.69-2.33-2.42-3.5Zm2,3.79a5,5,0,0,0-1.55,2.89,3.11,3.11,0,0,1-1.18-2.13c0-.45,0-.83,0-.83-.18.2-.55.56-.55.55a4.66,4.66,0,0,0,.29-1.39,5.65,5.65,0,0,1,.31-1.52c.1-.22.19-.71.28-1A36.19,36.19,0,0,0,117.84,26.36ZM115.58,16a2.75,2.75,0,0,0-4.19,2.81,3,3,0,0,0,.08.33L97.33,29.51l-2.68-3.65,15.9-11.68c2.51-1.85,5.1-3.66,7.7-5.4l2.2,3C118.88,13.23,117.25,14.63,115.58,16ZM83.74,70.8c-.25.06-.38.47-.29.91s.38.78.65.71.4-.48.29-.92S84,70.74,83.74,70.8Zm-1.84.33c-.25,0-.42.42-.37.88s.31.8.59.77.44-.45.37-.9S82.16,71.11,81.9,71.13Zm.92-.15c-.25,0-.4.45-.33.9s.35.78.62.73.42-.45.33-.9S83.08,70.94,82.83,71Zm2.72-.67c-.24.07-.34.5-.21.93s.45.73.72.65.36-.5.21-.94S85.79,70.23,85.54,70.31Zm-.89.27c-.25.06-.36.47-.25.92s.42.75.69.69.38-.5.25-.94S84.9,70.52,84.65,70.58Zm-6.48.72c-.26,0-.49.36-.51.82s.18.84.46.84.51-.36.51-.82S78.43,71.31,78.17,71.3ZM81,71.23c-.25,0-.44.42-.41.87s.28.82.56.79.46-.42.41-.88S81.23,71.21,81,71.23ZM86.43,70c-.24.09-.32.52-.17.95s.48.71.74.61.34-.53.17-1S86.67,69.92,86.43,70Zm-7.32,1.32c-.26,0-.47.36-.48.82s.21.84.49.84.49-.39.48-.85S79.36,71.33,79.11,71.33Zm-1.87-.07c-.26,0-.5.33-.54.79s.14.85.42.87.52-.33.54-.79S77.49,71.27,77.23,71.25Zm2.81,0c-.26,0-.46.39-.45.85s.24.82.52.81.48-.39.45-.85S80.3,71.28,80,71.29Zm11.37-3.86c-.21.15-.19.57.06,1s.64.57.87.42.2-.59-.06-1S91.63,67.29,91.41,67.44Zm1.53-1.1c-.21.15-.15.58.12.95s.68.53.9.36.15-.61-.13-1S93.15,66.18,92.94,66.33Zm.73-.6c-.2.17-.13.59.16.95s.69.5.91.33.14-.6-.16-.95S93.87,65.57,93.67,65.74Zm-3,2.22c-.22.13-.21.56,0,1s.62.6.86.46.22-.58,0-1S90.85,67.82,90.62,68Zm3.76-2.83c-.19.18-.11.6.19.94s.71.49.92.3.12-.61-.2-.95S94.57,64.94,94.38,65.12Zm-4.56,3.31c-.22.13-.23.55,0,1s.6.63.84.49.24-.58,0-1S90,68.3,89.82,68.43Zm-1.67.86c-.23.11-.27.53-.09,1s.54.67.79.55.3-.54.09-1S88.39,69.18,88.15,69.29Zm-.85.39c-.24.09-.3.51-.13.94s.51.69.77.59.31-.55.12-1S87.54,69.57,87.3,69.68Zm1.69-.8c-.23.12-.25.55,0,1s.56.64.81.51.27-.56,0-1S89.22,68.75,89,68.87Zm3.19-2c-.2.16-.17.58.09,1s.66.56.88.39.18-.6-.1-1S92.39,66.74,92.18,66.9ZM66.36,68.22c-.24-.1-.59.13-.79.55s-.16.85.09,1,.61-.14.79-.56S66.6,68.33,66.36,68.22Zm-2.55-1.29c-.23-.13-.6.09-.82.49s-.21.83,0,1,.61-.09.82-.49S64,67.06,63.81,66.93ZM76.3,71.17c-.26,0-.51.3-.57.76s.11.86.39.89.54-.33.58-.78S76.55,71.2,76.3,71.17ZM65.51,67.81c-.23-.12-.59.12-.8.53s-.18.84.07,1,.6-.11.8-.53S65.74,67.92,65.51,67.81Zm-.85-.43c-.23-.12-.6.11-.81.52s-.2.84,0,1,.61-.11.82-.52S64.89,67.5,64.65,67.38ZM62.15,66c-.23-.14-.6.07-.84.46s-.24.83,0,1,.61-.07.84-.47S62.37,66.13,62.15,66Zm51.8-42.1c0-.27-.33-.52-.79-.55s-.84.16-.86.42.33.51.79.55S113.93,24.16,113.95,23.89Zm-1.59-1.08c0,.26.34.49.8.53s.84-.17.86-.44-.35-.51-.81-.53S112.37,22.56,112.36,22.81ZM60.52,65c-.22-.15-.6,0-.85.43s-.27.82,0,1,.62-.06.86-.45S60.74,65.13,60.52,65Zm.82.5c-.23-.14-.6.07-.85.45s-.25.82,0,1,.61-.06.85-.45S61.56,65.63,61.34,65.49Zm1.64,1c-.23-.13-.6.09-.83.48s-.23.83,0,1,.61-.08.83-.49S63.21,66.59,63,66.46ZM73.51,70.7c-.25-.05-.55.27-.65.71s0,.85.3.91.56-.26.65-.71S73.77,70.75,73.51,70.7Zm-.92-.22c-.25-.07-.55.24-.67.68s0,.86.26.93.57-.23.67-.68S72.85,70.55,72.6,70.48Zm-.91-.25c-.25-.06-.56.23-.7.67s0,.86.24.93.58-.23.7-.67S71.93,70.3,71.68,70.24Zm3.68.8c-.26,0-.53.3-.6.75s.08.85.36.89.54-.3.6-.75S75.62,71.08,75.37,71Zm-.93-.15c-.25-.05-.53.27-.63.72s.05.86.32.92.56-.29.63-.73S74.69,71,74.44,70.89Zm-7.2-2.28c-.24-.11-.59.15-.78.56s-.14.85.11,1,.6-.14.78-.56S67.47,68.72,67.23,68.61ZM70.78,70c-.25-.08-.57.21-.71.64s-.05.86.21.94.58-.2.71-.64S71,70,70.78,70ZM69,69.33c-.24-.09-.58.17-.75.6s-.1.85.16,1,.59-.17.75-.6S69.23,69.43,69,69.33ZM68.11,69c-.25-.09-.58.16-.76.58s-.13.86.13,1,.6-.17.77-.59S68.35,69.08,68.11,69Zm1.77.67c-.25-.08-.57.19-.73.62s-.08.87.18.95.59-.2.74-.63S70.13,69.74,69.88,69.66Zm30.13-11c-.15.22,0,.61.4.88s.81.31,1,.08,0-.62-.4-.88S100.16,58.49,100,58.71Zm9-19c-.08.25.21.57.65.71s.86,0,.94-.22-.21-.58-.65-.71S109,39.45,109,39.7Zm.28-.92c-.07.25.22.57.66.7s.86,0,.94-.23-.22-.57-.66-.7S109.32,38.53,109.24,38.78Zm.53-1.85c-.07.26.23.56.67.69s.86,0,.93-.25-.23-.57-.67-.69S109.85,36.68,109.78,36.93Zm-.26.93c-.08.25.22.56.66.7s.86,0,.94-.24-.22-.57-.67-.7S109.59,37.6,109.51,37.86Zm-.84,2.76c-.08.25.2.57.64.72s.86.05.94-.21-.21-.58-.64-.72S108.75,40.37,108.67,40.62Zm-1.26,3.63c-.09.25.18.58.61.75s.86.09.95-.17-.18-.59-.61-.74S107.5,44,107.41,44.25ZM95.08,64.48c-.19.18-.1.59.21.93s.73.46.93.27.09-.62-.23-.94S95.27,64.31,95.08,64.48ZM110,36c-.07.26.24.56.68.68s.86,0,.93-.26-.23-.57-.68-.68S110.1,35.75,110,36Zm-3,9.14c-.09.25.17.58.6.75s.85.1,1-.15-.17-.59-.6-.75S107.16,44.9,107.07,45.15Zm.67-1.8c-.09.25.18.58.62.74s.85.08.95-.17-.19-.59-.62-.74S107.83,43.1,107.74,43.35Zm.32-.91c-.09.25.19.58.63.73s.85.07.94-.19-.19-.58-.63-.73S108.15,42.19,108.06,42.44ZM112,26.6c0,.26.3.53.75.6s.85-.09.89-.36-.3-.54-.75-.6S112,26.34,112,26.6Zm-1.7,8.47c-.07.26.24.56.68.68s.86,0,.93-.27-.24-.57-.69-.68S110.33,34.82,110.27,35.07Zm1.24-5.63c0,.26.28.54.73.63s.86-.06.91-.33-.28-.55-.73-.63S111.56,29.18,111.51,29.44Zm.17-.95c0,.26.29.54.74.62s.85-.07.9-.34-.28-.55-.74-.62S111.72,28.23,111.67,28.5Zm-5,17.55c-.1.24.16.58.59.76s.85.11,1-.14-.17-.59-.59-.76S106.82,45.8,106.72,46Zm5.11-18.49c0,.26.29.53.75.61s.85-.08.9-.35-.29-.54-.75-.61S111.87,27.29,111.83,27.55Zm-.5,2.83c-.05.26.27.55.72.64s.86,0,.91-.32-.27-.55-.72-.64S111.38,30.12,111.33,30.38Zm-.61,2.82c-.06.26.25.56.7.66s.86,0,.92-.29-.25-.56-.7-.66S110.78,32.95,110.72,33.2Zm-.22.94c-.06.26.25.56.69.67s.86,0,.92-.28-.25-.56-.69-.67S110.57,33.88,110.5,34.14Zm.64-2.81c-.05.26.26.55.71.64s.86,0,.92-.3-.27-.56-.72-.65S111.19,31.07,111.14,31.33Zm-.2.94c-.06.26.26.55.71.65s.86,0,.92-.3-.26-.56-.71-.65S111,32,110.94,32.27Zm-2.56,9.27c-.08.25.2.57.63.72s.86.06.94-.2-.2-.58-.64-.73S108.45,41.28,108.37,41.53Zm-8.92,18c-.16.21,0,.61.38.88s.79.32,1,.1,0-.62-.38-.88S99.61,59.27,99.45,59.48ZM98.29,61c-.16.21,0,.61.34.9s.78.36,1,.15,0-.62-.34-.9S98.45,60.79,98.29,61Zm.59-.75c-.16.21,0,.6.36.89s.79.34,1,.13,0-.62-.37-.9S99,60,98.88,60.25Zm1.67-2.32c-.15.22,0,.6.41.86s.81.29,1,.07,0-.62-.42-.87S100.7,57.71,100.55,57.93Zm.53-.8c-.14.22,0,.6.43.86s.81.27,1,0,0-.61-.43-.86S101.22,56.91,101.08,57.13Zm-4.66,6c-.18.19-.05.61.27.92s.75.42.94.22.06-.62-.28-.92S96.59,62.95,96.41,63.14Zm-.66.68c-.18.18-.07.6.24.93s.74.44.93.24.09-.61-.24-.93S95.94,63.63,95.76,63.82Zm1.92-2.1c-.17.2,0,.6.32.91s.77.38.95.17,0-.61-.32-.91S97.85,61.52,97.68,61.72Zm3.91-5.4c-.14.23.06.6.45.85s.82.26,1,0-.06-.61-.45-.85S101.73,56.1,101.59,56.32Zm-4.53,6.12c-.18.19,0,.6.29.91s.76.4.95.2,0-.62-.3-.92S97.23,62.25,97.06,62.44ZM103.5,53c-.13.23.1.6.5.82s.84.2,1,0-.1-.61-.5-.82S103.62,52.77,103.5,53Zm1.7-3.44c-.11.24.14.59.55.79s.84.15,1-.09-.13-.6-.55-.79S105.31,49.33,105.2,49.57Zm-3.11,5.94c-.14.22.07.6.46.84s.82.24,1,0-.07-.61-.47-.84S102.23,55.28,102.09,55.51Zm3.51-6.81c-.11.24.14.59.56.78s.85.14,1-.1-.15-.6-.57-.78S105.7,48.46,105.6,48.7Zm.38-.88c-.1.24.15.59.57.77s.85.13,1-.12-.15-.59-.57-.77S106.08,47.57,106,47.82Zm-1.6,3.49c-.12.24.12.59.52.8s.84.18,1-.06-.12-.61-.53-.81S104.49,51.07,104.38,51.3Zm.42-.86c-.12.24.13.6.54.8s.84.17,1-.08-.12-.6-.54-.79S104.91,50.2,104.79,50.44Zm-2.22,4.24c-.13.23.08.6.48.83s.83.23,1,0-.08-.61-.48-.83S102.7,54.45,102.57,54.68Zm1.37-2.52c-.12.24.11.6.52.81s.84.19,1-.05-.11-.61-.52-.81S104.06,51.92,103.94,52.16Zm-.9,1.69c-.12.23.09.6.49.83s.84.22,1,0-.09-.61-.5-.83S103.17,53.62,103,53.85Zm3.31-6.92c-.1.25.16.59.58.77s.85.12,1-.13-.16-.59-.58-.77S106.45,46.69,106.35,46.93Z"/></g></g></svg>