<svg xmlns="http://www.w3.org/2000/svg" viewBox="0 0 87.05 78.55"><title>Ресурс 1</title><g id="Слой_2" data-name="Слой 2"><g id="Слой_1-2" data-name="Слой 1"><path d="M81.35,34.35,80.07,33.2a2.57,2.57,0,0,0,0,.59c.93,2.93,1.88,5.87,2.82,8.8q.67,2.12,1.3,4.25a3.08,3.08,0,0,1,.07.9A5.27,5.27,0,0,0,85,50.52a10.91,10.91,0,0,1,.51,1.14l-.22.16-1.21-.9L84,51c0,.18.07.36.11.54a36,36,0,0,1,1.25,5.41A17.26,17.26,0,0,0,87,62.65.66.66,0,0,1,87,63a4.65,4.65,0,0,1-.19.61,1.6,1.6,0,0,1-.52-.21c-.32-.3-.59-.65-.9-1s-.68-.27-1.17-.16c-1.37.31-1.53,1.3-1.72,2.41a18.81,18.81,0,0,0,.74,9.39,11.87,11.87,0,0,0,1.5,2.31c.15.23.4.64.32.74-.22.28-.61.65-.9.62a5.12,5.12,0,0,1-1.89-.58c-1.32-.73-2.58-1.56-3.86-2.35L72.23,71a2.66,2.66,0,0,0-.75-.36,7.48,7.48,0,0,1-3-1.62,1.44,1.44,0,0,0-.73-.37c-.22,0-.62.14-.67.3-.59,2-1.45,3.92-1,6.08a21.13,21.13,0,0,1,.19,2.24c-.57-.2-.93-.3-1.27-.45-1-.47-2.07-.92-3.06-1.47S59.82,74,58.75,73.4a13.82,13.82,0,0,0-2.11-.78c-.1,0-.28,0-.34,0-.58.65-1.64.79-1.9,1.77s-.66,2.23-.05,3.37a1.79,1.79,0,0,1,.06.65l-.16.12a4.38,4.38,0,0,1-.92-.76A11.94,11.94,0,0,0,49.95,75c-1.92-1.33-3.72-2.83-5.62-4.2a19,19,0,0,0-2.69-1.56c-.69-.34-1.94.46-2.27,1.48s-.94,1.16-1.84,1.33c.16-.69.31-1.28.43-1.89a9.84,9.84,0,0,0-.73-5.45A9,9,0,0,0,35,60.91a2.29,2.29,0,0,1-.51-1.38c-.18-1.64-.23-3.29-.43-4.92a5.67,5.67,0,0,0-2.84-4.09,4.21,4.21,0,0,0-.76-.28l.39,1.89c-.53-.57-1-1.06-1.48-1.6-1.16-1.44-2.77-1.7-4.46-1.91a14.7,14.7,0,0,0-4.55.1,7,7,0,0,1-2.53-.19c-1.44-.29-2.85-.68-4.28-1a.81.81,0,0,0-.57.07l.71.38-.06.17L6.27,45.79v.68a19.35,19.35,0,0,0-1.56-1.36,6.61,6.61,0,0,0-1.58-.82A1.89,1.89,0,0,1,2,43.36c-.54-1-1.15-2-1.7-3S0,38.5,1.12,38.15a26.65,26.65,0,0,1,3.07-.53c1.07-.19,2.13-.41,3.19-.62A.68.68,0,0,0,8,36.28a4.19,4.19,0,0,1,.29-1.14,2.79,2.79,0,0,1,.45-.6l.21.07c0,.33.05.66.1,1s.19.79.81.55,1.07-.3,1.13-1a1.9,1.9,0,0,1,.26-.57l.3.18.22.95a7.8,7.8,0,0,0,4.49-.8,22.77,22.77,0,0,0,3.3-2.3,5.21,5.21,0,0,0,1.37-2.27,6.25,6.25,0,0,0-.58-5.55c-.69-1-1.29-2.15-2-3.19a11.5,11.5,0,0,0-4.08-3.81,5,5,0,0,1-2.16-2.36c-1-2-2.06-4-3.07-6S8,7,10.19,5.9a6.5,6.5,0,0,0,1.44-.83,4.24,4.24,0,0,0,1.07-1.39,11.38,11.38,0,0,1,3-3.46A.93.93,0,0,1,17,.36a12.21,12.21,0,0,1,1.35,1.49,11.86,11.86,0,0,0,4.37,3.66c2.41,1.19,4.71,2.6,7.06,3.9a7.6,7.6,0,0,0,1.52.67,2.68,2.68,0,0,0,2.45-.36,13.07,13.07,0,0,1,1.8-1A3.63,3.63,0,0,1,38,8.37a12.69,12.69,0,0,0,2.56.19,26.43,26.43,0,0,1,6.53,1.28,42.81,42.81,0,0,1,9.46,3.63,1.86,1.86,0,0,0,.93.2,6,6,0,0,1,2.85.74,3.3,3.3,0,0,0,1.94.15,24,24,0,0,0,3.6-1.06c1.44-.54,2-.28,2.76,1.22a9.56,9.56,0,0,1,.72,3.43c.19,2,.72,3.83,2.77,4.78a1.5,1.5,0,0,1,.39.37l1.72,1.85c.21.22.44.41.66.62a50.12,50.12,0,0,1,3.93,4,33.72,33.72,0,0,1,2.52,4.19C81.4,34,81.37,34.11,81.35,34.35Z"/></g></g></svg>