<svg xmlns="http://www.w3.org/2000/svg" width="84" height="96" viewBox="0 0 84.08 96"><defs><style>.cls-1{fill:#1a1a1a;}</style></defs><title>Ресурс 2</title><g id="Слой_2" data-name="Слой 2"><g id="Слой_1-2" data-name="Слой 1"><path class="cls-1" d="M77.79,63.31c2.13,1.75,4,3.19,5.72,1S82.34,60.87,81.91,58s-.48-2.86-.91-5.73-.51-2.86-.95-5.73.49-3-1.4-5.19c-2.08-2.41-2.54-1.11-5.53-2.22s-2.81-1.57-5.8-2.68-3.89.29-6.49-1.56c-1.35-1-1.53-2.2-1.27-3.83a11.71,11.71,0,0,0,5.35-3.65c1.15-1.66.89-3.72.89-5.9,0-1.88.54-3.75-.34-5.27s-2-3.53-3.53-4.44-3.73-.55-5.62-.55a10.2,10.2,0,0,0-5.14,1.38,10.45,10.45,0,0,0-3.95,3.65,10.92,10.92,0,0,0-1.79,5.23,11.53,11.53,0,0,0,2.21,6.87c1.43,1.79,4.15,2.56,6.46,3.09.8,1.44.46,1.64-.86,2.61-2.42,1.78-2.56.61-5.51,1.22s-2.95.63-5.9,1.25-2.92,3-5.62,1.66S34.66,36,33.51,33.38s-1.22-2.6-2.36-5.23-2.66-2.65-1.73-5.36c1.06-3.11,2.74-1.63,5.43-3.52s2.39-2.32,5.08-4.21,2.19-3.13,5.35-4c1.27-.37.84,1.61,2.16,1.5,2.09-.18,1.89-.27,3-2,.86-1.37-1.86-.71-3-1.3.26-1,1.39-.33,2.38-.28,1.62.09,1.27,1.37,2.89,1.52,1,.09,1.58-.55,1.18-1.45-.68-1.52-2.24-.25-2.61-1.88C51,5.77,53.83,6.8,53.93,5.48c.13-1.55-.54-1.8-2.07-2.13-1.36-.3-1.51,2.54-2.49,1.56-1.75-1.75,1.26-3.49-.92-4.66-1.68-.9-1.52.8-1.92,2.66-.36,1.67,1.2,1.69,1.12,3.4,0,.52-1.64,1.56-1.93,1.13-1-1.38.85-2.32-.49-3.34-.84-.64-1.19-.27-1.45.75-.47,1.79,0,1.84.12,3.69,0,.19-.34,1-.49.89-.22-.65.69-3.18-.08-3.05A3.22,3.22,0,0,0,40.92,8c-.44.82,1,1.1.38,1.8-1.84,2.14-2,1.79-4.26,3.45s-2.25,1.7-4.54,3.36S31,20.24,28.24,20.71c-1.28.21.09-2.26-1.18-2.54-2.32-.51-2.63-.78-3.88,1.24s1.12,1.88.12,4c-1.32,2.78-2.24,1.88-4.73,3.69s-1.89,2.63-4.38,4.45-3,1.06-5.54,2.88-2.09,2.33-5.12,2.92c-1.44.28-.89-2.82-1.89-1.75-2.12,2.26-2,3-.63,5.74,1.24,2.4,2.15,3,4.66,2,1.42-.57-1.33-1.87-.5-3.16,1.62-2.49,2.25-1.69,4.68-3.4s2.28-1.91,4.71-3.62,2.11-2.16,4.54-3.86,2.11-3.39,4.88-2.31.45,2.36,1.16,5.28,1.19,2.81,1.9,5.74-1.42,4.71,1.07,6.4,3.49-1.09,6.63-1.41,3.25.82,6.38.5,3-1.74,6.12-2.06,3.61-1.87,5.83.37c2.37,2.39.89,2.9.78,6.26s0,3.37-.1,6.74,2.09,4.86-.17,7.35c-2.44,2.68-4.32-.21-7.89.48s-4.23-.66-7.33,1.22c-2.6,1.59-1,3.23-2.69,5.76s-2.47,2-4.17,4.53-.62,3.25-2.31,5.77-4,1.37-3.21,4.31,1.31,3,4.47,2.6c2.57-.33,2-1,3.45-3.13s.56-2.42,2.15-4.78c.92-1.38,1.81-3,2.74-4.39,1.58-2.37.64-3.76,3.11-4.55,3.07-1,3.41.58,6.63.32s3.15-1.11,6.37-1.37,3.75-2,5.79.52c1.82,2.23-.33,2.16-1.7,4.68s-3.83,2-3.53,4.89,2.17,2.2,4,4.36,2.31,1.77,4.18,3.92,1.65,2.34,3.52,4.49S68,96.08,70.8,96c3.86-.11,5-.79,5.67-4.58.56-3.28-1.76-2.31-4.06-4.72S70,84.37,67.73,82s-4.26-1.59-4.66-4.89c-.35-2.89,2.59-1.85,4.32-4.2s2-2.41,2.72-5.23.1-2.89-.24-5.73A17.7,17.7,0,0,1,68,56.38c-.34-2.84.84-3,.5-5.83s-3.39-3.8-1.21-5.65,3.91-.9,6,1.21.36,3.18,1.05,6.12,2,2.77,2.27,5.78S75.45,61.39,77.79,63.31Z"/></g></g></svg>