<svg xmlns="http://www.w3.org/2000/svg" width="108" height="120" viewBox="0 0 107.61 120"><defs><style>.cls-1{fill:#1a1a1a;}</style></defs><title>Ресурс 2</title><g id="Слой_2" data-name="Слой 2"><g id="Слой_1-2" data-name="Слой 1"><path class="cls-1" d="M61.45,24.56a1.21,1.21,0,0,0-.23-.46,3.48,3.48,0,0,0-1.81-.84,5.49,5.49,0,0,1-1.48-.55l-.32.19L58,24.39a1.21,1.21,0,0,0,.23.47A3.44,3.44,0,0,0,60,25.7a5.4,5.4,0,0,1,1.51.56l0,0h0a.19.19,0,0,0,.14,0,.17.17,0,0,0,.13-.19Zm-7.1-.49h0a.19.19,0,0,0,0,.14.17.17,0,0,0,.23.07L56,23.38a1.36,1.36,0,0,0,.39-.38,3.4,3.4,0,0,0,.26-2,5.54,5.54,0,0,1,.06-1.63v0h0a.19.19,0,0,0,0-.14.17.17,0,0,0-.23-.06l-1.37.9a1.28,1.28,0,0,0-.38.37,3.61,3.61,0,0,0-.27,2A5,5,0,0,1,54.36,24Zm-5.19-.15h0a.19.19,0,0,0,0-.14.17.17,0,0,0-.22-.09c-.47.24-.94.47-1.41.67a1.21,1.21,0,0,0-.24.14,1.72,1.72,0,0,0-.72,2c.39.94,1.23,1.46,1.73,1a3.12,3.12,0,0,0,.6-2,6.23,6.23,0,0,1,.26-1.6Zm6.09-10.8a1.23,1.23,0,0,0,.22.47,3.45,3.45,0,0,0,1.8.87,5.35,5.35,0,0,1,1.5.59l0,0h0a.19.19,0,0,0,.14,0,.16.16,0,0,0,.14-.19l-.37-1.55a1.21,1.21,0,0,0-.22-.47A3.47,3.47,0,0,0,56.69,12a5.27,5.27,0,0,1-1.5-.59l0,0h0a.19.19,0,0,0-.14,0,.17.17,0,0,0-.14.19ZM51.7,25.61h0a.19.19,0,0,0,0,.14.17.17,0,0,0,.23.08c.5-.27,1-.56,1.48-.84a1.38,1.38,0,0,0,.41-.37,3.36,3.36,0,0,0,.33-2,5.61,5.61,0,0,1,.1-1.62v0h0a.19.19,0,0,0,0-.14.17.17,0,0,0-.23-.07l-1.38.86a1.31,1.31,0,0,0-.39.36,3.67,3.67,0,0,0-.34,2,4.84,4.84,0,0,1-.19,1.63ZM48.92,27h0a.18.18,0,0,0,0,.14.17.17,0,0,0,.23.09c.53-.24,1.05-.5,1.56-.76a1.39,1.39,0,0,0,.43-.35,3.29,3.29,0,0,0,.42-2,5.68,5.68,0,0,1,.16-1.62v0h0a.18.18,0,0,0,0-.14.17.17,0,0,0-.22-.08l-1.4.79a1.26,1.26,0,0,0-.4.33,3.79,3.79,0,0,0-.44,2A4.61,4.61,0,0,1,48.93,27Zm8-4.58a.19.19,0,0,0,0,.14.17.17,0,0,0,.23.06l1.4-.92a1.32,1.32,0,0,0,.38-.39,3.43,3.43,0,0,0,.22-2,5.49,5.49,0,0,1,0-1.63v0h0a.19.19,0,0,0,0-.14.17.17,0,0,0-.23-.06l-1.35.93a1.3,1.3,0,0,0-.37.38,3.58,3.58,0,0,0-.22,2,5.14,5.14,0,0,1-.08,1.63v0ZM69.24,10a.2.2,0,0,0,0,.07,4.22,4.22,0,0,0,0,1.93,5.2,5.2,0,0,1,.06,1.63v0h0a.19.19,0,0,0,0,.14.17.17,0,0,0,.23,0l1.32-1,.16-.15h0c.4-.27,1.66-1.24.61-2.44A1.59,1.59,0,0,0,69.24,10Zm-4.79,7.44a.17.17,0,0,0,.23,0l1.34-1a1.31,1.31,0,0,0,.36-.4,3.45,3.45,0,0,0,.12-2,5.48,5.48,0,0,1,0-1.63v0h0a.19.19,0,0,0,0-.14.17.17,0,0,0-.23,0l-1.31,1a1.29,1.29,0,0,0-.36.4,3.54,3.54,0,0,0-.13,2,5.19,5.19,0,0,1,0,1.63v0h0A.18.18,0,0,0,64.44,17.39ZM62,19.16a.17.17,0,0,0,.23.05l1.36-1a1.32,1.32,0,0,0,.37-.4,3.46,3.46,0,0,0,.15-2,5.43,5.43,0,0,1,0-1.63v0h0A.19.19,0,0,0,64,14a.17.17,0,0,0-.23,0l-1.32,1a1.3,1.3,0,0,0-.36.39,3.54,3.54,0,0,0-.16,2A5.18,5.18,0,0,1,62,19v0A.19.19,0,0,0,62,19.16Zm.19,8.19a1.21,1.21,0,0,0-.23-.46,3.5,3.5,0,0,0-1.81-.83,5.23,5.23,0,0,1-1.51-.56l0,0h0a.19.19,0,0,0-.14,0,.17.17,0,0,0-.13.19l.4,1.55a1.23,1.23,0,0,0,.23.47,3.43,3.43,0,0,0,1.82.83,5.47,5.47,0,0,1,1.52.54l0,0h0a.19.19,0,0,0,.14,0,.17.17,0,0,0,.13-.19Zm-1.3,1.51a5.18,5.18,0,0,1-1.52-.55l0,0h0a.19.19,0,0,0-.14,0,.17.17,0,0,0-.13.19L59.48,30a1.24,1.24,0,0,0,.24.47,3.38,3.38,0,0,0,1.83.8,5.78,5.78,0,0,1,1.53.49h0a.19.19,0,0,0,.14,0,.17.17,0,0,0,.13-.19q-.22-.74-.44-1.5a1.19,1.19,0,0,0-.24-.45A3.53,3.53,0,0,0,60.87,28.86Zm6-13.27a.17.17,0,0,0,.24,0l1.33-1a1.33,1.33,0,0,0,.36-.41,3.45,3.45,0,0,0,.1-2,5.54,5.54,0,0,1-.07-1.63v0h0a.18.18,0,0,0,0-.14.17.17,0,0,0-.23,0l-1.29,1a1.29,1.29,0,0,0-.35.4,3.55,3.55,0,0,0-.1,2,5.22,5.22,0,0,1,0,1.63v0h0A.19.19,0,0,0,66.88,15.59Zm4.39,23.65c-.63-1.55-2.65-2.14-3.38-2.3a7.36,7.36,0,0,1-.21,2c.51-.1,1.89.8,2.37,1.25-.07-.63-.88-2.1-1.81-2.11A5.43,5.43,0,0,1,71.27,39.24ZM45.06,24.69h0a55.86,55.86,0,0,0,11-5.71c-.78-3.49-2.36-10.18-2.76-11.9l-.55-.23a19.26,19.26,0,0,0-2.31-.8c-7.07-1.93-11,2-11.88,6.82S39.91,23.28,45.06,24.69Zm62.55-8.44c-7.8,1.87-22.79-.41-35.72-3.55a80.73,80.73,0,0,1-10.82,8.12c1.2,4.65,2.43,8.85,2.7,9.87.18.7.41,1.35.57,1.93,10.82,6.47,21.19,16.92,20.44,32.26C98.09,54.58,107.45,23.84,107.61,16.26ZM100,39.1a95.67,95.67,0,0,1-7.09,14.27A45.06,45.06,0,0,1,86,62.24a30.87,30.87,0,0,0-.84-6.2c11-9.27,16.38-29.83,17-37.92a33.45,33.45,0,0,0,4.12-.37C105.75,22.14,103.46,30.59,100,39.1ZM71.32,53A18,18,0,0,1,74,54.59a86.4,86.4,0,0,0-4-12.51,4.39,4.39,0,0,0-3.27-2.71,3.71,3.71,0,0,0-3.3-5.49,1.83,1.83,0,0,0,.1-1.51l-.06-.06a4,4,0,0,0-1.78-.67,5.05,5.05,0,0,1-1.53-.52l0,0a.19.19,0,0,0-.14,0,.17.17,0,0,0-.13.2c.15.52.3,1,.46,1.56a1.45,1.45,0,0,0,.12.27,2,2,0,0,0,1,1.38A3.71,3.71,0,1,0,66.28,40a3.74,3.74,0,0,1,3.06,2.38,95.37,95.37,0,0,1,3.6,10.74,4.21,4.21,0,0,0-2.35-.5,14.25,14.25,0,0,1,3,4.87c-1.18-.93-2.54-2.21-3.78-2.5l.18.79c1.28.41,2.81,1.9,4,2.84a11.34,11.34,0,0,1,.28,1.53v.06c.12,1,.31,2.67.33,4.45a20,20,0,0,1-1.67-1.82c-.64-.79-1.13-1.34-1.82-1.45.66,3.72,1.31,7.69,1.94,10.72-.37-1.27-.77-2.76-1.16-4.34-1.06-4.87-2.13-11-3.09-15-.15-.65-.32-1.34-.5-2.06a5.16,5.16,0,0,1,1.84.12,4.29,4.29,0,0,0-2-.82c-.82-3.37-1.77-7.12-2.33-9.35a8.16,8.16,0,0,1-.9.57c.44,1.64,1.07,4,1.66,6.15-1,.52-2,2.24-2.6,2.73.77-.41,1.76-1.54,2.8-2,.52,2,1,3.74,1.24,4.79.13.55.3,1.36.51,2.34-1,.69-2.16,2.66-3.24,4a13,13,0,0,1-.46-3.1,10.82,10.82,0,0,0-.71-3.71c-.28-.95-.6-2-.86-3.23-.57-2.67-1-5.18-.38-6.49a6.1,6.1,0,0,1,.55-.88,9,9,0,0,1-1,.26c-.06.11-.12.21-.17.31-.71,1.45-.33,3.85.32,6.93s1.68,5.22,1.56,6.75,1,5.31,1.28,6.7A19.23,19.23,0,0,0,67.21,61a5.89,5.89,0,0,0-.52,4.89c.92,2.73,3.69,6.69,6.32,6.46,3.09-2.29,2.22-9.58,1.91-12.29A13.61,13.61,0,0,0,71.32,53ZM63.73,39.08A1.51,1.51,0,1,1,64.9,37.3,1.51,1.51,0,0,1,63.73,39.08Zm3.49,26.22a12.62,12.62,0,0,1,.58-5.08,4.78,4.78,0,0,0-2,1.29l-.17-.7-.16-.64a25.6,25.6,0,0,1,3.17-4.23c.33,1.62.73,3.61,1.18,5.65A8.54,8.54,0,0,0,67.22,65.29Zm2,2.69c.15-.52.57-2.53,1.41-3l.08.33A10.81,10.81,0,0,0,69.18,68Zm-10-35q-1.26,3.31-2.7,7l-.28.28C55,41.51,54,42.94,52.92,44.23a40.11,40.11,0,0,1-4.46,4.27c-.95.8-1.91,1.57-2.89,2.33l-.06,0a13.8,13.8,0,0,1-4.88-3.14q1.19-2.54,2.33-5A92.86,92.86,0,0,0,50,35.72,67.27,67.27,0,0,0,56,28.36c.86.37,1.74.77,2.63,1.19-.35-1.72-.93-4.11-1.47-6.36a47,47,0,0,0-5.05,3.61c1.07.39,2.19.83,3.34,1.31-.91,1.31-1.89,2.57-2.9,3.81a85.6,85.6,0,0,1-8.94,9.34c2.09-4.58,4.06-9,5.86-13.12l-1.9-.2c-3.34,7.63-7.23,16.23-11.43,25C30.58,64.47,24.52,76.26,18.47,86.44S6.4,105.18,1,110.21a3.22,3.22,0,0,0-.91,1.5A3.17,3.17,0,0,0,0,112.78a3.35,3.35,0,0,0,1.33,2.44,39.74,39.74,0,0,0,8.16,4.25,7.21,7.21,0,0,0,.84.29h0a6.83,6.83,0,0,0,7.9-3.33c4.15-8,11.94-21.27,19.77-35.34S53.73,52.14,58.08,40.91q1.24-3.21,2.36-6.12A5.91,5.91,0,0,1,59.17,33ZM43.89,52.21a1.19,1.19,0,1,1-1.46.83A1.19,1.19,0,0,1,43.89,52.21Zm-4.33-2.72a.94.94,0,1,1-1.15.66A.94.94,0,0,1,39.56,49.49Zm-3.44,7.63.44.4A11.08,11.08,0,0,0,35.2,59Zm.9-1.91a1,1,0,1,1,.73,1.28A1,1,0,0,1,37,55.21ZM20,87.37c1.43-2.41,2.86-4.9,4.28-7.46-.4,1.92-.8,3.83-1.11,5.77a61.08,61.08,0,0,0-.62,6.62c-.07,1.38-.12,2.77-.16,4.16a13.36,13.36,0,0,1-5.13-4.6Q18.68,89.67,20,87.37Zm-17.6,26.4a1.53,1.53,0,0,1-.62-1.11,1.38,1.38,0,0,1,0-.46,1.41,1.41,0,0,1,.4-.65A55.65,55.65,0,0,0,6.55,107a5.43,5.43,0,0,1,.39,1.18,7.65,7.65,0,0,1-1.13,5.54,11.06,11.06,0,0,1-1.12,1.48A19.34,19.34,0,0,1,2.44,113.76Zm8.22,4.18-.46-.16c-1.63-.67-3.42-1.46-5-2.3A11,11,0,0,0,6.8,113.2a8.15,8.15,0,0,0,.65-5.51A5.17,5.17,0,0,0,7,106.47q1.72-2.06,3.47-4.44a9.23,9.23,0,0,0,.76,2.45c.69,1.49,1.67,2.82,2.36,4.31.77,1.64-.09,3.53-.8,5S11.39,116.58,10.66,117.94Zm6-2.36a5,5,0,0,1-5.37,2.51q1.06-2,2-4a8.34,8.34,0,0,0,1.14-4.46c-.16-1.5-1.26-2.9-2-4.17a11.48,11.48,0,0,1-1.24-2.86,20.21,20.21,0,0,0,9.21,6C19,111.22,17.68,113.56,16.63,115.58Zm3.91-7.84-.19-.82,0-.82v0l-.09,0-.8.26-1.59.29.07-1.36-.24-.65H17l-2,.78.9-2.09v0h-.12l-.75-.05-1.61.4.26-1.82-.37.18-1.71.13.5-1.72.06-.28-.25,0-.83-.15.21-1.18.8.14,1.54.17-.35,1.6.35-.17,1.76-.21-.52,1.74h.06l.86.06,1.37-.09-.05,1.42h.42l1.42-.41,0,1.42.25.66v.09h0l.7-.23,1.51-.53.18,1.6,0,.75.16.71Zm-6-9.67a.82.82,0,1,1,.57,1A.82.82,0,0,1,14.5,98.07Zm3.34,2.68a.84.84,0,1,1,.59,1A.84.84,0,0,1,17.83,100.75ZM22.09,104a.73.73,0,1,1,.9-.51A.73.73,0,0,1,22.09,104Zm3.34-2.49-.75.11-1.33.73-.06-1.51-.17-.67-.62.31-1.42.51-.25-1.57v-.2h-.65l-1.28.34-.16-1.72,0-.31-.18,0-1.68.26.12-1.5-.09-.65-.17.06-1.66.18v-1.3l0-.75.13-.75,1.19.2-.1.62,0,.64h0l.19,0,1.75-.65-.1,1.66.1.73v.11l.18,0L20,96.1l-.08,1.69L20,98h.74L22,97.77l0,1.53v0l.73-.36,1.73-.53L24.32,100l.11.43.63-.09.57-.29.54,1.07Zm.89-3.39A17.31,17.31,0,0,1,23,96.78q0-.85,0-1.7c.08-2.3.16-4.62.4-6.91a69.56,69.56,0,0,1,1.16-6.86c.23-1.1.47-2.19.72-3.29,2.65-4.84,5.28-9.88,7.83-15-.18.52-.35,1-.51,1.54a21.46,21.46,0,0,0-1,5.83c0,1,0,2-.08,3.07a23.06,23.06,0,0,1-.55,3.6c-.92,4.38-1.92,8.75-2.52,13.19a28.94,28.94,0,0,0-.26,4.43ZM36.42,80.2c-2.58,4.64-5.16,9.19-7.6,13.49A63.68,63.68,0,0,1,30.36,83c.44-2.29,1-4.55,1.47-6.84a40.25,40.25,0,0,0,.44-6.24,21.46,21.46,0,0,1,1.29-6.09,14.57,14.57,0,0,1,2.81-5.3c.2-.21.4-.41.62-.61a17.5,17.5,0,0,0,4.52,3c.57.22,1.13.41,1.66.59-1.71,1.39-3.4,2.81-5,4.28-1,.88-2.09,2-2.16,3.38a1.61,1.61,0,0,0,1.8,1.76A8.35,8.35,0,0,0,41,69.33a11.54,11.54,0,0,1,1.93-1C40.8,72.29,38.61,76.27,36.42,80.2Zm7.06-22a1.24,1.24,0,1,1,.87,1.52A1.24,1.24,0,0,1,43.48,58.2Zm-.15,9.34a16,16,0,0,0-3.23,1.64c-.75.48-2.64,1.86-3.34.7-.87-1.44,1.14-3.12,2.07-3.93,1.39-1.22,2.78-2.45,4.21-3.63l.78-.63c.91.27,1.71.48,2.26.61Q44.74,64.89,43.33,67.54ZM49,58.22l-.89.38H46.83l-.39-1.06-.29-.71-.2-.53-.39-.21-.51,0-.62.26-.74.22-.75.24-.92.09-.86-.28-.91-.53L40,55l.11-.7-.2-.38-.43-.31L39,53.35l-.51.15-.7.25h0l-.4-1.13.72-.26,1-.29,1,.46.75.54.51,1-.14.84.11.39.37.22.5.16.54-.05.65-.21.68-.2.8-.35,1.06.05,1,.56.36.93.29.72.11.29h.2l.55-.23.58-.43.71,1Zm-1.13-3.69a1,1,0,1,1,.69,1.22A1,1,0,0,1,47.87,54.53Zm3.39-2.6a14.89,14.89,0,0,1-5.06-.87,44.68,44.68,0,0,0,8.24-7.75c.45-.58.91-1.16,1.4-1.72C54.57,44.79,53,48.27,51.26,51.93ZM62.15,41.48c-.74-.12-1.39-.26-1.39-.26C60,43,58.66,42.55,58,43.52c.63-.07,1.49-.12,1.49-.12s-1.09,1.77-.55,2.76c.24-1.19,1.09-1.48,1.49-2.34a3.38,3.38,0,0,1-.06,2.58A4.1,4.1,0,0,0,61.47,45,5.39,5.39,0,0,1,62.15,41.48ZM55.93,15.93a1.22,1.22,0,0,0,.22.47,3.45,3.45,0,0,0,1.8.86l.51.15,1-.73-.13-.54a1.22,1.22,0,0,0-.22-.47,3.47,3.47,0,0,0-1.8-.86,5.33,5.33,0,0,1-1.5-.59l0,0h0a.19.19,0,0,0-.14,0,.17.17,0,0,0-.14.19Zm4.82,5.83a1.21,1.21,0,0,0-.22-.46l-.07-.08-1.08.64-1.15.68a9.63,9.63,0,0,0,1.11.36,5.38,5.38,0,0,1,1.51.57l0,0h0a.19.19,0,0,0,.14,0,.17.17,0,0,0,.14-.19Zm-4.15-3.08,1.53-1-.08,0a5.3,5.3,0,0,1-1.5-.58l0,0h0a.2.2,0,0,0-.14,0,.17.17,0,0,0-.14.19Zm1.51-6.46,0,0h0a.19.19,0,0,0,.14,0,.17.17,0,0,0,.14-.19L58,10.53a1.21,1.21,0,0,0-.22-.47A3.46,3.46,0,0,0,56,9.18a5.3,5.3,0,0,1-1.5-.6l0,0h0a.19.19,0,0,0-.14,0,.17.17,0,0,0-.14.19l.36,1.55a1.22,1.22,0,0,0,.22.47,3.45,3.45,0,0,0,1.79.87A5.38,5.38,0,0,1,58.11,12.23Zm.63-6.06c.62-1.52,1.11-2.74,1.46-3.63a1.21,1.21,0,0,1,1.46-.67h0L61.95,1l-.26.87a28.17,28.17,0,0,1,3.68,1.45C64.12,4.68,63,6.18,61.78,7.48L60,9.41,58.66,9A58.28,58.28,0,0,0,60,16.35a40.48,40.48,0,0,0,6.27-5.09c-2-.54-3.87-1.1-5.63-1.64C62,8.18,63.29,6.73,64.56,5.22c.46-.54.93-1.08,1.42-1.6,1,.46,1.83.92,2.52,1.3a1.17,1.17,0,0,1,.6,1.32l0,.08Q68.61,7.63,67.75,10l2.56-1.74.48-1.36q0-.1.06-.2a3,3,0,0,0-1.48-3.39A40.68,40.68,0,0,0,62.21.13h0l-.08,0A3,3,0,0,0,58.5,1.86l-1,2.39A2.24,2.24,0,0,1,58.73,6.16Zm2.92,11.42a5.45,5.45,0,0,1,0-1.63v0h0a.18.18,0,0,0,0-.14.17.17,0,0,0-.23-.05l-1.34,1a1.3,1.3,0,0,0-.37.39,3.56,3.56,0,0,0-.19,2,5.19,5.19,0,0,1,0,1.63v0h0a.19.19,0,0,0,0,.14.17.17,0,0,0,.23.06l1.37-1a1.33,1.33,0,0,0,.37-.39A3.44,3.44,0,0,0,61.65,17.58ZM55.95,8.82a5.34,5.34,0,0,1,1.5.59l0,0h0a.19.19,0,0,0,.14,0,.17.17,0,0,0,.14-.19l-.36-1.55a1.25,1.25,0,0,0-.12-.32l-.09-.15c-.51-.7-.66-1.26-1.81-1.1,0,0-1.69.45-1.21,1.79A3.44,3.44,0,0,0,55.95,8.82Z"/></g></g></svg>