<svg xmlns="http://www.w3.org/2000/svg" width="166" height="67" viewBox="0 0 166.1 66.53"><defs><style>.cls-1{fill:#1a1a1a;}.cls-2{fill:#fff;}</style></defs><title>Ресурс 2</title><g id="Слой_2" data-name="Слой 2"><g id="Слой_1-2" data-name="Слой 1"><path class="cls-1" d="M1.75,47.55a8.66,8.66,0,0,0,1.36-.77,31.69,31.69,0,0,0,2.52-2.22h0A9.93,9.93,0,0,1,8.41,42.7h0l.49-.18a4.35,4.35,0,0,0-.52,1,4.14,4.14,0,0,0-.25,1.4A3.4,3.4,0,0,0,8.6,46.7h0a2.7,2.7,0,0,0,1.15,1.06,2.45,2.45,0,0,0,1.1.24,4.7,4.7,0,0,0,1.85-.45,8.68,8.68,0,0,0,1.36-.77,31.7,31.7,0,0,0,2.52-2.22h0a10,10,0,0,1,2.76-1.86h0l.49-.18a4.34,4.34,0,0,0-.52,1,4.17,4.17,0,0,0-.25,1.4,3.41,3.41,0,0,0,.47,1.78,2.71,2.71,0,0,0,1.14,1,2.45,2.45,0,0,0,1.1.24,4.7,4.7,0,0,0,1.85-.45A8.7,8.7,0,0,0,25,46.78a31.7,31.7,0,0,0,2.52-2.22h0A10,10,0,0,1,30.3,42.7h0l.49-.18a4.33,4.33,0,0,0-.52,1,4.15,4.15,0,0,0-.25,1.4,3.4,3.4,0,0,0,.47,1.78h0a2.69,2.69,0,0,0,1.14,1,2.45,2.45,0,0,0,1.1.24,4.7,4.7,0,0,0,1.85-.45,8.65,8.65,0,0,0,1.36-.77,31.77,31.77,0,0,0,2.52-2.22h0a10,10,0,0,1,2.76-1.86h0l.49-.18a4.29,4.29,0,0,0-.52,1h0A4.12,4.12,0,0,0,41,44.93a3.4,3.4,0,0,0,.47,1.78,2.71,2.71,0,0,0,1.14,1,2.45,2.45,0,0,0,1.1.24,4.7,4.7,0,0,0,1.85-.45,8.68,8.68,0,0,0,1.36-.77,31.76,31.76,0,0,0,2.52-2.22h0a10,10,0,0,1,2.76-1.86h0l.49-.18a4.31,4.31,0,0,0-.52,1,4.14,4.14,0,0,0-.25,1.4,3.4,3.4,0,0,0,.46,1.76,2.71,2.71,0,0,0,1.15,1.06,2.45,2.45,0,0,0,1.1.24,4.7,4.7,0,0,0,1.85-.45,8.69,8.69,0,0,0,1.36-.77,31.75,31.75,0,0,0,2.52-2.22h0a10,10,0,0,1,2.76-1.86h0l.49-.18a4.34,4.34,0,0,0-.51,1,4.15,4.15,0,0,0-.25,1.4,3.4,3.4,0,0,0,.47,1.78,2.71,2.71,0,0,0,1.14,1,2.45,2.45,0,0,0,1.1.24,4.71,4.71,0,0,0,1.85-.45,8.68,8.68,0,0,0,1.36-.77,31.76,31.76,0,0,0,2.52-2.22h0a10,10,0,0,1,2.76-1.86l.5-.19a4.34,4.34,0,0,0-.51,1,4.14,4.14,0,0,0-.25,1.4,3.41,3.41,0,0,0,.46,1.76,2.71,2.71,0,0,0,1.15,1.06,2.45,2.45,0,0,0,1.1.24,4.7,4.7,0,0,0,1.85-.45,8.68,8.68,0,0,0,1.36-.77,31.81,31.81,0,0,0,2.52-2.22h0A10,10,0,0,1,85,42.7l.5-.19a4.33,4.33,0,0,0-.51,1,4.14,4.14,0,0,0-.25,1.4,3.41,3.41,0,0,0,.47,1.78,2.71,2.71,0,0,0,1.14,1,2.45,2.45,0,0,0,1.1.24,4.71,4.71,0,0,0,1.85-.45,8.68,8.68,0,0,0,1.36-.77,31.76,31.76,0,0,0,2.52-2.22h0A10,10,0,0,1,96,42.7l.5-.19a4.33,4.33,0,0,0-.51,1,4.16,4.16,0,0,0-.25,1.4,3.4,3.4,0,0,0,.47,1.78,2.71,2.71,0,0,0,1.14,1,2.45,2.45,0,0,0,1.1.24,4.71,4.71,0,0,0,1.85-.45,8.68,8.68,0,0,0,1.36-.77,31.65,31.65,0,0,0,2.52-2.22h0a10,10,0,0,1,2.76-1.86l.5-.19a4.36,4.36,0,0,0-.52,1,4.16,4.16,0,0,0-.24,1.4,3.4,3.4,0,0,0,.47,1.78,2.71,2.71,0,0,0,1.14,1,2.45,2.45,0,0,0,1.1.24,4.7,4.7,0,0,0,1.85-.45,8.68,8.68,0,0,0,1.36-.77,31.69,31.69,0,0,0,2.52-2.22h0a10,10,0,0,1,2.76-1.86l.5-.19a4.32,4.32,0,0,0-.51,1,4.17,4.17,0,0,0-.25,1.4A3.4,3.4,0,0,0,118,46.7a2.71,2.71,0,0,0,1.15,1.06,2.45,2.45,0,0,0,1.1.24,4.7,4.7,0,0,0,1.85-.45,8.69,8.69,0,0,0,1.37-.77A31.81,31.81,0,0,0,126,44.57h0a10,10,0,0,1,2.76-1.86l.5-.19a4.33,4.33,0,0,0-.51,1,4.15,4.15,0,0,0-.24,1.4A3.4,3.4,0,0,0,129,46.7a2.71,2.71,0,0,0,1.15,1.06,2.45,2.45,0,0,0,1.1.24,4.7,4.7,0,0,0,1.85-.45,8.69,8.69,0,0,0,1.36-.77A31.76,31.76,0,0,0,137,44.57h0a10,10,0,0,1,2.76-1.86l.5-.19a4.32,4.32,0,0,0-.52,1,4.11,4.11,0,0,0-.24,1.38,3.4,3.4,0,0,0,.47,1.78,2.71,2.71,0,0,0,1.14,1,2.45,2.45,0,0,0,1.1.24,4.7,4.7,0,0,0,1.85-.45,8.69,8.69,0,0,0,1.37-.77,31.87,31.87,0,0,0,2.52-2.22h0a9.94,9.94,0,0,1,2.76-1.86l.5-.19a4.32,4.32,0,0,0-.51,1,4.14,4.14,0,0,0-.25,1.4,3.4,3.4,0,0,0,.46,1.76h0A2.71,2.71,0,0,0,152,47.76a2.45,2.45,0,0,0,1.1.24,4.7,4.7,0,0,0,1.85-.45,8.71,8.71,0,0,0,1.37-.77,31.75,31.75,0,0,0,2.52-2.22h0a10,10,0,0,1,2.76-1.86l.5-.19a4.4,4.4,0,0,0-.51,1,4.15,4.15,0,0,0-.24,1.4,3.4,3.4,0,0,0,.47,1.78,2.7,2.7,0,0,0,1.14,1h0a2.46,2.46,0,0,0,1.1.24l.4,0a1.66,1.66,0,0,0,1.42-1.27l.05-.22a.57.57,0,0,0-.78-.65h0a2.92,2.92,0,0,1-1.09.29.58.58,0,0,1-.26,0h0a.81.81,0,0,1-.37-.33v0a1.55,1.55,0,0,1-.19-.8,2.28,2.28,0,0,1,.13-.77v0a2.57,2.57,0,0,1,1.12-1.35,2.7,2.7,0,0,1,.58-.24l.18,0,.07,0,.06,0,.08,0a1,1,0,0,0,.24-.13.94.94,0,0,0-.33-1.67,6.18,6.18,0,0,0-1.78-.25,6.78,6.78,0,0,0-2.71.57,11.73,11.73,0,0,0-3.28,2.19c-1,.85-1.72,1.65-2.34,2.08a6.68,6.68,0,0,1-1.05.59,2.91,2.91,0,0,1-1.09.29.59.59,0,0,1-.26,0,.82.82,0,0,1-.37-.33v0a1.56,1.56,0,0,1-.19-.8,2.26,2.26,0,0,1,.13-.77v0a2.57,2.57,0,0,1,1.12-1.35,2.7,2.7,0,0,1,.58-.24l.18,0,.07,0,.06,0,.08,0a.89.89,0,0,0,.24-.13.94.94,0,0,0-.33-1.67,6.18,6.18,0,0,0-1.78-.26A6.78,6.78,0,0,0,150,41a11.74,11.74,0,0,0-3.3,2.21c-1,.85-1.71,1.64-2.33,2.07a6.7,6.7,0,0,1-1.05.59,2.91,2.91,0,0,1-1.09.29.6.6,0,0,1-.26,0,.82.82,0,0,1-.37-.33v0a1.56,1.56,0,0,1-.19-.8,2.29,2.29,0,0,1,.13-.77v0a2.57,2.57,0,0,1,1.12-1.35,2.69,2.69,0,0,1,.58-.24l.18,0,.07,0,.06,0,.08,0a1,1,0,0,0,.24-.13.94.94,0,0,0-.33-1.67,6.18,6.18,0,0,0-1.78-.25A6.78,6.78,0,0,0,139,41a11.73,11.73,0,0,0-3.29,2.19c-1,.85-1.72,1.65-2.34,2.08a6.64,6.64,0,0,1-1.06.59,2.91,2.91,0,0,1-1.09.29.59.59,0,0,1-.26,0,.82.82,0,0,1-.37-.33v0a1.56,1.56,0,0,1-.19-.8,2.28,2.28,0,0,1,.13-.77v0a2.57,2.57,0,0,1,1.12-1.35,2.7,2.7,0,0,1,.58-.24l.18,0,.07,0,.06,0,.08,0a1,1,0,0,0,.24-.13.94.94,0,0,0-.33-1.67,6.17,6.17,0,0,0-1.78-.26,6.78,6.78,0,0,0-2.71.57,11.72,11.72,0,0,0-3.29,2.19c-1,.85-1.72,1.65-2.34,2.08a6.67,6.67,0,0,1-1.05.59,2.91,2.91,0,0,1-1.09.29.59.59,0,0,1-.26,0,.82.82,0,0,1-.37-.33v0a1.56,1.56,0,0,1-.19-.8,2.25,2.25,0,0,1,.13-.77v0a2.58,2.58,0,0,1,1.12-1.35,2.71,2.71,0,0,1,.58-.24l.18,0,.07,0,.06,0,.08,0a.94.94,0,0,0-.09-1.79,6.18,6.18,0,0,0-1.78-.25,6.78,6.78,0,0,0-2.71.57,11.72,11.72,0,0,0-3.29,2.19c-1,.85-1.72,1.65-2.34,2.08a6.65,6.65,0,0,1-1.05.59,2.92,2.92,0,0,1-1.09.29.59.59,0,0,1-.26,0,.82.82,0,0,1-.37-.33v0a1.56,1.56,0,0,1-.19-.8,2.29,2.29,0,0,1,.13-.77v0a2.58,2.58,0,0,1,1.12-1.35,2.72,2.72,0,0,1,.58-.24l.18,0,.07,0,.06,0,.08,0a1,1,0,0,0,.24-.13.94.94,0,0,0-.33-1.67,6.18,6.18,0,0,0-1.78-.25,6.78,6.78,0,0,0-2.71.57,11.74,11.74,0,0,0-3.3,2.21c-1,.85-1.71,1.64-2.33,2.07a6.66,6.66,0,0,1-1.05.59,2.92,2.92,0,0,1-1.09.29.59.59,0,0,1-.26,0,.82.82,0,0,1-.37-.33v0a1.56,1.56,0,0,1-.19-.8,2.28,2.28,0,0,1,.13-.77v0a2.58,2.58,0,0,1,1.12-1.35,2.7,2.7,0,0,1,.58-.24l.18,0,.07,0,.06,0,.08,0a.94.94,0,0,0,.24-.13.94.94,0,0,0-.33-1.67,6.19,6.19,0,0,0-1.78-.25,6.79,6.79,0,0,0-2.71.57,11.71,11.71,0,0,0-3.28,2.19c-1,.85-1.72,1.65-2.34,2.08a6.67,6.67,0,0,1-1.05.59,2.91,2.91,0,0,1-1.09.29.59.59,0,0,1-.26,0,.82.82,0,0,1-.37-.33v0a1.57,1.57,0,0,1-.19-.8,2.28,2.28,0,0,1,.13-.77v0a2.57,2.57,0,0,1,1.12-1.35,2.69,2.69,0,0,1,.58-.24l.18,0,.07,0,.06,0,.08,0a1,1,0,0,0,.24-.13.94.94,0,0,0-.33-1.67A6.17,6.17,0,0,0,87,40.4a6.78,6.78,0,0,0-2.71.57A11.71,11.71,0,0,0,81,43.17c-1,.85-1.72,1.65-2.34,2.08a6.69,6.69,0,0,1-1.05.59,2.92,2.92,0,0,1-1.09.29.59.59,0,0,1-.26,0,.82.82,0,0,1-.37-.33v0a1.57,1.57,0,0,1-.19-.8,2.28,2.28,0,0,1,.13-.77v0A2.57,2.57,0,0,1,77,42.79a2.68,2.68,0,0,1,.58-.24l.18,0,.07,0,.06,0,.08,0a1,1,0,0,0,.24-.13.94.94,0,0,0-.33-1.67A6.18,6.18,0,0,0,76,40.4a6.78,6.78,0,0,0-2.71.57,11.73,11.73,0,0,0-3.28,2.19c-1,.85-1.72,1.65-2.34,2.08a6.62,6.62,0,0,1-1.05.59,2.91,2.91,0,0,1-1.09.29.59.59,0,0,1-.26,0,.81.81,0,0,1-.37-.33v0a1.56,1.56,0,0,1-.19-.8,2.29,2.29,0,0,1,.13-.77v0A2.57,2.57,0,0,1,66,42.79a2.69,2.69,0,0,1,.58-.24l.18,0,.07,0,.06,0,.08,0a1,1,0,0,0,.24-.13.94.94,0,0,0-.33-1.67,6.18,6.18,0,0,0-1.78-.26A6.79,6.79,0,0,0,62.4,41h0a11.74,11.74,0,0,0-3.28,2.19c-1,.85-1.72,1.65-2.34,2.08a6.66,6.66,0,0,1-1.05.59,2.91,2.91,0,0,1-1.09.29.6.6,0,0,1-.26,0,.82.82,0,0,1-.37-.33v0a1.56,1.56,0,0,1-.19-.8,2.28,2.28,0,0,1,.13-.77v0a2.57,2.57,0,0,1,1.12-1.35,2.69,2.69,0,0,1,.58-.24l.18,0,.07,0,.06,0,.08,0a.89.89,0,0,0,.24-.13.94.94,0,0,0-.33-1.67,6.19,6.19,0,0,0-1.78-.26,6.78,6.78,0,0,0-2.71.57h0a11.74,11.74,0,0,0-3.28,2.19c-1,.85-1.72,1.65-2.34,2.08a6.71,6.71,0,0,1-1.05.59,2.92,2.92,0,0,1-1.09.29.59.59,0,0,1-.26,0,.82.82,0,0,1-.37-.33v0a1.56,1.56,0,0,1-.19-.8,2.28,2.28,0,0,1,.13-.77v0a2.58,2.58,0,0,1,1.12-1.35,2.72,2.72,0,0,1,.58-.24l.18,0,.07,0,.06,0,.08,0a.94.94,0,0,0,.24-.13A.94.94,0,0,0,45,40.66a6.18,6.18,0,0,0-1.78-.25,6.78,6.78,0,0,0-2.71.57,11.79,11.79,0,0,0-3.3,2.21c-1,.85-1.71,1.64-2.33,2.07a6.64,6.64,0,0,1-1.05.59,2.92,2.92,0,0,1-1.09.29.6.6,0,0,1-.26,0,.82.82,0,0,1-.37-.33v0a1.56,1.56,0,0,1-.19-.8,2.28,2.28,0,0,1,.13-.77v0a2.57,2.57,0,0,1,1.12-1.35,2.69,2.69,0,0,1,.58-.24l.18,0,.07,0,.06,0,.08,0a.94.94,0,0,0,.24-.13.94.94,0,0,0-.33-1.67,6.18,6.18,0,0,0-1.78-.25,6.78,6.78,0,0,0-2.71.57,11.75,11.75,0,0,0-3.28,2.19c-1,.85-1.72,1.65-2.34,2.08a6.66,6.66,0,0,1-1.05.59,2.92,2.92,0,0,1-1.09.29.59.59,0,0,1-.26,0,.81.81,0,0,1-.37-.33v0a1.56,1.56,0,0,1-.19-.8,2.28,2.28,0,0,1,.13-.77v0a2.57,2.57,0,0,1,1.12-1.35,2.68,2.68,0,0,1,.58-.24l.18,0,.07,0,.06,0,.08,0a1,1,0,0,0,.24-.13.94.94,0,0,0-.33-1.67,6.18,6.18,0,0,0-1.78-.25,6.78,6.78,0,0,0-2.71.57h0a11.73,11.73,0,0,0-3.28,2.19c-1,.85-1.72,1.65-2.34,2.08a6.7,6.7,0,0,1-1.06.59,2.91,2.91,0,0,1-1.09.29.59.59,0,0,1-.26,0,.82.82,0,0,1-.37-.33v0a1.55,1.55,0,0,1-.19-.8,2.28,2.28,0,0,1,.13-.77v0a2.57,2.57,0,0,1,1.12-1.35,2.7,2.7,0,0,1,.58-.24l.18,0,.07,0,.06,0,.08,0a.94.94,0,0,0,.24-.13.94.94,0,0,0-.33-1.67,6.18,6.18,0,0,0-1.78-.25A6.79,6.79,0,0,0,7.67,41h0a11.78,11.78,0,0,0-3.3,2.21C3.42,44,2.67,44.82,2,45.24A6.66,6.66,0,0,1,1,45.84L.7,46A1.06,1.06,0,0,0,0,47v.14a.77.77,0,0,0,1,.74A6.42,6.42,0,0,0,1.75,47.55Z"/><path class="cls-1" d="M152.22,22.55c-.17-.15-.24,0-.44,0s-.19.17-.4.2-.22-.12-.43-.1a1.74,1.74,0,0,1-.41,0c-.19,0-.22,0-.35.21s0,.15.07.38,0,.23,0,.46-.14.24,0,.38.16.11.36.09l.41,0c.21,0,.19-.19.4-.22s.23.21.44.18.29.05.43-.14,0-.27,0-.51-.1-.22-.12-.45S152.38,22.68,152.22,22.55Z"/><path class="cls-1" d="M149.35,23.63a2.88,2.88,0,0,0-.08-.5,2.72,2.72,0,0,0-.16-.48,2.29,2.29,0,0,0-.29-.37c-.1-.12-.27-.1-.39-.19s-.18-.29-.31-.35-.27,0-.41,0a1.33,1.33,0,0,0-.39,0,1.36,1.36,0,0,0-.37.1,1.45,1.45,0,0,0-.34.2,1.67,1.67,0,0,0-.29.3c-.09.12-.28.14-.35.28a2.55,2.55,0,0,0-.18.45c0,.15.06.35.05.52s-.2.33-.19.49a2.86,2.86,0,0,0,.15.49,2.84,2.84,0,0,0,.14.49c.07.14.22.23.32.35a2.19,2.19,0,0,0,.3.35,2,2,0,0,0,.36.26c.13.06.28,0,.42,0s.27.17.4.16a1.59,1.59,0,0,0,.41-.1c.13-.05.22-.22.33-.31a1.92,1.92,0,0,0,.27-.35A2,2,0,0,0,149,25a2.22,2.22,0,0,0,.17-.43c0-.16.18-.28.19-.45A2.91,2.91,0,0,0,149.35,23.63Z"/><path class="cls-1" d="M147.71,18.95a3.3,3.3,0,0,1,0-.5.47.47,0,0,0-.18-.44c-.14-.16-.12.05-.31.07l-.38,0c-.19,0-.2-.18-.31,0s-.09.19-.06.45,0,.26,0,.51.16.24.19.5-.16.28-.14.54,0,.36.12.54.22.05.41,0,.18-.12.37-.14.3.16.41,0,0-.29,0-.55-.14-.24-.17-.5S147.73,19.2,147.71,18.95Z"/><path class="cls-1" d="M150.58,19.54l-.3-.3c-.15-.15,0-.3-.23-.26s-.17.05-.3.25l-.26.39c-.13.2,0,.31-.15.51s-.28.05-.41.25-.23.22-.22.48.13.23.28.38.2.08.34.22.13.37.31.34.17-.19.3-.39a1.33,1.33,0,0,1,.16-.49c.13-.2.22-.1.35-.3a2.51,2.51,0,0,1,.26-.39c.14-.16.14-.2.13-.46S150.73,19.69,150.58,19.54Z"/><path class="cls-1" d="M143.73,21.05c.16.16.21.09.37.26s.15.19.31.36.15.19.31.35.16.21.37.2.17-.06.29-.24a1.89,1.89,0,0,1,.23-.35c.13-.14.14-.18.1-.41s-.13-.1-.3-.26l-.33-.33-.33-.32c-.16-.16-.09-.29-.25-.45s-.15-.36-.36-.35,0,.31-.16.49-.26,0-.38.21-.23.21-.19.44S143.56,20.89,143.73,21.05Z"/><path class="cls-1" d="M142.86,25.14c.17.15.24,0,.44,0s.2-.12.41-.14.21,0,.42,0,.21,0,.42,0,.23,0,.37-.17.08-.19.06-.43a2.42,2.42,0,0,1,0-.45.37.37,0,0,0-.16-.39c-.17-.15-.15,0-.35.07l-.41,0-.41.06c-.21,0-.22-.13-.43-.11s-.31-.13-.45.06.15.26.17.49-.16.25-.14.49S142.71,25,142.86,25.14Z"/><path class="cls-1" d="M148.62,28.6c0-.26-.16-.24-.19-.5s.16-.28.14-.54,0-.36-.12-.54-.22-.05-.41,0-.18.12-.37.14-.3-.16-.41,0,0,.29,0,.55.14.24.17.5-.1.27-.07.53a3.33,3.33,0,0,1,0,.5.47.47,0,0,0,.18.44c.14.16.12-.05.31-.07l.37,0c.19,0,.2.18.31,0s.09-.19.06-.45S148.64,28.86,148.62,28.6Z"/><path class="cls-1" d="M150.93,28.18c.19,0,0-.31.16-.49s.26,0,.38-.21.23-.21.2-.44-.15-.24-.31-.4-.21-.09-.37-.26-.15-.19-.31-.36-.15-.19-.31-.35-.16-.21-.37-.2-.17.06-.29.24a1.85,1.85,0,0,1-.23.35c-.12.14-.14.18-.1.41s.13.1.3.26l.33.33.33.32c.16.16.09.29.25.45S150.73,28.19,150.93,28.18Z"/><path class="cls-1" d="M144.51,28.15l.3.3c.15.15,0,.3.23.26s.17-.06.3-.25l.26-.39c.13-.2,0-.31.15-.51s.28-.05.41-.25.23-.22.22-.48-.13-.23-.28-.38-.19-.08-.34-.22-.12-.37-.31-.34-.17.19-.3.39,0,.29-.16.49-.22.1-.35.3a2.45,2.45,0,0,1-.26.39c-.14.16-.14.2-.12.46S144.36,28,144.51,28.15Z"/><path class="cls-1" d="M155.78,19a27.13,27.13,0,0,0-1.1-3.54,28.21,28.21,0,0,0-5.85-9.19A30.65,30.65,0,0,0,144.4,2.4c-.92-.66-1.88-1.25-2.85-1.84l-.68-.41a.8.8,0,0,0-1.16,1,21,21,0,0,1,.85,2.5A12.91,12.91,0,0,1,138,14a21.33,21.33,0,0,1-7.73,6.48,15.68,15.68,0,0,1-6.92,1.81H42.28a15.82,15.82,0,0,1-7.13-1.93,21.23,21.23,0,0,1-7.69-6.62A12.73,12.73,0,0,1,25.16,3.36,24,24,0,0,1,26,1.05.78.78,0,0,0,24.84.11c-.78.47-1.55.94-2.31,1.43a30.21,30.21,0,0,0-8.29,7.85,27.39,27.39,0,0,0-4.4,22.11A26.4,26.4,0,0,0,14.15,41q.59.82,1.25,1.59L16,42l.5-.44q-.44-.52-.86-1.07c7.66-6.5,17.7-6.94,23.15-8.38a27.39,27.39,0,0,0,8.83-4.57h11c0,.25,0,.5,0,.77,0,1.13.05,2.38.05,3.65A17,17,0,0,1,58,37.28c-.29.85-.64,1.94-1.08,3.14a2,2,0,0,1,.29.58l.37-1,1.52-.18-1.31-.45c.25-.72.46-1.36.64-1.91,0-.13.08-.26.12-.4l1.29,0-1.15-.51A15.56,15.56,0,0,0,59,34l.92-.09-.88-.5c0-.47,0-.94,0-1.41,0-.62,0-1.24,0-1.84l.94-.22L59,29.62c0-.44,0-.86,0-1.26s0-.52,0-.77H88.17c0,.05,0,.1,0,.15,0,.55,0,1.14,0,1.76l-1.15.59,1.2.28q.07,1,.21,2.2l-1.22.64,1.33.2q.13.93.31,1.91l-1,.7,1.12.14q.2,1,.46,2.07l-1.11.72h1.29q.18.69.38,1.39l-.14.12a1.7,1.7,0,0,1,.35.75h.05q.34,1.11.75,2.24l.37-.35a47.33,47.33,0,0,1-2.8-15.35c0-.05,0-.1,0-.15H117.2c-.06.17-.18.47-.35.89a50.19,50.19,0,0,1-5.45,10c-.35.48-.71.94-1.07,1.39l.49.13c.32-.41.64-.82,1-1.25l.12-.17,1.42.21-1-.79c.48-.69.94-1.41,1.37-2.13a8.49,8.49,0,0,0,1.43.17,4.76,4.76,0,0,0-1.12-.71,62.1,62.1,0,0,0,3.79-7.78H126c.55,0,1.1,0,1.65,0a15.22,15.22,0,0,0,6.57-1.74,16.75,16.75,0,0,0,1.64-1,35.25,35.25,0,0,1,3.57,3.26l-.94,2L140,28.76q.67.73,1.33,1.54l-.8,1.54,1.36-.84q.57.74,1.13,1.53l-.9,1.61,1.29-1q.53.79,1,1.64L143.79,36l1.1-.55a31.16,31.16,0,0,1,2.7,6.32l.39-.33a35.85,35.85,0,0,0-11.73-16.86,16.64,16.64,0,0,0,3.52-3.4A16.84,16.84,0,0,0,142.95,14a21.23,21.23,0,0,0-.58-9.46q-.16-.59-.36-1.17a.4.4,0,0,1,.6-.46,29.84,29.84,0,0,1,4.78,3.9,27.25,27.25,0,0,1,4.14,5.35,26,26,0,0,1,3.58,12.09,25.73,25.73,0,0,1-.48,6.16,25.28,25.28,0,0,1-1.94,5.85,24.8,24.8,0,0,1-2.19,3.73,5.84,5.84,0,0,1,2-.42A26.53,26.53,0,0,0,156,30.8,27.43,27.43,0,0,0,155.78,19Z"/><path class="cls-2" d="M38.63,31.71,37.44,32l-.81-1.25.14,1.39c-1,.2-2,.39-3.13.6L33,31.4,33,32.87c-1.89.36-4,.79-6.08,1.41l-.69-1.17.08,1.35c-1.14.34-2.29.75-3.44,1.22L22,34.56l.26,1.36c-.91.39-1.81.84-2.71,1.33l-1.07-1L19,37.59a26.15,26.15,0,0,0-3.64,2.57,24.68,24.68,0,0,1-1.88-3,25.15,25.15,0,0,1-2.19-5.77,25.63,25.63,0,0,1-.73-6.12,26,26,0,0,1,3.06-12.17,27,27,0,0,1,3.87-5.47A29.43,29.43,0,0,1,22.93,3l.42-.27a.28.28,0,0,1,.41.32,22.86,22.86,0,0,0-1.28,9.15A17.21,17.21,0,0,0,25,19.88a16.65,16.65,0,0,0,5.17,5.22,15.78,15.78,0,0,0,6.47,2.38,20.18,20.18,0,0,0,2.54.11H46.8A26.29,26.29,0,0,1,38.63,31.71Z"/><path class="cls-2" d="M139,19.82a15.11,15.11,0,0,1-8.19,5.87,14,14,0,0,1-3.79.5H38.54a13.77,13.77,0,0,1-4.5-.73,15.19,15.19,0,0,1-7.9-6.35,16,16,0,0,1-2.3-8,.28.28,0,0,1,.55-.11,18.92,18.92,0,0,0,4.18,6.25,22.93,22.93,0,0,0,7.72,5.17,16.12,16.12,0,0,0,6,1.25h79.83c.7,0,1.4,0,2.1,0a18.54,18.54,0,0,0,8.28-2.77,22.5,22.5,0,0,0,6.89-6.34,17.4,17.4,0,0,0,1.87-3.41.31.31,0,0,1,.6.13A15.9,15.9,0,0,1,139,19.82Z"/><path class="cls-1" d="M58.13,8.86l.33.25c.37.29,1,1.18,1.78.24a.19.19,0,0,1,.27,0l41.56,32.2a3.84,3.84,0,0,1,1.29,1.83l1.47,4.44A11,11,0,0,0,108.55,53l17,13.14a1.72,1.72,0,0,0,2.42-.31l6.26-8.09a1.72,1.72,0,0,0-.31-2.42l-17-13.14a11,11,0,0,0-6-2.29l-4.67-.32a3.84,3.84,0,0,1-2.09-.8L62.59,6.63a.19.19,0,0,1,0-.27c.73-.95-.3-1.38-.67-1.67l-.33-.25c-.38-.29-1.09,0-1.59.65l-1.6,2.06C57.86,7.81,57.75,8.57,58.13,8.86Z"/><polygon class="cls-2" points="131.25 54.32 123.85 63.88 120.7 61.44 121.03 61.34 121.55 61.31 122.63 61.28 122.39 60.42 122.52 59.95 122.43 59.36 122.42 59.32 122.44 59.32 122.5 59.32 122.94 59.16 123.38 59.2 124.37 59.12 124.27 58.03 124.1 57.5 124.14 56.91 124.11 56.81 124.14 56.81 124.21 56.81 124.79 56.6 125.28 56.48 126.45 56.46 126.06 55.38 126.02 54.95 126.11 54.42 126.1 54.22 126.16 54.22 126.68 54.28 127.21 54.16 127.96 54.04 128.09 53.19 128.04 52.63 128 52.12 127.97 51.78 131.25 54.32"/><polygon class="cls-2" points="117.74 43.86 127.2 51.18 127.16 51.64 127.21 52.19 127.25 52.7 127.29 53.16 127.27 53.34 127.08 53.38 127.06 53.38 126.64 53.48 126.18 53.42 125.25 53.49 125.32 54.37 125.22 54.91 125.28 55.55 125.33 55.69 125.23 55.69 125.18 55.69 124.57 55.84 124.07 56.02 123.08 56.02 123.34 56.99 123.31 57.59 123.49 58.19 123.51 58.4 123.38 58.41 122.83 58.35 122.34 58.53 121.4 58.57 121.65 59.53 121.71 59.9 121.57 60.43 121.59 60.52 121.52 60.52 120.88 60.55 120.29 60.74 119.9 60.83 110.34 53.42 117.74 43.86"/><path class="cls-2" d="M112.8,47.28l0-.59-.16-.54-.1-1.09,1-.08.44,0,.44-.16h.08v0l-.09-.59.13-.47-.24-.86,1.08,0,.52,0,.36-.12.17.12.64.5-.43.09-.59.2-.64,0h-.07l0,.1-.15.53.06.37.26,1-1,0-.49.18-.55,0h-.13l0,.21.18.6,0,.6.27,1h-1l-.5.18-.61.15h-.15l0,.14.06.64-.1.54.07.89-.93.07-.46-.05-.43.1h0l-.19,0,0,.18,0,.47,0,.51.05.55,0,.39-.7-.54-.08-.07,0-.26,0-.51,0-.56.13-.85.75-.12.53-.12.52.06h.06l0-.19.1-.54,0-.42-.39-1.08,1.16,0,.49-.12.58-.21h.1Z"/><path class="cls-2" d="M73.62,16.18l30,23.27a4.62,4.62,0,0,0,2.52,1l4.67.32a10.22,10.22,0,0,1,3.76,1l-7.13,9.2a10.22,10.22,0,0,1-1.9-3.39l-1.47-4.44a4.61,4.61,0,0,0-1.56-2.2l-30-23.27Z"/><polygon class="cls-2" points="72.36 16.19 72.34 15.99 72.26 15.8 72.17 15.43 72.53 15.45 72.69 15.48 72.85 15.45 72.87 15.45 72.88 15.45 72.87 15.44 72.81 15.23 72.83 15.08 72.7 14.78 72.75 14.78 73.15 15.09 73.15 15.09 73.12 15.08 73.13 15.12 73.11 15.29 73.14 15.42 73.28 15.76 72.94 15.73 72.77 15.76 72.57 15.72 72.52 15.72 72.54 15.79 72.63 16 72.65 16.2 72.79 16.55 72.43 16.5 72.25 16.54 72.04 16.56 72.02 16.56 71.98 16.56 72.01 16.61 72.06 16.82 72.05 17 72.12 17.31 71.78 17.29 71.61 17.25 71.46 17.26 71.45 17.26 71.39 17.26 71.38 17.32 71.42 17.48 71.42 17.5 71.09 17.24 71.1 16.99 71.37 16.99 71.56 16.97 71.75 17.02 71.77 17.02 71.76 16.95 71.77 16.77 71.73 16.63 71.54 16.24 71.96 16.29 72.14 16.27 72.34 16.23 72.36 16.23 72.38 16.23 72.36 16.19"/><path class="cls-2" d="M62,7.13l.13.12L72,14.93,70.9,16.37,61,8.69l-.15-.09Z"/><circle class="cls-1" cx="74.79" cy="18.23" r="0.61" transform="translate(14.57 66.19) rotate(-52.24)"/><circle class="cls-1" cx="76.86" cy="19.83" r="0.33" transform="translate(14.11 68.45) rotate(-52.24)"/><polygon class="cls-1" points="120.58 56.08 121.07 57.21 122.29 57.4 121.8 56.27 120.58 56.08"/><circle class="cls-1" cx="127.17" cy="55.36" r="0.51" transform="translate(5.53 121.99) rotate(-52.24)"/><ellipse class="cls-1" cx="125.4" cy="57.82" rx="0.46" ry="0.45" transform="translate(2.89 121.54) rotate(-52.24)"/><ellipse class="cls-1" cx="123.64" cy="60.49" rx="0.47" ry="0.52" transform="translate(0.1 121.18) rotate(-52.24)"/><polygon class="cls-1" points="124.34 54.76 123.85 53.63 122.63 53.44 123.12 54.57 124.34 54.76"/><path class="cls-1" d="M22.58,25.58c0-.39-.06-.76-.13-1.11a10.28,10.28,0,0,0-.26-1.11,7.27,7.27,0,0,0-.43-1.09,5,5,0,0,0-.66-1,3.86,3.86,0,0,0-.87-.82,3.61,3.61,0,0,0-1.07-.4c-.14,0-.17,0-.3-.06a4.33,4.33,0,0,0,.19-.75c.32-.17.37-.07.74-.11,0,0,0,0,0,0s0-.07,0-.08c-.23-.11-.62-.08-.46-.22s1,.31.84-.11c-.3-.62-.66-.24-1.2-.68a1.56,1.56,0,0,0-1.27-1,1.13,1.13,0,0,0-1.07.21,1.41,1.41,0,0,0-.35,1,4.62,4.62,0,0,0,.22,1.19c-.11.07-.12,0-.27,0a2.77,2.77,0,0,0-1,0,2.25,2.25,0,0,0-.93.38,2.9,2.9,0,0,0-.65.76,4.86,4.86,0,0,0-.41.93,7.6,7.6,0,0,0-.27,1c-.06.32-.09.68-.13,1.05s-.07.69-.09,1.07,0,.71,0,1.09a.42.42,0,0,0,.22.35.33.33,0,0,0,.38,0c.23-.2.46-.39.69-.56a8.8,8.8,0,0,1,.74-.51,4,4,0,0,1,.8-.42.8.8,0,0,1,.91.17c-.05.5-.15.45-.31.91s-.14.47-.3.92-.14.47-.29.92a.4.4,0,0,0,.18.48,9.8,9.8,0,0,0,1,.47,5.41,5.41,0,0,0,1,.26,4.83,4.83,0,0,0,1,.07,8.62,8.62,0,0,0,1,0,.3.3,0,0,0,.23-.39c-.16-.52-.18-.51-.34-1s-.18-.51-.34-1a3.75,3.75,0,0,1-.3-1c.2-.16.53-.06.93.21a6.85,6.85,0,0,1,.79.73c.24.24.52.47.77.76s.45.56.68.85a.38.38,0,0,0,.37.13.26.26,0,0,0,.23-.25c0-.38,0-.74,0-1.09S22.62,25.93,22.58,25.58Z"/></g></g></svg>