<svg xmlns="http://www.w3.org/2000/svg" width="96" height="129" viewBox="0 0 96 128.56"><defs><style>.cls-1{fill:#fff;}</style></defs><title>Ресурс 3</title><g id="Слой_2" data-name="Слой 2"><g id="Слой_1-2" data-name="Слой 1"><path d="M2,0c1.1.13,2.19.28,3.29.37A5.56,5.56,0,0,1,8.2,1.68a10.13,10.13,0,0,1,3,3.59A1,1,0,0,1,9.6,5,8.77,8.77,0,0,0,6.71,2.12a7.16,7.16,0,0,0-3.43-.76c.51.57.87,1,1.29,1.41.12.11.42.09.62.05A3,3,0,0,1,8.74,4.72a1.74,1.74,0,0,1,.06.33,1.12,1.12,0,0,1-1.44-.5c-.59-.89-1.68-.91-2.87-.16-.55-.62-1.06-1.3-1.66-1.88C1.92,1.65.95.84,0,0Z"/><path d="M77.91,116l-.56,2c-.53-.33-1.08-.71-1.66-1a32.64,32.64,0,0,0-3.15-1.75,107.89,107.89,0,0,0-11.66-4.33q-5.74-1.77-11.35-4a45.28,45.28,0,0,1-7-3.4,43.53,43.53,0,0,1-5.73-4.34A44.55,44.55,0,0,1,32.66,95a8.77,8.77,0,0,1-2.37-4.57c1.67-.6,3.32-1.21,5-1.78a.75.75,0,0,1,.61.26c.77.95,1.45,2,2.28,2.88,1.46,1.59,2.95,3.17,4.53,4.64a37.88,37.88,0,0,0,3.88,3.07,36.91,36.91,0,0,0,3.27,2,83.41,83.41,0,0,0,9,3.9c3,1.27,6,2.69,8.91,4.14,2,1,3.94,2,5.83,3.21C75.15,113.66,76.91,114.37,77.91,116ZM33,91.51a10,10,0,0,0,.8,1.23c1.18,1.34,2.36,2.7,3.62,4a31.37,31.37,0,0,0,7.37,5.56,65,65,0,0,0,9.88,4.18c1,.33,1.93.69,2.9,1a11.76,11.76,0,0,0-1.87-.93c-2.45-1.09-5-2.06-7.33-3.32a33.73,33.73,0,0,1-8-5.83C38.67,95.69,37,93.88,35.47,92,34.47,90.86,34.53,90.79,33,91.51Z"/><path d="M16.63,58.49l-4.08,4.14a10.1,10.1,0,0,1-2.73-3.5A43.2,43.2,0,0,1,6.33,48.48a37.84,37.84,0,0,1-.46-9.11c.14-2.59.35-5.19.64-7.77.41-3.68,1-7.34,1.39-11A46.45,46.45,0,0,0,8,9.61c-.06-.41-.17-.81-.26-1.22.68.08,1.33.14,2,.24.1,0,.22.15.28.26a7.54,7.54,0,0,1,.83,2.88,118.77,118.77,0,0,1,.56,18.61c-.13,2.48-.32,5-.38,7.43a37.5,37.5,0,0,0,1.73,11.73A38.26,38.26,0,0,0,16.63,58.49ZM9,31.16l-.17,0c-.16,1.88-.34,3.75-.49,5.63C7.92,41.88,7.91,47,9.5,51.92a34.18,34.18,0,0,0,3.07,7.43,3.82,3.82,0,0,0,.33.41c1.19-1.1,1.12-1.07.55-2.41a77.35,77.35,0,0,1-3.13-7.95A39.71,39.71,0,0,1,8.75,35.12C8.85,33.8,8.9,32.48,9,31.16Z"/><path d="M10.18,7.93a2.32,2.32,0,0,1-2.57-.2c-.06-.07-.11-.26-.07-.3a.46.46,0,0,1,.34-.12,3.46,3.46,0,0,1,.58.2l.12-.21A4,4,0,0,1,8.13,7a5.37,5.37,0,0,1-.43-.42,5,5,0,0,1,.54-.18,3.78,3.78,0,0,1,.51,0V6.13A6.65,6.65,0,0,1,8,6.08c-.11,0-.21-.14-.32-.22.09-.12.17-.31.27-.33A3.87,3.87,0,0,1,10.38,6c.07,0,.15.25.12.28a.48.48,0,0,1-.34.17,7.42,7.42,0,0,1-.93-.32c.17.29.22.49.3.5.69.1,1,.65,1.27,1.14,1.41,2.23,2.8,4.47,4.21,6.7,2.24,3.52,4.5,7,6.73,10.55,1.5,2.37,3,4.76,4.48,7.13,1.92,3,3.86,6,5.78,9.06,1.79,2.83,3.56,5.67,5.36,8.49,2.24,3.52,4.51,7,6.75,10.55,1.47,2.31,2.9,4.64,4.36,7,1.9,3,3.83,6,5.74,9,1.81,2.85,3.59,5.7,5.4,8.55l6.21,9.8q3.14,5,6.28,9.92,3.36,5.28,6.74,10.55a9.43,9.43,0,0,1,.67,1.16,3.27,3.27,0,0,1,.13.78c0,.18.08.35.12.53l.2,0,.24-1.11h.25a1.62,1.62,0,0,1,.13.61,13.19,13.19,0,0,1-.48,1.84c-.06.17-.36.25-.56.38a4.12,4.12,0,0,1,.06-.63,1.93,1.93,0,0,1,.22-.42l-.1-.17a1.69,1.69,0,0,0-.4.24,5,5,0,0,0-.41.57,6.37,6.37,0,0,0-.15-.72,2.39,2.39,0,0,0-.28-.45,1.91,1.91,0,0,0-.15.23l-.26.78a2.39,2.39,0,0,1-.25-.9c.1-.65.14-1.38.92-1.76-1.77-2.78-3.56-5.57-5.34-8.37-1.45-2.29-2.9-4.59-4.35-6.88L64.81,94c-1.5-2.37-3-4.75-4.49-7.12s-2.87-4.49-4.3-6.74l-2.92-4.6c-1.49-2.35-3-4.69-4.48-7-1-1.65-2.08-3.32-3.12-5-1.53-2.41-3.06-4.81-4.59-7.22-1.8-2.85-3.59-5.71-5.4-8.55S31.76,41.91,29.89,39s-3.65-5.78-5.47-8.67l-6.36-10-6.25-9.85C11.28,9.58,10.73,8.76,10.18,7.93Z"/><path d="M82.08,74.35c-.85-.38-1-1.24-1.39-2-1-2.05-1.94-4.14-2.91-6.21C76.17,62.78,74.55,59.37,73,56c-1.83-3.9-3.64-7.82-5.47-11.72q-1.78-3.81-3.59-7.6L58.5,25.27c-.45-1-.92-1.91-1.34-2.89a3.4,3.4,0,0,1-.11-1l.41-.14c.21.21.49.38.61.63,1.3,2.72,2.58,5.46,3.87,8.18q2.32,4.92,4.64,9.84,2.78,5.92,5.54,11.85Q74.59,57,77.06,62.27c1.73,3.66,3.48,7.32,5.18,11,.13.29,0,.71-.06,1.08Z"/><path d="M66.55,77.62a1.28,1.28,0,0,1-.84-.88c-1.31-3.1-2.67-6.19-4-9.28S59,61.1,57.58,57.92q-2.46-5.67-4.94-11.34l-3.7-8.49-5-11.47c-.29-.66-.6-1.31-.93-2l1.09-.13c.65,1.5,1.29,3,1.95,4.53,1.81,4.12,3.63,8.24,5.43,12.36,1.11,2.55,2.19,5.11,3.3,7.67q3.08,7.1,6.17,14.2,1.89,4.34,3.79,8.68c.63,1.45,1.28,2.88,1.93,4.32.21.47.45.93.07,1.43Z"/><path d="M37.46,26.82c.25.12.6.18.73.38,1.33,2,2.62,4.09,3.93,6.13,1.45,2.26,2.93,4.5,4.37,6.76S49.43,44.72,50.9,47c1.18,1.85,2.47,3.64,3.53,5.55,1,1.76,1.72,3.64,2.57,5.47l-.18.09c-.79-1.21-1.58-2.42-2.36-3.64l-6.18-9.65c-1.78-2.78-3.54-5.57-5.32-8.35S39.38,31,37.6,28.18c-.28-.43-.66-.85-.13-1.36Z"/><path d="M82.08,74.35h.1c.89,0,1.08.87,1.36,1.42.84,1.66,1.5,3.4,2.27,5.09s1.45,3.06,2.18,4.59l4.37,9.24c.35.74.72,1.47,1,2.22a2,2,0,0,1,0,.73l-.06,0,0,.1,0,.15-.31.14a4.11,4.11,0,0,1-.65-.78c-.84-1.73-1.64-3.47-2.47-5.21-1.38-2.91-2.78-5.82-4.15-8.73q-1.49-3.16-3-6.34c-.29-.63-.57-1.26-.81-1.91A1.94,1.94,0,0,1,82.08,74.35Z"/><path d="M76.91,101.61a3,3,0,0,1-.6-.68c-1.72-3.92-3.41-7.85-5.12-11.77q-1.83-4.21-3.69-8.42c-.25-.57-.53-1.14-.74-1.72-.05-.14.08-.49.17-.5a1.24,1.24,0,0,1,.76.11,1.19,1.19,0,0,1,.39.57c.91,2.19,1.78,4.41,2.73,6.59,1.33,3.09,2.73,6.16,4.08,9.24.84,1.91,1.67,3.83,2.46,5.77.09.22-.09.55-.15.82l0,0Z"/><path d="M81.7,128.56l-2.07-5.94a2,2,0,0,0,1.13-2,2,2,0,0,0-.16-.68c-.31-.71-.32-.71.09-1.44,1.48.73,1.58,2.9.22,4.58l.77,1.81c1.39-1.65.91-6.15-.85-7.33l.48-1.47.26,0c1.4,2,2.56,4.24,2.09,6.75A38.92,38.92,0,0,1,81.7,128.56Z"/><path d="M82.73,97.94c-.25-.14-.6-.22-.74-.43q-3.49-5.43-6.93-10.89a2.69,2.69,0,0,1-.16-.71,2.15,2.15,0,0,0-.27-.77c-.35-.44-.76-.83-1.15-1.24s-.82-.62-.46-1.22c0-.08,0-.24-.06-.33a9.69,9.69,0,0,0-2.38-3.18,6.28,6.28,0,0,1-1.38-1.62c-.17-.27,0-.72-.05-1.09l.05,0,0-.05c.69-.09.92.5,1.19.91.78,1.2,1.48,2.45,2.25,3.66q2.75,4.36,5.53,8.71c1.1,1.73,2.22,3.44,3.34,5.16.34.53.68,1.06,1,1.58a1.43,1.43,0,0,1,.28,1.47l0,0Z"/><path d="M37.55,10.38c3.51,2.09,5.27,5.5,6.88,9-2.39-2-2.39-2-2.71-3.21l.56.29a1.84,1.84,0,0,0-.12-.26,19.21,19.21,0,0,0-1.51-2A4.47,4.47,0,0,0,39,13.12c-.37-.14-.78.15-.88.68a8.1,8.1,0,0,0,.38,4.44l.12-.84c1.24,1.27.4,2.78.7,4.18C37.51,19.73,36.25,11.84,37.55,10.38Z"/><path d="M58.16,16.59a25,25,0,0,1-2.23-1.73,4.66,4.66,0,0,1-.66-1.42l.54.2s0-.09,0-.11a21.4,21.4,0,0,0-1.6-2.05,6.34,6.34,0,0,0-1.58-1.08c-.4-.21-.81.17-.93.78a8.12,8.12,0,0,0,.43,4.24l.22-.71c1.19,1.26.43,2.77.6,4.17-.21-.43-.46-.84-.64-1.28a19.2,19.2,0,0,1-1.8-8.22c0-.33.07-.66.12-1,.1-.65.35-.8.88-.39a21.77,21.77,0,0,1,2.63,2.24,22.51,22.51,0,0,1,3.88,6C58.08,16.37,58.11,16.47,58.16,16.59Z"/><path d="M34.32,19.07l.88.43a9.4,9.4,0,0,0-3.55-2.9c-.56-.22-1.06,0-1.1.57a8,8,0,0,0,1.06,4.51l.07-.85a3,3,0,0,1,.9,2A11.56,11.56,0,0,0,32.91,25c-.16-.14-.29-.2-.36-.31-1.61-2.74-3.14-5.5-3.38-8.76a11.53,11.53,0,0,1,.12-1.72,12.45,12.45,0,0,1,1.58.6,16.14,16.14,0,0,1,5,4.56c.65.83,1.23,1.72,1.95,2.75C35,20.43,34.93,20.4,34.32,19.07Z"/><path d="M68.54,76c-.18-.09-.43-.14-.53-.28a44.05,44.05,0,0,1-5.13-9.62s0-.09,0-.23c.45.67.86,1.28,1.26,1.9,1.54,2.39,3.08,4.78,4.6,7.19a2.61,2.61,0,0,1,.18.86l-.15.15,0,0Z"/><path d="M39.42,17.07c.2-.36.32-.8.49-.82a1.09,1.09,0,0,1,.89.33,10.76,10.76,0,0,1,.77,1.78c.35.89.66,1.8,1,2.69.23.59.55,1.15.75,1.74a.8.8,0,0,1-.22.72c-.31.19-.6,0-.76-.35q-.79-1.92-1.63-3.82c-.11-.25-.34-.44-.47-.68C40,18.14,39.7,17.61,39.42,17.07Z"/><path d="M36.75,26.39A7,7,0,0,1,36,25.6c-1-1.33-1.92-2.67-2.85-4a6.27,6.27,0,0,1-.72-1.42.75.75,0,0,1,.23-.67.72.72,0,0,1,.68,0,4.44,4.44,0,0,1,1,1.11c.64,1.09,1.2,2.22,1.8,3.33a5.43,5.43,0,0,0,.36.53,2.15,2.15,0,0,1,.62,1.8l-.24.11,0,0Z"/><path d="M56.39,20.71c-.65-1.38-1.28-2.72-1.93-4.06-.11-.23-.34-.4-.44-.63a16.62,16.62,0,0,1-.78-1.91.7.7,0,0,1,.33-.6.76.76,0,0,1,.7.15A5.3,5.3,0,0,1,55.15,15c.49,1.16.91,2.35,1.37,3.53.14.35.31.69.46,1C57.34,20.41,57.34,20.41,56.39,20.71Z"/><path d="M86.5,80.33a13.82,13.82,0,0,1-.92-1.38c-.49-1-.91-1.94-1.45-3.11l1.75.83,0,0c1.43,1.2,2,2.9,2.59,4.66H87.8Z"/><path d="M83,82.76a10.28,10.28,0,0,0-.62-1.39A5.07,5.07,0,0,1,82.1,77c.9,2.06,2.63,3.88,1.61,6.54L83,82.76Z"/><path d="M75,82.11c-.07-.06-.12-.15-.2-.19-1.95-.85-2.43-2.86-3.63-4.39,1.88-.08,4.55,2.65,4.73,4.77l-1-.21Z"/><path d="M71.95,84.86s0-.06,0-.07c-1.88-1.19-2.26-3.3-3.19-5.24l.82.24,0,0A7.52,7.52,0,0,1,72.77,85l-.86-.21Z"/><path d="M67.59,86.72c-.23-.49-.44-1-.68-1.47a5.64,5.64,0,0,1-.26-4.85c.93,2.21,2.48,4.16,1.3,6.91l-.38-.61Z"/><path d="M74.54,92.25l-1.73-3.08L73,89l.5.11,1.35.39c.23.37.48.72.68,1.1.33.63.63,1.29.94,1.93.06.63-.24.72-.72.45S74.93,92.51,74.54,92.25Z"/><path d="M78.77,86.25a15.45,15.45,0,0,1,2,3.41H80L78.87,89c-1.1-.62-1.43-1.83-2.13-2.76,0,0,.08-.15.13-.22C77.48,86.32,78.08,86.69,78.77,86.25Z"/><path d="M81.39,92.83c-1.2-.65-1.58-1.92-2.25-2.8.66,0,1.35,0,2,.1.14,0,.26.17.39.26l0,0,1.57,2.51c0,.76-.07.8-.75.49C82,93.22,81.72,93,81.39,92.83Z"/><path d="M76.73,82.79c.4.74.8,1.48,1.2,2.22.15.28.27.57.49,1-2.18-.4-3.19-1.85-4.05-3.56l.55,0c.44.17.86.49,1.36.12C76.35,82.57,76.58,82.73,76.73,82.79Z"/><path d="M69,90.29l-.94-1.91c0-.34-.36-.76.24-.94a5.15,5.15,0,0,0,.48-.73,3.89,3.89,0,0,0,.17-.79c1,1.63,1.66,3.28.79,5.35l-.75-1Z"/><path d="M71.43,95.31c-.46-.92-.95-1.83-1.36-2.77a2.58,2.58,0,0,1,0-1l0,0,.79-1.48a5.63,5.63,0,0,1,.76,5.22Z"/><path d="M78.14,97.72c.19.07.5.09.56.22.44,1,.82,2.08,1.23,3.14-1.11.23-2.64-1.38-3.45-3.95l.69.25Z"/><path d="M76.73,96.53c-1.31-.79-1.44-2.29-2.18-3.6l1.09.61,0,0c.18.08.4.27.54.22.66-.23.8.2,1,.66.28.74.59,1.47.87,2.22.14.37.09.66-.42.58Z"/><path d="M71.91,85.27c.55.45.61.46,1.38.19L74.62,89l-.2.12-1.22-.58,0,0a6.66,6.66,0,0,1-2-3.53l.39,0Z"/><path d="M83.84,93.86c.44.8.88,1.6,1.31,2.4.13.25.22.53.38.92-2.19-.43-3.12-2-4-3.43l2.28.08Z"/><path d="M90.17,84.63l.1.73a4.44,4.44,0,0,1-2.39-1.62,10.07,10.07,0,0,1-1-2.13c0-.1.06-.27.1-.4l.43.29a1,1,0,0,0,1.46.26l1.34,2.88Z"/><path d="M73,99.07l-1.32-2.84,1-2.14c.66,1.42,1.57,2.87.89,4.66-.11.3-.18.55-.56.3Z"/><path d="M88.49,90.33c.71,1.56,1.81,3.14.77,5.09,0,0-.15,0-.19-.09-.51-.92-1-1.85-1.5-2.79a.52.52,0,0,1,0-.4C87.88,91.53,88.19,90.94,88.49,90.33Z"/><path d="M92.76,89.93l1.08,2.51h0l.21.93c-2.11-.68-2.86-2.36-3.53-3.92l2.27.51Z"/><path d="M87.57,91.51c-.18-.1-.45-.15-.53-.3-.52-1-1-2-1.39-2.71l.93-1.94a5.25,5.25,0,0,1,1,5Z"/><path d="M73.43,100.54l-.09-.63c.84-.37.75-1.18.9-1.86,1.14,1.95,1.59,3.11.81,5.43l-1.64-3Z"/><path d="M94.74,94,96,97.39c-2.18-.66-2.86-2.38-3.56-3.91.63.11,1.28.21,1.92.34a1.39,1.39,0,0,1,.41.26Z"/><path d="M90.18,88.33c-.46-.87-.93-1.73-1.39-2.6-.1-.19-.27-.47.19-.43l0,0a1.39,1.39,0,0,0,1.43.64.86.86,0,0,1,.66.43c.4.85.73,1.73,1.08,2.61,0,.08,0,.29-.06.3a.57.57,0,0,1-.38,0c-.51-.29-1-.59-1.51-.89Z"/><path d="M90.3,94.31c.9,1.64,1.72,3.24.87,5.28a10,10,0,0,1-.6-.84c-.29-.51-.53-1-.82-1.56s-.59-.87.07-1.4C90.15,95.53,90.14,94.85,90.3,94.31Z"/><path d="M83.61,84.21c1-.39.72-1.3,1-2,1,1.7,1.69,3.36.84,5.51Z"/><path d="M16.86,58.87c.55,1.42.54,1.41-.47,2.14s-2.08,1.53-3.33,2.45c0-.38,0-.63.09-.74C14.34,61.45,15.56,60.21,16.86,58.87Z"/><path d="M35.31,88.16a3.47,3.47,0,0,1-.42.22c-1.43.53-2.87,1.05-4.31,1.56a2,2,0,0,1-.63,0l-.05-.3c1.42-.76,2.82-1.57,4.28-2.24.27-.12.8.33,1.21.51Z"/><path d="M81.29,100a1.83,1.83,0,0,1-1.15-1.86,1.2,1.2,0,0,0-.24-.9,1.43,1.43,0,0,1-.48-1.62,3.28,3.28,0,0,0,0-.82,2.7,2.7,0,0,1,.41.38,8.77,8.77,0,0,1,1.22,2A13.7,13.7,0,0,1,81.29,100Z"/><path d="M29.53,89a2,2,0,0,1,.19-.58c.81-1.1,1.64-2.18,2.51-3.33l.92.85-3.34,3.15Z"/><path d="M13.62,63.66l4.33-1.71.45,1.23a33,33,0,0,1-4.74.77Z"/><path d="M54.16,12.58l-1.62.85c-.09-.6-.23-1.29-.3-2,0-.46.25-.56.56-.28C53.31,11.63,53.76,12.16,54.16,12.58Z"/><path d="M77.08,91.15a5.31,5.31,0,0,1,1.74,4.69c-.8-.28-1-.78-.6-1.46s.16-1.13-.7-1.87A1.26,1.26,0,0,1,77.08,91.15Z"/><path d="M39,13.62l1.61,1.74-1.7.76-.3-2.32Z"/><path d="M31.62,19.5,31,17.26l.24-.13a3.92,3.92,0,0,1,1.92,1.42Z"/><path d="M37,9.39a11.66,11.66,0,0,0-.45,6A9.93,9.93,0,0,1,36.88,9l3,2-.09.15Z"/><path d="M50,12.36a10.08,10.08,0,0,1,.28-6l2.94,1.8-.09.14-2.7-1.52A10.79,10.79,0,0,0,50,12.36Z"/><path d="M76.73,82.79c-.16-.06-.39-.22-.46-.17-.51.37-.92.05-1.36-.12l-1.07-.7.06-.1,1.05.41-.05,0c.09.07.18.18.28.2.28,0,.57.06.86.08,0-.27-.08-.55-.13-.82,0-.06,0-.12-.08-.3.59.45,1.1.81,1.57,1.21a.48.48,0,0,1,.05.46C77.16,83.32,77,82.92,76.73,82.79Z"/><path d="M68.34,87.43c-.6.18-.25.61-.24.94l-.49.41c-.11-.17-.28-.34-.3-.52-.07-.55-.07-1.12-.11-1.7l.38.16,0,0,.45.57a1.87,1.87,0,0,0,.36-.54c.12-.53.18-1.07.26-1.6l.3.07Z"/><path d="M74.54,92.25c.39.26.77.55,1.18.78s.78.18.72-.45l-.08-.26c.43.4.88.77,1.28,1.19.1.1,0,.36,0,.54a2,2,0,0,1-.57-.18,1.09,1.09,0,0,1-.26-.36H75.62l0,0c-.35-.29-.71-.57-1-.88C74.53,92.57,74.56,92.39,74.54,92.25Z"/><path d="M87.38,81.5l-.43-.29c-.12-.31-.77-.35-.45-.88l1.31,1,.66.14v-1c.4.37.82.72,1.19,1.12.13.15.11.43.16.65a2.77,2.77,0,0,1-.66-.23c-.14-.09-.2-.3-.36-.28Z"/><path d="M76.73,96.53l.85.65c.62.29.67.23.6-.93.5.55.92,1,1.27,1.41.08.1-.09.39-.19.75-.77-1.11-.77-1.11-1.12-.69l-1-.33-1.1-1Z"/><path d="M74.81,89.55l-1.35-.39-.89-.82.06-.08.59.28,0,0a2.94,2.94,0,0,0,.59.46,4.26,4.26,0,0,0,.83.19l.12-.94,1.39,1.52c-.27.33-.46.55-.78.1C75.24,89.7,75,89.65,74.81,89.55Z"/><path d="M31.1,88.42l2-1.87c.5-.47.71,0,1.12.33l-3,1.64Z"/><path d="M78.87,89l1.13.65.73.15v-1l1.62,1.29,0,.25-.77.05,0,0-.31-.56a2.46,2.46,0,0,1-2.52-.52S78.82,89.11,78.87,89Z"/><path d="M28.44,12.73,32,14.39l-.06.15-3.28-1.4v4.12h-.17Z"/><path d="M83.84,93.86l0,0c-.14-.07-.32-.24-.41-.2-1,.48-1.64-.24-2.33-.8h.31c.33.18.64.38,1,.54.67.31.72.27.75-.49l-.1-.26.11-.12,1.61,1.31C84.39,94.45,84.12,94.11,83.84,93.86Z"/><path d="M78.77,86.25c-.69.44-1.3.07-1.91-.22l-.55-.5.06-.1a7.28,7.28,0,0,0,.94.48,6.64,6.64,0,0,0,1,.19l.08-1c.46.35.93.68,1.36,1.06.09.08,0,.32.06.48a1.44,1.44,0,0,1-.5,0A3.26,3.26,0,0,1,78.77,86.25Z"/><path d="M14.83,62.61l2.63-1.91.38.87-2.92,1.18Z"/><path d="M71.43,95.31h.18l.62-1.93c.34.47-.08,1.89-.85,2.39a1.43,1.43,0,0,1,.1.46,4,4,0,0,1-.19.67c-.16-.19-.42-.37-.45-.58a10.55,10.55,0,0,1,0-1.51Z"/><path d="M90.18,84.64l.18-.18c.44.42.88.84,1.28,1.3.08.09,0,.32,0,.48-.16,0-.36,0-.47-.14a4.17,4.17,0,0,1-.48-.6l-.07.2c-.36-.06-.72-.09-1.08-.18a3.18,3.18,0,0,1-.57-.25l0,0-.75-.69.06-.1c.45.28.88.59,1.34.82a1.86,1.86,0,0,0,.71,0l-.18-.74Z"/><path d="M71.91,85.27,71.62,85l-.84-.75.08-.11,1.08.68,0,0,.9.34.09-.91c.31.28.74.64,1.13,1s.4.61-.2.82l-.53-.71Z"/><path d="M87.55,91.54c.11-.38.24-.76.34-1.15a5.7,5.7,0,0,1,.18-.8c0,.89.27,1.88-.78,2.48a2,2,0,0,1,.14.61,1.75,1.75,0,0,1-.24.54c-.14-.13-.36-.24-.39-.38-.1-.6-.13-1.21-.19-1.82.35.1.33.93,1,.5Z"/><path d="M92.79,90c0-.33-.12-.42-.48-.29a2,2,0,0,1-2.12-1.33h0c.51.39,1,.79,1.55,1.15.11.07.47,0,.49-.05a4.9,4.9,0,0,0,.1-.93c.38.37.78.72,1.13,1.12.11.12.09.36.13.55-.2,0-.4,0-.6-.08s-.15-.1-.22-.15Z"/><path d="M73.42,100.53l-.52.37a2.15,2.15,0,0,1-.26-.58c-.06-.51-.07-1-.11-1.56l.44.31,0,0c.27.43.49.46.67,0a4.88,4.88,0,0,0,.2-1,6.16,6.16,0,0,1,.17-.73c.12,1.58-.13,2.29-1,2.42l.39.79Z"/><path d="M84.78,87a2.53,2.53,0,0,0,.18.2l.61.49A2.77,2.77,0,0,0,86,87c.11-.46.13-.95.26-1.41-.11.86.38,1.91-.85,2.45a2.4,2.4,0,0,1,.11.59,2.16,2.16,0,0,1-.18.55c-.14-.15-.37-.28-.4-.45C84.83,88.15,84.82,87.59,84.78,87Z"/><path d="M69,90.29c0,.11,0,.26.07.34.22.24.46.46.7.69a3.84,3.84,0,0,0,.42-.81c.11-.44.13-.91.25-1.35a3.78,3.78,0,0,1-.42,2.42l0,0h-.56l.3,1c-.32.29-.64.38-.7-.19S69.06,91,69,90.29Z"/><path d="M88.54,95.12l.8.57a6,6,0,0,0,.47-1.05,5.47,5.47,0,0,0,0-1.16,2,2,0,0,1-.7,2.58,2.83,2.83,0,0,1,.16.67c0,.16-.14.31-.22.47-.13-.11-.34-.2-.36-.32C88.62,96.28,88.59,95.67,88.54,95.12Z"/><path d="M24.68,75.36l-.19.68-2.08-.34.21-.68Z"/><path d="M18.34,65.49l-.09.65-2-.36C16.13,65,16.41,65,18.34,65.49Z"/><path d="M24.1,75l-.68-.21c.14-.53.31-1,.39-1.52s.35-.51.81-.3Z"/><path d="M31,85.35l-.21.62-1.94-.34C28.84,84.86,29.29,84.81,31,85.35Z"/><path d="M25,79.63c0-.74.57-.8,2.1-.26C27,80.09,26.83,80.12,25,79.63Z"/><path d="M20.88,71c.18-.75.29-1.3.45-1.83,0-.13.27-.3.37-.27s.32.25.3.36a9.18,9.18,0,0,1-.39,1.56C21.57,70.89,21.24,70.89,20.88,71Z"/><path d="M28.35,79c-.16.6-.28,1.13-.45,1.64,0,.09-.28.17-.4.14s-.27-.23-.25-.33A11.4,11.4,0,0,1,27.65,79a.5.5,0,0,1,.4-.21C28.17,78.8,28.27,79,28.35,79Z"/><path d="M26.44,76.79c.82,0,.83.35.13,2.06l-.64-.1Z"/><path d="M25.35,77l-.68-.23c.17-.61.3-1.2.51-1.76,0-.11.37-.11.73-.2Z"/><path d="M20,71.67c.17-.71.46-.73,2.18-.2l-.18.64Z"/><path d="M28.28,82l-2-.45c.09-.69.48-.73,2.1-.21Z"/><path d="M19.9,70.36l-.5,1.94c-.52,0-.69-.13-.58-.63C19.1,70.43,19.25,70.2,19.9,70.36Z"/><path d="M29.69,84.64l.56-1.9c.64.17.61.17.27,1.61C30.41,84.86,30.19,84.9,29.69,84.64Z"/><path d="M29.63,83.36c-.1.68-.43.71-2.08.22-.11-.58.17-.68.67-.56Z"/><path d="M22.75,72.91l-.58-.15.49-1.89C23.43,70.93,23.44,71.64,22.75,72.91Z"/><path d="M23.72,76.1c-.19.77-.31,1.32-.48,1.85,0,.13-.28.2-.42.3-.09-.16-.27-.33-.24-.47a7.15,7.15,0,0,1,.44-1.4C23.07,76.26,23.36,76.24,23.72,76.1Z"/><path d="M20.83,69.44c0,.52-.12.69-.58.56s-.7-.09-1-.19c-.17-.05-.31-.24-.46-.37.2-.1.4-.3.59-.28A13.56,13.56,0,0,1,20.83,69.44Z"/><path d="M22.47,74.15l-.55,2.11-.71-.1c.19-.63.33-1.22.55-1.77C21.82,74.26,22.14,74.25,22.47,74.15Z"/><path d="M23.23,74l-2-.32c-.07-.57.14-.75.67-.6s1,.22,1.47.34Z"/><path d="M20.65,74.32,20,74.11c.18-.6.32-1.16.53-1.69,0-.12.35-.13.7-.25Z"/><path d="M19.15,64.79c.11.2.32.41.31.6a5.44,5.44,0,0,1-.33,1.29.48.48,0,0,1-.41.23.46.46,0,0,1-.25-.38c.12-.56.29-1.12.45-1.67Z"/><path d="M28.42,82.86c.18-.76.29-1.28.45-1.79,0-.13.25-.2.38-.3.1.14.3.29.29.41a6.58,6.58,0,0,1-.36,1.42C29.13,82.73,28.79,82.75,28.42,82.86Z"/><path d="M20.4,66.78c.1.15.31.31.29.45a10.19,10.19,0,0,1-.31,1.52.42.42,0,0,1-.38.15.53.53,0,0,1-.23-.41c.11-.55.28-1.09.42-1.63Z"/><path d="M30,86.17l-.53,2c-.48-.14-.75-.44-.48-.83S28.87,86,30,86.17Z"/><path d="M25.68,82.25c-.62-.09-.65-.37-.52-.78.44-1.32.43-1.32,1-1.19Z"/><path d="M28.2,86.17c-.49,0-.76-.31-.52-.68s0-1.37,1.05-1.35Z"/><path d="M24.94,78.18c-.16.67-.26,1.2-.43,1.71,0,.13-.29.2-.44.3-.08-.14-.25-.3-.23-.41a7.81,7.81,0,0,1,.44-1.4C24.34,78.25,24.64,78.25,24.94,78.18Z"/><path d="M16.12,64.31c-.15.63-.27,1.15-.41,1.66a.43.43,0,0,1-.25.28c-.09,0-.32-.15-.31-.19q.21-.88.5-1.75S15.89,64.31,16.12,64.31Z"/><path d="M16.63,68.43c-.1-.24-.3-.5-.27-.72a4.78,4.78,0,0,1,.38-1.19c0-.11.23-.16.34-.24.07.14.23.29.21.41-.11.57-.27,1.12-.42,1.68Z"/><path d="M19.53,67.5c-.11.6-.11.6-2,.21C17.52,67.06,17.52,67.06,19.53,67.5Z"/><path d="M26.68,84.23c-.09-.24-.33-.58-.25-.7.29-.43,0-1.32,1-1.38l-.52,2Z"/><path d="M93.84,92.44c.55.47,1.1.94,1.63,1.43,0,0-.12.37-.17.36a2.17,2.17,0,0,1-.56-.18l0,0c0-.7-.48-.47-1-.36.54-.5.48-.89,0-1.27Z"/><path d="M25.85,77.41c-.11.64-.46.67-2.07.2C23.84,77,24.17,76.92,25.85,77.41Z"/><path d="M18.05,68.27c.19.06.43.12.43.13q-.2.9-.45,1.79a.44.44,0,0,1-.32,0,.49.49,0,0,1-.12-.38C17.73,69.29,17.89,68.8,18.05,68.27Z"/><path d="M83,82.76c.06.55.27.95.9,1v0c-.05.32-.08.65-.16,1a2.88,2.88,0,0,1-.24.53c-.14-.12-.39-.23-.4-.36C83,84.15,83,83.46,83,82.76Z"/><path d="M34.52,25.66l-.82-2.12.22-.09C34.31,24.12,34.92,24.69,34.52,25.66Z"/><path d="M18.1,63.65c-.13,1.29-.21,1.4-.88,1.19C17.28,63.76,17.33,63.69,18.1,63.65Z"/><path d="M37.29,24.27l1.53,1.55C38,25.81,37.57,25.34,37.29,24.27Z"/><path d="M36,22.16l1.52,1.57c-1.06,0-1.28-.78-1.68-1.41Z"/><path d="M42.76,19.39l1.42,2c-1.24-.25-1.17-1.23-1.6-1.85Z"/><path d="M57.85,18.36c-1.14-.09-1.16-1-1.53-1.66l.16-.12Z"/><path d="M45,23.55c-.8-.22-1.2-.81-1.27-1.88Z"/><path d="M57.56,18.83l1.47,2c-1-.35-1-.35-1.62-1.9Z"/><path d="M41.79,25l-.42-2.19.19,0C41.82,23.45,42.42,24.11,41.79,25Z"/><path d="M35.29,25.64c.36.64,1,1.16.62,2.29l-.81-2.22Z"/><path d="M55.47,19.95,56,22.1l-.35.09L55.15,20Z"/><path d="M40.81,22.82l-.46-2.32.23,0C40.78,21.17,41.44,21.78,40.81,22.82Z"/><path d="M93.36,98.34l0-.14.32-.18a1.54,1.54,0,0,1,.25.29c.11.22.31.51.24.68s-.43.2-.66.29l-.25-.73a1.79,1.79,0,0,1,0-.2l.17.12Z"/><path d="M54.31,17.74c.26.68.86,1.29.31,2.3l-.52-2.25Z"/><path d="M66,83.64a3,3,0,0,1,.22-2.89Z"/><path d="M77.66,102.15l.81.28-.29.39-.93.53-.1-1.05.33-.14,0,0Z"/><path d="M83.56,98.37c.69.44.67.54-.34,1.15L83,98.61l.18-.15,0,0,.32-.16,0,0Z"/><path d="M69.57,79.79l-.36-.39a2.53,2.53,0,0,1,2.13,1.45l-1.79-1.09Z"/><path d="M81.66,77.22l-.14,2.72A3,3,0,0,1,81.66,77.22Z"/><path d="M85.88,76.66l-1.18-.9a2.55,2.55,0,0,1,2.12,1.49l-1-.62Z"/><path d="M71.58,77.2a2.5,2.5,0,0,1,2.17,1.11Z"/><path d="M24.62,74.32l.22-.84.76.84-.1.16Z"/><path d="M83.86,83.72l.41-2a2,2,0,0,1-.42,2Z"/><path d="M67.1,77.76c.25.5-.33.32-.43.52l-.11-.19.26-.19h0Z"/><path d="M83.43,97.91l.15.28-.15.16,0,0-.32.16,0,0-.3.08v-.22l0,0,.16-.17,0,0Z"/><path d="M77.06,102h-.26l.12-.26.3-.15,0,0,.42.13h0l-.31.16,0,0L77,102Z"/><path d="M69.11,75.86v.21l0,0-.16.16,0,0-.3.15-.15-.3.3-.14,0,0Z"/><path d="M77,102.21V102l0,0,.31-.16,0,0,.31-.16h0l.11.41-.26,0,0,0Z"/><path d="M57.46,21.29l-.41.14-.29-.13.27-.16.47-.07Z"/><path d="M82.86,97.92l.3,0-.17.3,0,0-.16.17,0,0-.26,0,.11-.27.16-.14Z"/><path d="M57,21c.17-.08.39-.5.47.07Z"/><path d="M37,26.67l-.31-.17.17-.12,0,0,.3,0v.18l0,0-.16.16Z"/><path d="M69.09,76.07l.15.27-.29,0,0,0,0,0,.08-.17,0,0,.16-.16Z"/><path d="M37.17,26.54h.31v.16h0l-.19.11L37,26.67l0,0,.16-.16Z"/><path class="cls-1" d="M77,102.21l.45-.05-.33.14Z"/><path class="cls-1" d="M57,21l.47.07v0l-.47.07,0,0V21Z"/><path class="cls-1" d="M77.46,102.17l.26,0h-.06Z"/><path d="M43.51,24s0,.08-.07.08-.08,0-.12,0,0-.08.07-.08S43.47,24,43.51,24Z"/><path class="cls-1" d="M37.18,26.37l-.3,0,.24-.11Z"/><path class="cls-1" d="M37.48,26.68v0Z"/><path class="cls-1" d="M66.82,77.9l-.26.19Z"/><path class="cls-1" d="M57,21.13l-.27.16v-.12h.3Z"/><path d="M57.05,21.15h-.3L57,21Z"/><path class="cls-1" d="M77.21,101.59l-.3.15v-.14Z"/><path class="cls-1" d="M37.27,26.8l.19-.11s0,.09,0,.13h0Z"/><path class="cls-1" d="M36.91,26.38l-.17.12a.91.91,0,0,0,0-.1Z"/><path class="cls-1" d="M33,91.51c1.55-.72,1.49-.64,2.49.53,1.57,1.84,3.2,3.64,4.92,5.35a33.73,33.73,0,0,0,8,5.83c2.36,1.26,4.88,2.23,7.33,3.32a11.76,11.76,0,0,1,1.87.93c-1-.35-1.93-.7-2.9-1a65,65,0,0,1-9.88-4.18,31.37,31.37,0,0,1-7.37-5.56c-1.26-1.27-2.43-2.63-3.62-4A10,10,0,0,1,33,91.51Z"/><path class="cls-1" d="M9,31.16c-.07,1.32-.13,2.64-.23,4a39.71,39.71,0,0,0,1.56,14.29,77.35,77.35,0,0,0,3.13,7.95c.57,1.35.64,1.31-.55,2.41a3.82,3.82,0,0,1-.33-.41A34.18,34.18,0,0,1,9.5,51.92c-1.58-5-1.58-10-1.17-15.16.15-1.88.33-3.75.49-5.63Z"/><path class="cls-1" d="M83.14,98.49l.32-.16Z"/><path class="cls-1" d="M82.86,98.35l.16-.17Z"/><path class="cls-1" d="M77.35,101.87,77,102Z"/><path class="cls-1" d="M77.63,101.73l-.31.16Z"/><path class="cls-1" d="M69.11,76l-.16.16Z"/><path class="cls-1" d="M37.19,26.52l-.16.16Z"/></g></g></svg>