<svg xmlns="http://www.w3.org/2000/svg" width="170" height="94" viewBox="0 0 169.79 93.58"><defs><style>.cls-1{fill:#b3b2b2;}.cls-1,.cls-12,.cls-2,.cls-5,.cls-6{fill-rule:evenodd;}.cls-10,.cls-2{fill:#221e1f;}.cls-3{fill:#eeeded;}.cls-4{fill:#1d1c1b;}.cls-5{fill:#fff;}.cls-6,.cls-8{fill:#878787;}.cls-7{fill:#585756;}.cls-12,.cls-9{fill:#dadada;}.cls-11{fill:#889699;}.cls-13{fill:#a8aebb;}</style></defs><title>Ресурс 1</title><g id="Слой_2" data-name="Слой 2"><g id="Слой_1-2" data-name="Слой 1"><path class="cls-1" d="M91.5,83.33a3.8,3.8,0,0,0,2.81,1.43,11.46,11.46,0,0,1,3.86,1c.26.19.2.66-.05,1.06,0-.24-.15-.39-.27-.41-.32,0-.58.56-.5.69a1.33,1.33,0,0,1,.17.25.88.88,0,0,1-.28.07c-.8.06-2.32-.56-3.77-.8a5.25,5.25,0,0,1-1.57-.45,2.36,2.36,0,0,0-.27-2,3.43,3.43,0,0,0-.09-.63Z"/><path class="cls-2" d="M96.3,90.3a4,4,0,0,0,1.19-1.8c.28-1-.06-1.26-.15-1.39s.17-.74.5-.69.47,1,0,2.17C97.23,90.39,96.3,90.3,96.3,90.3Z"/><path class="cls-3" d="M98.29,86.41a19.77,19.77,0,0,0-3.86-1A4.94,4.94,0,0,1,91.62,84a4.31,4.31,0,0,0-.08-.5l0-.2a3.8,3.8,0,0,0,2.81,1.43,11.46,11.46,0,0,1,3.86,1A.57.57,0,0,1,98.29,86.41Z"/><path class="cls-4" d="M92,86a7.7,7.7,0,0,0,2,.66c1.55.34,2.75.79,3.49.62a.83.83,0,0,1,.07.13.88.88,0,0,1-.28.07c-.8.06-2.32-.56-3.77-.8a5.25,5.25,0,0,1-1.57-.45A2.29,2.29,0,0,0,92,86Z"/><path class="cls-1" d="M97.1,89.36a3.57,3.57,0,0,0-2.84-1.19c-1.58-.06-2.58,2.12-3.34,2.45a.68.68,0,0,1-.66-.06.55.55,0,0,1,0-.13c0-.11-.26-.5-.41-.43.17-.19.26-.32.26-.32l-.09-.34c.2.16.39.33.55.47A2.5,2.5,0,0,0,90.11,88a1.67,1.67,0,0,1,.81,0,.23.23,0,0,0,.24-.14,2.57,2.57,0,0,0-.72-2.31,2.69,2.69,0,0,1,1,1.44,2.76,2.76,0,0,0,.43-.77,5.25,5.25,0,0,0,1.57.45c1.45.24,3,.87,3.77.8a.88.88,0,0,0,.28-.07,1.62,1.62,0,0,1,0,1.13A3.32,3.32,0,0,1,97.1,89.36Zm.78-.77a9.57,9.57,0,0,1,1.36,2.3.38.38,0,0,0,.17.17,1.51,1.51,0,0,1-.64,0c.08-.38-.61-.55-.7-.34l0,.07a.63.63,0,0,1-.25-.25,6,6,0,0,0-.47-.88,4,4,0,0,0,.54-1Z"/><path class="cls-1" d="M99.24,90.89a8.67,8.67,0,0,0-1.38-2.27v0a3.48,3.48,0,0,0,.23-1.76,1.58,1.58,0,0,0,.15-.3,5.57,5.57,0,0,1,2.5,3.9.57.57,0,0,1-.31.44l0,0c-.15-.37-.84-.11-.82.09a1.65,1.65,0,0,1,0,.2A.45.45,0,0,1,99.24,90.89Z"/><path class="cls-4" d="M90,89.9c.2.23.59.59.88.49S92,89,92.68,88.24a2.78,2.78,0,0,1,2-.84c.17,0,.19.24,0,.24a2.11,2.11,0,0,0-.61.17,11.23,11.23,0,0,1,1.91.22c.51.21,1,.57.68.86a4,4,0,0,0-2.35-.71c-1.58-.06-2.58,2.12-3.34,2.45a.68.68,0,0,1-.66-.06.55.55,0,0,1,0-.13c0-.11-.26-.5-.41-.43l0,0Z"/><path class="cls-2" d="M95.54,91.58a1.6,1.6,0,0,0,2.53-.87c.09-.22.78,0,.71.28a2.36,2.36,0,0,1-1.86,1.39A1.74,1.74,0,0,1,95.54,91.58Z"/><path class="cls-2" d="M97.25,93.47a3.4,3.4,0,0,0,1.78-1,2,2,0,0,0,.58-1.58c0-.19.67-.45.82-.09a2.38,2.38,0,0,1-3.18,2.64Z"/><path class="cls-3" d="M99.85,88.94a6.78,6.78,0,0,0-1.72-2s0-.09,0-.14a1.58,1.58,0,0,0,.15-.3,5.57,5.57,0,0,1,2.5,3.9.57.57,0,0,1-.31.44A7.74,7.74,0,0,0,99.85,88.94Z"/><path class="cls-2" d="M93,92.17s-1.45.48-2.14-.37-.56-1.26-.52-1.36-.26-.5-.41-.43a1.75,1.75,0,0,0,.58,2.36A2,2,0,0,0,93,92.17Z"/><path class="cls-4" d="M66,69.56a22.37,22.37,0,0,1-2.89.4A24.73,24.73,0,0,1,56,69.53c-2.15,1.12-3.55,1.71-3.55,1.71a.29.29,0,0,1-.17,0l-1.1-.81a37.75,37.75,0,0,1-5.6,2.18.28.28,0,0,1-.17,0l-1-1c-1.51.58-2.43.87-2.43.87a.29.29,0,0,1-.17,0l-1.17-1c-2.62,1.14-4.31,1.77-4.31,1.77-.32.12-.24-.26-.25-1.69l-1.49.65c-.7.3-.29-3.46-.22-3.86,0-.18.07-.35.1-.5-.16.19-.34.42-.55.66-.41.47-3.39,3.55-3.83,3.26a10.61,10.61,0,0,1-2.88-2.58,15.71,15.71,0,0,1-3.17.27.17.17,0,0,1-.16-.2l.27-1.71a14,14,0,0,1-3.73.3.18.18,0,0,1-.15-.18l.1-2.12-.12,0a15.72,15.72,0,0,1-3.72.35.16.16,0,0,1-.15-.23l.76-2.35a10.57,10.57,0,0,1-2.15-.07s-.91-.07-.82-.37l.6-2.13a8.41,8.41,0,0,1-1.74-.27c-1-.28-.72-.37-.43-1.44a6.28,6.28,0,0,1-3.15-.28c-.52-.27.07-1.39.29-1.92a4.88,4.88,0,0,1-2.78-1c-.1-.09-.58-.55-.39-.74l1.29-1.27a6.3,6.3,0,0,1-3-.94c-.09-.06-.78-.55-.41-.71a16.17,16.17,0,0,0,2.77-1.57c-2.41-.09-4.41-.49-5.38-1.35-.14-.13-.09-.29.1-.3A24.47,24.47,0,0,0,8.2,47.37a12.15,12.15,0,0,1-8.14-4c-.13-.16,0-.32.17-.28a43.06,43.06,0,0,0,11.39.88,33.44,33.44,0,0,0,3.63-.4L14,43.3C8,42.12,2.5,39.73,1.8,37c0-.17.07-.27.23-.21q11.79,4.34,18.56,4.06c-1.28-.59-4.39-2.07-8.6-4.4-3.33-1.84-6.61-4.9-6.9-8.92a4.8,4.8,0,0,1,0-1c.09-.57.64.41.78.6,2.33,3,6.41,5.49,9.69,7.07a57.16,57.16,0,0,0,12.25,4l1.39.29c-5-1.35-10.34-3.46-13.34-5.85a13,13,0,0,1-5-8.51,6.69,6.69,0,0,1-.05-.9c0-.2.19-.26.31-.1a33.11,33.11,0,0,0,2.44,2.7,47.2,47.2,0,0,0,14.57,9.75c1,.45,1.86.81,2.5,1.07a51.55,51.55,0,0,1-7.52-6.44c-2.7-2.91-4.85-7-3.86-11,.09-.39.38-1.46.63-1,0,0,1.47,3,7.3,10a40,40,0,0,0,7.4,7c.71.5,1.32.88,1.79,1.16a18.34,18.34,0,0,1-5.15-8.22,12.51,12.51,0,0,1-.41-7.12,3.38,3.38,0,0,1,.2-.5c.09-.17.27-.16.32,0a46.76,46.76,0,0,0,2.26,6A35.14,35.14,0,0,0,40.7,37.25c5.05,4.88,16.58,4.8,23.2,5,2.42.06,4.54.17,6.66.42a5,5,0,0,1,.57-.48,19.91,19.91,0,0,1,9-3.23,144.89,144.89,0,0,1,16.19-.82c.47-1.12,1.84-1.28,3-1a1.76,1.76,0,0,1,2.44-1c0-.33.23-2.82.81-2.9a18.18,18.18,0,0,1,3.28,1c1.68.59,4.07.69,8.69-.78a144.19,144.19,0,0,0,17.87-7.27,26.13,26.13,0,0,0,8.71-6.92c.39-.48.58-.77.58-.77.12-.17.31-.12.32.09a4.67,4.67,0,0,1-.15,1.2c-.57,2.35-2.48,4.1-4.2,5.66-.42.38-.8.71-1.1,1a120,120,0,0,0,11.79-4.29c8.93-3.84,10.88-7.44,11.68-11.23s2.19-5.3,2.21-5.33.31-.07.3.13l-.18,4.17a24.84,24.84,0,0,0,2.87-9.6c0-.2.19-.25.31-.09,1.6,2.21.34,7.45-.41,10,1.05-1.46,2.78-3.56,4.36-4.27.17-.08.29,0,.24.21-1.53,5-6.95,10.53-12.38,14A31.93,31.93,0,0,1,153.75,22c1.45.57,5.34-1.63,6.31-2.16,1.35-.73,2.44-1.38,2.44-1.38a.17.17,0,1,1,.2.28,27.16,27.16,0,0,1-2.86,1.93,54.67,54.67,0,0,1-6,3.08L150,26.39a25.13,25.13,0,0,1,5.31-.54.17.17,0,1,1,.05.34A24,24,0,0,0,149,29.58l.8.08c.2,0,.24.21.07.32-1.25.8-6.19,3.45-7.41,4.11a3.18,3.18,0,0,1,.4.24c.57.43-2.64,1.92-3.12,2.11a8.84,8.84,0,0,1-1.46.45,9.69,9.69,0,0,1-4.81,3,3.44,3.44,0,0,1-2.58,2.78c0,1-2.55,1.35-4.07,1.68a7.07,7.07,0,0,1-3.18,3.11c-.13.24-.24.45-.38.64a2.6,2.6,0,0,1-2.49,1.37l-.2-.05a8.94,8.94,0,0,1-4.16,3.77c-.16.07-.35-.19-.48-.39a17.41,17.41,0,0,1-3.62,4c-.19.15-.37-.18-.46-.38a9.5,9.5,0,0,1-2.73,2.51c-.94.56-.83.42-1.06-.6a15.68,15.68,0,0,1-2.89,3c-.92.73-.94.78-1-.14A14.77,14.77,0,0,1,102.71,63s-.48.61-.69.47l-1.14-.82A9.41,9.41,0,0,1,99,64.64c-.06,0-.54.47-.71.28l-.84-1a10.76,10.76,0,0,1-3.2,2.4c-.44.21-1.13.55-1.11.17l.09-2.26a7.17,7.17,0,0,1-4.76,2.51.21.21,0,0,1-.17-.12c0-.13-.08-.25-.11-.38a13.32,13.32,0,0,0,.57,2.93,44.91,44.91,0,0,1,1.87,8.7c.19,1.91.59,3.78.91,5.66a3.43,3.43,0,0,1,.09.63,5.82,5.82,0,0,0-3-2.26,23,23,0,0,0-5.34-.71l-.2.79-.4,1.59a.23.23,0,0,1-.15.13,4,4,0,0,0-.82.18c-1.78.58-1.33,1.76-1.9,3.15A2.41,2.41,0,0,1,79,88.16c-1.48-.78-3.18-1.64-4.19-1.61h-.15a9.82,9.82,0,0,1-1-2.83c-.15.83-.35,2.09-.47,3.41a6.13,6.13,0,0,0-1.13,1.3c-.94-1.9-1.46-5.74-1.65-7.26l-.89,3.28c-.06.22-.31.2-.34,0l-.38-2.58s-.67.87-.66.29L68.21,78l-.8,1.11a.16.16,0,0,1-.3,0,23.4,23.4,0,0,1-1-4.53A22.23,22.23,0,0,1,66,69.56Z"/><path class="cls-5" d="M95.41,53.75a2.21,2.21,0,0,1-2.06-.34s-.09,1.13-1.91-.26c-2-.13-3.6,0-3.9.48a1,1,0,0,1,.13-.82,3.29,3.29,0,0,0-1.82,1.65,4.1,4.1,0,0,1,.26-1.69,4.5,4.5,0,0,0-2.82.61A2.26,2.26,0,0,1,84.21,52a2.26,2.26,0,0,0-2.56.61c-.17-.39.26-1.08.26-1.08l-1,.39a3.51,3.51,0,0,1,1-1.34c-.43-.35-1.65.26-1.65.26a2.14,2.14,0,0,1,1.56-1.08,2.49,2.49,0,0,0-2.47.17,2.6,2.6,0,0,1,1.26-1.73l-1.47.3s.82-1.17,1.52-1.34A12.64,12.64,0,0,1,79,46.91s1.34-.65,2.34-1a2.45,2.45,0,0,0-1.17-.35,4.63,4.63,0,0,1,1.73-1.13c-1.26-1-1.65-2-2.34-2.17a7.49,7.49,0,0,0,2.82-.56,3.12,3.12,0,0,0-2.3-.74c1.34-.74,3.55.17,3.55.17L82.91,40a9.07,9.07,0,0,1,2.25,0c0-1.08,2.73-.74,4.07.3-.35-1.34.78-1,2.08-.13a2.71,2.71,0,0,0,.17-1.56,11.74,11.74,0,0,1,3.81,3.21c2.21,2.56,4,4,4.9,6a7.75,7.75,0,0,1,.26,5,7.69,7.69,0,0,0-1.34-1.76,2.84,2.84,0,0,1-1.95,1.26c-1.21.09-2.3-.43-2.56.13C94.45,52.8,94.82,53.22,95.41,53.75Z"/><path class="cls-6" d="M99.2,58a21,21,0,0,0-2.51-3.08c-1.21-1.13-2.34-1.86-2.08-2.43s1.34,0,2.56-.13a2.84,2.84,0,0,0,1.95-1.26,7.44,7.44,0,0,1,2.17,4.25c.3,2.86-2.77,4-2.77,4s1.34-1.13.82-2.43-3.81-4.07-4.12-4.25-.43.09,0,.43a21.29,21.29,0,0,1,3.9,4A.77.77,0,0,1,99.2,58Z"/><path class="cls-7" d="M99.36,41.46a17.26,17.26,0,0,0-2.5,2.1c-.49-.52-1-1.09-1.56-1.72a11.74,11.74,0,0,0-3.81-3.21,2.71,2.71,0,0,1-.17,1.56c-1.3-.91-2.43-1.21-2.08.13-1.34-1-4.12-1.39-4.07-.3a9.07,9.07,0,0,0-2.25,0l.74,1.08s-2.21-.91-3.55-.17a3.12,3.12,0,0,1,2.3.74,7.49,7.49,0,0,1-2.82.56c.69.17,1.08,1.21,2.34,2.17a2.58,2.58,0,0,0-.94.46A61.31,61.31,0,0,0,71,42.7l.33-.26a19.56,19.56,0,0,1,8.87-3.16,145.89,145.89,0,0,1,16.27-.82.23.23,0,0,0,.16-.12c.34-1,1.58-1.19,2.78-.89.41.1.95-2.16,2.4-.94a.16.16,0,0,0,.28-.11,12.36,12.36,0,0,1,.56-2.88,23.62,23.62,0,0,1,3.11,1c1.41.49,3.25.64,6.25,0-4,1.5-9.77,3.49-14.21,3.61a.17.17,0,0,0,0,.35c3.85-.1,8.69-1.58,12.5-3-2.58,1.16-4.94,2.34-7,3.5A21.07,21.07,0,0,1,98,39.5a.17.17,0,1,0,0,.35,21.94,21.94,0,0,0,3.74-.24l.71-.11c-.93.55-1.79,1.09-2.55,1.62h-.07a4.85,4.85,0,0,1-1.63-.18,6.22,6.22,0,0,1-.78-.26.17.17,0,0,0-.14.32A6.24,6.24,0,0,0,99.36,41.46Z"/><path class="cls-7" d="M37.69,37.07a18.21,18.21,0,0,1-6.08-9,12.2,12.2,0,0,1-.41-6.9c1.75,5.64,5,12.23,9.26,16.31,5.15,5,16.69,4.9,23.43,5.07a58.06,58.06,0,0,1,16.74,2.55c-.27.22-.45.4-.45.4a2.45,2.45,0,0,1,1.17.35c-1,.39-2.34,1-2.34,1a12.64,12.64,0,0,0,1.69.26,2.18,2.18,0,0,0-.88.6c-3.9-.3-10.38-.53-21.13-.6h-.1a20.53,20.53,0,0,0-5.09-2.25,98.19,98.19,0,0,1-10.67-4.58A26.35,26.35,0,0,1,37.69,37.07Z"/><path class="cls-7" d="M37.5,37.35c-.35-.15-4.88-2.14-10.53-8.88a69.09,69.09,0,0,1-7.17-9.71,8.06,8.06,0,0,0-.37,3c.12,2.09,1,5,4,8.24,5.94,6.41,21,16.68,34.53,17.13a24.4,24.4,0,0,0-4.58-1.91,98.42,98.42,0,0,1-10.71-4.6A26.67,26.67,0,0,1,37.5,37.35Z"/><path class="cls-7" d="M35.62,40c-3.1-.26-7.81.52-10.28,2.48s-1,3.6,1.34,4.56a7.27,7.27,0,0,0,4.14.43c.25-.07.27.43.34.61.82,2.2,3.78,2.87,5.79,3,5.16.39,15.2-3.18,17.24-3.93-6.42-1-12.94-3.84-18.52-7.17Z"/><path class="cls-7" d="M31.76,37.5S30.25,37,28,35.95C21.59,33,15.82,29.28,11.22,23.8a12.58,12.58,0,0,0,4.86,8.63c4.09,3.25,12.64,6,18.64,7-1-.62-2-1.25-2.89-1.89Z"/><path class="cls-7" d="M14.05,43a37,37,0,0,0,9.86.7H24A.17.17,0,1,1,24,44l-.23,0a35.19,35.19,0,0,1-7.57-.33A39.39,39.39,0,0,1,.67,43.5c2.94,3.16,7.86,4.36,14.75,3.32,6.25-.94,8.06-1.77,8.41-2a1.86,1.86,0,0,1,0-.84L24,44a.17.17,0,1,0,0-.35h-.09a3.72,3.72,0,0,1,1.21-1.49c2-1.57,5.32-2.39,8.18-2.57-1-.15-3.07-.47-5.57-1a57.49,57.49,0,0,1-12.32-4C9,31.47,6.25,28.3,5.41,27.16c0,4,3.47,7.22,6.74,9,5.58,3.07,9.22,4.67,9.22,4.67.2.09.16.31-.06.33q-6.87.53-19.06-3.91C3.24,39.61,8.29,41.82,14.05,43Z"/><path class="cls-7" d="M7.8,50.18a.16.16,0,0,1,.1,0,47.78,47.78,0,0,0,11.66-1.45,30.34,30.34,0,0,0,5.91-2,3.84,3.84,0,0,1-1.52-1.58c-.51.26-2.5,1.07-8.48,2A27.92,27.92,0,0,1,9,47.45c-.12,0-1,.4-2.24.77a24.47,24.47,0,0,1-4.2.93A11.23,11.23,0,0,0,7.8,50.18Z"/><path class="cls-7" d="M4.9,52.3a4.38,4.38,0,0,0,1.91.88c1.67.39,4.6.48,9.59-.77A79,79,0,0,0,30,47.9a7.92,7.92,0,0,1-3.48-.57,7.47,7.47,0,0,1-.74-.35c-.34.21-1.68.91-6.17,2.09A48.08,48.08,0,0,1,7.9,50.53,17.54,17.54,0,0,1,4.9,52.3Z"/><path class="cls-7" d="M19.29,54.93C28.86,52,31.45,50.22,32,49.77l.13-.12a.17.17,0,0,1,.26.23l-.11.1c-.51.43-3.06,2.26-12.88,5.28-1.61.5-5.94,1.75-9.22,1.53l-.46,1.6c2.13,1,8.53-.88,10-1.34,7.57-2.34,14.82-4.89,17-5.66A9.28,9.28,0,0,1,32.28,50l.11-.1a.17.17,0,0,0-.26-.23l-.13.12a3.81,3.81,0,0,1-1.16-1.6c0-.09-.06-.16-.08-.23-.94.47-5.43,2.59-14.28,4.81a29.27,29.27,0,0,1-8.1,1L7,55.15a3.24,3.24,0,0,0,1.9,1.09C10.56,56.66,13.67,56.66,19.29,54.93Z"/><path class="cls-7" d="M13,58.93l-.25,1c2.73,1.12,8.34-.27,10.67-1a129,129,0,0,0,15.33-5.88,3.51,3.51,0,0,1-1.57-1.5c-1.48.53-9.25,3.28-17.39,5.8A42.26,42.26,0,0,1,13,58.93Z"/><path class="cls-7" d="M17.42,62.88a35.09,35.09,0,0,0,10.05-2.7A127.33,127.33,0,0,0,41,54a11.51,11.51,0,0,1-1.87-.75,129.32,129.32,0,0,1-15.61,6,28.71,28.71,0,0,1-8.36,1.4l-.58,2a9,9,0,0,0,2.68.15Z"/><path class="cls-7" d="M17.59,63.22l-.74,2.26c4.3.07,10.74-2.36,14.38-4a143.84,143.84,0,0,0,13.54-6.79,16.32,16.32,0,0,1-3.27-.52A118.22,118.22,0,0,1,27.6,60.5,38.83,38.83,0,0,1,17.59,63.22Z"/><path class="cls-7" d="M52.26,53.54c-1.45.24-2.8.47-4,.64-5.62.84-10.2-1.34-10.72-2.75,2.92.05,7-.91,10.45-1.91,3.7-1.07,6.67-2.2,6.67-2.2a.17.17,0,0,0,.1-.1,30.3,30.3,0,0,0,3.91.29c10.5.07,16.91.28,20.83.57-.2.24-.33.42-.33.42l1.47-.3a2.37,2.37,0,0,0-1.17,1.45c-2.75.22-6.35.54-9.64,1-5.13.68-12,2-17.52,2.9Z"/><path class="cls-7" d="M24.37,67.07h.06l.15,0a45.78,45.78,0,0,0,12.11-4.59C45.08,58,49.85,55.09,51.53,54c-1.15.19-2.23.37-3.21.51a17.15,17.15,0,0,1-2.91.18,129,129,0,0,1-14,7.09,49.86,49.86,0,0,1-10.58,3.58l-.1,2A15.85,15.85,0,0,0,24.37,67.07Z"/><path class="cls-7" d="M24.59,67.38,24.33,69a21.05,21.05,0,0,0,4.6-.6A52.08,52.08,0,0,0,42.57,63a87.52,87.52,0,0,0,11.8-7.56A26.25,26.25,0,0,0,57,53.07l-4.64.8c-.44.29-5.29,3.5-15.54,8.87a46.12,46.12,0,0,1-12.2,4.62Z"/><path class="cls-7" d="M27.67,69a10.06,10.06,0,0,0,2.59,2.29A20.24,20.24,0,0,0,34.68,67,42,42,0,0,1,29,68.75C28.53,68.86,28.08,68.95,27.67,69Z"/><path class="cls-7" d="M35.13,67a9.3,9.3,0,0,0-.34,1.34,10.17,10.17,0,0,0-.06,3.4A72.41,72.41,0,0,0,61.57,52.28l-4,.69a21.67,21.67,0,0,1-3,2.7,87.84,87.84,0,0,1-11.85,7.59,63.12,63.12,0,0,1-7.5,3.55Z"/><path class="cls-7" d="M36.5,71.31l0,1.43c.79-.3,3.5-1.37,7-3.07a87,87,0,0,0,14.32-8.43,69.4,69.4,0,0,0,8.78-7.63,24.69,24.69,0,0,0,2.1-2.48c-2.07.29-4.36.67-6.7,1.06C59,56.14,50.24,65.08,36.5,71.31Z"/><path class="cls-7" d="M41.05,71.22l1,.88a64.11,64.11,0,0,0,6.88-2.79,57,57,0,0,0,13.46-8.58,115.4,115.4,0,0,0,8.35-8,23.54,23.54,0,0,0,1.7-2L69.89,51l-.64.09a21.36,21.36,0,0,1-2.32,2.78,69.76,69.76,0,0,1-8.83,7.67A87.31,87.31,0,0,1,43.72,70C42.76,70.45,41.87,70.86,41.05,71.22Z"/><path class="cls-7" d="M44.83,71.46l.78.78A39.91,39.91,0,0,0,51.37,70a61.62,61.62,0,0,0,13.45-8.79,93.35,93.35,0,0,0,8.47-8.1c1.25-1.38,2-2.31,2.28-2.72l-2.69.28A17.07,17.07,0,0,1,71,52.93,115.85,115.85,0,0,1,62.62,61a57.39,57.39,0,0,1-13.54,8.64C47.44,70.39,46,71,44.83,71.46Z"/><path class="cls-7" d="M83,81l-.61,2.41a4.58,4.58,0,0,0-.77.18,2.23,2.23,0,0,0-1.76,2.06c-.22,1-.45,2-1.26,2.37A11.93,11.93,0,0,0,75,86.56a10.53,10.53,0,0,1-1.16-3.88.17.17,0,1,0-.34,0,42.66,42.66,0,0,0-.71,4.84,6.7,6.7,0,0,0-.53.64c-1.08-2.39-1.62-7.82-1.63-7.88a.17.17,0,0,0-.34,0l-.91,3.36-.31-2.12c-.07-.49-.59.24-.6.25l.08-4.2c0-.21-.19-.28-.31-.1l-.93,1.29c-1.33-4.15-1.61-9.35,0-13.43,2.57-6.41,10.68-4.11,10.76-.32a21.82,21.82,0,0,0,.7,4.4c.41,1.74,1,3.84,1.6,6.51C81.39,80,82.49,80.83,83,81Z"/><path class="cls-7" d="M109,40a.17.17,0,1,0-.32.13,2.38,2.38,0,0,1,0,2.17,2.06,2.06,0,0,1-.88.52l-.18.06a3.22,3.22,0,0,0,0-1.94.17.17,0,1,0-.34.08c.26,1.07.14,1.77-.21,2a2.51,2.51,0,0,1-.82.32,2.61,2.61,0,0,0,.28-2.28.17.17,0,1,0-.32.12,2.1,2.1,0,0,1-.46,2.18,7.79,7.79,0,0,1-1,.61,2.56,2.56,0,0,0,.09-2,.17.17,0,0,0-.32.13,2,2,0,0,1-.66,2.32c-.45.24-1,.47-1.35.62a2.19,2.19,0,0,0,.06-.76,5.74,5.74,0,0,0-.2-1.08.17.17,0,0,0-.33.1c0,.12.41,1.5,0,1.92l-.06.05a.37.37,0,0,1-.13.06c-.76.18-1.56-1.08-1.59-1.13a.17.17,0,1,0-.3.18,3.88,3.88,0,0,0,.57.72,2.17,2.17,0,0,0,.86.56,4.18,4.18,0,0,1-2.3.31c-.56-.71-1.23-1.42-2-2.22C100.27,40.43,110,35.37,121,31.65c11.44-3.9,18.6-5.42,27.57-9.28s11-7.55,11.89-11.48a14.23,14.23,0,0,1,1.8-4.74L162,10.5c0,.22.21.29.32.1A25.65,25.65,0,0,0,165.58.76c.66,1.43.48,3.79.08,5.94a34.93,34.93,0,0,1-1.15,4.4.17.17,0,1,0,.31.15,17.3,17.3,0,0,1,4.5-4.9c-1.66,4.74-6.85,10.05-12.1,13.41-2.69,1.72-7.22,3.55-11.93,5.32s-9.58,3.5-12.92,5a.2.2,0,0,0-.1.2c.32,1.34-.09,1.93-2.28,2.88s-3.47,1.52-3.47,1.52a2.69,2.69,0,0,0-.33.58,6.11,6.11,0,0,1-4.79,2.9c.31-1.24.46-1.94.46-1.94,0-.18-.09-.28-.25-.19l-4.42,2.47c-.1.06-.17.5-.18.55a3.31,3.31,0,0,1-2.93,2.44,6,6,0,0,0,.29-1.12,4.15,4.15,0,0,0,.06-.59.16.16,0,0,0-.26-.15,15.31,15.31,0,0,1-2.5,1.27,2.87,2.87,0,0,0,.18-.73,4.65,4.65,0,0,0,0-.89.17.17,0,1,0-.35,0,4.27,4.27,0,0,1,0,.81c-.15,1.15-.74,1.43-1.77,1.73l-.49.12A3.35,3.35,0,0,0,109,40Z"/><path class="cls-7" d="M135.74,26.61s.77-.63,1.73-1.49c1.79-1.62,3.84-3.48,4.2-6a26.45,26.45,0,0,1-9.07,7.33c-2.73,1.34-5.63,2.62-8.42,3.77C128.5,28.8,132.22,27.71,135.74,26.61Z"/><path class="cls-7" d="M116.4,40.79c2.09-.52,4.07-1.71,4.63-2.56.19-.77.33-1.34.41-1.69l-4,2.24A4,4,0,0,1,116.4,40.79Z"/><path class="cls-7" d="M99.38,46.43a4.08,4.08,0,0,0,2.75-.76l.07-.08.79-.32a2.38,2.38,0,0,1-.81,2.09,6.79,6.79,0,0,1-1.51.78l-.31.12c-.05-.15-.11-.29-.17-.44A7.69,7.69,0,0,0,99.38,46.43Z"/><path class="cls-7" d="M103.06,46.8c.22-.06.53-.15.86-.26,1.41-.49,2.56-1.11,2.58-2.76v-.12a4.52,4.52,0,0,1-.63.13h-.06a9.61,9.61,0,0,1-1.52.81,1.48,1.48,0,0,1-.28.2l-.68.33A2.68,2.68,0,0,1,103.06,46.8Z"/><path class="cls-7" d="M106.63,44.93l.54-.05a5.34,5.34,0,0,0,1.57-.45,2.73,2.73,0,0,0,1.52-2.36l-.46.15a7.51,7.51,0,0,1-.75.18l-.08.12a3.22,3.22,0,0,1-1.68.81,2,2,0,0,1-.45.23,2,2,0,0,1,0,.23A3.06,3.06,0,0,1,106.63,44.93Z"/><path class="cls-7" d="M110.06,43.75a7.25,7.25,0,0,0,3.58-2.09,5.66,5.66,0,0,0,.4-1.54,12.13,12.13,0,0,1-2.62,1.24,2.4,2.4,0,0,1-.82.58A2.8,2.8,0,0,1,110.06,43.75Z"/><path class="cls-7" d="M134.34,32.06a3.43,3.43,0,0,1-1.18,1.79c.46.14,1.6.49,2.69.94.39.16,2.37.92,2.49,1.74a9.46,9.46,0,0,0,1.26-.41,11.42,11.42,0,0,0,2.85-1.63C140.77,33.48,135.09,32.22,134.34,32.06Z"/><path class="cls-7" d="M97.48,54.61l-.1.43a22.32,22.32,0,0,0-2.17-2c-.43-.35-.3-.61,0-.43A23.41,23.41,0,0,1,97.48,54.61Zm-4.21,9.07a7.22,7.22,0,0,1-4.69,2.72c-.38-1.3-.34-2.93,1.36-5.62,1.38-2.19,3.21-4.52,3.86-7.11a1.92,1.92,0,0,0,1.6.08c.37.33.82.7,1.28,1.13.2.18.39.39.59.6a30.28,30.28,0,0,1-1.1,3.37A16.64,16.64,0,0,1,93.27,63.68Z"/><path class="cls-7" d="M93.59,63.85A17,17,0,0,0,96.5,59a28.13,28.13,0,0,0,1-3.19A25,25,0,0,1,99.2,58a.77.77,0,0,0-.09-.87,18.47,18.47,0,0,0-1.45-1.77l.1-.44a7.71,7.71,0,0,1,1.57,2c.52,1.3-.82,2.43-.82,2.43s3.08-1.13,2.77-4a6.51,6.51,0,0,0-.83-2.49,8.5,8.5,0,0,0,.26-3,3.42,3.42,0,0,0,2.66-1.18,41.38,41.38,0,0,1-2,7.65,18.21,18.21,0,0,1-5.19,8.39,8.9,8.9,0,0,1-2.7,1.63Z"/><path class="cls-7" d="M97.68,63.68l.78.9c2.28-1.35,4.14-5.33,5-7.51A45.27,45.27,0,0,0,106,47.56a1.88,1.88,0,0,1-2.3.89,39,39,0,0,1-2,7.92A21.3,21.3,0,0,1,97.68,63.68Z"/><path class="cls-7" d="M101.08,62.41l1,.74c2.22-2,4.25-6.61,5.2-9.16a33.63,33.63,0,0,0,2.23-8c-1,1.28-2.13,1.79-3.11,1.17a42.12,42.12,0,0,1-2.69,10A23.65,23.65,0,0,1,101.08,62.41Z"/><path class="cls-7" d="M104.46,60.73l.06.67A15.25,15.25,0,0,0,110,53.66,29.24,29.24,0,0,0,111.51,46a1.87,1.87,0,0,1-1.62,0c-.05.69-.37,3.14-2.25,8.17A37,37,0,0,1,104.46,60.73Z"/><path class="cls-7" d="M108.34,58l.21.86c2.52-1.25,4.24-4.09,5-6.67.44-1.47,1.44-5.5,1.07-7.35a1.55,1.55,0,0,1-1.64-.28,3.53,3.53,0,0,1-1.12,1.22,27.78,27.78,0,0,1-1.48,8,15,15,0,0,1-2,4.21Z"/><path class="cls-7" d="M117.55,43.47a.17.17,0,0,1,.31-.15,2.42,2.42,0,0,1,.12.35,12.73,12.73,0,0,1-.41,5.58,12,12,0,0,1-1.44,3.23l.26.33c.65-.32,3.74-2,4.31-4.76a16.48,16.48,0,0,0,0-6,1.56,1.56,0,0,1-1.24-.28,2.44,2.44,0,0,1-1.57,1.64c-.12-.25-.42-.12-.34.08a2.07,2.07,0,0,1-1.06-.1,3.31,3.31,0,0,1-1.53,1.36,7.81,7.81,0,0,1,.06,1.71,25.39,25.39,0,0,1-1.13,5.86,13.45,13.45,0,0,1-1.8,3.82l.17.31c.76-.64,4-3.59,5-7.25a12.46,12.46,0,0,0,.41-5.4A1.81,1.81,0,0,0,117.55,43.47Z"/><path class="cls-7" d="M120.71,41.7a1.18,1.18,0,0,1-1.24-.42c-.12-.13-.27-.08-.3.09a2,2,0,0,1-2.7,1.6.18.18,0,0,0-.23.08c-1.06,2-3,1.62-3.1,1.08,0-.2-.23-.22-.32,0-.92,1.85-2.36,2-3.07,1.34-.47-.42-1.67,2.74-3.38,1.25a.16.16,0,0,0-.27.06c-.62,1.28-1.46,1.78-2.42,1.3l-.07,0a.2.2,0,0,0-.21,0,3.24,3.24,0,0,1-2.73,1.39,6.72,6.72,0,0,0-.19-.86,8.08,8.08,0,0,0,1.93-1,2.3,2.3,0,0,0,.39-.4,12.68,12.68,0,0,0,1.24-.36,4.35,4.35,0,0,0,2.41-1.58,6.09,6.09,0,0,0,2.45-.54,3.34,3.34,0,0,0,.82-.57c1.08-.16,3.43-1.17,4.2-2.3a4,4,0,0,0,1.91-.6,10,10,0,0,0,5.42-2.73A6.32,6.32,0,0,0,126.72,35c.28-.12,1.48-.66,3.4-1.49,2.16-.93,2.82-1.63,2.51-3.14,3.33-1.5,8.13-3.2,12.77-5,2.82-1.07,5.6-2.15,8-3.23.15.11.88.54,2.83-.11a19.56,19.56,0,0,0,2.34-1,59.76,59.76,0,0,1-7.44,3.52,83.22,83.22,0,0,1-12.41,4.15.34.34,0,0,0-.12.1,5.18,5.18,0,0,1-4.36,2.84.21.21,0,0,0-.16.15c-.29,1.89-2.95,3.12-4,2.72a.17.17,0,0,0-.23.12A3.47,3.47,0,0,1,126.29,37a.21.21,0,0,0-.17.13c-.72,2.51-1.81,2.81-2.88,2.32-.37-.17-1.28,1.73-2.38,2.18A.19.19,0,0,0,120.71,41.7Z"/><path class="cls-7" d="M120.72,49.09l.12,0A2.29,2.29,0,0,0,123,47.89c1.49-2.18.45-6.67.14-7.84A4.37,4.37,0,0,1,121,41.92a17.13,17.13,0,0,1,0,6.19A4.81,4.81,0,0,1,120.72,49.09Z"/><path class="cls-7" d="M126.77,40a.17.17,0,0,1,0-.11,15,15,0,0,0-.44-2.25c-.69,2-1.73,2.63-2.88,2.27a21.26,21.26,0,0,1,.56,2.94,10.46,10.46,0,0,1-.21,4.1c1.38-.83,3.06-2.13,3.09-4.6A18.44,18.44,0,0,0,126.77,40Z"/><path class="cls-7" d="M127,44c.92-.16,3.6-.6,3.56-1.38s-2.55-2-3.4-2.37a17.61,17.61,0,0,1,.1,2.15A5.16,5.16,0,0,1,127,44Z"/><path class="cls-7" d="M130.81,42.33c1.44-.39,2.5-1.79,2.28-2.79s-3.89-3.11-3.94-3.14a4.57,4.57,0,0,1-2.54,1c.05.19.19.7.32,1.4.06.31.11.66.16,1,.25.11,1,.47,1.8.92A4.63,4.63,0,0,1,130.81,42.33Z"/><path class="cls-7" d="M133.44,39.54A9.4,9.4,0,0,0,138,36.72c.57-.91-4.85-2.53-5.1-2.6a4.07,4.07,0,0,1-2.78.78,3.15,3.15,0,0,1-.72,1.23c.22.12,1,.59,1.87,1.16s2,1.5,2.18,2.17Z"/><path class="cls-7" d="M142.07,33.9c.56-.3,5.33-2.86,7.17-3.95-2.79-.29-9.59-.71-10.48-.76a5.36,5.36,0,0,1-3.68,2.68c.69.16,1.77.41,2.92.71A29.68,29.68,0,0,1,142.07,33.9Z"/><path class="cls-7" d="M148.49,29.53s.8-.62,2-1.39a24.57,24.57,0,0,1,3.76-1.92,24.61,24.61,0,0,0-5.09.72.17.17,0,0,1-.14-.31l3.15-2.13-1,.4a88.74,88.74,0,0,1-11.78,4c1.79.11,6.39.41,9,.65Z"/><path class="cls-7" d="M55.86,69.24a.16.16,0,0,1,.12-.06,64.08,64.08,0,0,0,13.59-9.48,86.87,86.87,0,0,0,7.35-7.63,20.43,20.43,0,0,0,1.48-2L76,50.3a33.5,33.5,0,0,1-2.49,3A93.54,93.54,0,0,1,65,61.43a62,62,0,0,1-13.48,8.82l.87.64C53.55,70.4,54.7,69.85,55.86,69.24Z"/><path class="cls-7" d="M87.81,65.57a12.71,12.71,0,0,0,.6,3.7,44.62,44.62,0,0,1,1.86,8.63c.13,1.33.4,2.87.63,4.11.09.52.2,1,.29,1.56a6.2,6.2,0,0,0-2.57-1.68,23,23,0,0,0-5.34-.71l.09-.35c0-.15-.05-.2-.21-.21-1.28,0-2.37-4.59-2.43-4.85-.59-2.51-1.12-4.52-1.53-6.2A5.89,5.89,0,0,0,82,69L82,69a3.27,3.27,0,0,0,2.91-1.17C85.8,68.06,87.07,66.77,87.81,65.57Z"/><path class="cls-8" d="M85.25,67.51a6,6,0,0,0,1-1.46.17.17,0,1,0-.31-.14c-.69,1.5-2.37,2.94-3.56,2.81A4,4,0,0,0,83.54,67a.17.17,0,1,0-.32-.14c-.5,1.12-1.13,2.27-4.1,2.32a21.28,21.28,0,0,1-.68-4.29c-.09-4.36-8.79-6.39-11.43.2a16,16,0,0,0-1,4.07,24.66,24.66,0,0,1-9.51.08c.55-.29,1.15-.62,1.77-1a61.24,61.24,0,0,0,11.54-8.35,87.25,87.25,0,0,0,7.38-7.67,17.2,17.2,0,0,0,1.63-2.23l2.7-.21a2.13,2.13,0,0,0-1.22,1s1.21-.61,1.65-.26a3.51,3.51,0,0,0-1,1.34l1-.39s-.43.69-.26,1.08A2.26,2.26,0,0,1,84.21,52a2.26,2.26,0,0,0-.91,1.34,4.5,4.5,0,0,1,2.82-.61,4.1,4.1,0,0,0-.26,1.69,3.29,3.29,0,0,1,1.82-1.65,1,1,0,0,0-.13.82c.3-.48,1.91-.61,3.9-.48,1.82,1.39,1.91.26,1.91.26l.14.1c-.62,2.57-2.47,4.92-3.84,7.09a14.83,14.83,0,0,0-.93,1.7,5.09,5.09,0,0,0-.86,2.48C87.33,66,86,67.4,85.25,67.51Z"/><path class="cls-4" d="M59.74,69.18c.33-.05,1.27-1.13,1.46-1.36a.17.17,0,0,1,.27.22s-.3.36-.65.73-.75.77-1.09.77c-.66,0-.2-1.41-.12-1.66a.17.17,0,1,1,.33.11,5.78,5.78,0,0,0-.18.69A1.27,1.27,0,0,0,59.74,69.18Zm24.15-9c0,.1-.38,1-.08,1.12s1.25-.61,1.32-.67a.17.17,0,1,1,.23.26,5.07,5.07,0,0,1-.6.46c-.44.28-1.27.62-1.4-.19a2.27,2.27,0,0,1,.21-1.12A.17.17,0,0,1,83.89,60.19Zm2.35.81c0,.1-.25.92.22,1s1.45-.66,1.49-.69a.17.17,0,1,1,.24.25l-.17.15a2.14,2.14,0,0,1-1.64.63.8.8,0,0,1-.56-.86,2.07,2.07,0,0,1,.1-.62A.17.17,0,1,1,86.24,61Zm-.86-2.68c0,.09-.08,1,.12,1.08s1.29-.81,1.37-.88a.17.17,0,0,1,.23.26s-.31.28-.66.53c-.72.52-1.38.79-1.42-.44a4.28,4.28,0,0,1,0-.59A.17.17,0,0,1,85.38,58.32Zm3.23.75c-.06.12-.39.85-.09,1s1.94-1.44,2-1.52a.17.17,0,0,1,.25.24s-.43.45-.92.87c-.29.25-1.05.9-1.48.73s-.29-1.06-.09-1.45A.17.17,0,0,1,88.61,59.08Zm-2.21-2c0,.06-.27.6-.08.8s.55-.15.63-.22a.17.17,0,1,1,.23.25l-.1.09c-.27.2-.7.43-1,.12s-.15-.87,0-1.2A.17.17,0,0,1,86.4,57.12ZM88.24,57c0,.07-.13,1.06.21,1.25s1.32-.8,1.4-.88a.17.17,0,1,1,.25.24c-.65.67-2.14,1.87-2.23,0a3.69,3.69,0,0,1,0-.65A.17.17,0,0,1,88.24,57ZM86.81,59.8c0,.08,0,.65.19.73s.61-.6.66-.7A.17.17,0,1,1,88,60l-.09.15c-.18.3-.57.85-1,.71s-.46-.74-.42-1.09A.17.17,0,0,1,86.81,59.8Zm-4.45,1.72c-.06.09-.81,1.35-.54,1.65s1.11-1.26,1.24-1.49a.17.17,0,1,1,.3.17,10.14,10.14,0,0,1-.62.94c-.19.25-.79,1-1.17.61s.25-1.67.5-2.07A.17.17,0,0,1,82.36,61.52Zm1.86.78c-.08.12-.85,1.39-.72,1.52s1.71-1.15,1.85-1.27a.17.17,0,0,1,.22.27s-.46.38-1,.73c-.2.14-1.06.81-1.36.51s.51-1.69.67-1.95A.17.17,0,1,1,84.22,62.3Zm2.35.54c-.07.16-.58,1.55-.36,1.64s1.36-1.5,1.44-1.62a.17.17,0,0,1,.29.19s-.31.47-.67.92c-.19.23-.78,1-1.18.83-.59-.23,0-1.78.16-2.09A.17.17,0,1,1,86.58,62.83ZM84.82,64c-.12.16-.87,1.22-.74,1.31s1.33-.59,1.41-.65a.17.17,0,0,1,.2.29,7.9,7.9,0,0,1-.69.42c-.27.15-1.2.6-1.26,0,0-.42.57-1.25.8-1.55A.17.17,0,1,1,84.82,64Zm-1.32.76a8.08,8.08,0,0,1-.72.54c-.27.18-.85.56-1.18.34-.56-.38.75-2.22.91-2.45a.17.17,0,0,1,.29.2s-.33.48-.61,1a3.31,3.31,0,0,0-.39,1c.23.15,1.36-.75,1.48-.85A.17.17,0,1,1,83.5,64.8Zm-3.57.56c.36-.1,1.08-1,1.28-1.32a.17.17,0,1,1,.28.2s-.28.39-.61.76-.73.81-1.1.69.13-1.37.23-1.57c.31-.63.67-1.24.67-1.24a.17.17,0,0,1,.3.18s-.35.6-.65,1.22A4,4,0,0,0,79.92,65.37Zm1,.51c-.08.15-.65,1.35-.46,1.46S81.95,66.13,82,66a.17.17,0,0,1,.26.23s-.35.4-.75.77c-.22.2-.87.82-1.24.61-.52-.29.16-1.62.32-1.92A.17.17,0,0,1,80.94,65.88Zm5.13-10.81s-.06.84.12,1,1-1,1.13-1.2a.17.17,0,0,1,.28.21s-.29.38-.61.72c-.16.18-.73.82-1,.51A2,2,0,0,1,85.73,55,.17.17,0,1,1,86.07,55.07Zm3-1c-.09.17-.82,1.73-.68,1.8s1.88-1.36,2-1.45a.17.17,0,0,1,.23.26s-.46.42-1,.81c-.17.13-1.48,1.24-1.57.42a5.81,5.81,0,0,1,.7-2A.17.17,0,1,1,89,54Zm2.08.77c-.05.11-.66,1.48-.51,1.62s1.2-.77,1.32-.88a.17.17,0,1,1,.23.26s-.33.29-.7.54-1.15.79-1.2.05a5.16,5.16,0,0,1,.55-1.75A.17.17,0,0,1,91.12,54.82ZM83.5,56a9.34,9.34,0,0,0,1.81-1.39.17.17,0,1,1,.23.25s-.44.4-.91.79c-1.49,1.2-1.74.83-1.22-.9.19-.63.42-1.25.42-1.25a.17.17,0,1,1,.32.12s-.23.6-.41,1.22A4.81,4.81,0,0,0,83.5,56Zm1,.59a6.86,6.86,0,0,0-.61,1.83,17,17,0,0,0,1.6-1.26.17.17,0,1,1,.23.26s-.43.38-.88.73c-.2.16-1.36,1.09-1.3.17a7.54,7.54,0,0,1,.65-1.88A.17.17,0,0,1,84.45,56.6ZM81,58.05c.4.05,1.53-.68,1.83-.89a.17.17,0,1,1,.2.28s-.38.27-.82.51c-1.54.87-1.95.46-1.15-1.07.31-.59.68-1.16.68-1.16a.17.17,0,0,1,.29.19s-.36.56-.66,1.13A3,3,0,0,0,81,58.05Zm1.23.53c0,.1-.5,1.52-.34,1.68s1.26-1.07,1.4-1.21a.17.17,0,0,1,.25.24s-.35.37-.74.71c-.22.2-1.16,1-1.27.25a5.45,5.45,0,0,1,.37-1.79A.17.17,0,1,1,82.25,58.58Zm-2.51,3.86c.39,0,1.47-1.07,1.7-1.3a.17.17,0,1,1,.25.24s-.37.39-.8.75c-2.42,2-1.3-1.12-.87-2.23a.17.17,0,1,1,.32.12s-.24.61-.42,1.24a3.65,3.65,0,0,0-.19,1.14Zm1.64-3.19s-.36.17-.77.3c-1.41.48-1.46,0-1.08-1.18.16-.49.36-1,.36-1a.17.17,0,0,1,.32.14s-.19.45-.35.92a3.55,3.55,0,0,0-.19.91c.18.13,1.41-.38,1.56-.45A.17.17,0,1,1,81.38,59.24ZM78,59.79c0,.13-.49,1.63-.29,1.75s1.46-1.13,1.56-1.23a.17.17,0,1,1,.25.24s-.36.37-.77.72c-1.88,1.6-1.49-.33-1.08-1.59A.17.17,0,1,1,78,59.79Zm2.59-4.73a11.17,11.17,0,0,0,1.66-1.59.17.17,0,1,1,.25.23s-.39.43-.82.85c-.16.15-.87.89-1.17.89-.47,0-.22-1.3-.2-1.47.08-.64.2-1.29.2-1.29a.17.17,0,1,1,.34.06s-.12.63-.2,1.27A4.89,4.89,0,0,0,80.64,55.05Zm-2.58-.6a8,8,0,0,0,1.59-1.67.17.17,0,0,1,.28.21s-.37.49-.79,1c-.17.2-.89,1.05-1.26.82s.24-1.84.37-2.13a.17.17,0,0,1,.31.15s-.19.41-.34.85a2.3,2.3,0,0,0-.16.8ZM76.22,55a9.71,9.71,0,0,0-.7,2.09,10.3,10.3,0,0,0,1.72-1.3.17.17,0,0,1,.23.26s-.43.38-.89.74c-.18.14-1.4,1.15-1.4.27a8.68,8.68,0,0,1,.71-2.21A.17.17,0,0,1,76.22,55Zm2.74.85a7.45,7.45,0,0,0-.4,1.94A17.32,17.32,0,0,0,80.44,56a.17.17,0,1,1,.26.23s-.47.51-1,1c-1.05,1-1.84,1.52-1.37-.48.12-.51.27-1,.27-1A.17.17,0,0,1,79,55.89Zm-4.39,3.57a16.91,16.91,0,0,0,2.18-1.26.17.17,0,0,1,.19.29s-.57.36-1.16.71c-.16.09-1.2.76-1.47.65s.19-1.06.26-1.21c.25-.46.52-.91.52-.91a.17.17,0,1,1,.3.18s-.27.44-.51.89a6.58,6.58,0,0,0-.3.62Zm-2.07.06c.44-.16,1.47-1.85,1.68-2.21a.17.17,0,0,1,.3.17s-.36.62-.78,1.23c-.18.25-.88,1.31-1.33,1.15-.73-.26.72-2.68.82-2.85a.17.17,0,0,1,.3.17s-.34.6-.63,1.22a3.5,3.5,0,0,0-.36,1.12Zm-5.35,4.21s-.38.55-.83,1.06c-.21.24-.95,1.14-1.39.9-.66-.36.62-1.93.82-2.17a.17.17,0,1,1,.27.22,9.27,9.27,0,0,0-.6.84c0,.07-.43.73-.31.81.4,0,1.57-1.59,1.76-1.85A.17.17,0,0,1,67.15,63.73ZM63,66c-.09.18-.9,1.89-.7,2s2.11-1.81,2.19-1.91a.17.17,0,0,1,.26.23s-.49.54-1,1c-.15.14-1.58,1.58-1.74.67a5.62,5.62,0,0,1,.72-2.17A.17.17,0,0,1,63,66Zm1.83,1.43c0,.17-.26,1.45-.13,1.49s1-1.16,1.07-1.27a.17.17,0,0,1,.29.19s-.23.36-.51.72-.6.79-.94.7c-.53-.13-.18-1.63-.13-1.89A.17.17,0,1,1,64.88,67.4Z"/><path class="cls-9" d="M89.23,51.65a7.52,7.52,0,0,0-3.16,1.1,4.84,4.84,0,0,0-.56,0,6.35,6.35,0,0,1,1-1.1,5.65,5.65,0,0,0-2.33.37,2.55,2.55,0,0,0-.46-.12,4.58,4.58,0,0,1,2.61-1.06c2.21-.26,3.51.24,2-.78s-1.91-1.67-.3-.87,3.66,2.08,4.79,2.08a3.3,3.3,0,0,1,2.7.95c-.46,0-.8,0-.93.24s.21.76.8,1.29a2.21,2.21,0,0,1-2.06-.34.53.53,0,0,1-.11.27,6,6,0,0,0-1.41-1c-1-.43-3.81,0-3.81,0A10.22,10.22,0,0,0,89.23,51.65Z"/><path class="cls-10" d="M95.57,49.87l-.32-.25-.08-.06c-.07.1-.25.4-.1.53S95.48,50,95.57,49.87Zm.59.46-.4-.31-.07.07c-.2.18-.54.41-.8.18s-.1-.62.07-.86L94.42,49a.17.17,0,0,1,0,.09A1.05,1.05,0,0,0,96,50.38.17.17,0,0,1,96.16,50.33Zm-2.64-2.15s1,.74,1.8,1.36a6.81,6.81,0,0,0,2,1.29.17.17,0,1,1-.1.33,3.61,3.61,0,0,1-1-.39l-.1.08a1.38,1.38,0,0,1-1.71-.09,1.43,1.43,0,0,1-.51-1.66l-.53-.69C93.16,48.27,93.34,48,93.52,48.18Z"/><path class="cls-11" d="M81.85,41.86c1.2.56,3.69,1.75,7.12,3.53a55,55,0,0,1,8.41,5.11c.35.32.6.77,0,.66a.18.18,0,0,0,0-.32,6.81,6.81,0,0,1-2-1.29c-.84-.63-1.8-1.36-1.8-1.36-.18-.14-.36.09-.18.23l.53.69a1.25,1.25,0,0,0-.09.31c-1.33-.79-2.74-1.67-4.07-2.3-2.21-1-7.37-2.69-7.37-2.69a7.37,7.37,0,0,1,3.12.78,32.57,32.57,0,0,0-4.25-2.69l1.3,0L81.4,42Z"/><ellipse class="cls-10" cx="98.55" cy="53.06" rx="0.54" ry="0.26" transform="translate(-12.47 38.87) rotate(-21.01)"/><path class="cls-10" d="M98.55,53.06"/><path class="cls-12" d="M74.46,68.4c-.17-2.08,2.73-3.94,2.95-1.91,0,0,2,12.57,4.77,14.39-.17.87-.43,1-.43,1S75.76,78.89,74.46,68.4Z"/><path class="cls-12" d="M85.07,68.31a2.57,2.57,0,0,0,2.12-1.13,60.16,60.16,0,0,1,2.51,9.88c.3,2.3.87,5.16.87,5.16l-1.78-1a67.2,67.2,0,0,0-1.43-7.28A19.93,19.93,0,0,0,85.07,68.31Z"/><path class="cls-12" d="M66.26,75.75a9,9,0,0,1-2.67,2.31c.13-.26,1.26-3,1.26-3s-1.91,2.3-3,2.12a25.5,25.5,0,0,0,1.82-3.77,11.35,11.35,0,0,0-1.13,1.47C61.81,76,59.42,78.71,58,79.28a37.38,37.38,0,0,0,2.73-4.77s-.87,1.13-2.25,2.69A31.31,31.31,0,0,1,53.66,81,1.82,1.82,0,0,1,52,81a4.42,4.42,0,0,1-1.43,1.21c-1,.52-3.77,1.56-3.77,1.56L47.85,82l-5.2,3.68,3.08-4.85S42.61,84,42.22,84.52s-3,1-3,1L40.32,84l-.69.09,4.68-3.29-7,3.9,1.86-2.43-1.26.09,2.17-2.86-1.69-.3s4.9-2.3,8.75-4a71.43,71.43,0,0,0,10-5.5,25.25,25.25,0,0,0,5.94.22,22.37,22.37,0,0,0,2.89-.4,22.23,22.23,0,0,0,.11,5C66.13,75,66.19,75.38,66.26,75.75Z"/><path class="cls-3" d="M53.42,81.1a65,65,0,0,1,7.52-6.94l-.33.49.07-.14s-.87,1.13-2.25,2.69A31.31,31.31,0,0,1,53.66,81,1.16,1.16,0,0,1,53.42,81.1Z"/><path class="cls-3" d="M52.51,81.17A2.44,2.44,0,0,1,52,81a4.32,4.32,0,0,1,3.66-3.13A27.88,27.88,0,0,0,52.51,81.17Z"/><path class="cls-3" d="M64.23,76.55l1.48-2.17a14.86,14.86,0,0,1-.38,2.39,8.34,8.34,0,0,1-1.74,1.29C63.65,77.94,63.94,77.24,64.23,76.55Z"/><polygon class="cls-3" points="46.92 83.53 47.84 81.99 51.41 79.23 46.92 83.53"/><polygon class="cls-3" points="44.59 82.6 50.24 78.75 43.35 84.54 44.59 82.6"/><path class="cls-3" d="M40.24,84.05l5.49-3.56-5.45,4.8c-.58.14-1.05.23-1.05.23L40.32,84Z"/><path class="cls-3" d="M90.14,83c-2.34-1.5-6.26-1.51-6.93-1.5l.09-.34a23,23,0,0,1,5.34.71,6.3,6.3,0,0,1,1.64.85A.28.28,0,0,1,90.14,83Z"/><path class="cls-3" d="M99.09,58.61a3.69,3.69,0,0,0,1.55-2.66,7.1,7.1,0,0,0-1.74-4.6,2.65,2.65,0,0,0,.21-.28,7.44,7.44,0,0,1,2.17,4.25c.3,2.86-2.77,4-2.77,4A3.23,3.23,0,0,0,99.09,58.61Z"/><path class="cls-1" d="M88.63,81.9a23,23,0,0,0-5.34-.71l-.61,2.38c.78.29,1.12,1.33,1.48,2.47v0h0l.06.16,0,0a1,1,0,0,0,.22.33,5,5,0,0,0,3,1.54c1,0,1.1-1.07.64-1.27a3.62,3.62,0,0,1-1.66-1.19l.2-.14a5.34,5.34,0,0,0,1.46,1c1,.4,2.2-.21,1.85-1a2.92,2.92,0,0,0-.89-1.07.2.2,0,0,1,.25,0s.14.11.35.3a7.43,7.43,0,0,1,.73.78,2.69,2.69,0,0,1,1,1.44C93.16,84.76,90.58,82.55,88.63,81.9Z"/><path class="cls-10" d="M89.64,84.68c-.36-.94-.13-1.63.18-1.59s.48-.1.45-.34c1.4,1,2.43,2.61,1.2,4.22a2.69,2.69,0,0,0-1-1.44,7.43,7.43,0,0,0-.73-.78Z"/><path class="cls-13" d="M91.51,86.9a3.63,3.63,0,0,0-1.44-3.84.29.29,0,0,0,.19-.31C91.65,83.74,92.67,85.32,91.51,86.9Z"/><path class="cls-10" d="M89.48,85.71c-.21-.16-1,.36-.61.78a6.16,6.16,0,0,1,1.73,3.28C91.41,88.69,91,86.87,89.48,85.71Z"/><path class="cls-10" d="M87.6,87.76a1.91,1.91,0,0,0,1.76.38A6.54,6.54,0,0,0,88,87.3S87.4,87.24,87.6,87.76Z"/><path class="cls-4" d="M85.4,86.59c-1,.1-1.09-.32-1.45-1.29-.16-.43-.27-.82-.27-.82a.17.17,0,0,1,.33-.1s.11.38.27.8a3.41,3.41,0,0,0,.49,1c.18.17.83.05,1.18,0-.14.13-.27.26-.4.39Zm.89-.75-.3-.49a17.8,17.8,0,0,0-1-1.54.17.17,0,1,1,.27-.22,16.23,16.23,0,0,1,1.33,2Zm.38-3.16,2.27,1.94a2.2,2.2,0,0,0-.46.06l-2-1.74A.17.17,0,0,1,86.66,82.67Z"/></g></g></svg>