<svg xmlns="http://www.w3.org/2000/svg" viewBox="0 0 59.35 69.82"><defs><style>.cls-1{fill:#1a1a1a;}</style></defs><title>Ресурс 2</title><g id="Слой_2" data-name="Слой 2"><g id="Слой_1-2" data-name="Слой 1"><path class="cls-1" d="M38.3,16.16c-.85,0-1,.44-1.77,0a28.9,28.9,0,0,0,1.11-4.65c1.88-1.36,2.17-.83,4.38-1.54.16-.05.26-.08.26-.25s0-.39-.2-.44c-1.34-.42-3.68.26-2.75-.79,1.7-1.92,6.18.64,5-1.62-1.79-3.33-3.9-.63-7.12-2.62C36.17,1.81,33.93,0,29.64,0c-3.12,0-5.11,1-6.36,2.51a9.89,9.89,0,0,0-2.05,6.63,24.43,24.43,0,0,0,1.33,6.78c-.64.56-.74.2-1.59.22a17.8,17.8,0,0,0-6.19,1.5A16.91,16.91,0,0,0,9.27,21,23,23,0,0,0,5.44,26.2a35.48,35.48,0,0,0-2.45,6,52.78,52.78,0,0,0-1.61,6.27c-.38,2-.55,4.15-.79,6.42-.21,2-.42,4.18-.52,6.44C0,53.39,0,55.55,0,57.8a2,2,0,0,0,1.31,1.81,2.06,2.06,0,0,0,2.25-.37C4.94,57.8,6.32,56.4,7.69,55.1s3-2.74,4.37-3.86a30.85,30.85,0,0,1,4.76-3.41c2.35-1.17,4.19-1.25,5.38-.07-.31,3-.9,2.87-1.85,5.75s-.82,2.93-1.76,5.82-.8,2.93-1.75,5.82A2,2,0,0,0,17.9,67.8a49.35,49.35,0,0,0,5.77,1.66,29.52,29.52,0,0,0,6,.36,28.74,28.74,0,0,0,5.9-.73,55.32,55.32,0,0,0,5.8-1.44,2.14,2.14,0,0,0,1.37-2.59c-.95-2.89-1.09-2.84-2-5.73s-1.07-2.85-2-5.74-1.45-2.8-1.76-5.82c1.19-1.19,3.15-1,5.5.17a30.75,30.75,0,0,1,4.71,3.42c1.42,1.13,3.09,2.21,4.58,3.62s2.66,2.8,4,4.24a2.22,2.22,0,0,0,3.6-1.43c0-2.25.05-4.41,0-6.47-.09-2.26-.46-4.4-.67-6.43-.24-2.27-.38-4.43-.76-6.42a53.58,53.58,0,0,0-1.54-6.29,35,35,0,0,0-2.53-6,22.52,22.52,0,0,0-3.95-5.11,17.18,17.18,0,0,0-5.19-3.83A18.37,18.37,0,0,0,38.3,16.16Z"/></g></g></svg>