<svg xmlns="http://www.w3.org/2000/svg" viewBox="0 0 89.09 87.27"><defs><style>.cls-1{fill:#1a1a1a;}</style></defs><title>Ресурс 1</title><g id="Слой_2" data-name="Слой 2"><g id="Слой_1-2" data-name="Слой 1"><path class="cls-1" d="M44.66,27.92a15,15,0,0,0-3.5.41,14,14,0,0,0-6.25,3.09c-1,.77-2.64.77-3.41,1.73a17.41,17.41,0,0,0-2.08,3.16c-.53,1.1.27,2.64,0,3.85s-2.13,2.22-2.13,3.48.7,2.57,1,3.75a17.92,17.92,0,0,0,.83,3.76c.54,1.12,1.83,1.88,2.6,2.84a17.51,17.51,0,0,0,2.46,2.84A17.92,17.92,0,0,0,37.25,59c1.09.53,2.64-.1,3.85.18s2.31,1.51,3.56,1.51a18,18,0,0,0,3.82-.38c1.22-.28,2.18-1.46,3.27-2,1.51-.73,2.23-2.39,3.88-3a22.44,22.44,0,0,0,3.43-4.78c.53-1.1,1.89-1.94,2.17-3.16a17.71,17.71,0,0,0,.17-3.78,19.44,19.44,0,0,0-1.28-7.45,17.8,17.8,0,0,0-2.33-3c-.77-1-2.4-1-3.37-1.77s-1.39-2.29-2.5-2.83-2.49-.16-3.71-.43A15,15,0,0,0,44.66,27.92ZM40,86.76c1.15,1.29,1.16-.27,2.88-.27h3.46c1.73,0,1.67,1.48,2.84.2s1-1.34,1-3.24.09-1.91.09-3.82S49,77.74,49,75.83s1.74-1.92,1.74-3.84.66-2.65-.66-4.09c-5.75-1.31-4.62.15-7.14.15-1.73,0-2.58-1.42-3.74-.15s-.34,2.16-.34,4.06S40,73.86,40,75.77s-1.11,1.91-1.11,3.83a20,20,0,0,1,0,3.75C38.6,85.11,38.76,85.34,40,86.76ZM49.29.51C48.14-.78,48.13.78,46.4.78H42.94c-2.12,0-1.56-2.21-3.82,1.11.07,4-.06,3.35-.06,5.75,0,1.91,1.28,1.91,1.28,3.83s-1.75,1.92-1.75,3.84-.65,2.65.66,4.09c5.76,1.3,4.64-.15,7.14-.15,1.73,0,2.57,1.43,3.74.15s.34-2.16.34-4.06-1.11-1.91-1.11-3.82,1.11-1.92,1.11-3.83a19.5,19.5,0,0,1,0-3.75C50.73,2.16,50.57,1.93,49.29.51Zm29.15,15.9c.09-1.72-1-.62-2.23-1.85S75,13.32,73.76,12.1c-1.49-1.5.46-2.65-3.48-1.93-2.76,2.86-2.41,2.33-4.11,4-1.36,1.36-.45,2.26-1.81,3.61s-2.59.13-3.94,1.49S58.09,20.7,58,22.62c-.09,1.72,1,1.81,2.22,3s1.71.73,2.93,2,.82,2.83,2.55,2.74c1.89-.09,1.76-1.28,3.1-2.62a8.79,8.79,0,0,1,1.92-3.49c1.65-1.66,2.45-.11,4.5-3.2a1,1,0,0,1,.21-.22C78.26,18.63,78.3,18.85,78.43,16.41ZM10.9,70.86c-.1,1.8,1.12.52,2.4,2,.69.81,1.5,1.51,2.26,2.27,1.51,1.5-.45,2.66,3.49,1.93,2.76-2.86,2.41-2.32,4.11-4,1.34-1.35.45-2.25,1.8-3.61s2.59-.12,3.95-1.48,2.32-1.41,2.43-3.33c.09-1.72-1-1.8-2.22-3s-1.71-.73-2.94-2-.81-2.83-2.54-2.74c-1.9.09-1.77,1.28-3.11,2.63S20,61.69,18.63,63s-2.14.57-3.49,1.93a19.68,19.68,0,0,1-2.68,2.62C11,68.67,11,68.95,10.9,70.86ZM69.67,39c-1.61,1.45,1.25,1.1-.11,4.6C71.1,47.83,67,46.45,71,49.18c4-.06,3.36.06,5.77.06,1.91,0,1.91-1.26,3.83-1.26s1.91,1.72,3.84,1.72,2.64.66,4.09-.65c1.29-5.75-.15-4.63-.15-7.13,0-1.73,1.43-2.57.14-3.74s-2.15-.33-4-.33-1.91,1.09-3.82,1.09c-2.35,0-1.82-1.65-5.46-.9a.87.87,0,0,1-.27,0C71.36,37.58,71.49,37.37,69.67,39Zm-50,0c-1.41-1.28-1.41.21-3.3.21H12.53c-1.91,0-1.91.07-3.83.07s-1.92-1.16-3.84-1.16-2.69-1.25-4.12,0,1.11,2,1.11,3.76S.16,43.63.16,45.36s-.64,2.55.64,3.71,2.13.54,4,.54,1.91-.69,3.82-.69,1.91.26,3.83.26c2.52,0,1.74.41,6.29.16,2.52-2,2-1.88,2-4a14.81,14.81,0,0,1,0-3.36C21,40.44,20.94,40.17,19.65,39ZM59.07,64.6c.09,1.9,1.14.85,2.49,2.19s1.34,1.36,2.69,2.71,1.41,1.3,2.76,2.65.53,2.18,1.89,3.54,1,2.78,2.93,2.89c1.72.09.65-2.22,1.87-3.45s2.43,0,3.65-1.24,2.26-1.35,2.17-3.12c-3.56-5.31-3.7-3.46-5.65-5.41-1.35-1.35-1.17-1.54-2.52-2.89s-1.19-1.53-2.54-2.88-1.25-1.7-3.16-1.8c-1.73-.1-1.63.31-2.84,1.53a14.46,14.46,0,0,1-2.41,2.35C59.12,62.6,59,62.87,59.07,64.6ZM30.25,22.66c-.09-1.89-1.13-.84-2.48-2.18s-1.35-1.36-2.7-2.71-1.41-1.3-2.76-2.65-.53-2.18-1.89-3.54-1-2.79-2.93-2.89c-1.72-.09-.66,2.22-1.88,3.44s-2.42,0-3.65,1.24-2.26,1.35-2.16,3.11c3.56,5.34,3.7,3.47,5.65,5.42,1.35,1.36,1.17,1.54,2.52,2.89s1.19,1.52,2.55,2.88,1.24,1.7,3.17,1.8c1.72.09,1.61-.31,2.84-1.53a14.49,14.49,0,0,1,2.41-2.35C30.21,24.66,30.34,24.39,30.25,22.66Z"/></g></g></svg>