<svg xmlns="http://www.w3.org/2000/svg" width="95" height="96" viewBox="0 0 94.53 96"><title>Ресурс 1</title><g id="Слой_2" data-name="Слой 2"><g id="Слой_1-2" data-name="Слой 1"><path d="M3,55.46l1.2-.55L0,53.92c.22-.25.27-.37.35-.4,1.37-.4,2.78-.7,4.11-1.21A17.32,17.32,0,0,0,8,50.49a32.59,32.59,0,0,0,4-3.31,19.6,19.6,0,0,0,2.41-3c1.13-1.62,2.18-3.3,3.27-5l2-3.08c.93-1.4,1.89-2.79,2.79-4.2A6.26,6.26,0,0,0,23.4,30l-1.11.56c0-.13-.06-.21,0-.24,1-1.43,1.91-2.88,2.94-4.28,2.56-3.48,3.62-7.49,4.54-11.64.56-2.55.07-5,.42-7.55a10.28,10.28,0,0,0-.51-3.24c-.13-.65-.36-1.27-.48-1.92,0-.19.15-.41.23-.62.18.08.46.1.54.24.75,1.26,2.06,1.8,3.17,2.62a22.73,22.73,0,0,1,5.43,6.22,6.24,6.24,0,0,0,.9.91c.26-.32.66-.6.74-1a11.43,11.43,0,0,0,.52-3.43c-.24-2.56.92-4.55,2.2-6.69a2.69,2.69,0,0,1,.28.46c.62,2,1.26,4.05,1.82,6.1a27.51,27.51,0,0,1,.55,3.18c.13.86.16,1.74.31,2.6s.61,1.15,1.49.8a17.85,17.85,0,0,1,1.83-.76,10.24,10.24,0,0,1,1.77-.17l0,.25-1.5.43a4.37,4.37,0,0,0,1,.49c1.13.12,2.27.19,3.4.26a11.25,11.25,0,0,1,1.61,0,33.66,33.66,0,0,1,5.72,1.38A10.41,10.41,0,0,1,65,17.75a8.59,8.59,0,0,0,7.7,3c3.85-.3,7.57.62,11.28,1.65a49,49,0,0,0,6.3,1.07,6.37,6.37,0,0,0,2-.1c1.66-.3,2.62.54,2.15,2.14-1,3.25-2,6.48-4.43,9A13.35,13.35,0,0,1,88.4,36c-2.07,1.58-4.17,3.12-6.29,4.68-.7-.71-1.53-.39-2.24-.14-3.61,1.26-7.2,2.55-10.76,3.91A10,10,0,0,0,66.88,46c-.64.48-1.23,1-2,1.66V46.18c-1,.87-1.81,1.55-2.55,2.33-3.3,3.49-4.89,7.87-6.29,12.32a32,32,0,0,0-1,12.88c.31,3.11,1,6.18,1.22,9.3a62.72,62.72,0,0,0,1.4,8.9c.13.61.32,1.21.48,1.82l-.25.13a33,33,0,0,1-3.46-3.07c-1.33-1.54-3.12-1.58-4.24.15a6.58,6.58,0,0,0-1.17,3.55,2.87,2.87,0,0,1-.15,1,1,1,0,0,1-.5.54c-.12,0-.36-.24-.53-.39a.48.48,0,0,1-.13-.23c-.48-1.87-2-3-3.19-4.3a15,15,0,0,1-2-3.47c-.53-1.1-.84-2.32-1.34-3.44a4.39,4.39,0,0,0-2.43-2.42.78.78,0,0,0-1.16.45c-.4.94-.79,1.88-1.21,2.82-.12.26-.27.63-.48.68s-.49-.23-.71-.4-.32-.43-.52-.48c-1.8-.46-2.22-2-2.48-3.45a19,19,0,0,0-2-6.61A13.45,13.45,0,0,1,29.34,72l-1.71.74-1.18-3-.27,0-.83,1.87a3,3,0,0,1-.26.56c-.48.65-.91.63-1.4,0-.36.05-.72.09-1.07.15a2.27,2.27,0,0,0-1.74,1.13A9.69,9.69,0,0,1,16.77,77a.59.59,0,0,1-.17.07l-4.39.81c-.07,0-.15-.07-.44-.22.45-.33.78-.63,1.16-.85a3,3,0,0,0,1.61-3.47,3.62,3.62,0,0,1,.17-1.59c.47-1.8,1.06-3.57,1.45-5.39a8.78,8.78,0,0,0-.08-2.78c-1,1.14-2.79,1-3.69,2.31a2.4,2.4,0,0,1-1.32.69,3.74,3.74,0,0,0-2,1.4,21.16,21.16,0,0,1-2,2l-.34-.17a5.76,5.76,0,0,1,.21-1.1,1.43,1.43,0,0,0-.31-1.8.5.5,0,0,1-.16-.21c-.61-2.32-2.54-2.16-4.31-2.3-.4,0-.79-.12-1.19-.18l0-.25a5.4,5.4,0,0,0,.69-.21c.57-.26,1.38-.39,1.63-.84A38.23,38.23,0,0,0,5.1,58.81c.25-.6.38-1.26.67-1.84s.24-1-.57-1.17S3.87,55.59,3,55.46Z"/></g></g></svg>