<?xml version="1.0" encoding="UTF-8"?>
<svg width="222px" height="227px" viewBox="0 0 222 227" version="1.1" xmlns="http://www.w3.org/2000/svg" xmlns:xlink="http://www.w3.org/1999/xlink">
    <!-- Generator: Sketch 41.2 (35397) - http://www.bohemiancoding.com/sketch -->
    <title>Ресурс 2</title>
    <desc>Created with Sketch.</desc>
    <defs></defs>
    <g id="Symbols" stroke="none" stroke-width="1" fill="none" fill-rule="evenodd">
        <g id="Ресурс-2" fill="#1A1A1A">
            <path d="M219.93,97 C217.918467,93.6054906 215.66953,90.357398 213.2,87.28 C208.295242,86.7274859 203.34792,86.6604945 198.43,87.08 C201.738899,85.0893935 205.354408,83.6600849 209.13,82.85 C208.536667,82.27 207.92,81.6966667 207.28,81.13 C205.566994,79.6258227 203.767237,78.2234145 201.89,76.93 C198.701039,77.655563 195.455893,78.107207 192.19,78.28 C188.444407,79.8113123 184.890359,81.7745968 181.6,84.13 C177.85,82.82 173.97,81.53 170.03,80.31 C171.12,79.6 173.23,78.31 175.95,76.7 C172.689478,75.8903901 169.499227,74.8202849 166.41,73.5 C164.525275,74.7990896 162.718805,76.2082026 161,77.72 C155.31,76.17 149.31,74.72 143.14,73.4 C145.14,72.47 148.55,71.02 152.98,69.48 C149.04,69.53 142.14,71.36 138.45,72.42 C126.53,70 114.16,68.16 102.15,67 L103.84,67 C110.52,67.13 120.16,67.61 129.84,67.82 C139.3,68.02 148.84,67.97 155.84,67.07 C162.798225,71.0797023 170.413044,73.8222563 178.33,75.17 C183.838554,75.9796737 189.433907,76.0066068 194.95,75.25 C197.058645,74.971773 199.146548,74.5541925 201.2,74 C199.032069,72.4168518 197.142899,70.4837473 195.61,68.28 C198.877393,70.0138513 202.328975,71.3757 205.9,72.34 C208.570275,71.2775573 210.907733,69.520148 212.67,67.25 L213.83,65.6 L212,64.85 C210.512768,64.2224315 209.060639,63.5147271 207.65,62.73 C201.98,59.73 193.26,54.21 188.72,49.96 C186.607682,48.0146919 184.129632,46.5088263 181.43,45.53 C179.88,46.17 178.43,46.73 176.98,47.23 C179.389191,48.0668402 181.729592,49.0899299 183.98,50.29 C180.510124,52.1833754 177.339186,54.5792703 174.57,57.4 C179.385185,60.5620309 184.710012,62.8692306 190.31,64.22 C186.132121,63.5884154 182.014421,62.6083292 178,61.29 C173.23,59.76 168.64,57.97 162.59,56.37 C164.30817,53.930743 166.239051,51.6484894 168.36,49.55 C166.005371,49.9911091 163.622992,50.2684407 161.23,50.38 C159.679331,51.766995 158.281387,53.3157959 157.06,55 C155.64,54.71 154.15,54.42 152.55,54.16 C141.19,52.27 131.25,50.55 120.36,50.96 C121.28,50.6 122.19,50.21 123.11,49.83 C135.27,48.6 147.59,47.91 155.7,48.28 C159.505989,48.4609922 163.320452,48.2397668 167.08,47.62 C172.524043,46.6672367 177.806219,44.950277 182.77,42.52 C184.77,41.52 186.54,40.67 188.01,39.98 C189.10838,39.4094322 190.27421,38.9793855 191.48,38.7 L191.74,38.7 L196.19,38.26 L192.45,35.8 C192.45,35.8 189.74,34.02 186.33,31.74 L182.15,28.92 C176.8,28.21 166.25,28.83 162.15,30.24 C165.01,27.01 171.83,26.86 177.15,25.47 L176.07,24.7 C173.31,22.7 170.76,20.81 166.67,19.77 C162.58,18.73 157.12,18.54 148.26,19.55 C143.61,20.08 137.7,20.83 131.15,21.92 C127.4,22.55 123.44,23.28 119.39,24.15 C117.96,22.67 116.69,21.27 115.78,20.21 L118.11,19.61 C120.343333,19.0566667 122.586667,18.5633333 124.84,18.13 C132.75,16.62 138.75,15.88 143.66,15.43 C138.509499,16.6083309 133.457785,18.1830213 128.55,20.14 C129.11,20.57 129.7,21.02 130.33,21.46 C145.48,17.46 156.58,15.6 166.61,15.95 C168.348294,14.3389412 169.828882,12.4704996 171,10.41 L172,8.47 L169.84,8.12 C166.25713,7.40862419 162.748552,6.36408578 159.36,5 C152.81,3.5 145.05,8 139.66,7.6 C143.825878,6.65084926 147.735967,4.80839917 151.12,2.2 C150.55,2 150,1.84 149.38,1.68 C147.138268,1.14256166 144.833642,0.913781258 142.53,1 C139.28,1 134.67,1.3 127.4,2 C122.983852,2.39999656 118.604544,3.13545298 114.3,4.2 C112.3,4.7 110.3,5.27 108.3,5.88 L102.38,10.88 L103.18,7.64 C93.6620527,11.1048184 84.5966214,15.7046854 76.18,21.34 C73.692002,22.9562526 71.349785,24.7865279 69.18,26.81 C66.8592894,28.984519 65.1109551,31.6980436 64.09,34.71 C63.82,35.49 63.58,36.29 63.36,37.13 C62.9430406,36.9036999 62.474306,36.7899629 62,36.8 C60.08,37.52 49,42.8 42.93,47.28 C41.81,46.5733333 40.6766667,45.8833333 39.53,45.21 C37.94,44.28 35.76,43.06 34.16,44.72 C32.828206,46.133155 31.579445,47.6223192 30.42,49.18 C27.98,52.38 25.71,55.7 23.5,59.06 C21.76,61.7266667 20.0566667,64.3933333 18.39,67.06 C17.6,68.33 16.39,70.68 17.73,71.75 C17.79,71.75 20.12,73.85 20.42,74.03 L21,74.38 C21,74.94 20.9,75.52 20.82,76.08 C20.7477916,76.650059 20.6375457,77.2146518 20.49,77.77 C20.4273655,78.0553843 20.3193243,78.3288635 20.17,78.58 C19.548722,79.4264946 18.9712959,80.3043157 18.44,81.21 C17.33,83 16,85.34 14.89,87.42 C14.34,88.42 13.89,89.42 13.51,90.26 C13.33,90.67 13.18,91.05 13.07,91.39 C12.9425024,91.7467737 12.8716445,92.1213081 12.86,92.5 C12.882328,93.029222 12.9560073,93.555024 13.08,94.07 C13.5868116,95.9524203 13.9215212,97.8770001 14.08,99.82 C14.1208172,100.25747 14.0376442,100.697594 13.84,101.09 C12.98,102.09 10.92,104.9 8.84,108.09 C6.76,111.28 4.77,114.61 4,117.18 C3.39,119.32 2.65,122.85 2.05,126.24 C1.77,127.93 1.5,129.58 1.31,131 C1.14019066,132.116224 1.0366759,133.241529 1,134.37 C0.987171248,134.706933 1.02423886,135.043912 1.11,135.37 C1.30476901,135.945761 1.57369753,136.493703 1.91,137 C2.49920651,137.932674 3.20116955,138.789136 4,139.55 C4.40643255,139.934102 4.85611376,140.269685 5.34,140.55 C5.86395002,140.873843 6.46427475,141.053251 7.08,141.07 L7.15,141.07 C7.89215321,141.013339 8.61426515,140.802156 9.27,140.45 C9.65,140.27 10.03,140.06 10.4,139.84 C11.46,141.4 12.5,143.42 12.54,144.53 C12.54,144.68 12.43,148.45 12.35,149.29 C12.27,150.13 11.61,150.67 11.61,151.34 C11.6045471,151.581026 11.6212843,151.822042 11.66,152.06 C11.705217,152.425656 11.8505622,152.771716 12.08,153.06 C12.3638126,153.377916 12.7025502,153.642132 13.08,153.84 C13.6599722,154.152466 14.2614994,154.423153 14.88,154.65 C13.51,156.83 13.21,159.65 15.32,161.5 C16.56,162.58 18.32,162.85 19.67,163.75 C21.02,164.65 20.28,166.21 19.95,167.61 C19.62,169.01 19.07,170.4 18.71,171.81 C18.35,173.22 19.03,175.13 19.46,176.5 C20.46,179.57 21.91,182.84 25.25,183.77 C28.74,184.77 32.63,184.57 36.25,184.47 C37.33,184.47 38.41,184.43 39.49,184.35 L41.03,184.27 L41.38,185.1 C42.09,186.87 42.71,188.69 43.3,190.5 C44.3,193.5 44.96,196.8 46.9,199.39 C48.9937574,202.084977 51.2233074,204.671656 53.58,207.14 C55.17,208.86 56.75,210.59 58.4,212.25 C59.03,211.64 61.25,210.7 61.88,210.08 C62.31,209.66 60.17,208.28 59.88,207.92 C57.14,205.04 53.27,202.52 50.73,199.46 C49.8399069,198.221363 49.1887626,196.827507 48.81,195.35 C48.25,193.74 48.32,192.19 47.9,190.58 C49.18,189.79 51.49,188.04 52.18,187.81 C59.83,185.34 62.4,181.57 70.04,179.1 C71.7001155,178.221139 73.1500564,176.992953 74.29,175.5 C75.54,173.63 76.61,170.62 77.76,168.68 C80.2483568,164.400201 81.7419045,159.61538 82.13,154.68 C82.13,154.68 82.43,153.96 82.79,152.94 C85.9900636,157.19195 90.3728027,160.405959 95.39,162.18 C95.56,163.35 95.75,164.46 95.95,165.49 C94.23,169.22 91.66,174.97 92.42,183.07 C92.7159961,186.103304 93.3705642,189.09082 94.37,191.97 C96.6001896,198.49678 99.5165096,204.768544 103.07,210.68 C104.430509,212.959152 105.933496,215.150173 107.57,217.24 C108.67405,218.718854 109.983986,220.032157 111.46,221.14 L112.72,221.98 L113.62,220.75 C114.834498,219.092067 115.952998,217.365904 116.97,215.58 C115.35,211.39 113.39,205.53 112.97,200.76 C112.53,200.54 112.1,200.33 111.69,200.14 C111.76,204.22 111.07,208.59 111.08,210.3 C109.97,204.71 109.02,197.3 107.41,190.79 C108.15,190.94 109.15,191.16 110.32,191.47 C111.57,195.9 112.9,200.06 114.21,203.63 C115.295242,206.790471 116.671129,209.843533 118.32,212.75 C123.84,221.66 129.22,225.91 129.32,226 L130.32,226.82 L131.32,225.94 C134.644323,222.866653 137.270147,219.115476 139.02,214.94 C139.986888,212.694369 140.694786,210.345892 141.13,207.94 C139.95,205.94 138.64,203.53 137.5,201.06 C134.820277,200.072608 131.985834,199.571416 129.13,199.58 C129.860755,203.508502 130.085916,207.514353 129.8,211.5 C128.5044,205.973628 126.929038,200.516603 125.08,195.15 C128.454061,194.895602 131.840863,194.855522 135.22,195.03 L135.22,194.87 C135.98,196.123333 136.736667,197.33 137.49,198.49 C141.24,204.23 145.08,208.86 149.79,212.27 C152.22766,213.923655 154.477638,215.838315 156.5,217.98 C157.638432,219.016785 158.645899,220.188805 159.5,221.47 L160.5,220.2 C163.872405,213.82908 165.682145,206.747785 165.78,199.54 C164.169157,198.401416 162.626506,197.169299 161.16,195.85 C158.595588,195.11155 155.977725,194.573267 153.33,194.24 C154.36013,197.420208 155.119502,200.681827 155.6,203.99 L155.02,202.76 C152.91,198.38 150.37,193.5 147.51,188.33 C149.02,188.26 151.42,188.21 154.3,188.33 C152.802293,186.340927 151.490133,184.218709 150.38,181.99 C148.280114,181.934451 146.178853,182.017967 144.09,182.24 C138.63,172.77 132.32,162.67 125.82,153.16 C126.046667,152.86 126.27,152.556667 126.49,152.25 C129.043855,155.61347 131.855683,158.773015 134.9,161.7 C141.08,167.64 146.14,174.87 151.2,181.41 C156.26,187.95 161.32,193.84 167.79,196.92 C179.91,202.66 187.91,205.51 187.95,205.52 L189.66,206.13 L190.03,204.35 C190.692203,201.133764 190.987424,197.852788 190.91,194.57 C187.98,190.57 178.32,186.25 178.32,186.25 C183.04,186.76 187.76,187.6 190.32,188.1 C189.733524,184.595632 188.809214,181.156261 187.56,177.83 C185.31,176.89 182.99,175.83 180.69,174.56 C175.79,175.28 171.76,176.17 169.48,176.72 C167.626667,174.313333 165.716667,171.88 163.75,169.42 C165.21,169.01 167.31,168.42 169.85,167.86 C167.301502,166.075645 164.879089,164.117667 162.6,162 C161,162.39 159.6,162.77 158.54,163.11 C149.899727,152.699739 140.741499,142.730487 131.1,133.24 C131.1,133.08 131.1,132.93 131.03,132.77 C136.9,138.77 142.48,144.23 146.23,148 C151.62,153.43 160.77,160.12 170.43,166 C180.09,171.88 190.22,177 197.66,179.21 L199.51,179.75 L199.68,177.84 C200.010514,174.180781 200.010514,170.499219 199.68,166.84 C199.62,166.2 199.55,165.57 199.47,164.94 C189.47,161.78 179.47,153.94 173.47,148.83 L173.36,148.83 C175.63,151.6 181.55,158.96 183.69,162.83 C177.23,157 169.13,149.64 159.69,141.4 C160.79,140.98 162.09,140.57 163.54,140.16 C161.89,138.9 159.88,137.44 157.34,135.61 C156.42,136.06 155.52,136.53 154.63,137.03 C146.98,130.47 138.52,123.45 129.39,116.24 C134.22,119.15 138.89,122 143.23,124.71 C153.83,131.33 162.5,137.13 166.62,140.71 C170.92,144.45 175.21,148.02 179.01,150.92 C181.961224,153.326027 185.166988,155.401726 188.57,157.11 C194.952172,159.600202 201.720995,160.953966 208.57,161.11 L210.22,161.17 L210.22,159.5 C210.22,158.446667 210.166667,157.386667 210.06,156.32 C209.300388,149.343565 207.165953,142.586786 203.78,136.44 C202.06,136.246667 200.393333,135.993333 198.78,135.68 C194.435175,135.78276 190.129092,136.524027 186,137.88 C183.44,135.826667 180.813333,133.8 178.12,131.8 C179.25,131.36 180.76,130.8 182.51,130.19 C180.051559,128.967202 177.708691,127.524665 175.51,125.88 C174.12,126.43 172.95,126.96 172.02,127.41 C158.955628,118.314464 145.223278,110.218127 130.94,103.19 C144.1,107.63 157.8,113.12 168.22,119.56 C177.49,125.27 182.83,128.63 187.32,130.72 C191.561778,132.707021 196.159253,133.822385 200.84,134 C211.44,134.79 215.84,134.83 215.84,134.83 L217.54,134.83 L217.44,133.14 C217.44,132.873333 217.42,132.606667 217.38,132.34 C217.092368,129.537125 216.474758,126.77802 215.54,124.12 C212.17,122.19 207.54,119.74 204.78,119.12 C207.74018,118.631896 210.768914,118.754406 213.68,119.48 C211.685869,115.205014 209.199003,111.177702 206.27,107.48 C205.03,105.91 203.69,104.37 202.27,102.89 C201.836667,102.943333 201.386667,102.983333 200.92,103.01 C204.600554,102.482392 208.251927,101.768138 211.86,100.87 C213.951988,100.260559 216.075006,99.7631855 218.22,99.38 L218.55,99.38 L221.32,99.38 L219.93,97 Z M172,62.48 C173.802842,65.7805833 175.848475,68.9426242 178.12,71.94 C174.082913,71.2326172 170.128932,70.1134394 166.32,68.6 C164.485953,65.5428126 163.035052,62.2715671 162,58.86 C165.77,60 168.92,61.28 172,62.48 Z M157.7,144.26 C159.88,146.006667 161.986667,147.71 164.02,149.37 L167.66,152.37 C167.483201,155.155047 167.566898,157.950519 167.91,160.72 C164.64,158.6 161.49,156.43 158.61,154.3 C157.993849,150.989088 157.689185,147.627739 157.7,144.26 L157.7,144.26 Z M175.85,133.08 C183.323365,138.102302 190.455662,143.614381 197.2,149.58 C197.71,150.07 198.2,150.52 198.56,150.93 C198.56,150.99 188.69,146.93 183.98,143.93 C183.924998,146.221926 183.991758,148.515156 184.18,150.8 C183.18,150.09 182.09,149.29 180.96,148.43 C178.96,146.94 176.91,145.25 174.73,143.43 C174.901756,139.961611 175.272365,136.505933 175.84,133.08 L175.85,133.08 Z M198,92.23 C192.637567,91.9070503 187.317437,91.0800697 182.11,89.76 C183.204406,93.328318 184.568331,96.8083326 186.19,100.17 C184.97,99.96 183.73,99.69 182.42,99.36 C179.42,98.61 176.17,97.53 172.04,96.17 C170.819058,91.7525234 169.929916,87.2499879 169.38,82.7 C179.78,85.86 189.91,89.33 198,92.23 Z M160.48,80.17 C160.782772,84.4743213 161.330325,88.7579173 162.12,93 C158.58,91.91 154.36,90.69 149.78,89.37 C142.84,83.22 139.59,81.18 139.19,78.89 C139.087653,81.5552736 139.519457,84.214096 140.46,86.71 C136.32,85.53 132.06,84.32 127.87,83.1 C121.19,81.16 114.68,79.22 109.12,77.43 C104.702219,76.0842337 100.362257,74.4951399 96.12,72.67 L93.57,71.18 C115.88,72.21 140.3,74.93 160.48,80.17 Z M97.72,103.44 C96.5133333,101.546667 95.2733333,99.6766667 94,97.83 C96.8940424,96.6138223 99.8595442,95.5752288 102.88,94.72 C104.237228,96.3325271 105.13532,98.2806955 105.48,100.36 C102.842387,101.25335 100.25232,102.281366 97.72,103.44 L97.72,103.44 Z M106.45,103.79 C107.010509,105.739818 107.119939,107.791625 106.77,109.79 C105.96,109.72 105.13,109.68 104.3,109.68 C103.391561,109.681098 102.483751,109.727824 101.58,109.82 C100.86,108.58 100.123333,107.346667 99.37,106.12 C101.656054,105.125381 104.029592,104.345361 106.46,103.79 L106.45,103.79 Z M84.32,63.87 C86.85,65.3 88.63,67.99 89.82,70.68 C86.4,72.6 80.89,75.68 78.07,77.85 C75.99,75.5633333 73.8633333,73.3066667 71.69,71.08 C74,69.69 80,66.08 84.32,63.87 Z M68.77,68.15 C66.8766667,66.29 64.9533333,64.47 63,62.69 C66.2,61 74.13,56.91 79.36,55.44 C81.44,56.37 82.12,58.3 82.56,60.44 C77.7618974,62.6318655 73.1500252,65.2103669 68.77,68.15 L68.77,68.15 Z M87.08,58.64 C89.7553333,56.7470015 92.608827,55.1193043 95.6,53.78 C97.46,53.41 99.49,53.04 101.6,52.68 C106.8,51.81 112.74,51 118.84,50.32 L117.84,51.13 C115.91,51.26 113.95,51.45 111.94,51.73 C103.403304,53.0144589 95.0550485,55.3349114 87.08,58.64 L87.08,58.64 Z M92.21,74.44 C94.0188777,76.4329896 95.4277747,78.7551233 96.36,81.28 C92.6948129,82.8811297 89.1373443,84.7183201 85.71,86.78 C84.0633333,84.74 82.3766667,82.74 80.65,80.78 C84.3598735,78.4091704 88.2252971,76.2910385 92.22,74.44 L92.21,74.44 Z M97.82,84.31 C99.3426897,86.5251232 100.485046,88.9788235 101.2,91.57 C99.07,92.1 95.33,93.08 91.55,94.38 C90.41,92.8133333 89.2433333,91.2633333 88.05,89.73 C91.1456905,87.6444235 94.4142992,85.8277863 97.82,84.3 L97.82,84.31 Z M152.5,56.65 C153.68,56.85 154.81,57.06 155.88,57.29 C156.126648,59.838132 156.820602,62.3228269 157.93,64.63 L157.44,64.35 L157.12,64.16 L157.02,64.1 L156.56,63.81 C151.63,58.75 149.29,58.01 145.96,57.39 C148.712456,59.2553358 151.146894,61.5513381 153.17,64.19 C145.437569,64.7675844 137.679461,64.9244825 129.93,64.66 L124.54,64.52 C120.65,62.7 117.97,60.38 114.47,58.84 C116.533803,60.3640699 118.317006,62.2352493 119.74,64.37 C113.74,64.16 108.25,63.93 103.9,63.85 C101.22725,63.7718793 98.5524774,63.9022745 95.9,64.24 C94.9483694,64.3690579 94.0038403,64.5459485 93.07,64.77 C92.3269747,63.9314764 91.7287913,62.9750587 91.3,61.94 C99.36,58.69 106.45,56.45 112.91,55.56 C126.7,53.65 138.26,54.28 152.5,56.65 Z M124.9,46.95 C118.62,44.9 112.16,40.95 105.05,41.13 C109.36,42.5 110.59,42.13 118.56,47.44 C112.38,47.98 106.39,48.69 101.13,49.56 C97,50.24 93.38,51 90.39,51.68 C88.1467181,52.1649924 85.9562799,52.8683441 83.85,53.78 L83.09,53.78 C82.2927012,51.7095859 82.211729,49.4318022 82.86,47.31 C97.63,42.19 110.34,38.1 121.29,36.31 C125.2,35.66 128.87,35.07 132.51,34.59 C133.105491,38.6329897 134.158929,42.5951241 135.65,46.4 C132.14,46.5 128.52,46.7 124.9,46.95 Z M145.9,22.26 C147.33,21.99 148.66,21.77 149.84,21.64 C153.301982,21.1880913 156.808018,21.1880913 160.27,21.64 C156.613609,24.1461886 153.506933,27.37196 151.14,31.12 C146.96,30.93 142.97,30.88 139.08,30.98 C140.713727,27.6391561 143.018309,24.6707727 145.85,22.26 L145.9,22.26 Z M158.62,33.84 C163.62,34.23 167.86,34.7 171.48,35.18 C172.24,35.38 173.003333,35.59 173.77,35.81 C173.77,35.81 162.31,36.11 152.77,36.94 C154.736839,40.1916072 156.999783,43.2546152 159.53,46.09 C158.461503,46.2525385 157.379941,46.3128114 156.3,46.27 C152.43,46.1 147.66,46.06 142.44,46.16 C140.565505,42.2824611 139.294182,38.1413891 138.67,33.88 C145.290289,33.3044428 151.947451,33.2910615 158.57,33.84 L158.62,33.84 Z M131.71,25.06 C133.71,24.73 135.71,24.34 137.65,23.93 C135.751918,26.1340525 134.157733,28.5825059 132.91,31.21 C128.25,31.52 123.66,32.06 118.99,32.83 C114.99,33.49 110.99,34.32 106.84,35.33 L112.66,30.6 C108.389151,32.4216432 104.26091,34.5609742 100.31,37 C92.72,39.07 84.51,41.69 75.15,44.91 C75.4272115,44.6135831 75.7210169,44.3331324 76.03,44.07 C90.75,33.67 113.65,28 131.66,25.07 L131.71,25.06 Z M75.1,40.88 C74.57,40.45 74.56,39.52 74.73,38.47 C77.8756336,36.2628332 81.1589788,34.2587567 84.56,32.47 C93.4106972,27.8269293 102.695056,24.062276 112.28,21.23 C113.02,22.23 114.23,23.55 115.62,25.02 C101.39,28.29 86.37,33.24 75.1,40.88 Z M127.68,5.11 C129.61,4.94 131.34,4.79 132.91,4.67 C129.712076,7.91921539 127.015839,11.6265406 124.91,15.67 C122.47,16.15 119.22,16.81 117.44,17.25 L115.06,17.85 C117.179619,13.6626996 119.585319,9.62646873 122.26,5.77 C124.08,5.5 125.88,5.27 127.68,5.11 Z M71.25,29.17 L71.38,29.04 C73.4045622,27.1477698 75.5894146,25.4346849 77.91,23.92 C84.6637101,19.400188 91.8528799,15.5677508 99.37,12.48 C98.64,13.68 97.69,18.4 97.37,19.61 C98.4924852,17.9292968 99.7679098,16.3559383 101.18,14.91 C104.168826,12.2644927 107.347321,9.84134951 110.69,7.66 C112.603333,7.06666667 114.54,6.52666667 116.5,6.04 L118.6,5.55 C116.49,9.31 112.37,15.71 111.6,18.82 C101.745513,21.4263328 92.1928485,25.0630488 83.1,29.67 C79.74,31.44 76.51,33.17 73.5,34.89 C72.3291662,34.7597276 71.2054858,34.3554768 70.22,33.71 C70.3393033,32.154415 70.6863369,30.624772 71.25,29.17 L71.25,29.17 Z M71.68,47.46 C73.6506968,48.5882347 75.3156951,50.1811402 76.53,52.1 C70.8795475,54.302449 65.4627581,57.0627672 60.36,60.34 C58.6266667,58.8333333 56.8666667,57.3633333 55.08,55.93 C57.77,53.92 66.13,50.08 71.68,47.47 L71.68,47.46 Z M64.14,40.8 C66.0296584,41.5421508 67.5691225,42.9708878 68.45,44.8 C64.81,46.52 56.59,50.55 52.29,53.8 C50.4033333,52.3666667 48.4766667,50.98 46.51,49.64 C52.2202466,46.3755033 58.1058114,43.4277133 64.14,40.81 L64.14,40.8 Z M28.27,58.47 C29.69,56.38 30.9,55 32.42,53 C33.1,52.09 34.02,50.5 34.74,49.63 C35.390974,48.9818615 36.360964,48.7745653 37.22,49.1 C44.6832853,53.3331351 51.7164934,58.283174 58.22,63.88 C71.6276942,75.4060805 83.4026322,88.7050319 93.22,103.41 C94.7733333,105.736667 96.2733333,108.103333 97.72,110.51 C94.7736971,111.250394 91.9740961,112.484518 89.44,114.16 C89.4518961,113.953505 89.4518961,113.746495 89.44,113.54 C89.44,107.54 80.49,107.61 80.49,113.61 C80.451851,114.766452 80.886868,115.888466 81.6946022,116.71696 C82.5023364,117.545453 83.6129525,118.008797 84.77,118 C83.0624672,119.793095 81.6089234,121.811906 80.45,124 C63.86,102.54 45.54,83.39 21.65,69.49 C24,65.74 25.81,62.11 28.27,58.47 Z M73.6,164.2 C72.6,165.92 71.06,169.01 70.03,170.73 C69.160371,171.813229 68.14,172.766249 67,173.56 L59.4,176 C52.56,178.2 49.58,178.21 42.75,180.42 C38.9052718,180.801007 35.0435331,180.984581 31.18,180.97 C29.41,180.89 26.69,181.5 25.1,180.61 C23.68,179.91 22.93,177.61 22.45,176.26 C22.200683,175.222887 22.0467088,174.165151 21.99,173.1 C21.9953603,172.154712 22.164531,171.217507 22.49,170.33 C23.0164515,168.575485 23.3155613,166.760662 23.38,164.93 C23.4532758,164.029894 23.1654441,163.137616 22.58,162.45 C22.7331074,162.461773 22.8868926,162.461773 23.04,162.45 C23.2124714,162.501123 23.3798497,162.568074 23.54,162.65 C24.43,163.09 26.49,165.58 29.49,166.44 L31.63,165.67 L30.63,163.05 C29.39,162.05 27.05,161.41 26.03,160.75 C25.5644021,160.437813 25.0764116,160.160394 24.57,159.92 C24.0877053,159.677831 23.5592529,159.541456 23.02,159.52 C22.8869175,159.508434 22.7530825,159.508434 22.62,159.52 L22.54,159.52 C21.6802275,159.467579 20.82496,159.35733 19.98,159.19 C18.8003769,159.056679 17.6531233,158.718256 16.59,158.19 C16.8571997,157.360917 17.2196192,156.565608 17.67,155.82 C20.27,155.53 25.11,154.73 27.25,154.37 C27.7551206,154.650822 28.2279432,154.986158 28.66,155.37 C29.2674061,156.059876 29.8254543,156.791687 30.33,157.56 L32.26,156.47 C31.434212,154.992097 30.5087376,153.572145 29.49,152.22 L31.29,148.36 L26.09,151.46 L23.56,151.7 C21.25,151.91 18.88,151.83 17.34,151.96 C16.4416811,151.642726 15.5604885,151.2789 14.7,150.87 C14.7,150.46 14.81,146.1 14.81,145.87 C14.8175257,144.500083 14.559432,143.141695 14.05,141.87 C13.5428402,140.747896 12.9086993,139.687639 12.16,138.71 C12.53,138.47 12.88,138.27 13.16,138.12 C13.624996,137.976509 14.1046963,137.885936 14.59,137.85 C15.5999349,137.799915 16.6036611,137.662739 17.59,137.44 C18.7874952,137.18194 19.9055083,136.64008 20.85,135.86 L25.73,137.86 L30.73,139.97 L35.3,146.6 L39.61,152 C39.61,152 37.34,147.33 36.92,146.08 C36.5,144.83 34.84,138.59 33.26,137.59 C31.68,136.59 26,134.3 25.43,134 C24.86,133.7 23,132.76 22,132.34 C21.8411276,131.530121 21.499067,130.767326 21,130.11 C20.38,129.31 19.38,129.18 18.57,128.78 C18.6541977,129.553976 18.8495404,130.311771 19.15,131.03 C19.51,131.49 19.42,133.6 19.41,133.86 C19.4,134.12 15.34,134.53 14.84,134.57 C13.8911482,134.620363 12.9461403,134.727219 12.01,134.89 C11.12,135.32 10.23,136.55 9.21,137.16 C8.52226997,137.532084 7.81452687,137.865925 7.09,138.16 L7.09,138.16 C6.24234172,137.516939 5.45871058,136.793587 4.75,136 C4.2175277,134.525379 4.02939708,132.948502 4.2,131.39 C4.82491978,126.881629 5.69959844,122.411421 6.82,118 C7.34,116.12 9.37,113 11.36,110 C13.35,107 15.36,103.88 16.06,103 C16.966919,101.837332 17.5561715,100.458964 17.77,99 C17.77,97.49 16.64,96.71 16.33,95.31 C16.18,94.62 16.03,93.98 15.92,93.47 C15.8493645,93.1632265 15.7959477,92.8527413 15.76,92.54 C15.8221715,92.2879031 15.9023781,92.0405995 16,91.8 C16.58,90.37 24.57,78.95 24.78,78.03 C24.8691073,77.6791382 24.9827195,77.33496 25.12,77 C32.7850111,81.9940076 40.0291168,87.6060156 46.78,93.78 C48.73,96.42 50.99,99.41 52.1,100.65 C54.24,103.05 61.36,112.83 62.1,114.46 C62.84,116.09 70.51,137.79 71.36,138.82 C72.05,139.64 75.43,142.61 78.73,145.48 C79.3435056,147.258267 80.1411712,148.96755 81.11,150.58 C78.48,155.43 74.24,163.11 73.6,164.2 Z M95.5,182.76 C95.1062024,178.63452 95.667358,174.473756 97.14,170.6 C97.58,172.15 98.03,173.6 98.44,174.92 C99.63,178.83 101.39,181.99 103.15,187.36 L103.15,187.36 C101.068662,188.291748 99.0883121,189.434386 97.24,190.77 C96.350397,188.176773 95.7664478,185.488594 95.5,182.76 L95.5,182.76 Z M102.27,202.76 C101.27,200.67 100.2,198.44 99.27,196.13 C100.801673,194.422727 102.511376,192.883994 104.37,191.54 C105.02,194.11 105.59,196.85 106.11,199.54 C104.713973,200.470658 103.426023,201.554012 102.27,202.77 L102.27,202.76 Z M106.27,186.76 L106.14,186.36 C104.34,180.9 102.91,177.36 101.78,173.64 C101.392355,172.310444 101.127906,170.948031 100.99,169.57 L101.41,170.12 C102.95,172.12 104.82,174.48 106.75,176.98 C107.45,180.33 108.24,183.73 109.1,187.05 C108.166276,186.901662 107.224662,186.808168 106.28,186.77 L106.27,186.76 Z M109,171.92 C109.15253,170.59526 109.531366,169.306541 110.12,168.11 C112.71,173.03 115.36,178.67 117.83,184.68 C118.72,186.85 119.59,189.06 120.42,191.31 C118.386225,192.463328 116.493507,193.849308 114.78,195.44 C112.400305,187.71832 110.470399,179.865138 109,171.92 L109,171.92 Z M118.57,206.1 C118.11,205 117.64,203.81 117.17,202.52 C116.99,202.03 116.81,201.52 116.62,201 C118.360184,199.27248 120.207153,197.655965 122.15,196.16 C122.663333,197.666667 123.16,199.183333 123.64,200.71 C121.684348,202.239992 119.971606,204.057252 118.56,206.1 L118.57,206.1 Z M123.48,190.47 C122.6,188.1 121.69,185.77 120.75,183.47 C117.75,176.19 115.01,169.11 112.34,163.16 C115.105815,163.732879 117.696562,164.95286 119.9,166.72 C121.46,169.92 123.35,173.56 125.68,177.8 C128.19,182.39 130.48,186.6 132.68,190.45 C129.61187,190.291212 126.537412,190.297888 123.47,190.47 L123.48,190.47 Z M144.42,189.76 C145.526667,191.66 146.583333,193.52 147.59,195.34 C146.537846,198.110051 145.865084,201.009654 145.59,203.96 C143.658153,201.702318 141.880786,199.316904 140.27,196.82 C141.310831,194.281424 142.70822,191.90418 144.42,189.76 L144.42,189.76 Z M140.62,183.43 C138.658182,185.080154 136.970545,187.031063 135.62,189.21 C133.39,185.33 131.06,181.03 128.48,176.31 C125.28032,170.640541 122.382935,164.805714 119.8,158.83 C120.82287,158.114495 121.795177,157.329299 122.71,156.48 C129,165.35 135.22,174.64 140.62,183.43 L140.62,183.43 Z M120.83,153.2 C112.948179,161.086512 100.592793,162.306646 91.3206235,156.114148 C82.0484537,149.921649 78.4422523,138.041431 82.7076379,127.739652 C86.9730236,117.437872 97.9218777,111.584081 108.857681,113.758564 C119.793484,115.933047 127.670081,125.530104 127.67,136.68 C127.677216,142.874147 125.215629,148.815784 120.83,153.19 L120.83,153.2 Z M160.46,170.81 C166.46,177.476667 171.936667,183.933333 176.89,190.18 C173.06,187.18 168.72,184.08 165.89,181.63 C165.053984,184.589843 164.386249,187.594653 163.89,190.63 C160.494937,187.678809 157.421207,184.377147 154.72,180.78 C155.764405,177.02389 157.738522,173.591541 160.46,170.8 L160.46,170.81 Z M155.46,165.36 C153.525896,168.497102 151.853571,171.788237 150.46,175.2 C149.13,173.44 147.77,171.66 146.37,169.87 C145.87,166.17 145.18,160.56 145.45,158.99 C145.45,158.99 144.18,163.79 143.77,166.65 C141.67488,164.102756 139.441521,161.672433 137.08,159.37 C133.854714,156.271444 130.900597,152.902479 128.25,149.3 C129.639169,146.680231 130.58528,143.848654 131.05,140.92 C139.896667,149.286667 148.026667,157.433333 155.44,165.36 L155.46,165.36 Z M152.37,140 C151.850523,142.857245 151.592788,145.755924 151.6,148.66 C150.44,147.66 149.39,146.66 148.47,145.74 C143.87,141.1 136.54,133.92 129.33,126.46 C128.152276,123.572266 126.484405,120.909762 124.4,118.59 C134.57,126.16 143.95,133.36 152.37,140 Z M169.37,128.83 L169.37,128.83 C168.279746,131.460423 167.530335,134.219465 167.14,137.04 C162.39,133.24 154.44,127.99 144.9,122.04 C134.24,115.39 121.63,107.89 109.46,100.77 L109.46,100.77 L107.26,99.54 C107.2,99.1 107.12,98.63 107.01,98.14 C128.51,106.35 150.24,116.7 169.4,128.86 L169.37,128.83 Z M162.75,112.83 C144.75,103.48 121.44,96.57 105.6,92.19 C105.49,91.63 105.33,90.83 105.12,89.82 C123.2,92.82 144.57,97.5 165.36,105.52 C164.068534,107.800101 163.194807,110.292592 162.78,112.88 L162.75,112.83 Z M104.09,84.82 L103.87,83.82 C107.75,83.56 112.65,83.48 118.15,83.58 C133.82,88.28 152.53,93.32 163.15,96.67 C167.15,97.93 170.51,99.05 173.45,100.01 C171.45,101.09 169.72,102.09 168.45,102.84 C146.2,93.52 123.18,88.06 104.09,84.82 Z M181.71,115.39 C181.804982,118.454409 182.058656,121.51184 182.47,124.55 C179.47,122.79 175.78,120.55 171.02,117.55 C170.07,112.03 170.16,109.1 170.47,107.55 C179.935361,111.425386 189.049088,116.109387 197.71,121.55 C193.35,120.13 185.39,116.9 181.71,115.4 L181.71,115.39 Z M201.55,105.21 C195.572784,106.351927 189.687085,107.929468 183.94,109.93 C180.453333,108.136667 176.926667,106.45 173.36,104.87 C174.88,104.13 177.13,103.06 179.76,101.87 L181.65,102.38 C186.431901,103.675817 191.410517,104.085901 196.34,103.59 L196.4,103.59 C197.066667,103.53 197.783333,103.453333 198.55,103.36 L199.64,103.22 C200.29,103.9 200.93,104.55 201.55,105.21 L201.55,105.21 Z M31,63.5 C31,68.8 40.29,69.5 40.29,63.5 C40.29,57.5 31,57.5 31,63.5 Z M104.26,118.5 C94.2470775,118.5 86.13,126.617077 86.13,136.63 C86.13,146.642923 94.2470775,154.76 104.26,154.76 C114.272923,154.76 122.39,146.642923 122.39,136.63 C122.368024,126.652187 114.287799,118.567493 104.31,118.54 L104.26,118.5 Z M115.35,147.73 C110.032871,152.992249 101.738884,153.765485 95.5406583,149.576795 C89.3424328,145.388105 86.9664183,137.404204 89.8657905,130.508063 C92.7651627,123.611922 100.132333,119.724387 107.461523,121.223082 C114.790714,122.721778 120.040457,129.189259 120,136.67 C120.004228,140.831649 118.348601,144.823149 115.4,147.76 L115.35,147.73 Z M12.35,124.82 C12.48,124.18 13.52,118.45 13.52,118.45 C13.52,118.45 15.36,113.23 14.52,112.78 C12.23,115.49 10.27,120.9 9.83,122.65 C9.34643281,124.090419 9.10318327,125.600593 9.11,127.12 L9.27,128.6 C10.4937049,128.510139 11.7005087,128.261383 12.86,127.86 C14.2158323,127.443864 15.633254,127.264572 17.05,127.33 C18.8212252,127.341858 20.5914267,127.241658 22.35,127.03 C23.3286744,126.630407 24.2636043,126.131108 25.14,125.54 C25.14,125.54 15.49,124.39 12.41,124.85 L12.35,124.82 Z M60.67,90 C63.33,90.66 66.53,89.38 66.53,85.83 C66.53,82.45 63.58,80.98 61.01,81.41 C58.797597,81.6833637 57.1609646,83.6021741 57.24,85.83 C57.1949166,87.8769172 58.6528334,89.6493699 60.67,90 L60.67,90 Z M53.41,123.22 C54.61,121.33 56.84,116.53 56.84,116.53 L56.5,114.47 C56.5,114.47 51.87,120.47 50.5,122.02 C49.13,123.57 49.64,125.28 49.98,126.82 C50.32,128.36 51.52,134.88 52.55,136.43 C53.58,137.98 57.7,147.92 57.35,150.32 C57,152.72 51.35,159.41 50.83,159.93 C50.31,160.45 53.92,159.93 55.46,158.93 C57,157.93 61.12,151.38 61.29,150.18 C61.46,148.98 57,133.18 55.8,131.48 C54.6,129.78 52.21,125.1 53.41,123.21 L53.41,123.22 Z M69.71,101.96 C69.71,102.15 69.57,103.19 69.71,103.33 C69.85,103.47 71.44,103.11 71.71,103.11 L75.15,103.11 C76.72,103.11 77.62,103.33 79.15,103.33 L79.15,98.59 C79.15,97.47 79.08,95.34 79.08,94.22 C77.5436121,93.9642904 75.9873545,93.8471527 74.43,93.87 L71.08,93.87 C70.89,93.87 69.85,93.73 69.71,93.87 C69.57,94.01 69.71,95.23 69.71,95.45 L69.71,101.96 Z M53.54,70.1 C53.54,69.91 53.68,68.87 53.54,68.73 C53.4,68.59 52.18,68.73 51.96,68.73 L48.81,68.73 C47.6950683,68.8180321 46.5749317,68.8180321 45.46,68.73 C45.27,68.73 44.23,68.59 44.09,68.73 C43.95,68.87 44.09,70.09 44.09,70.31 L44.09,76.8 C44.09,76.99 43.95,78.03 44.09,78.17 C44.23,78.31 45.45,78.17 45.67,78.17 L48.81,78.17 C50.38,78.17 51.74,77.8 53.31,77.8 L53.64,77.53 C53.64,75.96 53.53,75.02 53.53,73.44 L53.54,70.1 Z M42.14,98.1 C42.14,98.1 37.21,94.95 33.14,96.48 C29.07,98.01 21.02,95.75 18.44,98.66 C19.6719375,99.1305144 20.8626925,99.7024782 22,100.37 C22.8861887,103.876569 24.8394733,107.021392 27.59,109.37 L27.43,107.59 C27.43,107.59 31.87,104.68 43.43,105.81 C43.1,104.2 37.21,101.62 42.13,98.06 L42.14,98.1 Z M26.63,102.7 C26.0777153,102.7 25.63,102.252285 25.63,101.7 C25.63,101.147715 26.0777153,100.7 26.63,100.7 C27.1822847,100.7 27.63,101.147715 27.63,101.7 C27.6136892,102.24444 27.1646546,102.675691 26.62,102.67 L26.63,102.7 Z M28.63,104.15 C28.8868817,102.697271 28.5242729,101.203323 27.63,100.03 C30.5358267,99.4986505 33.5032818,99.3908656 36.44,99.71 C34.247382,101.806031 31.5664008,103.321816 28.64,104.12 L28.63,104.15 Z" id="Shape"></path>
        </g>
    </g>
</svg>