<svg xmlns="http://www.w3.org/2000/svg" width="122" height="107" viewBox="0 0 121.93 107.34"><defs><style>.cls-1{fill:#c18c69;}.cls-2{fill:#c6c6c7;}.cls-3{fill:#010101;}.cls-4{fill:#f6f6f7;}.cls-5{fill:#fff;}</style></defs><title>Ресурс 2</title><g id="Слой_2" data-name="Слой 2"><g id="Слой_1-2" data-name="Слой 1"><path class="cls-1" d="M80.27,93.45l0,0Z"/><path class="cls-2" d="M106.63,12.74c.22.37.42.75.61,1.13s.36.77.52,1.16a11.35,11.35,0,0,1,.41,1.18,9.29,9.29,0,0,1,.39,2.38,6.23,6.23,0,0,1-.36,2.27,5.22,5.22,0,0,1-.23.53c-.09.18-.17.33-.29.52q-.35.59-.68,1.2a15,15,0,0,0-1.09,2.55,10.76,10.76,0,0,0-.49,2.75,11.59,11.59,0,0,0,.22,2.75,16.29,16.29,0,0,0,.78,2.6c.33.84.69,1.68,1.09,2.49.2.41.41.81.64,1.21s.46.77.69,1.14c.45.74.89,1.48,1.3,2.22a13.2,13.2,0,0,1,1,2.3,9.25,9.25,0,0,1,.41,2.46,24.8,24.8,0,0,1-.13,2.63l.15,0a10.27,10.27,0,0,0,.82-2.6,7.7,7.7,0,0,0,0-2.82,10.62,10.62,0,0,0-.93-2.65,13.49,13.49,0,0,0-1.46-2.33c-.28-.36-.58-.7-.85-1s-.55-.68-.82-1a11.94,11.94,0,0,1-1.36-2.23,8.51,8.51,0,0,1-.72-2.49,7.67,7.67,0,0,1,.11-2.56,11.55,11.55,0,0,1,.82-2.4,19.91,19.91,0,0,1,1.2-2.25c.23-.36.46-.72.71-1.08.12-.18.27-.4.39-.62a6.86,6.86,0,0,0,.33-.68,6.67,6.67,0,0,0,.51-2.94,8.92,8.92,0,0,0-.63-2.82,12.82,12.82,0,0,0-.59-1.28c-.22-.41-.47-.81-.72-1.19a12.91,12.91,0,0,0-.83-1.1,12.51,12.51,0,0,0-.93-1,8.68,8.68,0,0,0-2.19-1.63l-.09.13a13,13,0,0,1,1.66,2C106.18,12,106.41,12.37,106.63,12.74Z"/><path class="cls-3" d="M113.9,48c-.54.54-1.76,1.54-1.58,2.26,1.24.95,4,3.62,4.7,4.34.18-.72,1.09-1.09,1.81-1.27C117.57,52.24,115.17,48.9,113.9,48Z"/><path class="cls-4" d="M24.53,10.55c-.47-.47-.91-.94-1.33-1.39l-2.38,1.17-.15-.58,1.94-1.23L22.19,8,20.27,9,20,8.1l1.67-.72-.37-.68L20,7.42l-.36-.89L20.95,6l-.49-.89-1.09.61L19,4.81l1-.45L19,2.49c0,.35-.13.82-.17,1.15a4.65,4.65,0,0,0,0,1.05,14.17,14.17,0,0,0,.41,2.07c.09.34.18.68.28,1s.2.67.32,1a11.33,11.33,0,0,0,1,1.86c.31.5.64,1,1,1.5Z"/><path class="cls-3" d="M114.58,53.05,113.41,52c-1.45.66-10.05,9-15.35,14.13a1.44,1.44,0,0,0-.11-.61c-1.45.44-2,.89-3.91.57l-.68.08a23.93,23.93,0,0,0-3.68,1.44c-1.42-.87-3.78,1.28-3.6,1.28l-2.62-.63-.45.63a6.44,6.44,0,0,1-2.89-2.53c-.9-1.27-.9-2.89-1.63-4.16s-2.53-1.27-3.8-1.63a68.49,68.49,0,0,1-7.82-2.4c-.47-.34-.92-.69-1.34-1.06l-3.11-7c-.18-.23-2.28-3-4.92-6.51a2.67,2.67,0,0,1,1.81-.76,8.44,8.44,0,0,1,.9-1.81c1,.51,2.17.92,2.62.48a9.1,9.1,0,0,0-.45-5.19c.54-.36,1.13-1.13,1.67-.95.69-1.89.42-4.77.39-6.92a4,4,0,0,0,1.2-.61c-.9-2.35-1.27-4.55-3.44-6-2.35-1.63-4.34-3.8-7.24-4A18.38,18.38,0,0,0,46.69,20,31.13,31.13,0,0,0,41.28,9.49C40.85,9,39.79,7.55,38.47,6l-1.87.91,1.25-1.64-.43-.5-1.84.86L37,4.19l-.45-.49-1.92.59L35.88,3a11.83,11.83,0,0,0-4-3c-.75,1.78.38,5.08.61,6a25.64,25.64,0,0,0,1.36,3.76l1.59-.22-1.25,1,.2.41,2.68-1-2.42,1.54.22.42,3-.86-2.55,1.61a17.79,17.79,0,0,0,3.39,3.85c0,.58,0,1.14-.06,1.66a9.8,9.8,0,0,1-1.43-.6,12.41,12.41,0,0,0-2.41-3.17,9.83,9.83,0,0,1,1.88,2.88,16.49,16.49,0,0,1-4.18-3.82c-1.28-1.6-3.4-2.21-5.24-3.2-.25-.13-.49-.27-.73-.42-3.08-1.81-5.77-7-7.83-7.78l.3.54c0,.35-.15.81-.21,1.15a4.71,4.71,0,0,0-.05,1.06,14.27,14.27,0,0,0,.33,2.1c.08.35.16.69.24,1a10.68,10.68,0,0,0,.29,1,11.62,11.62,0,0,0,.9,1.95c.35.62.73,1.22,1.05,1.83l0,.1a5.55,5.55,0,0,1,.36.84,9.93,9.93,0,0,0,.37,1,8,8,0,0,0,1.13,1.88A8.89,8.89,0,0,0,25.09,18h0l.24.16h0a6.6,6.6,0,0,1,1,.95l-.13.08.32.14.16.2c.49.6,1,1.26,1.51,1.88a6.78,6.78,0,0,0,.94.88,4,4,0,0,0,1.2.6,9,9,0,0,0,2.5.41h0c.82.08,1.62.09,2.4.11a26.67,26.67,0,0,1-11.49-.88c.09,1.13,7.39,2.4,13,1.67-1.52.41-8.48,4-9,5.47.82-1,5.92-3.27,8.67-4.4a30.11,30.11,0,0,0-4.53,6.29,15.11,15.11,0,0,0-1.32,4.94l-.92.53-1.38.81a3.72,3.72,0,0,0-.57.35,23.82,23.82,0,0,1-.57,5.22,13.17,13.17,0,0,1-.84,2.53A7.78,7.78,0,0,1,25.67,47l-.17.24.39-.09.79-.14c.33-.05.67-.09,1-.12-.18.34-.34.66-.37.71a17,17,0,0,0-1.78,4.8,45.47,45.47,0,0,1-1.9,5.51q-.55,1.38-1.15,2.75-.3.68-.6,1.36l-.27.58c-.13.28-.08.16.11.25.41.21.56.93.66,1.33a6.83,6.83,0,0,1,.21,1.49,56.88,56.88,0,0,1-2,10.24c-.42,1.65-.83,3.31-1.15,5a10.39,10.39,0,0,0-.3,2.38,7.59,7.59,0,0,0,.53,2.16,79.36,79.36,0,0,0,4.14,9.73c.34.67.71,1.32,1,2-15,1.68-25,4-24.9,6.12.14,3.26,23.59,4.91,52.39,3.69s52-4.86,51.88-8.12c-.09-2.09-9.8-3.52-24.36-4a14.64,14.64,0,0,1,3.94-1.59,2.74,2.74,0,0,0,.58-.32l1.35-.77.31-.07.22-.24.9-.52a3.15,3.15,0,0,1,.57-.35l-.93.21c1-1.42,1.51-2.91,3.45-3.51l-2.92-5.36-.47-3.62-.18-1.42a12.39,12.39,0,0,0,2.82,1.63c.8.28,1.19.41,1.45-.54.38,0,2.16-.29,3.86-.52,0,0,.27-1.54.7-1.72a1.3,1.3,0,0,0,.78-2l1.42-.72-.27-1.38-.94-.94L96,70.59c4.23-3.79,10.3-11.27,14.36-14.36C110,56.4,114.4,53.15,114.58,53.05ZM20.82,10.64a11.33,11.33,0,0,1-1-1.86c-.13-.32-.23-.66-.32-1s-.19-.68-.28-1a14.17,14.17,0,0,1-.41-2.07,4.65,4.65,0,0,1,0-1.05c0-.34.13-.8.17-1.15l1,1.87-1,.45.36.89,1.09-.61.49.89-1.26.54.36.89,1.29-.72.37.68L20,8.1l.23.9,1.92-1,.42.47L20.67,9.75l.15.58L23.2,9.16c.42.45.87.92,1.33,1.39l-2.75,1.59C21.47,11.63,21.13,11.14,20.82,10.64Z"/><path class="cls-4" d="M22.43,13.42a5.07,5.07,0,0,0-.2-.47l2.89-1.8.6.59-3.17,2Z"/><path class="cls-4" d="M23.33,15.26a7.88,7.88,0,0,1-.49-.88l-.06-.14,3.55-1.92.43.41Z"/><path class="cls-4" d="M26,17.73a5.49,5.49,0,0,0-.51-.33,8.2,8.2,0,0,1-1.54-1.32l-.28-.34,3.71-2.41c.78.73,1.54,1.41,2.23,2Z"/><path class="cls-4" d="M26.65,18.28l3.61-2.38.45.38-3.66,2.41Z"/><path class="cls-4" d="M28.23,20l-.62-.73,3.77-2.49.25.19.32.25Z"/><path class="cls-4" d="M29.17,21.06l-.26-.26-.32-.35,4.17-2.59.4.29Z"/><path class="cls-4" d="M30.34,21.83a2.38,2.38,0,0,1-.6-.3l-.22-.17,4.38-2.67.3.21.05.09Z"/><path class="cls-4" d="M32.94,22.21h0A8.25,8.25,0,0,1,31.11,22l3.58-2.36c.18.29.37.57.57.85l-2.4,1.58.13.11Z"/><path class="cls-4" d="M35.43,22.22l-1.57,0,1.82-1.13.31.38Z"/><path class="cls-4" d="M61.84,24c1.36.41,2,2.75,2.16,3.88a5.3,5.3,0,0,0-2.71-.26,12.71,12.71,0,0,0-6.12,4c-.6-.4-1.39-.86-2.27-1.35a6.31,6.31,0,0,0-5,.92,4.3,4.3,0,0,0-1.14,1.46l-.48-.39a3.46,3.46,0,0,1,1-1.81,4.53,4.53,0,0,1,3.74-1.17L50.38,29C53.88,25.66,60.15,23.51,61.84,24Z"/><path class="cls-3" d="M55,40.35,52.51,37a22.9,22.9,0,0,0,1.91-1.27l.41-.63.36.73-2,1.58Z"/><path class="cls-4" d="M60.39,21.82c-1.45-.18-3.62.75-4.89,1.3-3,1.28-5.44,2.47-7.24,4.77l-2.2-1.09c1.93-3.35,8.67-6.13,11.5-6.29Z"/><path class="cls-4" d="M55.6,19.43C46.87,22,45.2,25.05,44.89,26.2l-.41-.2C43,22.3,51.24,18.92,55.6,19.43Z"/><path class="cls-3" d="M44.89,21.05a10.08,10.08,0,0,0-1.45,1.25l-.79-.12c-.1-.37-.23-.74-.36-1.12.39-.27.84-.59,1.28-.92Z"/><path class="cls-3" d="M42.82,19.61l-.9.42a7.47,7.47,0,0,1-.33-1.32Z"/><path class="cls-3" d="M40.75,18.08l-.16.42a10.6,10.6,0,0,1-1.19-.22c0-.42,0-.87,0-1.32Q40,17.5,40.75,18.08Z"/><path class="cls-4" d="M38.92,26c3.83,3.35,20.57,18.32,23.68,26.32l-.25-.12c-3.81-3.3-8.51-6.77-12.09-10a12.77,12.77,0,0,0-1.74-1.42,33.89,33.89,0,0,0-2.45-2.83,47,47,0,0,0-8.63-2.13c-1.85-.55-3.62-1-4.85-1.29C35.45,29.1,37.7,27.58,38.92,26Z"/><path class="cls-4" d="M88.17,87.21s-3.27,3.65-4.66,5.09c-1.07.4-2.14.81-3.24,1.15l0,0,0,0a3.61,3.61,0,0,0-.58.32l-1.39.8-1.38.81-.22.15-.35.2,0,0-1,.57-2.8,1.6a58.52,58.52,0,0,1-8.76,3.57c-1.66.54-3.33,1-5,1.46-.22.06-1.8.46-1.8.43s-.48,0-.52,0a32.33,32.33,0,0,1-5.38.62,14.9,14.9,0,0,0-1.56.11,16.42,16.42,0,0,1-2.34-.09c-1.31-.13-2.59-.39-3.88-.64-2.67-.52-5.35-1-8-1.62l-1.63-.4c-.75-.2-1.45-.55-2.2-.75a1.55,1.55,0,0,1-1.24-1.16c-.19-.65-.15-1.35-.31-2a21.59,21.59,0,0,0-2.09-4.52c-.82-1.58-1.54-3.2-2.23-4.84s-1.34-3.24-1.92-4.89a9,9,0,0,1-.52-2,8.89,8.89,0,0,1,.29-2.57c.94-5.08,2.74-10,3.1-15.15h0v-.08h0a4.16,4.16,0,0,0-.81-2.75.47.47,0,0,0-.19-.1c-.12,0,.14-.46.2-.59.21-.45.41-.9.61-1.36.4-.91.78-1.83,1.15-2.75a44.64,44.64,0,0,0,1.93-5.52,26.66,26.66,0,0,1,1.07-3.48,41.09,41.09,0,0,1,9,1.84,2.89,2.89,0,0,0,.58-.32l1.39-.8,1.38-.81a4.84,4.84,0,0,1,.57-.35C39.3,45.23,35,44.14,30.8,44.7l-.79.13c-.16,0-.69.27-.5,0a7.1,7.1,0,0,0,.61-1A12.24,12.24,0,0,0,31,41.3a20.56,20.56,0,0,0,.53-3.44,35.57,35.57,0,0,1,10.69,2h0A79.65,79.65,0,0,1,58.44,50.31L68.6,64.7a28,28,0,0,1,4.25-1.16c1.69.87,2.2,1.6,2,3.18a54.94,54.94,0,0,0-.72,9.41,9.15,9.15,0,0,0-6,2l6.45-1.21a42.87,42.87,0,0,0,6.39,3,10.11,10.11,0,0,1,4.23,2.75Z"/><path class="cls-5" d="M94.69,69.4l-.78-.72c.7-.72,1.84-.76,2.62-1.06Z"/><path class="cls-3" d="M117.3,51.12l-.05,0S117.3,51.14,117.3,51.12Z"/><path class="cls-3" d="M116.46,49.62c-.33.16.87,1.28.84,1.5l.94-.73c1.09-.9,2.42-2.33,3.69-3.23l-1.33-.75A29.44,29.44,0,0,1,116.46,49.62Z"/><path class="cls-3" d="M44.05,65c8,2.17,14.82,8.41,17.42,8.54l.54-1C55.51,70,49.18,62.56,42.12,62c-2.35,0-4.7-.18-6.88.54.18.54-1.36,2.17-.81,2.35a16.59,16.59,0,0,1,8.08-.27A28.9,28.9,0,0,1,32,72.42V73S39.49,69.94,44.05,65Z"/><path class="cls-3" d="M114.58,53.06s0,0,0,0Z"/><path class="cls-3" d="M61,76.13c-2.89,1.09-7,2-14.52,8.14l.3.72c5.64-4.49,14.53-7.06,19.42-7.42L69.26,75A25.41,25.41,0,0,0,61,76.13Z"/><path class="cls-3" d="M56,76.44l2.94-1.95c-4.89-1.09-11.22-1.45-16.1,0-1.27.36-7.6,2.71-7.6,4.16a2.64,2.64,0,0,0,1.09,0S40.57,72.7,56,76.44Z"/></g></g></svg>