<svg xmlns="http://www.w3.org/2000/svg" width="116" height="145" viewBox="0 0 116.4 145.74"><defs><style>.cls-1{fill:#1a1a1a;}</style></defs><title>Ресурс 3</title><g id="Слой_2" data-name="Слой 2"><g id="Слой_1-2" data-name="Слой 1"><path class="cls-1" d="M49.4,39a1.86,1.86,0,0,0,2-1.64,2.06,2.06,0,0,0-4,0A1.85,1.85,0,0,0,49.4,39ZM54,35a1,1,0,1,0-1.14-.93A1.05,1.05,0,0,0,54,35Zm5.85,5.19a2.06,2.06,0,0,0,2.24-1.82,2.28,2.28,0,0,0-4.47,0A2.06,2.06,0,0,0,59.86,40.18Zm4.94-5.87a1,1,0,1,0-1.22-1A1.13,1.13,0,0,0,64.8,34.32ZM69,37.67a1.41,1.41,0,1,0-1.69-1.38A1.56,1.56,0,0,0,69,37.67Zm2.89,27.19c.22.18.3.12.53.3s.19.21.42.39.2.2.42.39.2.23.52.24.27,0,.47-.2a2.22,2.22,0,0,1,.4-.32c.21-.13.23-.16.22-.4s-.19-.11-.41-.29L74,64.61l-.45-.36c-.22-.18-.09-.29-.31-.48s-.17-.37-.48-.39-.11.3-.31.46-.4,0-.6.17-.37.18-.36.41S71.67,64.69,71.89,64.87ZM48.37,90a1.31,1.31,0,1,0-1.55-1.29A1.44,1.44,0,0,0,48.37,90Zm11.36,0a1.5,1.5,0,1,0-1.8-1.46A1.66,1.66,0,0,0,59.73,90.08ZM71,102.31c.38-.12-.35-.4-.13-.68.43-.53.59-.36,1.23-.73s.6-.41,1.24-.78.56-.46,1.2-.83.56-.73,1.29-.5.12.51.31,1.14.32.61.5,1.24-.38,1,.28,1.38.92-.23,1.75-.3.86.18,1.68.11.79-.38,1.62-.44,1-.4,1.54.08.24.62.21,1.35,0,.73,0,1.45.55,1,0,1.58-1.14,0-2.08.1-1.12-.14-1.93.26-.26.69-.71,1.24-.65.43-1.1,1-.16.7-.61,1.24-1,.29-.85.93.35.65,1.18.56c.68-.07.53-.21.91-.67s.19-.57.57-1,.34-.49.72-.95.19-.72.8-1,.92.12,1.77.06.83-.24,1.68-.3,1-.42,1.53.11-.09.46-.45,1-1,.44-.93,1.05.57.47,1.06.94.61.38,1.1.84.44.5.93,1,.2.95,1,.93c1,0,1.32-.17,1.5-1s-.46-.5-1.07-1-.63-.5-1.24-1-1.13-.34-1.23-1.05.68-.4,1.14-.91a2.24,2.24,0,0,0,.72-1.13c.19-.59,0-.62-.06-1.23s-.39-.58-.48-1.19.22-.64.13-1.25-.89-.82-.32-1.22,1-.19,1.58.26.1.68.28,1.32.52.6.6,1.25-.31.73.3,1.15,1.06.69,1.51.22-.31-.74-.43-1.36-.13-.61-.24-1.23-.14-.61-.25-1.23.13-.64-.37-1.12-.67-.24-1.46-.48-.74-.34-1.53-.58-1,.06-1.71-.34a.67.67,0,0,1-.33-.82,3.18,3.18,0,0,0,1.41-.79,1.8,1.8,0,0,0,.23-1.27c0-.41.15-.81-.09-1.14a2.69,2.69,0,0,0-.93-1,1.73,1.73,0,0,0-.68-.13l.2-.14.23-.21.25-.2a1.35,1.35,0,0,0,.22-.26l.18-.28L86.4,94c.06-.1.08-.21.12-.3s.13-.28.1-.31a.64.64,0,0,0-.36,0c-.1,0-.19.1-.31.15s-.23.06-.33.12l-.3.16a1.67,1.67,0,0,0-.24.22.75.75,0,0,0-.21.23c0,.09,0,.21-.07.31s-.06.21-.09.31-.08.21-.1.31a.37.37,0,0,1-.07.14h-.19a3.16,3.16,0,0,0-1.36.3,2.67,2.67,0,0,0-1,.79,2.08,2.08,0,0,0-.47,1.13,2.18,2.18,0,0,0,.58,1.48,3.38,3.38,0,0,0,1.71.67c.21.31.12.35-.23.56-.64.38-.68.13-1.45.26l-1.56.27c-.78.13-.77.65-1.48.36s-.42-.48-.72-1-.32-.56-.62-1.13-.7-.57-.46-1.15.72-.35,1.43-.76.63-.5,1.34-.91.58-.67,1.41-.87c.33-.08.22.35.57.32.55,0,.5-.06.79-.44s-.49-.15-.79-.28c.07-.21.37-.07.63-.06.43,0,.34.3.76.33.26,0,.42-.12.31-.31s-.59-.05-.69-.4.67-.06.7-.34-.14-.39-.55-.46-.4.55-.66.34c-.46-.38.33-.75-.24-1s-.4.17-.51.57.32.36.3.73c0,.11-.43.34-.51.24-.25-.3.22-.5-.13-.72s-.31-.06-.38.16a.73.73,0,0,0,0,.38.06.06,0,0,0-.07,0,.88.88,0,0,0-.64.34c-.11.18.26.24.1.39a4,4,0,0,1-1.12.74l-1.2.72c-.6.36-.39.78-1.12.89-.34,0,0-.49-.31-.55-.61-.11-.7-.17-1,.27s.3.4,0,.86-.59.4-1.24.79-.5.57-1.16,1-.8.23-1.46.62-.55.5-1.35.63c-.38.06-.23-.61-.5-.38-.56.49-.54.64-.17,1.24S70.32,102.52,71,102.31Zm10-7.86a2,2,0,0,1,.07.38S81,95,80.94,95,81,94.6,81,94.45Zm4.2-6.74a1.26,1.26,0,1,0-1.52-1.24A1.4,1.4,0,0,0,85.2,87.71ZM72.67,89.18a1.32,1.32,0,1,0-1.58-1.29A1.46,1.46,0,0,0,72.67,89.18ZM26.59,85.64a1.19,1.19,0,1,0-1.43-1.16A1.32,1.32,0,0,0,26.59,85.64Zm44.28,31.47c-.54-5.32-6-9.42-12.57-9.42h-.23c-6.56,0-12,4.09-12.57,9.42L43.29,139a2,2,0,0,0,.7,1.66,3,3,0,0,0,2,.71H70.42a3,3,0,0,0,2-.71,2,2,0,0,0,.7-1.66Zm43.69,11.58h0l-7.47-18h0L83.71,54.2h0L77.28,38.68h0l-9-21.77h0l-1.91-1L72.29,2a.15.15,0,0,0,0,0,.24.24,0,0,0,0,0,.2.2,0,0,0,0-.05.1.1,0,0,0,0,0h0l-1-1.59a.31.31,0,0,0-.26-.14L68.63,0a.34.34,0,0,0-.23.08l-.87.78h0v0l0,.06h0l-5,14-1.52-.26H55.5l-.29,0-5-11.32A.28.28,0,0,0,50,3.31L48.59,1.59a.33.33,0,0,0-.29-.11l-1,.09a.31.31,0,0,0-.23.13l-2,2.94v0h0v.05a.11.11,0,0,0,0,0,.16.16,0,0,0,0,0v.07h0l6,10.6-.31.05-2.7,1.38h0l-9,21.77h0L32.69,54.2h0L9.3,110.67h0l-3.17,7.65L0,133.11l15.59,8,27,4.62H73.79l27-4.62,15.59-8h0Zm-8.3-10.06,1.64.61,1.83.71a1.29,1.29,0,0,1,.81,1.85,1.89,1.89,0,0,1-2.27.66l-1.82-.7-2.07-.77-1.1-.77-.6,1.55-.42,1.56-.24,1.73-.5,1.71-.28,1.54,0,1.8-.48,1.89-1.26,3.69-3.46-2.41-2-1-1.5-1.52-1.41-1-1.79-.91L87.4,127.7l-1.61-1.28-1.52-1-.45,1.81-1.19,1.89-1,1.6L81,132.57l-1,1.79-.73,1.75h0a1.72,1.72,0,0,1-1.62.94,2.09,2.09,0,0,1-.55-.07A1.35,1.35,0,0,1,76,135.21l.8-1.9,1-1.71.62-1.89,1.14-1.87,1-1.56.45-1.85,1.89-3.93,3.46,2.71,1.69,1.13,1.52,1.22,1.64.95,2,1L95,128.85l1.29,1.3,1.32.63.24-.94,0-1.72.34-1.88.49-1.66.24-1.71.49-1.82.6-1.55.24-3.94,4.51,2Zm.31,10.83a2.25,2.25,0,0,1-2.6-1.33,1.7,1.7,0,0,1,1.21-2.3,2.25,2.25,0,0,1,2.6,1.33A1.7,1.7,0,0,1,106.57,129.47Zm-17.67,5.3c.22.25.24.25.46.5s.24.25.46.5a.2.2,0,0,1-.07.3,7.06,7.06,0,0,1-.64.32,4.32,4.32,0,0,1-.69.25,4.42,4.42,0,0,1-.74.15,7.3,7.3,0,0,1-.76,0,.23.23,0,0,1-.23-.23c0-.31,0-.31,0-.63s0-.31,0-.63.08-.32,0-.62a.64.64,0,0,0-.64.17,3.24,3.24,0,0,0-.44.48c-.13.16-.25.33-.38.52s-.23.35-.34.53a.28.28,0,0,1-.26.11.25.25,0,0,1-.23-.14c-.09-.22-.17-.43-.24-.64s-.13-.44-.18-.65a5.86,5.86,0,0,1-.15-.66,4.4,4.4,0,0,1,0-.66,3,3,0,0,1,.07-.67,2.12,2.12,0,0,1,.26-.63,1.91,1.91,0,0,1,.54-.5,2.46,2.46,0,0,1,.69-.34c.1,0,.13,0,.18-.07a2.44,2.44,0,0,1-.42-.62.84.84,0,0,1,0-.72,1,1,0,0,1,.67-.44,1.06,1.06,0,0,1,1.07.19c.46.09.62-.23,1,0s-.41.07-.54.31.19,0,.36,0c0,0,0,0,0,0s0,0,0,0c-.24.14-.3.1-.47.29a2.6,2.6,0,0,1,0,.49c.1,0,.11,0,.21-.06a2.85,2.85,0,0,1,.81-.08,2.59,2.59,0,0,1,.77.22,3,3,0,0,1,.67.38,3.91,3.91,0,0,1,.53.51,5.31,5.31,0,0,1,.43.57c.12.18.22.39.34.61s.23.39.33.61.17.41.25.63a.19.19,0,0,1-.1.22.29.29,0,0,1-.28,0c-.22-.1-.43-.2-.65-.29s-.48-.15-.69-.22a4.58,4.58,0,0,0-.7-.19c-.33,0-.57,0-.67.15C88.62,134.54,88.68,134.52,88.9,134.78ZM70.05,5.74A4.25,4.25,0,0,1,69.2,5a5,5,0,0,1-.85-1.94.33.33,0,0,1,.06-.22.15.15,0,0,1,.1-.05l.09.13.07.08.05,0a.34.34,0,0,0,.22.07.46.46,0,0,0,.14,0c.3-.08,1.63-.49,2.43-.75Zm.8-5.18.73,1.23-1.19.37-1,.32-.29.09L69,2.42a7.23,7.23,0,0,1,.62-.93c.19-.26.42-.65.63-1ZM68.75.49l1.12,0c-.2.29-.38.61-.55.84a9,9,0,0,0-.54.79c-.24-.38-.53-.85-.67-1.09Zm-.92,1.2.22.36.32.51a.44.44,0,0,0-.2.13.54.54,0,0,0-.11.36,5.07,5.07,0,0,0,.89,2.07,5.17,5.17,0,0,0,1,.87l-.59,1.37L69.06,7a20.4,20.4,0,0,1-2.19-2.71Zm-1.06,3a21.46,21.46,0,0,0,2.07,2.52c.15.16.28.32.41.49l-4.17,9.77-1,.13c.15-1.32.42-2.62.62-3.95a8.13,8.13,0,0,0,.09-1.21,7.58,7.58,0,0,0-.22-1.79Zm-2.34,6.5a7.12,7.12,0,0,1,.11,1.25,8,8,0,0,1-.09,1.18c-.2,1.34-.49,2.66-.63,4L62,17.84ZM51.68,8.26l3.93,8.83h-.08l-.3-.27a11.79,11.79,0,0,1-2.79-2.57,6.85,6.85,0,0,1-.83-2.68,9.41,9.41,0,0,1-.09-1.3A13.62,13.62,0,0,1,51.68,8.26ZM47.54,2.05,48.19,2l1.28,1.59-.64,1-.68.17h0a.89.89,0,0,0,0-.2c-.17-.8-.43-1.55-.67-2.32Zm-.31.46c.22.69.44,1.35.59,2.05a.83.83,0,0,1,0,.15.68.68,0,0,1,0,.08l-.57.13L47,5h0l-.78-.23-.4-.12ZM46,5.21l.07,0,.56.17.21.06a.82.82,0,0,0,.19,0l.19,0,.34-.07c-.26.28-.64.56-1,.87Zm.74,1.29A10.7,10.7,0,0,0,48,5.28L49.12,5a.3.3,0,0,0,.18-.12l.52-.8.26.57a9.07,9.07,0,0,1-.77,1.57c-.43.7-1.3,1-1.71,1.87Zm1.09,1.92,0-.07c.29-.85,1.22-1.17,1.76-2A8.79,8.79,0,0,0,50.24,5l1.22,2.73a14.73,14.73,0,0,0-.24,2.5,9.63,9.63,0,0,0,.09,1.33,7,7,0,0,0,.86,2.76A11.92,11.92,0,0,0,55,17l0,0-2.55-.33Zm2.63,10,.28-.14.13.07,4.67.8h5.39l4.67-.8.14-.07.28.15L74.9,39.9l-2.73,1.4L64.1,42.69l-.27,5.18-.51-5H54.18l-1.73,6.26.64-6.26L44.23,41.3,41.5,39.9ZM36,49.48l2.27-.95,2.37-.78,2.29-.7,4.26-1.47,1.05,3.18,1.43,1.17,1.2,1.85.57,1.49.23-.19,1.75-1.19L55,50.83l1.37-1.49,2.73-1.69L62.29,49l1.09,1.65,1.39.76,1.89,1,.06-.07,1-1.5L68.43,49l1.16-1.79,1.88-4,3.61,3.06L76,47.76l1.1.86,1.93.87L80.6,50.9a1.22,1.22,0,0,1-.15,2A2,2,0,0,1,78,52.74L76.9,51.68l-1.8-.81-1.83-1.42-.64-1-1,1.56-.68,1.93L69.6,53.88,67,56.77l-2.54-2.2-1.57-.86-2.09-1.14-1-1.49-.38-.16-.64.4-1.29,1.41L55.68,54,54,55.12l-2.71,2.32-2.87-2.71-.72-1.87-.82-1.26L45.21,50.2l-.27-.8-.72.25-2.31.71-2.18.72L37.6,52a1.91,1.91,0,0,1-2.3-.6A1.28,1.28,0,0,1,36,49.48Zm-1,5.93,4.46,2.29,1.39-4.86v5.1l10.44,1.79H65l11.84-2-1.45-5.05,2.4,4.57,3.51-1.8,9.43,22.76-.36-.07-.23.81-.72,1,0,1.2-.28.8-.12.31-.92-.76L86.85,81l-.79-.4-.86-.6-1.1-.59-2.54-1.13L80.4,80.52,80,81.66l-.14.82-.72.93-.06,1.12-.38.64,0,.08-.78-.69L77,83.87l-.81-.75-.87-.69-.67-.67-.73-.91-2.43-2-1.61,2.16-.74.72-.72.82-.79.83-.59.85-.65.66-.42.39-.4-.27-.62-1-1.25-.69L63,82.8l-.72-.71-.79-.84-1.89-1.57-2.32,1.4-.68.92-.83.6-.69.73-1,.59-.72.8L53,84.9l-.13-.17-.45-.94-.76-.85-.49-.68-.44-.87-1.6-2.26L46.67,81,46,81.8l-.74.55-.94.77-.71.78-.71.61-.08.06-.22-.79-.6-.92L41.56,82,41,81.26l-.36-.88L39.12,78.2l-2.36,1.37-1.21.57-.86.85-.58.4-1.17.35-.81.59-.18-.66L31.82,81l.24-.92-.18-1.17-.71-2.79-2.72,1.38-1,.15-1.31.39-.59.28ZM5.28,121.63l2.14-1.19,2-.85L11,118l4.63-2.5.93,4.22.06,1.91.29,1.75.39,1.86.25,1.88.24,1.45,1.15-1,2.29-.88,1.76-.87,1.76-1.23,2-.91,1.67-1.12,3.21-2L34,123.35l1.06,1.7,1,1.65.93,1.74.59,1.62,1.2,1.45.8,1.72,1.12,1.53.87,1.77a1.32,1.32,0,0,1-.95,1.81,2,2,0,0,1-.64.1,1.75,1.75,0,0,1-1.58-.87L37.58,136l-1.14-1.55-.76-1.64-1.27-1.54-.68-1.86-.83-1.54L32,126.27l-.92-1.49-.15-.17-.33.2-1.86,1.25-2,.9L25,128.15l-2.15,1.06-1.88.73-1.55,1.31-4.72,2.33-.25-4.26-.31-1.81-.24-1.83-.39-1.83-.32-1.95-.06-1.61-1.54,1.52-2.46,1-2,1.09h0a2,2,0,0,1-2.37-.36A1.24,1.24,0,0,1,5.28,121.63Zm23.52,12.7c0,.31,0,.31,0,.63s0,.31,0,.63a.25.25,0,0,1-.26.21c-.19,0-.46,0-.76,0a4.28,4.28,0,0,1-.74-.11,4.2,4.2,0,0,1-.71-.22,6.1,6.1,0,0,1-.64-.34.19.19,0,0,1,0-.29c.22-.25.21-.27.43-.52s.21-.26.43-.52.29-.22.44-.51c-.1-.15-.33-.2-.65-.16a4.57,4.57,0,0,0-.7.19c-.21.07-.44.15-.67.25l-.65.28a.31.31,0,0,1-.29,0,.19.19,0,0,1-.09-.22c.08-.22.16-.43.25-.63s.2-.42.3-.62a6.72,6.72,0,0,1,.34-.61,5.28,5.28,0,0,1,.43-.57,4.19,4.19,0,0,1,.52-.52,2.91,2.91,0,0,1,.66-.4,2.5,2.5,0,0,1,.79-.16,2.77,2.77,0,0,1,.81,0c.1,0,.1.06.2,0a2.07,2.07,0,0,1,.09-.71,1.06,1.06,0,0,1,.5-.59,1.21,1.21,0,0,1,.86-.05c.52.13.72.38.75.65.31.29.67.09.76.47s-.38-.13-.66,0,.16.08.31.16,0,0,0,.05,0,0,0,0c-.29,0-.31-.06-.59,0a3.07,3.07,0,0,1-.31.43c.07.06.11,0,.21.05a2.55,2.55,0,0,1,.72.31,1.86,1.86,0,0,1,.48.53,2,2,0,0,1,.29.62,2.92,2.92,0,0,1,.08.67,4.27,4.27,0,0,1,0,.67,6.42,6.42,0,0,1-.15.66c0,.21-.09.43-.16.65s-.15.41-.24.64a.25.25,0,0,1-.23.13.27.27,0,0,1-.26-.1c-.11-.18-.21-.37-.33-.54s-.29-.34-.42-.5a3.31,3.31,0,0,0-.44-.48.68.68,0,0,0-.66-.18A1.62,1.62,0,0,0,28.8,134.33ZM11.47,128.5a2.12,2.12,0,0,1-2.42,1.13,1.48,1.48,0,0,1-.67-2.21,2.13,2.13,0,0,1,2.42-1.14A1.49,1.49,0,0,1,11.47,128.5ZM99.76,139l-26.25,4.49H42.89L16.64,139,3.28,132.16l.93-2.25,12.73,6.54,24.47,4.19,1.95-19.13L23.82,118l-2.93,4.63,1.42-4.93-10.66-5.75L24.14,81.8l.39-.12,1-.5,1-.3,1-.47.81-.24.53-.08-.23.89.24,1.17.24.88.15.93L30,86.27l2.91-1,1.07-.79.64-.47,1.12-.33,1.23-.84.68-.68.38-.18.15.37.6.85.45.82.46.7.28,1,.69.81,1.07,2.86L44.27,87l.85-.63.92-.78.7-.77.72-.6.95-.7.61.85.62.69.4.83.66.89,1.37,2,2.31-1.46,1.17-.68.72-.8,1-.57.79-.84,1-.7.32-.44.44.47.85.84,1,.84.84.47.56.87,1.05.7,2.07,2.41L68,87.26l.73-.66.87-.87.61-.87.69-.72.69-.78.3-.29.17.22.89.89.9.72.82.76.91.71.76.67.82.84,3.07,2.19.71-3,.51-.75.69-1.18.06-1,.65-.82.2-1.2.06-.17.15.08.89.63,1.17.59.89.33.67.55,1,.71,3.14,1.53.7-2.82.36-.92.22-.63,12.38,29.88L95.3,117l.45,6.91L94,117.74l-21,3.77L75,140.64l24.48-4.19,12.73-6.54.93,2.25Zm-66-73.61c.18,0,.44.09.76.12s.49,0,.78,0,.5.05.77.06.51,0,.78,0,.51,0,.78,0,.52,0,.79,0,.5-.12.76-.15.5-.09.76-.14l.76-.15c.26-.06.54,0,.79-.09s.49-.16.73-.23.47-.19.7-.28l.7-.28c.24-.1.43-.25.65-.36s.51-.16.71-.27.42-.27.62-.39.41-.3.59-.41.52-.24.66-.34a.19.19,0,0,0,0-.18s-.12,0-.18,0a7,7,0,0,0-.75-.19c-.23,0-.5,0-.78,0s-.5-.12-.77-.13-.51,0-.78,0-.51,0-.78,0c-.05,0-.05,0-.06,0h-.1a1.66,1.66,0,0,0-.38-.62,2.3,2.3,0,0,0-.63-.48,3.14,3.14,0,0,0-.78-.32,3.86,3.86,0,0,0-.88-.12,4.24,4.24,0,0,0-.87.14,3.81,3.81,0,0,0-.79.3,3.48,3.48,0,0,0-.74.39,2.34,2.34,0,0,0-.44.62,1.91,1.91,0,0,0-.32.66,1.53,1.53,0,0,0,.1.71s-.06.05-.11.08c-.24.1-.44.24-.66.35s-.43.25-.64.37-.48.2-.68.31-.43.28-.61.4-.41.34-.55.44-.11.06-.09.11A.17.17,0,0,0,33.81,65.41Zm7.84-2c-.19.08-.44.12-.7.2s-.42.23-.68.28-.52,0-.74.05-.5.15-.72.17a2,2,0,0,1-.69,0c.2,0,.4-.05.67-.08s.47,0,.72-.06l.7-.14c.25-.06.45-.19.68-.25l.69-.21a5.82,5.82,0,0,0,.69-.26A1.85,1.85,0,0,1,41.65,63.43Zm-2.45-.6c.21,0,.47,0,.53.17s-.14.32-.35.37-.47,0-.52-.18S39,62.88,39.2,62.83Zm1.31-.29c.21,0,.47,0,.53.16s-.14.32-.35.37-.47,0-.52-.17S40.3,62.59,40.51,62.54ZM41.84,62a.4.4,0,0,1,.44.28.31.31,0,0,1-.2.43.41.41,0,0,1-.45-.28A.31.31,0,0,1,41.84,62Zm-3.6.34c.22,0,.47,0,.72-.07s.43-.19.67-.24.51,0,.74-.09.45-.22.65-.29.5-.1.66-.18a1.75,1.75,0,0,1-.59.3c-.19.08-.45.12-.71.19l-.71.18c-.25.06-.47.18-.69.22s-.52.07-.74.08a2.27,2.27,0,0,1-.76-.09A5.69,5.69,0,0,0,38.24,62.35Zm-.39.61c.21,0,.46,0,.52.18s-.13.31-.34.36-.47,0-.53-.17S37.64,63,37.85,63ZM74.67,70.5c-.2-.16-.28-.1-.48-.26s-.13-.38-.42-.37-.29.17-.51.35-.09.29-.32.47-.35.08-.58.26a2.87,2.87,0,0,1-.44.35c-.23.15-.24.18-.26.44s.17.08.37.25l.4.33c.2.16,0,.3.31.29s.27,0,.49-.22l.46-.36c.22-.18.07-.3.3-.49s.43,0,.65-.2.38-.19.4-.45S74.87,70.67,74.67,70.5Zm-37,18a1.24,1.24,0,1,0-1.27-1.24A1.26,1.26,0,0,0,37.67,88.47Zm6.24,20.09c0,.13-.9.77-.36.84s.18-.47.73-.47-.37.69,0,.69-.16-.86.27-.95.22.55.65.67-.24-.49-.36-.92a11.11,11.11,0,0,1-.27-2.23A5.38,5.38,0,0,0,43.35,104c-.38-.4-.56-.24-1.15-.4,0,0,0,0,0,0-.4-.66-1.58-1-3.41-1.15-1.18-.12-1.21.07-2.39,0s-3.42.24-2.54-.41c1.21-.88,3.06,1.07,3.29-.24s-1.1-1.13-2.81-1.48-1.77-.18-3.59,0c-1.14.1-1.12.27-2.26.34,0,0-.23-.09-.23-.11a2.74,2.74,0,0,0-.19-1.76c.9-.21,2.45.48,3.53-.57.89-.87.81-1.22.61-2.34-.08-.43-.83-.62-1.21-.32-1,.76.1,1.56-1.14,2-1.67.59-1.84.08-3.64-.1a4.5,4.5,0,0,0-.87-.32c-.24,0-.43-.25-.67-.25-1.33-.24-1.61.29-2.54-.51-.76-.65,0-.79-.4-1.64-.13-.29-.32-.29-.47,0-.52,1-.78,1.09-.35,2.14.3.72,1.13.11,1.62.76a3.18,3.18,0,0,0-1.31,1.89l-.3-.08a17.47,17.47,0,0,0-.82,2.15c-.42.94-.72,1.81-.52,2.08a5,5,0,0,0,1.69,1.1,9.41,9.41,0,0,0,2,.77A16.13,16.13,0,0,0,26,103.33c.06.62.13,1.71.1,1.76s-1.2,1.95-1.21,2-1,1.57-1,1.6a2,2,0,0,0,.23,1.91c.51.64.79.78,1.63.44s.35-.56.5-1.18c.2-.82-.26-.9,0-1.7a4.81,4.81,0,0,1,.68-1.68c.25-.39.47-.39,1-.55.67-.22,1.06-.58,1.34,0a2.35,2.35,0,0,1-.38,2.26,3.32,3.32,0,0,1,0,1.44c-.26,1-1.17,1-.67,1.89.41.75.93.7,1.87.4.66-.21.14-.54.34-1.09s.35-.41.47-.88-.27-.54,0-1c.54-.93.31-1.23,1.53-1.49,1.67-.36,2-.5,3.4.35.66.41-.93.2-1.46.72a1.33,1.33,0,0,0-.6,1.18c-.17,1.33-.71,1.44-.09,2.68.35.71.84.67,1.72.39.65-.21,0-.47.11-1a6.47,6.47,0,0,1,.35-1.85c.22-.61.31-.58,1-.94s.82-.63,1.2-.2c.68.78,0,.95.08,1.9,0,1.34-.48,1.39.29,2.57.45.69.88.54,1.64.07s.21-.57.3-1.2c.11-.8,0-.81.2-1.6s-.1-.84.17-1.62c.38-1.08.67-1,1.12-2.07.37-.88.13-1,.26-1.9.12-.16.39,0,.54.17.65.61.84.56,1.12,1.34A4.29,4.29,0,0,1,43.91,108.56ZM79.8,65.67c.2.16.28.1.49.26s.14.38.42.37.29-.17.51-.35a1.14,1.14,0,0,1,.32-.47c.22-.18.35-.08.58-.26a3,3,0,0,1,.44-.35c.23-.15.24-.18.26-.44s-.17-.08-.37-.25l-.4-.33c-.2-.17,0-.3-.31-.29s-.27,0-.49.22l-.46.36c-.22.18-.07.3-.3.48s-.43,0-.65.2-.38.19-.4.45S79.6,65.5,79.8,65.67ZM77,64.9c.28,0,.28-.09.57-.09s.42.19.62,0,.06-.29.06-.54S78,64,78,63.77s.18-.26.18-.51a2.1,2.1,0,0,1,0-.5c0-.24,0-.27-.2-.46s-.19,0-.48,0H77c-.29,0-.28-.2-.47,0s-.16.18-.16.43,0,.26,0,.51.21.26.21.51-.29.26-.29.51-.11.36.11.55S76.67,64.9,77,64.9Zm5,2.4a.58.58,0,0,0-.56.16c-.21.15,0,.15,0,.39s0,.23,0,.47-.24.23,0,.38.22.13.53.13h.63c.32,0,.32-.17.63-.17s.32.23.63.23.44.09.67-.08.09-.27.09-.5-.11-.23-.11-.46.23-.35,0-.5-.36,0-.67,0-.31.15-.63.15-.32-.15-.63-.15A4,4,0,0,1,81.93,67.3Zm.65,4c-.22-.18-.3-.12-.53-.3s-.19-.21-.42-.39-.2-.2-.42-.39S81,70,80.7,70s-.27,0-.47.21a2.28,2.28,0,0,1-.4.32c-.21.13-.23.16-.22.4s.19.11.41.29l.44.36.46.36c.22.18.09.29.31.48s.17.38.48.39.11-.3.31-.46.4,0,.6-.17S83,72,83,71.74,82.8,71.48,82.58,71.3ZM43.27,64.8,45,67l.17-.09-1.67-2.18Zm34.25,6.47c-.29,0-.29.1-.57.1s-.43-.19-.62,0-.06.29-.06.54.18.26.18.51-.18.26-.18.51a2.23,2.23,0,0,1,0,.51c0,.24,0,.27.2.46s.19,0,.48,0h.57c.29,0,.28.2.47,0s.16-.18.16-.43,0-.26,0-.51-.21-.26-.21-.51.29-.26.29-.52.11-.35-.11-.55S77.81,71.27,77.52,71.27ZM54,75.73a.42.42,0,0,0,.38-.07c.22-.21.45-.41.67-.6s.49-.4.72-.57a5.08,5.08,0,0,1,.79-.51.91.91,0,0,1,.92,0c0,.42-.13.4-.27.81s-.12.42-.26.82-.11.42-.25.83a.27.27,0,0,0,.2.36,9.93,9.93,0,0,0,1,.19,6.07,6.07,0,0,0,1,0,6.26,6.26,0,0,0,1-.14c.39-.08.74-.16,1-.24a.29.29,0,0,0,.21-.37c-.18-.4-.21-.39-.39-.78s-.21-.39-.39-.79-.27-.38-.34-.8c.19-.17.53-.16.94,0a5.53,5.53,0,0,1,.83.45c.25.15.55.29.81.48s.48.37.72.56a.4.4,0,0,0,.38,0,.29.29,0,0,0,.22-.25c0-.32,0-.62-.06-.9s-.11-.61-.17-.89-.1-.62-.18-.89a6.78,6.78,0,0,0-.32-.87,4.62,4.62,0,0,0-.48-.82,3.38,3.38,0,0,0-.72-.68,3.1,3.1,0,0,0-.92-.5,3.84,3.84,0,0,0-1.1-.12c-.15,0-.18.07-.3,0a3.58,3.58,0,0,0,.15-.65c.31-.2.36-.13.74-.25,0,0,0,0,0,0s0-.05,0-.06c-.23,0-.63.06-.48-.09s1.07,0,.84-.26-.67-.06-1.24-.32a1.32,1.32,0,0,0-1.32-.55,1.49,1.49,0,0,0-1.07.39,1.2,1.2,0,0,0-.3.94,2.93,2.93,0,0,0,.28.94c-.1.08-.13,0-.27,0a3.65,3.65,0,0,0-1,.25,3,3,0,0,0-.92.5,3.3,3.3,0,0,0-.62.75,4.46,4.46,0,0,0-.37.85,6.06,6.06,0,0,0-.22.89,8.34,8.34,0,0,0-.09.9c0,.28,0,.58,0,.9s0,.59,0,.9A.3.3,0,0,0,54,75.73ZM38.25,66.07l-.17,2.36.51.06-.24-2.38Zm32.41,2.82c.32,0,.32-.09.63-.09s.32,0,.63,0,.32,0,.63,0,.34,0,.58-.13.15-.18.15-.42a1.64,1.64,0,0,1,0-.45c0-.21,0-.25-.19-.4s-.23,0-.55,0H71.3c-.32,0-.32-.16-.63-.16s-.44-.17-.68,0,.18.27.18.51-.28.23-.28.46-.11.34.11.5S70.35,68.89,70.66,68.89Zm4.06-1.27c0,.16-.35.3-.35.47a2.08,2.08,0,0,0,.16.5,2,2,0,0,0,.14.5c.09.15.3.25.43.38a2.64,2.64,0,0,0,.41.38,3.13,3.13,0,0,0,.51.3c.18.07.44,0,.64,0s.38.2.59.2a3.7,3.7,0,0,0,.63-.05,3.17,3.17,0,0,0,.54-.27,2.56,2.56,0,0,0,.46-.32,2.41,2.41,0,0,0,.43-.33,2,2,0,0,0,.32-.4c.09-.15.31-.26.36-.42a2,2,0,0,0,0-.51,1.88,1.88,0,0,0,0-.51,2,2,0,0,0-.17-.49,2.48,2.48,0,0,0-.38-.41c-.13-.13-.4-.13-.56-.24s-.23-.31-.41-.38a3.59,3.59,0,0,0-.61-.06,3.21,3.21,0,0,0-.59,0,3,3,0,0,0-.58.06,3,3,0,0,0-.55.15,2.45,2.45,0,0,0-.48.26c-.16.1-.44.1-.56.23a2.34,2.34,0,0,0-.34.42C74.63,67.25,74.77,67.46,74.72,67.62Z"/></g></g></svg>