<?xml version="1.0" encoding="UTF-8"?><svg width="51" height="51" viewBox="0 0 51 51" xmlns="http://www.w3.org/2000/svg" xmlns:xlink="http://www.w3.org/1999/xlink"><svg width="30" height="30" viewBox="0 0 30 30" id="L1VzZXJzL2t1a2tvbWFoL3Byb2plY3RzL21vbnRhbmEtZnJvbnRlbmQvc3JjL21vZHVsZXMvc2lkZWJhcnMvc3ByaXRlLW1lbnUuc3Zn"><title>sprite-hamburger</title><g fill="#1D1C1B" fill-rule="evenodd"><rect width="30" height="6" rx="1"/><rect y="24" width="30" height="6" rx="1"/><rect y="12" width="30" height="6" rx="1"/></g></svg><svg width="21" height="21" viewBox="0 0 21 21" id="L1VzZXJzL2t1a2tvbWFoL3Byb2plY3RzL21vbnRhbmEtZnJvbnRlbmQvc3JjL21vZHVsZXMvc2lkZWJhcnMvc3ByaXRlLWNsb3NlLnN2Zw==" x="30"><title>sprite-close</title><path d="M10.5 7.12L4.08.7A2.388 2.388 0 0 0 .702.7 2.383 2.383 0 0 0 .7 4.078l6.42 6.422-6.42 6.422A2.383 2.383 0 0 0 .703 20.3a2.388 2.388 0 0 0 3.376.001L10.5 13.88l6.42 6.422a2.388 2.388 0 0 0 3.377-.001c.94-.94.934-2.446.002-3.378l-6.42-6.422 6.42-6.422A2.383 2.383 0 0 0 20.297.7 2.388 2.388 0 0 0 16.921.7L10.5 7.12z" fill="#1D1C1B" fill-rule="evenodd"/></svg><svg width="21" height="21" viewBox="0 0 21.25 21.25" id="L1VzZXJzL2t1a2tvbWFoL3Byb2plY3RzL21vbnRhbmEtZnJvbnRlbmQvc3JjL21vZHVsZXMvc2xpZGVyL3Nwcml0ZS1hcnJvdy1sZWZ0LnN2Zw==" y="30"><defs><style>.ccls-1{fill:#c6c6c7}.ccls-2{fill:none;stroke:#fff;stroke-miterlimit:10;stroke-width:2px}</style></defs><title>Ресурс 2</title><g id="cСлой_2" data-name="Слой 2"><g id="cСлой_1-2" data-name="Слой 1"><rect class="ccls-1" width="21.25" height="21.25" rx="10.62" ry="10.62"/><path class="ccls-2" d="M12.53 16.5l-5.88-5.88 5.88-5.87"/></g></g></svg><svg width="21" height="21" viewBox="0 0 21.25 21.25" id="L1VzZXJzL2t1a2tvbWFoL3Byb2plY3RzL21vbnRhbmEtZnJvbnRlbmQvc3JjL21vZHVsZXMvc2xpZGVyL3Nwcml0ZS1hcnJvdy1yaWdodC5zdmc=" x="21" y="30"><defs><style>.dcls-1{fill:#c6c6c7}.dcls-2{fill:none;stroke:#fff;stroke-miterlimit:10;stroke-width:2px}</style></defs><title>Ресурс 3</title><g id="dСлой_2" data-name="Слой 2"><g id="dСлой_1-2" data-name="Слой 1"><rect class="dcls-1" width="21.25" height="21.25" rx="10.62" ry="10.62" transform="rotate(-180 10.625 10.625)"/><path class="dcls-2" d="M8.72 4.75l5.88 5.87-5.88 5.88"/></g></g></svg></svg>