<?xml version="1.0" encoding="UTF-8"?><svg width="67" height="51" viewBox="0 0 67 51" xmlns="http://www.w3.org/2000/svg" xmlns:xlink="http://www.w3.org/1999/xlink"><svg width="16" height="12" viewBox="0 0 16 12" id="L1VzZXJzL2t1a2tvbWFoL3Byb2plY3RzL21vbnRhbmEtZnJvbnRlbmQvc3JjL21vZHVsZXMvaGVhZGVyL3Nwcml0ZS1tYWlsLnN2Zw==" x="51"><title>sprite-mail</title><g stroke="#1D1C1B" fill="none" fill-rule="evenodd"><rect x=".5" y=".5" width="15" height="11" rx="1"/><path d="M3 3l5 4M13 3L8 7" stroke-linecap="round"/></g></svg><svg width="15" height="15" viewBox="0 0 15 15" id="L1VzZXJzL2t1a2tvbWFoL3Byb2plY3RzL21vbnRhbmEtZnJvbnRlbmQvc3JjL21vZHVsZXMvaGVhZGVyL3Nwcml0ZS1waG9uZS5zdmc=" x="51" y="12"><title>sprite-phone</title><path d="M12.627 8.942c-.327-.34-.722-.521-1.14-.521-.416 0-.814.178-1.155.517L9.265 9.997c-.087-.047-.175-.091-.26-.135-.121-.06-.236-.117-.334-.178-.999-.632-1.907-1.455-2.777-2.52-.422-.53-.706-.978-.912-1.431.277-.252.534-.515.783-.767l.284-.285c.709-.706.709-1.62 0-2.325l-.922-.918a14.03 14.03 0 0 1-.314-.319A15.903 15.903 0 0 0 4.18.494C3.852.171 3.46 0 3.049 0c-.413 0-.81.171-1.148.494l-.007.007L.746 1.653c-.432.43-.678.955-.732 1.563-.081.98.21 1.895.432 2.493.547 1.468 1.364 2.83 2.582 4.288a15.874 15.874 0 0 0 5.289 4.123c.776.366 1.813.8 2.97.873.071.004.145.007.213.007.78 0 1.434-.279 1.947-.833.004-.007.01-.01.014-.017.175-.212.378-.403.59-.608.146-.138.294-.283.44-.434.333-.346.509-.75.509-1.162 0-.417-.179-.817-.52-1.153l-1.853-1.851zm1.209 3.538c-.004 0-.004.003 0 0-.132.141-.267.269-.412.41-.22.208-.442.427-.652.672-.34.363-.742.534-1.269.534-.05 0-.104 0-.155-.003-1.002-.064-1.934-.454-2.633-.787a14.984 14.984 0 0 1-4.982-3.884c-1.15-1.381-1.92-2.658-2.43-4.029C.99 4.556.875 3.905.925 3.29a1.54 1.54 0 0 1 .466-.998l1.151-1.146c.165-.155.34-.239.513-.239.213 0 .385.128.493.235l.01.01c.206.192.402.39.607.602l.321.326.922.917c.357.356.357.686 0 1.042-.098.097-.193.195-.29.289-.284.289-.554.558-.848.82-.007.007-.013.01-.017.017-.29.289-.236.57-.175.762l.01.03c.24.579.577 1.123 1.09 1.771l.003.004c.932 1.142 1.914 2.033 2.998 2.715.138.087.28.158.415.225.121.06.236.118.334.178l.04.024a.734.734 0 0 0 .335.084c.28 0 .455-.175.513-.232l1.154-1.15c.115-.114.297-.251.51-.251.209 0 .381.13.486.245l.006.007 1.86 1.851c.348.343.348.696.004 1.052z" fill-rule="nonzero" fill="#231300"/></svg><svg width="30" height="30" viewBox="0 0 30 30" id="L1VzZXJzL2t1a2tvbWFoL3Byb2plY3RzL21vbnRhbmEtZnJvbnRlbmQvc3JjL21vZHVsZXMvc2lkZWJhcnMvc3ByaXRlLW1lbnUuc3Zn"><title>sprite-hamburger</title><g fill="#1D1C1B" fill-rule="evenodd"><rect width="30" height="6" rx="1"/><rect y="24" width="30" height="6" rx="1"/><rect y="12" width="30" height="6" rx="1"/></g></svg><svg width="21" height="21" viewBox="0 0 21 21" id="L1VzZXJzL2t1a2tvbWFoL3Byb2plY3RzL21vbnRhbmEtZnJvbnRlbmQvc3JjL21vZHVsZXMvc2lkZWJhcnMvc3ByaXRlLWNsb3NlLnN2Zw==" x="30"><title>sprite-close</title><path d="M10.5 7.12L4.08.7A2.388 2.388 0 0 0 .702.7 2.383 2.383 0 0 0 .7 4.078l6.42 6.422-6.42 6.422A2.383 2.383 0 0 0 .703 20.3a2.388 2.388 0 0 0 3.376.001L10.5 13.88l6.42 6.422a2.388 2.388 0 0 0 3.377-.001c.94-.94.934-2.446.002-3.378l-6.42-6.422 6.42-6.422A2.383 2.383 0 0 0 20.297.7 2.388 2.388 0 0 0 16.921.7L10.5 7.12z" fill="#1D1C1B" fill-rule="evenodd"/></svg><svg width="21" height="21" viewBox="0 0 21.25 21.25" id="L1VzZXJzL2t1a2tvbWFoL3Byb2plY3RzL21vbnRhbmEtZnJvbnRlbmQvc3JjL21vZHVsZXMvc2xpZGVyL3Nwcml0ZS1hcnJvdy1sZWZ0LnN2Zw==" y="30"><defs><style>.ecls-1{fill:#c6c6c7}.ecls-2{fill:none;stroke:#fff;stroke-miterlimit:10;stroke-width:2px}</style></defs><title>Ресурс 2</title><g id="eСлой_2" data-name="Слой 2"><g id="eСлой_1-2" data-name="Слой 1"><rect class="ecls-1" width="21.25" height="21.25" rx="10.62" ry="10.62"/><path class="ecls-2" d="M12.53 16.5l-5.88-5.88 5.88-5.87"/></g></g></svg><svg width="21" height="21" viewBox="0 0 21.25 21.25" id="L1VzZXJzL2t1a2tvbWFoL3Byb2plY3RzL21vbnRhbmEtZnJvbnRlbmQvc3JjL21vZHVsZXMvc2xpZGVyL3Nwcml0ZS1hcnJvdy1yaWdodC5zdmc=" x="21" y="30"><defs><style>.fcls-1{fill:#c6c6c7}.fcls-2{fill:none;stroke:#fff;stroke-miterlimit:10;stroke-width:2px}</style></defs><title>Ресурс 3</title><g id="fСлой_2" data-name="Слой 2"><g id="fСлой_1-2" data-name="Слой 1"><rect class="fcls-1" width="21.25" height="21.25" rx="10.62" ry="10.62" transform="rotate(-180 10.625 10.625)"/><path class="fcls-2" d="M8.72 4.75l5.88 5.87-5.88 5.88"/></g></g></svg></svg>