<?xml version="1.0" encoding="UTF-8"?>
<svg width="15px" height="15px" viewBox="0 0 15 15" version="1.1" xmlns="http://www.w3.org/2000/svg" xmlns:xlink="http://www.w3.org/1999/xlink">
    <!-- Generator: Sketch 44.1 (41455) - http://www.bohemiancoding.com/sketch -->
    <title>sprite-phone</title>
    <desc>Created with Sketch.</desc>
    <defs></defs>
    <g id="Symbols" stroke="none" stroke-width="1" fill="none" fill-rule="evenodd">
        <g id="sprite-phone" fill-rule="nonzero" fill="#231300">
            <path d="M12.627199,8.94153226 C12.2997998,8.60215054 11.9048955,8.42069892 11.4863644,8.42069892 C11.0712086,8.42069892 10.6729291,8.59879032 10.3320288,8.93817204 L9.26544974,9.99663978 C9.17769323,9.94959677 9.08993672,9.90591398 9.00555546,9.86223118 C8.88404645,9.80174731 8.76928794,9.74462366 8.67140568,9.68413978 C7.67233159,9.05241935 6.76438926,8.22916667 5.89357468,7.16397849 C5.4716684,6.63306452 5.18814737,6.18615591 4.9822571,5.73252688 C5.25902763,5.48051075 5.51554665,5.21841398 5.76531517,4.96639785 C5.85982218,4.87231183 5.95432919,4.77486559 6.0488362,4.68077957 C6.75763876,3.97513441 6.75763876,3.06115591 6.0488362,2.35551075 L5.12739286,1.43817204 C5.02276011,1.33400538 4.9147521,1.22647849 4.81349459,1.11895161 C4.61097957,0.91061828 4.3983388,0.695564516 4.17894753,0.493951613 C3.85154825,0.171370968 3.46001921,0 3.04823868,0 C2.63645814,0 2.23817861,0.171370968 1.90065357,0.493951613 C1.89727832,0.497311828 1.89727832,0.497311828 1.89390307,0.500672043 L0.746317971,1.65322581 C0.314285933,2.08333333 0.0678926606,2.60752688 0.0138886557,3.21572581 C-0.0671173515,4.1969086 0.223154175,5.1108871 0.445920694,5.70900538 C0.992711244,7.17741935 1.80952182,8.53830645 3.02798718,9.99663978 C4.50634681,11.7540323 6.28510372,13.1418011 8.3170044,14.1196237 C9.09331197,14.4858871 10.1295138,14.9193548 11.2872247,14.9932796 C11.3581049,14.9966398 11.4323604,15 11.4998654,15 C12.2795483,15 12.9343468,14.7211022 13.4473849,14.1666667 C13.4507601,14.1599462 13.4575106,14.156586 13.4608859,14.1498656 C13.6363989,13.938172 13.8389139,13.7466398 14.0515547,13.5416667 C14.1966904,13.4038978 14.3452014,13.2594086 14.4903372,13.1081989 C14.824487,12.7620968 15,12.358871 15,11.9455645 C15,11.5288978 14.8211117,11.1290323 14.4802115,10.7930108 L12.627199,8.94153226 Z M13.8355386,12.4798387 C13.8321634,12.4798387 13.8321634,12.4831989 13.8355386,12.4798387 C13.7039039,12.6209677 13.5688939,12.7486559 13.4237581,12.8897849 C13.2043668,13.0981183 12.9816003,13.3165323 12.7723348,13.561828 C12.4314345,13.9247312 12.0297797,14.0961022 11.5032407,14.0961022 C11.4526119,14.0961022 11.3986079,14.0961022 11.3479792,14.0927419 C10.3455298,14.0288978 9.41396075,13.6391129 8.71528394,13.3064516 C6.80489226,12.3857527 5.12739286,11.078629 3.73341449,9.42204301 C2.58245414,8.04099462 1.81289707,6.7641129 1.30323427,5.39314516 C0.989335993,4.55645161 0.874577483,3.90456989 0.925206237,3.28965054 C0.958958741,2.89650538 1.110845,2.57056452 1.39099078,2.29166667 L2.54195113,1.14583333 C2.7073384,0.991263441 2.88285141,0.907258065 3.05498918,0.907258065 C3.26762995,0.907258065 3.43976771,1.03494624 3.54777572,1.14247312 C3.55115097,1.14583333 3.55452622,1.14919355 3.55790147,1.15255376 C3.76379174,1.34408602 3.95955626,1.54233871 4.16544653,1.75403226 C4.27007929,1.86155914 4.3780873,1.96908602 4.48609531,2.07997312 L5.40753864,2.99731183 C5.76531517,3.35349462 5.76531517,3.6827957 5.40753864,4.03897849 C5.30965638,4.13642473 5.21514937,4.23387097 5.11726711,4.32795699 C4.83374609,4.61693548 4.56372606,4.88575269 4.27007929,5.14784946 C4.26332879,5.15456989 4.25657829,5.15793011 4.25320304,5.16465054 C3.96293151,5.45362903 4.01693551,5.7358871 4.07769002,5.92741935 C4.08106527,5.9375 4.08444052,5.94758065 4.08781577,5.95766129 C4.32745854,6.53561828 4.66498357,7.07997312 5.17802162,7.72849462 L5.18139687,7.73185484 C6.11296595,8.87432796 7.09516379,9.76478495 8.17861914,10.4469086 C8.3170044,10.5342742 8.45876491,10.6048387 8.59377493,10.672043 C8.71528394,10.7325269 8.83004245,10.7896505 8.92792471,10.8501344 C8.94142571,10.8568548 8.95492671,10.8669355 8.96842771,10.8736559 C9.08318622,10.9307796 9.19119423,10.9576613 9.30257749,10.9576613 C9.58272326,10.9576613 9.75823628,10.7829301 9.81561553,10.7258065 L10.9699511,9.5766129 C11.0847096,9.46236559 11.2669732,9.32459677 11.4796139,9.32459677 C11.6888795,9.32459677 11.8610172,9.45564516 11.96565,9.56989247 C11.9690252,9.57325269 11.9690252,9.57325269 11.9724005,9.5766129 L13.8321634,11.4280914 C14.1798142,11.7708333 14.1798142,12.1236559 13.8355386,12.4798387 Z" id="Shape"></path>
        </g>
    </g>
</svg>